<?xml version="1.0" encoding="UTF-8"?>
<svg xmlns="http://www.w3.org/2000/svg" xmlns:xlink="http://www.w3.org/1999/xlink" width="16px" height="13px" viewBox="0 0 15 13" version="1.1">
<g id="surface1">
<path style=" stroke:none;fill-rule:nonzero;fill:rgb(100%,100%,100%);fill-opacity:1;" d="M 13.425781 3.269531 C 13.433594 3.40625 13.433594 3.546875 13.433594 3.683594 C 13.433594 7.9375 10.359375 12.839844 4.742188 12.839844 C 3.082031 12.839844 1.457031 12.339844 0.0585938 11.394531 C 0.300781 11.425781 0.542969 11.441406 0.789062 11.441406 C 2.164062 11.445312 3.5 10.957031 4.582031 10.0625 C 3.273438 10.035156 2.128906 9.136719 1.726562 7.828125 C 2.183594 7.921875 2.65625 7.902344 3.105469 7.773438 C 1.679688 7.46875 0.65625 6.148438 0.65625 4.617188 L 0.65625 4.578125 C 1.082031 4.824219 1.554688 4.964844 2.042969 4.980469 C 0.699219 4.035156 0.285156 2.152344 1.097656 0.683594 C 2.648438 2.691406 4.9375 3.914062 7.390625 4.042969 C 7.144531 2.925781 7.484375 1.753906 8.277344 0.96875 C 9.507812 -0.25 11.441406 -0.1875 12.597656 1.109375 C 13.28125 0.96875 13.9375 0.703125 14.539062 0.328125 C 14.308594 1.074219 13.832031 1.707031 13.195312 2.109375 C 13.800781 2.03125 14.390625 1.863281 14.949219 1.601562 C 14.539062 2.25 14.023438 2.8125 13.425781 3.269531 Z M 13.425781 3.269531 "/>
</g>
</svg>
