<svg width="171" height="192" viewBox="0 0 171 192" fill="none" xmlns="http://www.w3.org/2000/svg">
<path d="M156.672 40.2292L93.6745 4.24752C89.0399 1.6004 83.3533 1.59135 78.7103 4.22371L15.2401 40.208C10.4878 42.9023 7.55724 47.9495 7.57318 53.4124L7.81201 135.275C7.82732 140.524 10.5622 145.39 15.0381 148.132L78.2934 186.878C83.1427 189.848 89.2482 189.848 94.0975 186.878L157.31 148.158C161.813 145.4 164.552 140.493 164.536 135.213L164.297 53.3216C164.281 47.9074 161.373 42.9144 156.672 40.2292Z" fill="#82391D" stroke="#5D2B17" stroke-width="4.08872"/>
<g filter="url(#filter0_ii_181_12347)">
<path d="M79.5847 5.98653C83.5037 3.72391 88.3321 3.72391 92.251 5.98653L153.236 41.1963C157.155 43.4589 159.569 47.6404 159.569 52.1656V122.585C159.569 127.11 157.155 131.292 153.236 133.555L92.251 168.764C88.3321 171.027 83.5037 171.027 79.5847 168.764L18.5996 133.555C14.6807 131.292 12.2665 127.11 12.2665 122.585V52.1656C12.2665 47.6404 14.6807 43.4589 18.5996 41.1963L79.5847 5.98653Z" fill="#4E47A1"/>
<path d="M79.5847 5.98653C83.5037 3.72391 88.3321 3.72391 92.251 5.98653L153.236 41.1963C157.155 43.4589 159.569 47.6404 159.569 52.1656V122.585C159.569 127.11 157.155 131.292 153.236 133.555L92.251 168.764C88.3321 171.027 83.5037 171.027 79.5847 168.764L18.5996 133.555C14.6807 131.292 12.2665 127.11 12.2665 122.585V52.1656C12.2665 47.6404 14.6807 43.4589 18.5996 41.1963L79.5847 5.98653Z" fill="url(#paint0_linear_181_12347)"/>
</g>
<g filter="url(#filter1_i_181_12347)">
<path d="M79.8572 33.7893C83.7762 31.5266 88.6046 31.5266 92.5235 33.7893L132.499 56.8692C136.418 59.1318 138.832 63.3133 138.832 67.8385V113.998C138.832 118.524 136.418 122.705 132.499 124.968L92.5235 148.048C88.6046 150.31 83.7762 150.31 79.8572 148.048L39.8817 124.968C35.9627 122.705 33.5485 118.524 33.5485 113.998V67.8385C33.5485 63.3133 35.9627 59.1318 39.8817 56.8692L79.8572 33.7893Z" fill="#A54B27"/>
</g>
<ellipse cx="74.711" cy="20.6893" rx="9.89741" ry="5.14143" transform="rotate(-29.6591 74.711 20.6893)" fill="#FFF7D9"/>
<mask id="path-5-outside-1_181_12347" maskUnits="userSpaceOnUse" x="43.6182" y="44.2314" width="85" height="87" fill="black">
<rect fill="white" x="43.6182" y="44.2314" width="85" height="87"/>
<path fill-rule="evenodd" clip-rule="evenodd" d="M88.4696 48.4265C87.3717 46.8331 85.0181 46.8331 83.9202 48.4265L78.4865 56.3122L71.3303 66.6977C70.9729 67.2164 70.449 67.5974 69.8455 67.7775L57.7681 71.3813L48.5923 74.1193C46.85 74.6392 46.1037 76.6479 46.998 78.163C46.8894 78.459 46.8299 78.7795 46.8299 79.1152V81.5059C46.8299 82.6938 47.2128 83.8501 47.9217 84.8032L60.6816 101.958C60.8704 102.212 61.0128 102.495 61.1048 102.793L60.9178 110.442L60.6835 120.023C60.6758 120.336 60.7193 120.634 60.8052 120.912L60.6834 125.89C60.6362 127.824 62.5395 129.206 64.3636 128.563L73.3902 125.38L85.2763 121.19C85.8707 120.98 86.519 120.98 87.1134 121.19L98.9995 125.38L108.026 128.563C109.85 129.206 111.754 127.824 111.706 125.89L111.585 120.912C111.671 120.634 111.714 120.336 111.706 120.023L111.472 110.442L111.285 102.795C111.377 102.496 111.521 102.212 111.711 101.957L124.808 84.4032C125.52 83.4489 125.905 82.29 125.905 81.0993V79.1048C125.905 78.6279 125.785 78.1816 125.575 77.7926C126.161 76.3374 125.401 74.5978 123.798 74.1193L114.622 71.3813L102.544 67.7775C101.941 67.5974 101.417 67.2164 101.06 66.6977L93.9033 56.3122L88.4696 48.4265Z"/>
</mask>
<path fill-rule="evenodd" clip-rule="evenodd" d="M88.4696 48.4265C87.3717 46.8331 85.0181 46.8331 83.9202 48.4265L78.4865 56.3122L71.3303 66.6977C70.9729 67.2164 70.449 67.5974 69.8455 67.7775L57.7681 71.3813L48.5923 74.1193C46.85 74.6392 46.1037 76.6479 46.998 78.163C46.8894 78.459 46.8299 78.7795 46.8299 79.1152V81.5059C46.8299 82.6938 47.2128 83.8501 47.9217 84.8032L60.6816 101.958C60.8704 102.212 61.0128 102.495 61.1048 102.793L60.9178 110.442L60.6835 120.023C60.6758 120.336 60.7193 120.634 60.8052 120.912L60.6834 125.89C60.6362 127.824 62.5395 129.206 64.3636 128.563L73.3902 125.38L85.2763 121.19C85.8707 120.98 86.519 120.98 87.1134 121.19L98.9995 125.38L108.026 128.563C109.85 129.206 111.754 127.824 111.706 125.89L111.585 120.912C111.671 120.634 111.714 120.336 111.706 120.023L111.472 110.442L111.285 102.795C111.377 102.496 111.521 102.212 111.711 101.957L124.808 84.4032C125.52 83.4489 125.905 82.29 125.905 81.0993V79.1048C125.905 78.6279 125.785 78.1816 125.575 77.7926C126.161 76.3374 125.401 74.5978 123.798 74.1193L114.622 71.3813L102.544 67.7775C101.941 67.5974 101.417 67.2164 101.06 66.6977L93.9033 56.3122L88.4696 48.4265Z" fill="#EC845A"/>
<path d="M83.9202 48.4265L85.7158 49.6638L85.7158 49.6638L83.9202 48.4265ZM88.4696 48.4265L86.674 49.6638L86.674 49.6638L88.4696 48.4265ZM78.4865 56.3122L76.6909 55.0749L76.6909 55.0749L78.4865 56.3122ZM71.3303 66.6977L73.126 67.935L73.126 67.935L71.3303 66.6977ZM69.8455 67.7775L70.469 69.8671L70.469 69.8671L69.8455 67.7775ZM57.7681 71.3813L57.1446 69.2917L57.1446 69.2917L57.7681 71.3813ZM48.5923 74.1193L47.9688 72.0297L47.9688 72.0297L48.5923 74.1193ZM46.998 78.163L49.0452 78.9141L49.401 77.9442L48.8759 77.0546L46.998 78.163ZM47.9217 84.8032L46.172 86.1046L46.172 86.1046L47.9217 84.8032ZM60.6816 101.958L62.4313 100.657L62.4313 100.657L60.6816 101.958ZM61.1048 102.793L63.2848 102.846L63.2935 102.491L63.1886 102.15L61.1048 102.793ZM60.9178 110.442L58.7378 110.388L58.7378 110.388L60.9178 110.442ZM60.6835 120.023L62.8635 120.076L62.8635 120.076L60.6835 120.023ZM60.8052 120.912L62.9852 120.965L62.9939 120.609L62.8885 120.268L60.8052 120.912ZM60.6834 125.89L58.5034 125.837L58.5034 125.837L60.6834 125.89ZM64.3636 128.563L63.6385 126.506L63.6385 126.506L64.3636 128.563ZM73.3902 125.38L74.1153 127.437L74.1153 127.437L73.3902 125.38ZM85.2763 121.19L84.5512 119.133L84.5512 119.133L85.2763 121.19ZM87.1134 121.19L87.8385 119.133L87.8385 119.133L87.1134 121.19ZM98.9995 125.38L98.2744 127.437L98.2744 127.437L98.9995 125.38ZM108.026 128.563L107.301 130.619L107.301 130.619L108.026 128.563ZM111.706 125.89L113.886 125.837L113.886 125.837L111.706 125.89ZM111.585 120.912L109.501 120.268L109.396 120.609L109.405 120.966L111.585 120.912ZM111.706 120.023L113.886 119.97L113.886 119.97L111.706 120.023ZM111.472 110.442L113.652 110.388L113.652 110.388L111.472 110.442ZM111.285 102.795L109.201 102.152L109.096 102.492L109.105 102.848L111.285 102.795ZM111.711 101.957L109.963 100.653L109.963 100.653L111.711 101.957ZM124.808 84.4032L123.061 83.0992L123.061 83.0992L124.808 84.4032ZM125.575 77.7926L123.552 76.9777L123.169 77.9285L123.657 78.8301L125.575 77.7926ZM123.798 74.1193L123.174 76.2089L123.174 76.2089L123.798 74.1193ZM114.622 71.3813L113.998 73.4709L113.998 73.4709L114.622 71.3813ZM102.544 67.7775L103.168 65.6878L103.168 65.6878L102.544 67.7775ZM101.06 66.6977L99.2639 67.935L99.2639 67.935L101.06 66.6977ZM93.9033 56.3122L95.699 55.0749L95.699 55.0749L93.9033 56.3122ZM85.7158 49.6638C85.9471 49.3282 86.4428 49.3282 86.674 49.6638L90.2653 47.1892C88.3007 44.338 84.0892 44.338 82.1246 47.1892L85.7158 49.6638ZM80.2821 57.5495L85.7158 49.6638L82.1246 47.1892L76.6909 55.0749L80.2821 57.5495ZM73.126 67.935L80.2821 57.5495L76.6909 55.0749L69.5347 65.4605L73.126 67.935ZM70.469 69.8671C71.549 69.5448 72.4865 68.8631 73.126 67.935L69.5347 65.4605C69.4594 65.5697 69.3491 65.6499 69.2219 65.6879L70.469 69.8671ZM58.3916 73.4709L70.469 69.8671L69.2219 65.6879L57.1446 69.2917L58.3916 73.4709ZM49.2158 76.2089L58.3916 73.4709L57.1446 69.2917L47.9688 72.0297L49.2158 76.2089ZM48.8759 77.0546C48.6904 76.7403 48.8531 76.3171 49.2158 76.2089L47.9688 72.0297C44.8468 72.9612 43.517 76.5555 45.1201 79.2714L48.8759 77.0546ZM49.0106 79.1152C49.0106 79.0391 49.0237 78.9727 49.0452 78.9141L44.9508 77.4119C44.7551 77.9453 44.6493 78.5199 44.6493 79.1152H49.0106ZM49.0106 81.5059V79.1152H44.6493V81.5059H49.0106ZM49.6714 83.5018C49.2423 82.9248 49.0106 82.2249 49.0106 81.5059H44.6493C44.6493 83.1627 45.1832 84.7753 46.172 86.1046L49.6714 83.5018ZM62.4313 100.657L49.6714 83.5018L46.172 86.1046L58.9318 103.26L62.4313 100.657ZM63.1886 102.15C63.0241 101.617 62.7692 101.111 62.4313 100.657L58.9318 103.26C58.9716 103.313 59.0016 103.373 59.021 103.436L63.1886 102.15ZM63.0978 110.495L63.2848 102.846L58.9248 102.74L58.7378 110.388L63.0978 110.495ZM62.8635 120.076L63.0978 110.495L58.7378 110.388L58.5035 119.97L62.8635 120.076ZM62.8885 120.268C62.872 120.215 62.8617 120.152 62.8635 120.076L58.5035 119.97C58.49 120.52 58.5665 121.054 58.7218 121.556L62.8885 120.268ZM62.8634 125.943L62.9852 120.965L58.6252 120.859L58.5034 125.837L62.8634 125.943ZM63.6385 126.506C63.2543 126.642 62.8535 126.351 62.8634 125.943L58.5034 125.837C58.4188 129.297 61.8246 131.77 65.0887 130.619L63.6385 126.506ZM72.6651 123.324L63.6385 126.506L65.0887 130.619L74.1153 127.437L72.6651 123.324ZM84.5512 119.133L72.6651 123.324L74.1153 127.437L86.0014 123.246L84.5512 119.133ZM87.8385 119.133C86.7748 118.758 85.6149 118.758 84.5512 119.133L86.0014 123.246C86.1266 123.202 86.2631 123.202 86.3883 123.246L87.8385 119.133ZM99.7246 123.324L87.8385 119.133L86.3883 123.246L98.2744 127.437L99.7246 123.324ZM108.751 126.506L99.7246 123.324L98.2744 127.437L107.301 130.619L108.751 126.506ZM109.526 125.943C109.536 126.351 109.135 126.642 108.751 126.506L107.301 130.619C110.565 131.77 113.971 129.297 113.886 125.837L109.526 125.943ZM109.405 120.966L109.526 125.943L113.886 125.837L113.765 120.859L109.405 120.966ZM109.526 120.076C109.528 120.152 109.518 120.215 109.501 120.268L113.668 121.557C113.823 121.054 113.9 120.52 113.886 119.97L109.526 120.076ZM109.292 110.495L109.526 120.076L113.886 119.97L113.652 110.388L109.292 110.495ZM109.105 102.848L109.292 110.495L113.652 110.388L113.465 102.742L109.105 102.848ZM109.963 100.653C109.623 101.109 109.367 101.616 109.201 102.152L113.369 103.438C113.388 103.375 113.418 103.315 113.458 103.261L109.963 100.653ZM123.061 83.0992L109.963 100.653L113.458 103.261L126.556 85.7073L123.061 83.0992ZM123.724 81.0993C123.724 81.82 123.492 82.5215 123.061 83.0992L126.556 85.7073C127.549 84.3763 128.086 82.76 128.086 81.0993H123.724ZM123.724 79.1048V81.0993H128.086V79.1048H123.724ZM123.657 78.8301C123.699 78.9082 123.724 78.9988 123.724 79.1048H128.086C128.086 78.2569 127.871 77.455 127.493 76.7551L123.657 78.8301ZM123.174 76.2089C123.503 76.3071 123.676 76.671 123.552 76.9777L127.597 78.6075C128.646 76.0038 127.299 72.8884 124.421 72.0296L123.174 76.2089ZM113.998 73.4709L123.174 76.2089L124.421 72.0297L115.245 69.2917L113.998 73.4709ZM101.921 69.8671L113.998 73.4709L115.245 69.2917L103.168 65.6878L101.921 69.8671ZM99.2639 67.935C99.9034 68.8631 100.841 69.5448 101.921 69.8671L103.168 65.6878C103.041 65.6499 102.93 65.5697 102.855 65.4604L99.2639 67.935ZM92.1077 57.5495L99.2639 67.935L102.855 65.4605L95.699 55.0749L92.1077 57.5495ZM86.674 49.6638L92.1077 57.5495L95.699 55.0749L90.2653 47.1892L86.674 49.6638Z" fill="#5E2B17" mask="url(#path-5-outside-1_181_12347)"/>
<path d="M83.9201 54.2973C85.018 52.7039 87.3716 52.7039 88.4695 54.2973L93.9032 62.183L101.059 72.5686C101.417 73.0872 101.941 73.4682 102.544 73.6483L111.62 76.3565C113.601 76.9476 115.68 77.1375 117.735 76.9151L122.845 76.362C124.479 76.1852 125.905 77.4651 125.905 79.1084V81.1029C125.905 82.2937 125.52 83.4525 124.808 84.4069L111.711 101.961C111.341 102.457 111.148 103.062 111.163 103.681L111.472 116.312L111.706 125.894C111.753 127.827 109.85 129.21 108.026 128.567L98.9995 125.384L87.1133 121.193C86.5189 120.984 85.8707 120.984 85.2762 121.193L73.3901 125.384L64.3635 128.567C62.5394 129.21 60.6361 127.827 60.6834 125.894L60.9176 116.312L61.2266 103.678C61.2416 103.061 61.0498 102.457 60.6815 101.962L47.9216 84.8068C47.2127 83.8537 46.8298 82.6974 46.8298 81.5096V79.1189C46.8298 77.4718 48.2619 76.1907 49.8988 76.3735L54.6281 76.9015C56.7002 77.1329 58.7976 76.9449 60.7954 76.3487L69.8453 73.6483C70.4489 73.4682 70.9728 73.0872 71.3302 72.5686L78.4864 62.183L83.9201 54.2973Z" fill="#6B351F"/>
<path d="M83.9201 48.4262C85.0181 46.8328 87.3716 46.8328 88.4696 48.4262L93.9033 56.312L101.059 66.6975C101.417 67.2161 101.941 67.5971 102.544 67.7772L114.622 71.381L123.797 74.119C125.65 74.6717 126.376 76.9068 125.203 78.4429L119.386 86.0591L111.73 96.0826C111.348 96.5826 111.148 97.1979 111.164 97.8269L111.472 110.441L111.706 120.023C111.754 121.956 109.85 123.339 108.026 122.695L98.9995 119.513L87.1134 115.322C86.519 115.113 85.8707 115.113 85.2763 115.322L73.3902 119.513L64.3636 122.695C62.5395 123.339 60.6361 121.956 60.6834 120.023L60.9177 110.441L61.2261 97.8269C61.2415 97.1979 61.0417 96.5826 60.6599 96.0826L53.004 86.0591L47.1868 78.4429C46.0135 76.9068 46.74 74.6717 48.5922 74.119L57.768 71.381L69.8454 67.7772C70.449 67.5971 70.9729 67.2161 71.3302 66.6975L78.4864 56.312L83.9201 48.4262Z" fill="#EC845A"/>
<mask id="mask0_181_12347" style="mask-type:alpha" maskUnits="userSpaceOnUse" x="46" y="47" width="80" height="76">
<path d="M83.9201 48.4262C85.018 46.8328 87.3716 46.8328 88.4696 48.4262L93.9033 56.312L101.059 66.6975C101.417 67.2161 101.941 67.5971 102.544 67.7772L114.622 71.381L123.797 74.119C125.65 74.6717 126.376 76.9068 125.203 78.4429L119.386 86.0591L111.73 96.0826C111.348 96.5826 111.148 97.1979 111.164 97.8269L111.472 110.441L111.706 120.023C111.754 121.956 109.85 123.339 108.026 122.695L98.9995 119.513L87.1134 115.322C86.519 115.113 85.8707 115.113 85.2763 115.322L73.3902 119.513L64.3636 122.695C62.5395 123.339 60.6361 121.956 60.6834 120.023L60.9177 110.441L61.2261 97.8269C61.2415 97.1979 61.0417 96.5826 60.6598 96.0826L53.004 86.0591L47.1868 78.4429C46.0135 76.9068 46.74 74.6717 48.5922 74.119L57.768 71.381L69.8454 67.7772C70.449 67.5971 70.9729 67.2161 71.3302 66.6975L78.4864 56.312L83.9201 48.4262Z" fill="#FDDB18"/>
</mask>
<g mask="url(#mask0_181_12347)">
<path d="M86.4874 89.4959L44.9307 76.2592L86.2692 46.6787L86.4874 89.4959Z" fill="white"/>
<path d="M86.3676 89.4981L58.9158 126.101L44.9308 75.3405L86.3676 89.4981Z" fill="#CB653B"/>
<path d="M86.2811 89.5837L128.495 74.5629L113.819 126.877L86.2811 89.5837Z" fill="#CB653B"/>
<path d="M86.3677 89.498L113.474 126.25H58.7432L86.3677 89.498Z" fill="#A2401A"/>
</g>
<defs>
<filter id="filter0_ii_181_12347" x="12.2664" y="4.29004" width="147.303" height="166.171" filterUnits="userSpaceOnUse" color-interpolation-filters="sRGB">
<feFlood flood-opacity="0" result="BackgroundImageFix"/>
<feBlend mode="normal" in="SourceGraphic" in2="BackgroundImageFix" result="shape"/>
<feColorMatrix in="SourceAlpha" type="matrix" values="0 0 0 0 0 0 0 0 0 0 0 0 0 0 0 0 0 0 127 0" result="hardAlpha"/>
<feOffset dy="10.8568"/>
<feComposite in2="hardAlpha" operator="arithmetic" k2="-1" k3="1"/>
<feColorMatrix type="matrix" values="0 0 0 0 1 0 0 0 0 0.649772 0 0 0 0 0.508333 0 0 0 1 0"/>
<feBlend mode="normal" in2="shape" result="effect1_innerShadow_181_12347"/>
<feColorMatrix in="SourceAlpha" type="matrix" values="0 0 0 0 0 0 0 0 0 0 0 0 0 0 0 0 0 0 127 0" result="hardAlpha"/>
<feOffset dy="-41.6179"/>
<feComposite in2="hardAlpha" operator="arithmetic" k2="-1" k3="1"/>
<feColorMatrix type="matrix" values="0 0 0 0 0.615686 0 0 0 0 0.286275 0 0 0 0 0.152941 0 0 0 0.4 0"/>
<feBlend mode="normal" in2="effect1_innerShadow_181_12347" result="effect2_innerShadow_181_12347"/>
</filter>
<filter id="filter1_i_181_12347" x="33.5486" y="32.0928" width="105.284" height="117.651" filterUnits="userSpaceOnUse" color-interpolation-filters="sRGB">
<feFlood flood-opacity="0" result="BackgroundImageFix"/>
<feBlend mode="normal" in="SourceGraphic" in2="BackgroundImageFix" result="shape"/>
<feColorMatrix in="SourceAlpha" type="matrix" values="0 0 0 0 0 0 0 0 0 0 0 0 0 0 0 0 0 0 127 0" result="hardAlpha"/>
<feOffset dy="5.45162"/>
<feComposite in2="hardAlpha" operator="arithmetic" k2="-1" k3="1"/>
<feColorMatrix type="matrix" values="0 0 0 0 0.420833 0 0 0 0 0.207276 0 0 0 0 0.122743 0 0 0 1 0"/>
<feBlend mode="normal" in2="shape" result="effect1_innerShadow_181_12347"/>
</filter>
<linearGradient id="paint0_linear_181_12347" x1="-66.4643" y1="-119.143" x2="91.3985" y2="208.872" gradientUnits="userSpaceOnUse">
<stop stop-color="#FFB89B"/>
<stop offset="1" stop-color="#CE5E32"/>
</linearGradient>
</defs>
</svg>
