<svg width="284" height="221" viewBox="0 0 284 221" fill="none" xmlns="http://www.w3.org/2000/svg">
<g filter="url(#filter0_i_606_6941)">
<path fill-rule="evenodd" clip-rule="evenodd" d="M221.515 79.1031L274.305 38.9371C276.283 37.4321 279.418 38.6292 279.418 40.8896V73.3545C279.418 73.3884 279.418 73.4222 279.418 73.4561V81.9893C279.418 91.7 272.718 100.502 262.316 104.456L224.809 118.716C222.779 119.488 220.49 118.221 220.49 116.326V89.6904C220.49 89.6794 220.49 89.6684 220.49 89.6573V81.0556C220.49 80.3099 220.863 79.5996 221.515 79.1031ZM222.287 123.716L257.582 110.007C259.615 109.218 261.924 110.485 261.924 112.389V126.145C261.924 126.174 261.924 126.202 261.923 126.23V134.78C261.923 143.682 253.756 151.029 243.33 151.505L223.723 152.399C221.966 152.479 220.49 151.286 220.49 149.786V134.732C220.49 134.721 220.49 134.71 220.49 134.699V126.097C220.49 125.072 221.192 124.141 222.287 123.716Z" fill="#7886FF"/>
</g>
<path d="M274.305 38.9371L272.087 36.0214L272.087 36.0214L274.305 38.9371ZM221.515 79.1031L223.734 82.0188L223.734 82.0187L221.515 79.1031ZM279.418 73.4561L275.754 73.4383L275.754 73.4472V73.4561H279.418ZM262.316 104.456L261.014 101.032L261.014 101.032L262.316 104.456ZM224.809 118.716L226.111 122.141L226.111 122.141L224.809 118.716ZM220.49 89.6573L224.153 89.7115L224.153 89.6844V89.6573H220.49ZM257.582 110.007L258.909 113.423L258.909 113.423L257.582 110.007ZM222.287 123.716L223.613 127.131L223.613 127.131L222.287 123.716ZM261.923 126.23L258.26 126.208L258.26 126.219V126.23H261.923ZM243.33 151.505L243.497 155.165L243.497 155.165L243.33 151.505ZM223.723 152.399L223.556 148.739L223.556 148.739L223.723 152.399ZM220.49 134.699L224.153 134.753L224.153 134.726V134.699H220.49ZM272.087 36.0214L219.297 76.1874L223.734 82.0187L276.524 41.8528L272.087 36.0214ZM283.082 40.8896C283.082 37.8412 280.947 35.8565 278.911 35.0787C276.864 34.2969 274.219 34.3989 272.087 36.0214L276.524 41.8528C276.451 41.9085 276.38 41.9266 276.347 41.9303C276.325 41.9327 276.315 41.9311 276.296 41.9239C276.282 41.9184 276.169 41.8734 276.035 41.7059C275.881 41.5127 275.754 41.2168 275.754 40.8896H283.082ZM283.082 73.3545V40.8896H275.754V73.3545H283.082ZM283.081 73.4738C283.082 73.4339 283.082 73.3942 283.082 73.3545H275.754C275.754 73.3826 275.754 73.4105 275.754 73.4383L283.081 73.4738ZM283.082 81.9893V73.4561H275.754V81.9893H283.082ZM263.618 107.881C275.173 103.488 283.082 93.4897 283.082 81.9893H275.754C275.754 89.9102 270.263 97.5157 261.014 101.032L263.618 107.881ZM226.111 122.141L263.618 107.881L261.014 101.032L223.507 115.291L226.111 122.141ZM216.826 116.326C216.826 118.881 218.384 120.769 220.114 121.727C221.843 122.684 224.046 122.926 226.111 122.141L223.507 115.291C223.541 115.278 223.585 115.273 223.662 115.315C223.71 115.342 223.824 115.418 223.937 115.589C224.059 115.775 224.153 116.036 224.153 116.326H216.826ZM216.826 89.6904V116.326H224.153V89.6904H216.826ZM216.826 89.6032C216.826 89.6322 216.826 89.6613 216.826 89.6904H224.153C224.153 89.6974 224.153 89.7045 224.153 89.7115L216.826 89.6032ZM216.826 81.0556V89.6573H224.153V81.0556H216.826ZM219.297 76.1874C217.838 77.2973 216.826 79.0405 216.826 81.0556H224.153C224.153 81.5792 223.888 81.9018 223.734 82.0188L219.297 76.1874ZM256.256 106.592L220.96 120.301L223.613 127.131L258.909 113.423L256.256 106.592ZM265.587 112.389C265.587 109.821 264.015 107.93 262.277 106.976C260.539 106.023 258.325 105.789 256.256 106.592L258.909 113.423C258.872 113.437 258.828 113.442 258.753 113.4C258.705 113.374 258.592 113.299 258.478 113.128C258.355 112.942 258.26 112.68 258.26 112.389H265.587ZM265.587 126.145V112.389H258.26V126.145H265.587ZM265.587 126.251C265.587 126.216 265.587 126.18 265.587 126.145H258.26C258.26 126.167 258.26 126.188 258.26 126.208L265.587 126.251ZM265.587 134.78V126.23H258.26V134.78H265.587ZM243.497 155.165C255.349 154.624 265.587 146.131 265.587 134.78H258.26C258.26 141.233 252.163 147.434 243.163 147.845L243.497 155.165ZM223.89 156.059L243.497 155.165L243.163 147.845L223.556 148.739L223.89 156.059ZM216.826 149.786C216.826 153.937 220.654 156.206 223.89 156.059L223.556 148.739C223.541 148.74 223.619 148.729 223.75 148.836C223.889 148.948 224.153 149.269 224.153 149.786H216.826ZM216.826 134.732V149.786H224.153V134.732H216.826ZM216.826 134.645C216.826 134.674 216.826 134.703 216.826 134.732H224.153C224.153 134.739 224.153 134.746 224.153 134.753L216.826 134.645ZM216.826 126.097V134.699H224.153V126.097H216.826ZM220.96 120.301C218.72 121.171 216.826 123.296 216.826 126.097H224.153C224.153 126.848 223.664 127.111 223.613 127.131L220.96 120.301Z" fill="#352E88"/>
<g filter="url(#filter1_i_606_6941)">
<path fill-rule="evenodd" clip-rule="evenodd" d="M244.183 151.597L223.576 153.108C221.83 153.236 220.489 154.482 220.489 155.976V161.212V168.775V174.01C220.489 175.6 222.001 176.888 223.865 176.888H231.168C237.779 176.888 244.186 173.028 245.963 167.598L247.958 154.121C247.915 154.125 247.872 154.129 247.829 154.133C247.629 152.652 246.075 151.458 244.183 151.597Z" fill="#7886FF"/>
</g>
<path d="M223.576 153.108L223.308 149.454L223.308 149.454L223.576 153.108ZM244.183 151.597L243.915 147.943L244.183 151.597ZM245.963 167.598L249.445 168.738L249.542 168.442L249.587 168.135L245.963 167.598ZM247.958 154.121L251.582 154.658L252.264 150.051L247.627 150.472L247.958 154.121ZM247.829 154.133L244.198 154.624L244.671 158.12L248.183 157.78L247.829 154.133ZM247.958 154.119L251.582 154.654L252.262 150.049L247.626 150.47L247.958 154.119ZM223.844 156.762L244.451 155.251L243.915 147.943L223.308 149.454L223.844 156.762ZM224.153 155.976C224.153 156.374 223.967 156.626 223.871 156.714C223.784 156.795 223.758 156.769 223.844 156.762L223.308 149.454C220.154 149.686 216.825 152.094 216.825 155.976H224.153ZM224.153 161.212V155.976H216.825V161.212H224.153ZM216.825 161.212V168.775H224.153V161.212H216.825ZM216.825 168.775V174.01H224.153V168.775H216.825ZM216.825 174.01C216.825 178.149 220.547 180.552 223.865 180.552V173.225C223.768 173.225 223.776 173.19 223.855 173.257C223.942 173.332 224.153 173.585 224.153 174.01H216.825ZM223.865 180.552H231.168V173.225H223.865V180.552ZM231.168 180.552C238.908 180.552 247.047 176.066 249.445 168.738L242.481 166.459C241.325 169.99 236.651 173.225 231.168 173.225V180.552ZM249.587 168.135L251.582 154.658L244.334 153.585L242.339 167.062L249.587 168.135ZM247.627 150.472C247.576 150.477 247.526 150.482 247.475 150.487L248.183 157.78C248.218 157.776 248.254 157.773 248.29 157.77L247.627 150.472ZM244.451 155.251C244.556 155.243 244.564 155.277 244.505 155.235C244.458 155.201 244.252 155.023 244.198 154.624L251.46 153.642C250.948 149.86 247.329 147.693 243.915 147.943L244.451 155.251ZM248.182 157.778C248.218 157.774 248.253 157.771 248.289 157.768L247.626 150.47C247.576 150.475 247.525 150.48 247.475 150.485L248.182 157.778ZM244.333 153.584L244.333 153.586L251.582 154.656L251.582 154.654L244.333 153.584Z" fill="#352E88"/>
<path d="M274.305 47.5718L221.515 87.7378C220.862 88.2343 220.489 88.9446 220.489 89.6904V116.326C220.489 118.221 222.778 119.488 224.808 118.716L262.316 104.456C272.718 100.502 279.418 91.7 279.418 81.9893V49.5244C279.418 47.264 276.283 46.0668 274.305 47.5718Z" fill="#4452CD"/>
<path d="M257.582 114.979L222.286 128.687C221.192 129.112 220.489 130.043 220.489 131.069V146.122C220.489 147.622 221.965 150.124 223.722 150.044L243.33 149.149C253.755 148.674 261.923 140.019 261.923 131.116V117.36C261.923 115.456 259.614 114.189 257.582 114.979Z" fill="#4452CD"/>
<path d="M240.439 156.079L223.576 158.339C221.83 158.467 220.489 159.713 220.489 161.207V174.005C220.489 175.595 222.001 176.884 223.865 176.884H231.168C237.78 176.884 244.186 173.023 245.963 167.594L247.958 154.117C243.637 154.509 242.786 155.907 240.439 156.079Z" fill="#4452CD"/>
<path d="M274.305 47.5718L221.515 87.7378C220.862 88.2343 220.489 88.9446 220.489 89.6904V116.326C220.489 118.221 222.778 119.488 224.808 118.716L262.316 104.456C272.718 100.502 279.418 91.7 279.418 81.9893V49.5244C279.418 47.264 276.283 46.0668 274.305 47.5718Z" stroke="black"/>
<path d="M257.582 114.979L222.286 128.687C221.192 129.112 220.489 130.043 220.489 131.069V146.122C220.489 147.622 221.965 150.124 223.722 150.044L243.33 149.149C253.755 148.674 261.923 140.019 261.923 131.116V117.36C261.923 115.456 259.614 114.189 257.582 114.979Z" stroke="black"/>
<path d="M240.439 156.079L223.576 158.339C221.83 158.467 220.489 159.713 220.489 161.207V174.005C220.489 175.595 222.001 176.884 223.865 176.884H231.168C237.78 176.884 244.186 173.023 245.963 167.594L247.958 154.117C243.637 154.509 242.786 155.907 240.439 156.079Z" stroke="black"/>
<g filter="url(#filter2_i_606_6941)">
<path d="M274.305 38.9371L221.515 79.103C220.862 79.5996 220.489 80.3099 220.489 81.0556V107.691C220.489 109.586 222.778 110.853 224.808 110.081L262.316 95.8216C272.718 91.8671 279.418 83.0652 279.418 73.3545V40.8896C279.418 38.6292 276.283 37.4321 274.305 38.9371Z" fill="#7886FF"/>
<path d="M257.582 110.007L222.286 123.716C221.192 124.141 220.489 125.072 220.489 126.097V141.151C220.489 142.651 221.965 143.844 223.722 143.764L243.33 142.87C253.755 142.394 261.923 135.048 261.923 126.145V112.389C261.923 110.485 259.614 109.218 257.582 110.007Z" fill="#7886FF"/>
<path d="M244.183 151.595L223.576 153.106C221.83 153.234 220.489 154.48 220.489 155.974V168.772C220.489 170.362 222.001 171.651 223.865 171.651H231.168C237.78 171.651 243.581 167.896 245.358 162.466L247.724 155.236C248.358 153.302 246.531 151.423 244.183 151.595Z" fill="#7886FF"/>
<path d="M274.305 38.9371L221.515 79.103C220.862 79.5996 220.489 80.3099 220.489 81.0556V107.691C220.489 109.586 222.778 110.853 224.808 110.081L262.316 95.8216C272.718 91.8671 279.418 83.0652 279.418 73.3545V40.8896C279.418 38.6292 276.283 37.4321 274.305 38.9371Z" stroke="black"/>
<path d="M257.582 110.007L222.286 123.716C221.192 124.141 220.489 125.072 220.489 126.097V141.151C220.489 142.651 221.965 143.844 223.722 143.764L243.33 142.87C253.755 142.394 261.923 135.048 261.923 126.145V112.389C261.923 110.485 259.614 109.218 257.582 110.007Z" stroke="black"/>
<path d="M244.183 151.595L223.576 153.106C221.83 153.234 220.489 154.48 220.489 155.974V168.772C220.489 170.362 222.001 171.651 223.865 171.651H231.168C237.78 171.651 243.581 167.896 245.358 162.466L247.724 155.236C248.358 153.302 246.531 151.423 244.183 151.595Z" stroke="black"/>
</g>
<g filter="url(#filter3_i_606_6941)">
<path fill-rule="evenodd" clip-rule="evenodd" d="M62.9318 79.1031L10.1419 38.9371C8.16386 37.4321 5.02921 38.6292 5.02921 40.8896V49.5244V73.3545V81.9893C5.02921 91.7 11.7291 100.502 22.1307 104.456L59.6385 118.716C61.6684 119.488 63.9575 118.221 63.9575 116.326V107.691V89.6904V81.0556C63.9575 80.3099 63.5844 79.5996 62.9318 79.1031ZM62.1606 123.716L26.865 110.007C24.8327 109.218 22.5235 110.485 22.5235 112.389V121.024V126.145V134.78C22.5235 143.682 30.6913 151.029 41.1171 151.505L60.7244 152.399C62.4814 152.479 63.9575 151.286 63.9575 149.786V141.151V134.732V126.097C63.9575 125.072 63.2551 124.141 62.1606 123.716Z" fill="#7886FF"/>
</g>
<path d="M10.1419 38.9371L12.3603 36.0214L12.3603 36.0214L10.1419 38.9371ZM62.9318 79.1031L60.7134 82.0188L60.7134 82.0187L62.9318 79.1031ZM22.1307 104.456L23.4327 101.032L23.4327 101.032L22.1307 104.456ZM59.6385 118.716L58.3365 122.141L58.3365 122.141L59.6385 118.716ZM26.865 110.007L25.5386 113.423L25.5386 113.423L26.865 110.007ZM62.1606 123.716L60.8342 127.131L60.8342 127.131L62.1606 123.716ZM41.1171 151.505L40.9502 155.165L40.9502 155.165L41.1171 151.505ZM60.7244 152.399L60.8913 148.739L60.8913 148.739L60.7244 152.399ZM12.3603 36.0214L65.1503 76.1874L60.7134 82.0187L7.92343 41.8528L12.3603 36.0214ZM1.36549 40.8896C1.36549 37.8412 3.50003 35.8565 5.53667 35.0787C7.58372 34.2969 10.2279 34.3989 12.3603 36.0214L7.92343 41.8528C7.99664 41.9085 8.06762 41.9266 8.10062 41.9303C8.122 41.9327 8.13215 41.9311 8.1509 41.9239C8.16536 41.9184 8.27868 41.8734 8.41246 41.7059C8.56675 41.5127 8.69292 41.2168 8.69292 40.8896H1.36549ZM1.36549 49.5244V40.8896H8.69292V49.5244H1.36549ZM1.36549 73.3545V49.5244H8.69292V73.3545H1.36549ZM1.36549 81.9893V73.3545H8.69292V81.9893H1.36549ZM20.8288 107.881C9.27401 103.488 1.36549 93.4897 1.36549 81.9893H8.69292C8.69292 89.9102 14.1841 97.5157 23.4327 101.032L20.8288 107.881ZM58.3365 122.141L20.8288 107.881L23.4327 101.032L60.9404 115.291L58.3365 122.141ZM67.6212 116.326C67.6212 118.881 66.063 120.769 64.3332 121.727C62.6041 122.684 60.4012 122.926 58.3365 122.141L60.9404 115.291C60.9057 115.278 60.8623 115.273 60.7853 115.315C60.7369 115.342 60.6234 115.418 60.5104 115.589C60.3876 115.775 60.2938 116.036 60.2938 116.326H67.6212ZM67.6212 107.691V116.326H60.2938V107.691H67.6212ZM67.6212 89.6904V107.691H60.2938V89.6904H67.6212ZM67.6212 81.0556V89.6904H60.2938V81.0556H67.6212ZM65.1503 76.1874C66.6091 77.2973 67.6212 79.0405 67.6212 81.0556H60.2938C60.2938 81.5792 60.5597 81.9018 60.7134 82.0188L65.1503 76.1874ZM28.1914 106.592L63.487 120.301L60.8342 127.131L25.5386 113.423L28.1914 106.592ZM18.8598 112.389C18.8598 109.821 20.4318 107.93 22.1701 106.976C23.908 106.023 26.1221 105.789 28.1914 106.592L25.5386 113.423C25.5756 113.437 25.619 113.442 25.6942 113.4C25.7419 113.374 25.8555 113.299 25.9691 113.128C26.0927 112.942 26.1873 112.68 26.1873 112.389H18.8598ZM18.8598 121.024V112.389H26.1873V121.024H18.8598ZM18.8598 126.145V121.024H26.1873V126.145H18.8598ZM18.8598 134.78V126.145H26.1873V134.78H18.8598ZM40.9502 155.165C29.0983 154.624 18.8598 146.131 18.8598 134.78H26.1873C26.1873 141.233 32.2843 147.434 41.284 147.845L40.9502 155.165ZM60.5575 156.059L40.9502 155.165L41.284 147.845L60.8913 148.739L60.5575 156.059ZM67.6212 149.786C67.6212 153.937 63.7935 156.206 60.5575 156.059L60.8913 148.739C60.9055 148.74 60.8281 148.729 60.6968 148.836C60.5579 148.948 60.2938 149.269 60.2938 149.786H67.6212ZM67.6212 141.151V149.786H60.2938V141.151H67.6212ZM67.6212 134.732V141.151H60.2938V134.732H67.6212ZM67.6212 126.097V134.732H60.2938V126.097H67.6212ZM63.487 120.301C65.7269 121.171 67.6212 123.296 67.6212 126.097H60.2938C60.2938 126.848 60.7832 127.111 60.8342 127.131L63.487 120.301Z" fill="#352E88"/>
<g filter="url(#filter4_i_606_6941)">
<path fill-rule="evenodd" clip-rule="evenodd" d="M40.2632 151.597L60.8704 153.108C62.6164 153.236 63.9571 154.482 63.9571 155.976V161.169C63.9574 161.183 63.9575 161.197 63.9575 161.212V174.01C63.9575 175.6 62.446 176.888 60.5814 176.888H53.2784C46.6671 176.888 40.2603 173.028 38.4833 167.598L36.4883 154.121C36.5316 154.125 36.5745 154.129 36.6171 154.133C36.8174 152.652 38.3714 151.458 40.2632 151.597Z" fill="#7886FF"/>
</g>
<path d="M60.8704 153.108L61.1384 149.454L61.1384 149.454L60.8704 153.108ZM40.2632 151.597L39.9952 155.251L40.2632 151.597ZM63.9571 161.169L60.294 161.232L60.2934 161.2V161.169H63.9571ZM38.4833 167.598L35.0013 168.738L34.9046 168.442L34.8591 168.135L38.4833 167.598ZM36.4883 154.121L32.8641 154.658L32.1823 150.051L36.8197 150.472L36.4883 154.121ZM36.6171 154.133L40.2478 154.624L39.775 158.12L36.2635 157.78L36.6171 154.133ZM36.488 154.119L32.8638 154.656L32.182 150.049L36.8194 150.47L36.488 154.119ZM60.6024 156.762L39.9952 155.251L40.5312 147.943L61.1384 149.454L60.6024 156.762ZM60.2934 155.976C60.2934 156.374 60.4796 156.626 60.5747 156.714C60.6622 156.795 60.6877 156.769 60.6024 156.762L61.1384 149.454C64.2922 149.686 67.6209 152.094 67.6209 155.976H60.2934ZM60.2934 161.169V155.976H67.6209V161.169H60.2934ZM67.6203 161.105C67.6209 161.141 67.6212 161.176 67.6212 161.212H60.2938C60.2938 161.218 60.2939 161.225 60.294 161.232L67.6203 161.105ZM67.6212 161.212V174.01H60.2938V161.212H67.6212ZM67.6212 174.01C67.6212 178.149 63.8999 180.552 60.5814 180.552V173.225C60.6786 173.225 60.6707 173.19 60.5916 173.257C60.5047 173.332 60.2938 173.585 60.2938 174.01H67.6212ZM60.5814 180.552H53.2784V173.225H60.5814V180.552ZM53.2784 180.552C45.5389 180.552 37.3995 176.066 35.0013 168.738L41.9653 166.459C43.1211 169.99 47.7954 173.225 53.2784 173.225V180.552ZM34.8591 168.135L32.8641 154.658L40.1126 153.585L42.1075 167.062L34.8591 168.135ZM36.8197 150.472C36.8704 150.477 36.9207 150.482 36.9708 150.487L36.2635 157.78C36.2283 157.776 36.1928 157.773 36.1569 157.77L36.8197 150.472ZM39.9952 155.251C39.8899 155.243 39.8819 155.277 39.9412 155.235C39.9879 155.201 40.1939 155.023 40.2478 154.624L32.9865 153.642C33.4979 149.86 37.1175 147.693 40.5312 147.943L39.9952 155.251ZM36.2636 157.778C36.2283 157.774 36.1927 157.771 36.1566 157.768L36.8194 150.47C36.8703 150.475 36.9209 150.48 36.9712 150.485L36.2636 157.778ZM40.1123 153.583L42.1072 167.06L34.8588 168.133L32.8638 154.656L40.1123 153.583Z" fill="#352E88"/>
<path d="M10.1419 47.5718L62.9318 87.7378C63.5844 88.2343 63.9575 88.9446 63.9575 89.6904V116.326C63.9575 118.221 61.6684 119.488 59.6385 118.716L22.1307 104.456C11.7291 100.502 5.02921 91.7 5.02921 81.9893V49.5244C5.02921 47.264 8.16386 46.0668 10.1419 47.5718Z" fill="#4452CD"/>
<path d="M26.865 114.979L62.1606 128.687C63.2551 129.112 63.9575 130.043 63.9575 131.069V146.122C63.9575 147.622 62.4814 150.124 60.7244 150.044L41.1171 149.149C30.6913 148.674 22.5235 140.019 22.5235 131.116V117.36C22.5235 115.456 24.8327 114.189 26.865 114.979Z" fill="#4452CD"/>
<path d="M44.0078 156.079L60.8708 158.339C62.6167 158.467 63.9575 159.713 63.9575 161.207V174.005C63.9575 175.595 62.446 176.884 60.5814 176.884H53.2784C46.6671 176.884 40.2603 173.023 38.4833 167.594L36.4883 154.117C40.8102 154.509 41.6605 155.907 44.0078 156.079Z" fill="#4452CD"/>
<path d="M10.1419 47.5718L62.9318 87.7378C63.5844 88.2343 63.9575 88.9446 63.9575 89.6904V116.326C63.9575 118.221 61.6684 119.488 59.6385 118.716L22.1307 104.456C11.7291 100.502 5.02921 91.7 5.02921 81.9893V49.5244C5.02921 47.264 8.16386 46.0668 10.1419 47.5718Z" stroke="black"/>
<path d="M26.865 114.979L62.1606 128.687C63.2551 129.112 63.9575 130.043 63.9575 131.069V146.122C63.9575 147.622 62.4814 150.124 60.7244 150.044L41.1171 149.149C30.6913 148.674 22.5235 140.019 22.5235 131.116V117.36C22.5235 115.456 24.8327 114.189 26.865 114.979Z" stroke="black"/>
<path d="M44.0078 156.079L60.8708 158.339C62.6167 158.467 63.9575 159.713 63.9575 161.207V174.005C63.9575 175.595 62.446 176.884 60.5814 176.884H53.2784C46.6671 176.884 40.2603 173.023 38.4833 167.594L36.4883 154.117C40.8102 154.509 41.6605 155.907 44.0078 156.079Z" stroke="black"/>
<g filter="url(#filter5_i_606_6941)">
<path d="M10.1419 38.9371L62.9318 79.1031C63.5844 79.5996 63.9575 80.3099 63.9575 81.0556V107.691C63.9575 109.586 61.6684 110.853 59.6385 110.081L22.1307 95.8216C11.7291 91.8671 5.0292 83.0652 5.0292 73.3545V40.8896C5.0292 38.6292 8.16385 37.4321 10.1419 38.9371Z" fill="#7886FF"/>
<path d="M26.865 110.007L62.1606 123.716C63.2551 124.141 63.9575 125.072 63.9575 126.097V141.151C63.9575 142.651 62.4814 143.844 60.7244 143.764L41.1171 142.87C30.6913 142.394 22.5235 135.048 22.5235 126.145V112.389C22.5235 110.485 24.8327 109.218 26.865 110.007Z" fill="#7886FF"/>
<path d="M40.2636 151.595L60.8708 153.106C62.6167 153.234 63.9575 154.48 63.9575 155.974V168.772C63.9575 170.362 62.446 171.651 60.5814 171.651H53.2784C46.6671 171.651 40.8655 167.896 39.0885 162.466L36.7224 155.236C36.0891 153.302 37.9162 151.423 40.2636 151.595Z" fill="#7886FF"/>
<path d="M10.1419 38.9371L62.9318 79.1031C63.5844 79.5996 63.9575 80.3099 63.9575 81.0556V107.691C63.9575 109.586 61.6684 110.853 59.6385 110.081L22.1307 95.8216C11.7291 91.8671 5.0292 83.0652 5.0292 73.3545V40.8896C5.0292 38.6292 8.16385 37.4321 10.1419 38.9371Z" stroke="black"/>
<path d="M26.865 110.007L62.1606 123.716C63.2551 124.141 63.9575 125.072 63.9575 126.097V141.151C63.9575 142.651 62.4814 143.844 60.7244 143.764L41.1171 142.87C30.6913 142.394 22.5235 135.048 22.5235 126.145V112.389C22.5235 110.485 24.8327 109.218 26.865 110.007Z" stroke="black"/>
<path d="M40.2636 151.595L60.8708 153.106C62.6167 153.234 63.9575 154.48 63.9575 155.974V168.772C63.9575 170.362 62.446 171.651 60.5814 171.651H53.2784C46.6671 171.651 40.8655 167.896 39.0885 162.466L36.7224 155.236C36.0891 153.302 37.9162 151.423 40.2636 151.595Z" stroke="black"/>
</g>
<mask id="path-13-outside-1_606_6941" maskUnits="userSpaceOnUse" x="63.7346" y="35.2764" width="157" height="185" fill="black">
<rect fill="white" x="63.7346" y="35.2764" width="157" height="185"/>
<path fill-rule="evenodd" clip-rule="evenodd" d="M136.036 41.9104C139.891 39.7247 144.613 39.7322 148.461 41.9301L208.942 76.4746C212.846 78.7042 215.26 82.85 215.273 87.3455L215.503 165.966C215.516 170.35 213.242 174.424 209.503 176.714L200.448 182.26V191.092C200.448 195.52 198.071 199.603 194.225 201.798C189.687 204.387 183.491 207.937 178.532 210.834C176.767 211.866 174.539 210.593 174.539 208.548V198.131L148.815 213.888C144.789 216.354 139.719 216.354 135.693 213.888L109.986 198.141V208.548C109.986 210.593 107.758 211.866 105.993 210.834C101.034 207.937 94.8381 204.387 90.3003 201.798C86.4539 199.603 84.0765 195.52 84.0765 191.092V182.271L74.964 176.689C71.2475 174.413 68.9767 170.372 68.964 166.014L68.7347 87.4213C68.7214 82.8853 71.1548 78.6945 75.1007 76.4573L136.036 41.9104Z"/>
</mask>
<path fill-rule="evenodd" clip-rule="evenodd" d="M136.036 41.9104C139.891 39.7247 144.613 39.7322 148.461 41.9301L208.942 76.4746C212.846 78.7042 215.26 82.85 215.273 87.3455L215.503 165.966C215.516 170.35 213.242 174.424 209.503 176.714L200.448 182.26V191.092C200.448 195.52 198.071 199.603 194.225 201.798C189.687 204.387 183.491 207.937 178.532 210.834C176.767 211.866 174.539 210.593 174.539 208.548V198.131L148.815 213.888C144.789 216.354 139.719 216.354 135.693 213.888L109.986 198.141V208.548C109.986 210.593 107.758 211.866 105.993 210.834C101.034 207.937 94.8381 204.387 90.3003 201.798C86.4539 199.603 84.0765 195.52 84.0765 191.092V182.271L74.964 176.689C71.2475 174.413 68.9767 170.372 68.964 166.014L68.7347 87.4213C68.7214 82.8853 71.1548 78.6945 75.1007 76.4573L136.036 41.9104Z" fill="#3F4CC2"/>
<path d="M148.461 41.9301L146.283 45.7434L146.283 45.7434L148.461 41.9301ZM136.036 41.9104L133.87 38.0902L133.87 38.0902L136.036 41.9104ZM208.942 76.4746L211.12 72.6614L211.12 72.6614L208.942 76.4746ZM215.273 87.3455L210.882 87.3583L210.882 87.3583L215.273 87.3455ZM215.503 165.966L219.894 165.953L219.894 165.953L215.503 165.966ZM209.503 176.714L207.209 172.97L207.209 172.97L209.503 176.714ZM200.448 182.26L198.155 178.516L196.057 179.801V182.26H200.448ZM194.225 201.798L192.049 197.983L192.049 197.983L194.225 201.798ZM178.532 210.834L180.748 214.626L180.748 214.626L178.532 210.834ZM174.539 198.131H178.931V190.291L172.245 194.386L174.539 198.131ZM148.815 213.888L146.521 210.143L146.521 210.143L148.815 213.888ZM135.693 213.888L133.399 217.633L133.399 217.633L135.693 213.888ZM109.986 198.141L112.28 194.397L105.594 190.302V198.141H109.986ZM105.993 210.834L103.777 214.626L103.777 214.626L105.993 210.834ZM90.3003 201.798L88.1242 205.612L88.1242 205.612L90.3003 201.798ZM84.0765 182.271H88.4679V179.811L86.3702 178.526L84.0765 182.271ZM74.964 176.689L72.6702 180.434L72.6702 180.434L74.964 176.689ZM68.964 166.014L64.5726 166.027L68.964 166.014ZM68.7347 87.4213L73.1261 87.4085L68.7347 87.4213ZM75.1007 76.4573L77.2665 80.2775L77.2665 80.2775L75.1007 76.4573ZM150.639 38.1169C145.445 35.1505 139.073 35.1404 133.87 38.0902L138.202 45.7305C140.709 44.3089 143.78 44.3138 146.283 45.7434L150.639 38.1169ZM211.12 72.6614L150.639 38.1169L146.283 45.7434L206.764 80.2878L211.12 72.6614ZM219.665 87.3327C219.647 81.2656 216.388 75.6704 211.12 72.6614L206.764 80.2878C209.303 81.738 210.874 84.4344 210.882 87.3583L219.665 87.3327ZM219.894 165.953L219.665 87.3327L210.882 87.3583L211.111 165.979L219.894 165.953ZM211.797 180.459C216.842 177.368 219.911 171.87 219.894 165.953L211.111 165.979C211.12 168.83 209.641 171.48 207.209 172.97L211.797 180.459ZM202.742 186.005L211.797 180.459L207.209 172.97L198.155 178.516L202.742 186.005ZM196.057 182.26V191.092H204.84V182.26H196.057ZM196.057 191.092C196.057 193.939 194.529 196.568 192.049 197.983L196.401 205.612C201.613 202.638 204.84 197.101 204.84 191.092H196.057ZM192.049 197.983C187.508 200.574 181.296 204.133 176.317 207.042L180.748 214.626C185.685 211.74 191.865 208.199 196.401 205.612L192.049 197.983ZM176.317 207.042C177.465 206.372 178.931 207.187 178.931 208.548H170.148C170.148 214 176.068 217.36 180.748 214.626L176.317 207.042ZM178.931 208.548V198.131H170.148V208.548H178.931ZM151.109 217.633L176.833 201.876L172.245 194.386L146.521 210.143L151.109 217.633ZM133.399 217.633C138.833 220.961 145.675 220.961 151.109 217.633L146.521 210.143C143.903 211.747 140.605 211.747 137.986 210.143L133.399 217.633ZM107.692 201.886L133.399 217.633L137.986 210.143L112.28 194.397L107.692 201.886ZM114.377 208.548V198.141H105.594V208.548H114.377ZM103.777 214.626C108.457 217.36 114.377 214 114.377 208.548H105.594C105.594 207.187 107.06 206.372 108.208 207.042L103.777 214.626ZM88.1242 205.612C92.6595 208.199 98.8394 211.74 103.777 214.626L108.208 207.042C103.229 204.133 97.0168 200.574 92.4764 197.983L88.1242 205.612ZM79.6851 191.092C79.6851 197.101 82.9116 202.638 88.1242 205.612L92.4764 197.983C89.9963 196.568 88.4679 193.939 88.4679 191.092H79.6851ZM79.6851 182.271V191.092H88.4679V182.271H79.6851ZM72.6702 180.434L81.7827 186.016L86.3702 178.526L77.2578 172.944L72.6702 180.434ZM64.5726 166.027C64.5897 171.909 67.6545 177.362 72.6702 180.434L77.2578 172.944C74.8406 171.464 73.3636 168.836 73.3553 166.001L64.5726 166.027ZM64.3433 87.4341L64.5726 166.027L73.3553 166.001L73.1261 87.4085L64.3433 87.4341ZM72.9349 72.6372C67.6094 75.6564 64.3254 81.3123 64.3433 87.4341L73.1261 87.4085C73.1174 84.4582 74.7001 81.7325 77.2665 80.2775L72.9349 72.6372ZM133.87 38.0902L72.9349 72.6372L77.2665 80.2775L138.202 45.7305L133.87 38.0902Z" fill="#352E88" mask="url(#path-13-outside-1_606_6941)"/>
<path d="M109.985 200.64V187.714L85.402 173.131C84.8165 172.783 84.0756 173.205 84.0756 173.886V183.183C84.0756 187.612 86.4531 191.695 90.2995 193.889C94.8373 196.478 101.034 200.028 105.992 202.926C107.757 203.957 109.985 202.685 109.985 200.64Z" fill="#7886FF"/>
<path d="M174.538 200.64V187.714L199.121 173.131C199.707 172.783 200.448 173.205 200.448 173.886V183.183C200.448 187.612 198.07 191.695 194.224 193.889C189.686 196.478 183.49 200.028 178.531 202.926C176.766 203.957 174.538 202.685 174.538 200.64Z" fill="#7886FF"/>
<g filter="url(#filter6_ii_606_6941)">
<path d="M135.907 41.8913C139.669 39.719 144.305 39.719 148.067 41.8913L206.616 75.6947C210.379 77.8669 212.697 81.8814 212.697 86.2259V153.833C212.697 158.177 210.379 162.192 206.616 164.364L148.067 198.167C144.305 200.34 139.669 200.34 135.907 198.167L77.3576 164.364C73.5952 162.192 71.2774 158.177 71.2774 153.833V86.2259C71.2774 81.8814 73.5952 77.8669 77.3576 75.6947L135.907 41.8913Z" fill="#4E47A1"/>
<path d="M135.907 41.8913C139.669 39.719 144.305 39.719 148.067 41.8913L206.616 75.6947C210.379 77.8669 212.697 81.8814 212.697 86.2259V153.833C212.697 158.177 210.379 162.192 206.616 164.364L148.067 198.167C144.305 200.34 139.669 200.34 135.907 198.167L77.3576 164.364C73.5952 162.192 71.2774 158.177 71.2774 153.833V86.2259C71.2774 81.8814 73.5952 77.8669 77.3576 75.6947L135.907 41.8913Z" fill="url(#paint0_linear_606_6941)"/>
</g>
<g filter="url(#filter7_i_606_6941)">
<path d="M136.169 68.5846C139.932 66.4124 144.567 66.4124 148.329 68.5846L186.708 90.7427C190.471 92.9149 192.789 96.9294 192.789 101.274V145.59C192.789 149.934 190.471 153.949 186.708 156.121L148.33 178.279C144.567 180.451 139.932 180.451 136.169 178.279L97.7903 156.121C94.0278 153.949 91.71 149.934 91.71 145.59V101.274C91.71 96.9294 94.0278 92.9149 97.7903 90.7427L136.169 68.5846Z" fill="#3F4CC2"/>
</g>
<ellipse cx="131.228" cy="56.0073" rx="9.50209" ry="4.93607" transform="rotate(-29.6591 131.228 56.0073)" fill="#FFF7D9"/>
<path d="M96.175 67.5857L96.9864 67.5858C97.33 67.9904 97.7409 68.2889 98.0682 68.4937C98.8761 68.9991 99.9511 69.4216 101.167 69.7895C103.624 70.5332 107.09 71.1794 111.267 71.714C119.647 72.7866 131.169 73.4445 143.859 73.4445C156.55 73.4445 168.072 72.7866 176.452 71.714C180.629 71.1794 184.095 70.5332 186.552 69.7895C187.768 69.4216 188.843 68.9991 189.651 68.4937C190.323 68.0732 191.347 67.2571 191.419 65.9396L196.538 28.3958C197.051 24.6355 193.402 21.6659 189.824 22.932L167.551 30.8147C166.929 31.0349 166.236 30.8173 165.851 30.2808L147.39 4.53509C145.358 1.7013 141.138 1.71759 139.128 4.56698L121.035 30.215C120.645 30.7685 119.929 30.9871 119.296 30.7462L99.0854 23.0555C95.55 21.7101 91.836 24.5681 92.2393 28.3331C93.6364 41.3755 95.7193 61.2054 96.056 65.9205L96.175 67.5857Z" fill="url(#paint1_linear_606_6941)" stroke="#813B02" stroke-width="3.58617"/>
<g filter="url(#filter8_ii_606_6941)">
<path d="M97.8446 65.7928C97.5049 61.0367 95.4169 41.1617 94.0222 28.1422C93.7616 25.7096 96.1612 23.8612 98.4477 24.7313L118.658 32.4221C120.057 32.9542 121.638 32.4713 122.501 31.2486L140.593 5.60058C141.892 3.75906 144.62 3.74853 145.933 5.57997L164.394 31.3257C165.244 32.5108 166.775 32.9916 168.15 32.505L190.423 24.6224C192.735 23.8041 195.093 25.7233 194.762 28.1535L189.63 65.7889C189.63 65.7902 189.63 65.7915 189.63 65.7928C189.63 69.0284 169.138 71.6514 143.859 71.6514C118.581 71.6514 98.0892 69.0284 98.0892 65.7928L97.8446 65.7928Z" fill="url(#paint2_linear_606_6941)"/>
</g>
<g filter="url(#filter9_i_606_6941)">
<circle cx="144.188" cy="43.3808" r="10.5732" fill="#F854FC"/>
</g>
<circle cx="144.188" cy="43.3808" r="11.41" stroke="#813B02" stroke-width="1.67355"/>
<ellipse cx="141.511" cy="38.1268" rx="4.68006" ry="2.43116" transform="rotate(-29.6591 141.511 38.1268)" fill="#FFF7D9"/>
<defs>
<filter id="filter0_i_606_6941" x="216.826" y="34.6055" width="66.2559" height="121.46" filterUnits="userSpaceOnUse" color-interpolation-filters="sRGB">
<feFlood flood-opacity="0" result="BackgroundImageFix"/>
<feBlend mode="normal" in="SourceGraphic" in2="BackgroundImageFix" result="shape"/>
<feColorMatrix in="SourceAlpha" type="matrix" values="0 0 0 0 0 0 0 0 0 0 0 0 0 0 0 0 0 0 127 0" result="hardAlpha"/>
<feOffset dy="7.32742"/>
<feComposite in2="hardAlpha" operator="arithmetic" k2="-1" k3="1"/>
<feColorMatrix type="matrix" values="0 0 0 0 0.898039 0 0 0 0 0.929412 0 0 0 0 1 0 0 0 1 0"/>
<feBlend mode="normal" in2="shape" result="effect1_innerShadow_606_6941"/>
</filter>
<filter id="filter1_i_606_6941" x="216.825" y="147.924" width="35.439" height="32.6279" filterUnits="userSpaceOnUse" color-interpolation-filters="sRGB">
<feFlood flood-opacity="0" result="BackgroundImageFix"/>
<feBlend mode="normal" in="SourceGraphic" in2="BackgroundImageFix" result="shape"/>
<feColorMatrix in="SourceAlpha" type="matrix" values="0 0 0 0 0 0 0 0 0 0 0 0 0 0 0 0 0 0 127 0" result="hardAlpha"/>
<feOffset dy="7.32742"/>
<feComposite in2="hardAlpha" operator="arithmetic" k2="-1" k3="1"/>
<feColorMatrix type="matrix" values="0 0 0 0 0.898039 0 0 0 0 0.929412 0 0 0 0 1 0 0 0 1 0"/>
<feBlend mode="normal" in2="shape" result="effect1_innerShadow_606_6941"/>
</filter>
<filter id="filter2_i_606_6941" x="220.489" y="38.2676" width="58.9282" height="133.384" filterUnits="userSpaceOnUse" color-interpolation-filters="sRGB">
<feFlood flood-opacity="0" result="BackgroundImageFix"/>
<feBlend mode="normal" in="SourceGraphic" in2="BackgroundImageFix" result="shape"/>
<feColorMatrix in="SourceAlpha" type="matrix" values="0 0 0 0 0 0 0 0 0 0 0 0 0 0 0 0 0 0 127 0" result="hardAlpha"/>
<feOffset dy="6.01895"/>
<feComposite in2="hardAlpha" operator="arithmetic" k2="-1" k3="1"/>
<feColorMatrix type="matrix" values="0 0 0 0 0.733333 0 0 0 0 0.760784 0 0 0 0 1 0 0 0 1 0"/>
<feBlend mode="normal" in2="shape" result="effect1_innerShadow_606_6941"/>
</filter>
<filter id="filter3_i_606_6941" x="1.36548" y="34.6055" width="66.2559" height="121.46" filterUnits="userSpaceOnUse" color-interpolation-filters="sRGB">
<feFlood flood-opacity="0" result="BackgroundImageFix"/>
<feBlend mode="normal" in="SourceGraphic" in2="BackgroundImageFix" result="shape"/>
<feColorMatrix in="SourceAlpha" type="matrix" values="0 0 0 0 0 0 0 0 0 0 0 0 0 0 0 0 0 0 127 0" result="hardAlpha"/>
<feOffset dy="7.32742"/>
<feComposite in2="hardAlpha" operator="arithmetic" k2="-1" k3="1"/>
<feColorMatrix type="matrix" values="0 0 0 0 0.898039 0 0 0 0 0.929412 0 0 0 0 1 0 0 0 1 0"/>
<feBlend mode="normal" in2="shape" result="effect1_innerShadow_606_6941"/>
</filter>
<filter id="filter4_i_606_6941" x="32.1819" y="147.924" width="35.4395" height="32.6279" filterUnits="userSpaceOnUse" color-interpolation-filters="sRGB">
<feFlood flood-opacity="0" result="BackgroundImageFix"/>
<feBlend mode="normal" in="SourceGraphic" in2="BackgroundImageFix" result="shape"/>
<feColorMatrix in="SourceAlpha" type="matrix" values="0 0 0 0 0 0 0 0 0 0 0 0 0 0 0 0 0 0 127 0" result="hardAlpha"/>
<feOffset dy="7.32742"/>
<feComposite in2="hardAlpha" operator="arithmetic" k2="-1" k3="1"/>
<feColorMatrix type="matrix" values="0 0 0 0 0.898039 0 0 0 0 0.929412 0 0 0 0 1 0 0 0 1 0"/>
<feBlend mode="normal" in2="shape" result="effect1_innerShadow_606_6941"/>
</filter>
<filter id="filter5_i_606_6941" x="5.0293" y="38.2676" width="58.9282" height="133.384" filterUnits="userSpaceOnUse" color-interpolation-filters="sRGB">
<feFlood flood-opacity="0" result="BackgroundImageFix"/>
<feBlend mode="normal" in="SourceGraphic" in2="BackgroundImageFix" result="shape"/>
<feColorMatrix in="SourceAlpha" type="matrix" values="0 0 0 0 0 0 0 0 0 0 0 0 0 0 0 0 0 0 127 0" result="hardAlpha"/>
<feOffset dy="6.01895"/>
<feComposite in2="hardAlpha" operator="arithmetic" k2="-1" k3="1"/>
<feColorMatrix type="matrix" values="0 0 0 0 0.733333 0 0 0 0 0.760784 0 0 0 0 1 0 0 0 1 0"/>
<feBlend mode="normal" in2="shape" result="effect1_innerShadow_606_6941"/>
</filter>
<filter id="filter6_ii_606_6941" x="71.2773" y="40.2617" width="141.419" height="159.535" filterUnits="userSpaceOnUse" color-interpolation-filters="sRGB">
<feFlood flood-opacity="0" result="BackgroundImageFix"/>
<feBlend mode="normal" in="SourceGraphic" in2="BackgroundImageFix" result="shape"/>
<feColorMatrix in="SourceAlpha" type="matrix" values="0 0 0 0 0 0 0 0 0 0 0 0 0 0 0 0 0 0 127 0" result="hardAlpha"/>
<feOffset dy="10.4232"/>
<feComposite in2="hardAlpha" operator="arithmetic" k2="-1" k3="1"/>
<feColorMatrix type="matrix" values="0 0 0 0 0.733333 0 0 0 0 0.760988 0 0 0 0 1 0 0 0 1 0"/>
<feBlend mode="normal" in2="shape" result="effect1_innerShadow_606_6941"/>
<feColorMatrix in="SourceAlpha" type="matrix" values="0 0 0 0 0 0 0 0 0 0 0 0 0 0 0 0 0 0 127 0" result="hardAlpha"/>
<feOffset dy="-39.9556"/>
<feComposite in2="hardAlpha" operator="arithmetic" k2="-1" k3="1"/>
<feColorMatrix type="matrix" values="0 0 0 0 0.387153 0 0 0 0 0.443362 0 0 0 0 0.929167 0 0 0 1 0"/>
<feBlend mode="normal" in2="effect1_innerShadow_606_6941" result="effect2_innerShadow_606_6941"/>
</filter>
<filter id="filter7_i_606_6941" x="91.71" y="66.9551" width="101.079" height="112.953" filterUnits="userSpaceOnUse" color-interpolation-filters="sRGB">
<feFlood flood-opacity="0" result="BackgroundImageFix"/>
<feBlend mode="normal" in="SourceGraphic" in2="BackgroundImageFix" result="shape"/>
<feColorMatrix in="SourceAlpha" type="matrix" values="0 0 0 0 0 0 0 0 0 0 0 0 0 0 0 0 0 0 127 0" result="hardAlpha"/>
<feOffset dy="5.23387"/>
<feComposite in2="hardAlpha" operator="arithmetic" k2="-1" k3="1"/>
<feColorMatrix type="matrix" values="0 0 0 0 0.126736 0 0 0 0 0.174528 0 0 0 0 0.608333 0 0 0 1 0"/>
<feBlend mode="normal" in2="shape" result="effect1_innerShadow_606_6941"/>
</filter>
<filter id="filter8_ii_606_6941" x="94.0027" y="4.21289" width="100.791" height="67.4385" filterUnits="userSpaceOnUse" color-interpolation-filters="sRGB">
<feFlood flood-opacity="0" result="BackgroundImageFix"/>
<feBlend mode="normal" in="SourceGraphic" in2="BackgroundImageFix" result="shape"/>
<feColorMatrix in="SourceAlpha" type="matrix" values="0 0 0 0 0 0 0 0 0 0 0 0 0 0 0 0 0 0 127 0" result="hardAlpha"/>
<feOffset dy="4.06433"/>
<feComposite in2="hardAlpha" operator="arithmetic" k2="-1" k3="1"/>
<feColorMatrix type="matrix" values="0 0 0 0 1 0 0 0 0 0.928239 0 0 0 0 0.516667 0 0 0 1 0"/>
<feBlend mode="normal" in2="shape" result="effect1_innerShadow_606_6941"/>
<feColorMatrix in="SourceAlpha" type="matrix" values="0 0 0 0 0 0 0 0 0 0 0 0 0 0 0 0 0 0 127 0" result="hardAlpha"/>
<feOffset dy="-10.5194"/>
<feComposite in2="hardAlpha" operator="arithmetic" k2="-1" k3="1"/>
<feColorMatrix type="matrix" values="0 0 0 0 0.995833 0 0 0 0 0.5975 0 0 0 0 0 0 0 0 1 0"/>
<feBlend mode="normal" in2="effect1_innerShadow_606_6941" result="effect2_innerShadow_606_6941"/>
</filter>
<filter id="filter9_i_606_6941" x="131.942" y="31.1338" width="24.4937" height="24.4941" filterUnits="userSpaceOnUse" color-interpolation-filters="sRGB">
<feFlood flood-opacity="0" result="BackgroundImageFix"/>
<feBlend mode="normal" in="SourceGraphic" in2="BackgroundImageFix" result="shape"/>
<feColorMatrix in="SourceAlpha" type="matrix" values="0 0 0 0 0 0 0 0 0 0 0 0 0 0 0 0 0 0 127 0" result="hardAlpha"/>
<feOffset dy="-4.54248"/>
<feComposite in2="hardAlpha" operator="arithmetic" k2="-1" k3="1"/>
<feColorMatrix type="matrix" values="0 0 0 0 0.841667 0 0 0 0 0.143785 0 0 0 0 0.835946 0 0 0 1 0"/>
<feBlend mode="normal" in2="shape" result="effect1_innerShadow_606_6941"/>
</filter>
<linearGradient id="paint0_linear_606_6941" x1="-4.30868" y1="-78.2399" x2="147.249" y2="236.673" gradientUnits="userSpaceOnUse">
<stop stop-color="#7886FF"/>
<stop offset="1" stop-color="#7886FF"/>
</linearGradient>
<linearGradient id="paint1_linear_606_6941" x1="138.38" y1="12.5523" x2="160.959" y2="82.1288" gradientUnits="userSpaceOnUse">
<stop stop-color="#FFBE11"/>
</linearGradient>
<linearGradient id="paint2_linear_606_6941" x1="138.38" y1="12.5523" x2="160.959" y2="82.1288" gradientUnits="userSpaceOnUse">
<stop stop-color="#FFBE11"/>
</linearGradient>
</defs>
</svg>
