<svg width="283" height="221" viewBox="0 0 283 221" fill="none" xmlns="http://www.w3.org/2000/svg">
<g filter="url(#filter0_i_181_12639)">
<path fill-rule="evenodd" clip-rule="evenodd" d="M220.97 79.1031L273.76 38.9371C275.738 37.4321 278.873 38.6292 278.873 40.8896V73.3545C278.873 73.3884 278.873 73.4222 278.872 73.4561V81.9893C278.872 91.7 272.173 100.502 261.771 104.456L224.263 118.716C222.233 119.488 219.944 118.221 219.944 116.326V89.6904C219.944 89.6794 219.944 89.6684 219.944 89.6573V81.0556C219.944 80.3099 220.317 79.5996 220.97 79.1031ZM221.741 123.716L257.037 110.007C259.069 109.218 261.378 110.485 261.378 112.389V126.145C261.378 126.174 261.378 126.202 261.378 126.23V134.78C261.378 143.682 253.21 151.029 242.784 151.505L223.177 152.399C221.42 152.479 219.944 151.286 219.944 149.786V134.732C219.944 134.721 219.944 134.71 219.944 134.699V126.097C219.944 125.072 220.647 124.141 221.741 123.716Z" fill="#7886FF"/>
</g>
<path d="M273.76 38.9371L271.542 36.0214L271.542 36.0214L273.76 38.9371ZM220.97 79.1031L223.188 82.0187H223.188L220.97 79.1031ZM278.872 73.4561L275.209 73.4383L275.209 73.4472V73.4561H278.872ZM261.771 104.456L260.469 101.032L261.771 104.456ZM224.263 118.716L225.565 122.141H225.565L224.263 118.716ZM219.944 89.6573L223.608 89.7115L223.608 89.6844V89.6573H219.944ZM257.037 110.007L258.363 113.423H258.363L257.037 110.007ZM221.741 123.716L223.068 127.131L223.068 127.131L221.741 123.716ZM261.378 126.23L257.714 126.208L257.714 126.219V126.23H261.378ZM242.784 151.505L242.951 155.165H242.951L242.784 151.505ZM223.177 152.399L223.01 148.739H223.01L223.177 152.399ZM219.944 134.699L223.608 134.753L223.608 134.726V134.699H219.944ZM271.542 36.0214L218.752 76.1874L223.188 82.0187L275.978 41.8528L271.542 36.0214ZM282.536 40.8896C282.536 37.8412 280.402 35.8565 278.365 35.0787C276.318 34.2969 273.674 34.3989 271.542 36.0214L275.978 41.8528C275.905 41.9085 275.834 41.9266 275.801 41.9303C275.78 41.9327 275.77 41.9311 275.751 41.9239C275.736 41.9184 275.623 41.8734 275.489 41.7059C275.335 41.5127 275.209 41.2168 275.209 40.8896H282.536ZM282.536 73.3545V40.8896H275.209V73.3545H282.536ZM282.536 73.4738C282.536 73.4339 282.536 73.3942 282.536 73.3545H275.209C275.209 73.3826 275.209 73.4105 275.209 73.4383L282.536 73.4738ZM282.536 81.9893V73.4561H275.209V81.9893H282.536ZM263.073 107.881C274.628 103.488 282.536 93.4897 282.536 81.9893H275.209C275.209 89.9102 269.717 97.5157 260.469 101.032L263.073 107.881ZM225.565 122.141L263.073 107.881L260.469 101.032L222.961 115.291L225.565 122.141ZM216.28 116.326C216.28 118.881 217.839 120.769 219.568 121.727C221.298 122.684 223.5 122.926 225.565 122.141L222.961 115.291C222.996 115.278 223.039 115.273 223.116 115.315C223.165 115.342 223.278 115.418 223.391 115.589C223.514 115.775 223.608 116.036 223.608 116.326H216.28ZM216.28 89.6904V116.326H223.608V89.6904H216.28ZM216.281 89.6032C216.281 89.6322 216.28 89.6613 216.28 89.6904H223.608C223.608 89.6974 223.608 89.7045 223.608 89.7115L216.281 89.6032ZM216.281 81.0556V89.6573H223.608V81.0556H216.281ZM218.752 76.1874C217.293 77.2973 216.281 79.0405 216.281 81.0556H223.608C223.608 81.5792 223.342 81.9018 223.188 82.0187L218.752 76.1874ZM255.71 106.592L220.415 120.301L223.068 127.131L258.363 113.423L255.71 106.592ZM265.042 112.389C265.042 109.821 263.47 107.93 261.732 106.976C259.994 106.023 257.78 105.789 255.71 106.592L258.363 113.423C258.326 113.437 258.283 113.442 258.208 113.4C258.16 113.374 258.046 113.299 257.933 113.128C257.809 112.942 257.715 112.68 257.715 112.389H265.042ZM265.042 126.145V112.389H257.715V126.145H265.042ZM265.042 126.251C265.042 126.216 265.042 126.18 265.042 126.145H257.715C257.715 126.167 257.715 126.188 257.714 126.208L265.042 126.251ZM265.042 134.78V126.23H257.714V134.78H265.042ZM242.951 155.165C254.803 154.624 265.042 146.131 265.042 134.78H257.714C257.714 141.233 251.617 147.434 242.618 147.845L242.951 155.165ZM223.344 156.059L242.951 155.165L242.618 147.845L223.01 148.739L223.344 156.059ZM216.28 149.786C216.28 153.937 220.108 156.206 223.344 156.059L223.01 148.739C222.996 148.74 223.074 148.729 223.205 148.836C223.344 148.948 223.608 149.269 223.608 149.786H216.28ZM216.28 134.732V149.786H223.608V134.732H216.28ZM216.281 134.645C216.281 134.674 216.28 134.703 216.28 134.732H223.608C223.608 134.739 223.608 134.746 223.608 134.753L216.281 134.645ZM216.281 126.097V134.699H223.608V126.097H216.281ZM220.415 120.301C218.175 121.171 216.281 123.296 216.281 126.097H223.608C223.608 126.848 223.119 127.111 223.068 127.131L220.415 120.301Z" fill="#352E88"/>
<g filter="url(#filter1_i_181_12639)">
<path fill-rule="evenodd" clip-rule="evenodd" d="M243.638 151.597L223.03 153.108C221.284 153.236 219.944 154.482 219.944 155.976V161.212V168.775V174.01C219.944 175.6 221.455 176.888 223.32 176.888H230.623C237.234 176.888 243.641 173.028 245.418 167.598L247.413 154.121C247.369 154.125 247.326 154.129 247.284 154.133C247.083 152.652 245.529 151.458 243.638 151.597Z" fill="#7886FF"/>
</g>
<path d="M223.03 153.108L222.762 149.454H222.762L223.03 153.108ZM243.638 151.597L243.37 147.943L243.638 151.597ZM245.418 167.598L248.9 168.738L248.997 168.442L249.042 168.135L245.418 167.598ZM247.413 154.121L251.037 154.658L251.719 150.051L247.081 150.472L247.413 154.121ZM247.284 154.133L243.653 154.624L244.126 158.12L247.637 157.78L247.284 154.133ZM247.412 154.119L251.037 154.654L251.716 150.049L247.081 150.47L247.412 154.119ZM223.298 156.762L243.906 155.251L243.37 147.943L222.762 149.454L223.298 156.762ZM223.607 155.976C223.607 156.374 223.421 156.626 223.326 156.714C223.239 156.795 223.213 156.769 223.298 156.762L222.762 149.454C219.609 149.686 216.28 152.094 216.28 155.976H223.607ZM223.607 161.212V155.976H216.28V161.212H223.607ZM216.28 161.212V168.775H223.607V161.212H216.28ZM216.28 168.775V174.01H223.607V168.775H216.28ZM216.28 174.01C216.28 178.149 220.001 180.552 223.32 180.552V173.225C223.222 173.225 223.23 173.19 223.31 173.257C223.396 173.332 223.607 173.585 223.607 174.01H216.28ZM223.32 180.552H230.623V173.225H223.32V180.552ZM230.623 180.552C238.362 180.552 246.502 176.066 248.9 168.738L241.936 166.459C240.78 169.99 236.106 173.225 230.623 173.225V180.552ZM249.042 168.135L251.037 154.658L243.789 153.585L241.794 167.062L249.042 168.135ZM247.081 150.472C247.031 150.477 246.98 150.482 246.93 150.487L247.637 157.78C247.673 157.776 247.708 157.773 247.744 157.77L247.081 150.472ZM243.906 155.251C244.011 155.243 244.019 155.277 243.96 155.235C243.913 155.201 243.707 155.023 243.653 154.624L250.914 153.642C250.403 149.86 246.783 147.693 243.37 147.943L243.906 155.251ZM247.637 157.778C247.672 157.774 247.708 157.771 247.744 157.768L247.081 150.47C247.03 150.475 246.98 150.48 246.93 150.485L247.637 157.778ZM243.788 153.584L243.788 153.586L251.036 154.656L251.037 154.654L243.788 153.584Z" fill="#352E88"/>
<path d="M273.759 47.5718L220.97 87.7378C220.317 88.2343 219.944 88.9446 219.944 89.6904V116.326C219.944 118.221 222.233 119.488 224.263 118.716L261.771 104.456C272.172 100.502 278.872 91.7 278.872 81.9893V49.5244C278.872 47.264 275.738 46.0668 273.759 47.5718Z" fill="#4452CD"/>
<path d="M257.036 114.979L221.741 128.687C220.646 129.112 219.944 130.043 219.944 131.069V146.122C219.944 147.622 221.42 150.124 223.177 150.044L242.784 149.149C253.21 148.674 261.378 140.019 261.378 131.116V117.36C261.378 115.456 259.069 114.189 257.036 114.979Z" fill="#4452CD"/>
<path d="M239.894 156.079L223.031 158.339C221.285 158.467 219.944 159.713 219.944 161.207V174.005C219.944 175.595 221.455 176.884 223.32 176.884H230.623C237.234 176.884 243.641 173.023 245.418 167.594L247.413 154.117C243.091 154.509 242.241 155.907 239.894 156.079Z" fill="#4452CD"/>
<path d="M273.759 47.5718L220.97 87.7378C220.317 88.2343 219.944 88.9446 219.944 89.6904V116.326C219.944 118.221 222.233 119.488 224.263 118.716L261.771 104.456C272.172 100.502 278.872 91.7 278.872 81.9893V49.5244C278.872 47.264 275.738 46.0668 273.759 47.5718Z" stroke="black"/>
<path d="M257.036 114.979L221.741 128.687C220.646 129.112 219.944 130.043 219.944 131.069V146.122C219.944 147.622 221.42 150.124 223.177 150.044L242.784 149.149C253.21 148.674 261.378 140.019 261.378 131.116V117.36C261.378 115.456 259.069 114.189 257.036 114.979Z" stroke="black"/>
<path d="M239.894 156.079L223.031 158.339C221.285 158.467 219.944 159.713 219.944 161.207V174.005C219.944 175.595 221.455 176.884 223.32 176.884H230.623C237.234 176.884 243.641 173.023 245.418 167.594L247.413 154.117C243.091 154.509 242.241 155.907 239.894 156.079Z" stroke="black"/>
<g filter="url(#filter2_i_181_12639)">
<path d="M273.76 38.9371L220.97 79.1031C220.317 79.5996 219.944 80.3099 219.944 81.0556V107.691C219.944 109.586 222.233 110.853 224.263 110.081L261.771 95.8216C272.172 91.8671 278.872 83.0652 278.872 73.3545V40.8896C278.872 38.6292 275.738 37.4321 273.76 38.9371Z" fill="#7886FF"/>
<path d="M257.036 110.007L221.741 123.716C220.646 124.141 219.944 125.072 219.944 126.097V141.151C219.944 142.651 221.42 143.844 223.177 143.764L242.784 142.87C253.21 142.394 261.378 135.048 261.378 126.145V112.389C261.378 110.485 259.069 109.218 257.036 110.007Z" fill="#7886FF"/>
<path d="M243.638 151.595L223.031 153.106C221.285 153.234 219.944 154.48 219.944 155.974V168.772C219.944 170.362 221.455 171.651 223.32 171.651H230.623C237.234 171.651 243.036 167.896 244.813 162.466L247.179 155.236C247.812 153.302 245.985 151.423 243.638 151.595Z" fill="#7886FF"/>
<path d="M273.76 38.9371L220.97 79.1031C220.317 79.5996 219.944 80.3099 219.944 81.0556V107.691C219.944 109.586 222.233 110.853 224.263 110.081L261.771 95.8216C272.172 91.8671 278.872 83.0652 278.872 73.3545V40.8896C278.872 38.6292 275.738 37.4321 273.76 38.9371Z" stroke="black"/>
<path d="M257.036 110.007L221.741 123.716C220.646 124.141 219.944 125.072 219.944 126.097V141.151C219.944 142.651 221.42 143.844 223.177 143.764L242.784 142.87C253.21 142.394 261.378 135.048 261.378 126.145V112.389C261.378 110.485 259.069 109.218 257.036 110.007Z" stroke="black"/>
<path d="M243.638 151.595L223.031 153.106C221.285 153.234 219.944 154.48 219.944 155.974V168.772C219.944 170.362 221.455 171.651 223.32 171.651H230.623C237.234 171.651 243.036 167.896 244.813 162.466L247.179 155.236C247.812 153.302 245.985 151.423 243.638 151.595Z" stroke="black"/>
</g>
<g filter="url(#filter3_i_181_12639)">
<path fill-rule="evenodd" clip-rule="evenodd" d="M62.3864 79.1031L9.59646 38.9371C7.61845 37.4321 4.4838 38.6292 4.4838 40.8896V49.5244V73.3545V81.9893C4.4838 91.7 11.1837 100.502 21.5853 104.456L59.0931 118.716C61.123 119.488 63.4121 118.221 63.4121 116.326V107.691V89.6904V81.0556C63.4121 80.3099 63.039 79.5996 62.3864 79.1031ZM61.6152 123.716L26.3196 110.007C24.2873 109.218 21.9781 110.485 21.9781 112.389V121.024V126.145V134.78C21.9781 143.682 30.1459 151.029 40.5717 151.505L60.179 152.399C61.936 152.479 63.4121 151.286 63.4121 149.786V141.151V134.732V126.097C63.4121 125.072 62.7097 124.141 61.6152 123.716Z" fill="#7886FF"/>
</g>
<path d="M9.59646 38.9371L11.8149 36.0214L11.8149 36.0214L9.59646 38.9371ZM62.3864 79.1031L60.168 82.0187H60.168L62.3864 79.1031ZM21.5853 104.456L22.8873 101.032L21.5853 104.456ZM59.0931 118.716L57.7911 122.141H57.7911L59.0931 118.716ZM26.3196 110.007L24.9932 113.423H24.9932L26.3196 110.007ZM61.6152 123.716L60.2888 127.131L60.2888 127.131L61.6152 123.716ZM40.5717 151.505L40.4048 155.165H40.4048L40.5717 151.505ZM60.179 152.399L60.3459 148.739H60.3459L60.179 152.399ZM11.8149 36.0214L64.6049 76.1874L60.168 82.0187L7.37801 41.8528L11.8149 36.0214ZM0.820084 40.8896C0.820084 37.8412 2.95462 35.8565 4.99126 35.0787C7.03831 34.2969 9.68245 34.3989 11.8149 36.0214L7.37802 41.8528C7.45123 41.9085 7.52221 41.9266 7.55521 41.9303C7.57659 41.9327 7.58674 41.9311 7.60549 41.9239C7.61995 41.9184 7.73327 41.8734 7.86705 41.7059C8.02134 41.5127 8.14751 41.2168 8.14751 40.8896H0.820084ZM0.820084 49.5244V40.8896H8.14751V49.5244H0.820084ZM0.820084 73.3545V49.5244H8.14751V73.3545H0.820084ZM0.820084 81.9893V73.3545H8.14751V81.9893H0.820084ZM20.2834 107.881C8.7286 103.488 0.820084 93.4897 0.820084 81.9893H8.14751C8.14751 89.9102 13.6387 97.5157 22.8873 101.032L20.2834 107.881ZM57.7911 122.141L20.2834 107.881L22.8873 101.032L60.395 115.291L57.7911 122.141ZM67.0758 116.326C67.0758 118.881 65.5176 120.769 63.7878 121.727C62.0587 122.684 59.8558 122.926 57.7911 122.141L60.395 115.291C60.3603 115.278 60.3169 115.273 60.2399 115.315C60.1914 115.342 60.078 115.418 59.965 115.589C59.8422 115.775 59.7484 116.036 59.7484 116.326H67.0758ZM67.0758 107.691V116.326H59.7484V107.691H67.0758ZM67.0758 89.6904V107.691H59.7484V89.6904H67.0758ZM67.0758 81.0556V89.6904H59.7484V81.0556H67.0758ZM64.6049 76.1874C66.0637 77.2973 67.0758 79.0405 67.0758 81.0556H59.7484C59.7484 81.5792 60.0143 81.9018 60.168 82.0187L64.6049 76.1874ZM27.646 106.592L62.9416 120.301L60.2888 127.131L24.9932 113.423L27.646 106.592ZM18.3144 112.389C18.3144 109.821 19.8864 107.93 21.6247 106.976C23.3626 106.023 25.5767 105.789 27.646 106.592L24.9932 113.423C25.0302 113.437 25.0736 113.442 25.1488 113.4C25.1965 113.374 25.3101 113.299 25.4237 113.128C25.5472 112.942 25.6418 112.68 25.6418 112.389H18.3144ZM18.3144 121.024V112.389H25.6418V121.024H18.3144ZM18.3144 126.145V121.024H25.6418V126.145H18.3144ZM18.3144 134.78V126.145H25.6418V134.78H18.3144ZM40.4048 155.165C28.5529 154.624 18.3144 146.131 18.3144 134.78H25.6418C25.6418 141.233 31.7389 147.434 40.7386 147.845L40.4048 155.165ZM60.0121 156.059L40.4048 155.165L40.7386 147.845L60.3459 148.739L60.0121 156.059ZM67.0758 149.786C67.0758 153.937 63.248 156.206 60.0121 156.059L60.3459 148.739C60.3601 148.74 60.2826 148.729 60.1514 148.836C60.0125 148.948 59.7484 149.269 59.7484 149.786H67.0758ZM67.0758 141.151V149.786H59.7484V141.151H67.0758ZM67.0758 134.732V141.151H59.7484V134.732H67.0758ZM67.0758 126.097V134.732H59.7484V126.097H67.0758ZM62.9416 120.301C65.1815 121.171 67.0758 123.296 67.0758 126.097H59.7484C59.7484 126.848 60.2378 127.111 60.2888 127.131L62.9416 120.301Z" fill="#352E88"/>
<g filter="url(#filter4_i_181_12639)">
<path fill-rule="evenodd" clip-rule="evenodd" d="M39.7178 151.597L60.325 153.108C62.071 153.236 63.4117 154.482 63.4117 155.976V161.169C63.412 161.183 63.4121 161.197 63.4121 161.212V174.01C63.4121 175.6 61.9006 176.888 60.036 176.888H52.733C46.1217 176.888 39.7149 173.028 37.9379 167.598L35.9429 154.121C35.9862 154.125 36.0291 154.129 36.0717 154.133C36.272 152.652 37.826 151.458 39.7178 151.597Z" fill="#7886FF"/>
</g>
<path d="M60.325 153.108L60.593 149.454H60.593L60.325 153.108ZM39.7178 151.597L39.4498 155.251L39.7178 151.597ZM63.4117 161.169L59.7486 161.232L59.748 161.2V161.169H63.4117ZM37.9379 167.598L34.4559 168.738L34.3592 168.442L34.3137 168.135L37.9379 167.598ZM35.9429 154.121L32.3187 154.658L31.6368 150.051L36.2743 150.472L35.9429 154.121ZM36.0717 154.133L39.7024 154.624L39.2296 158.12L35.7181 157.78L36.0717 154.133ZM35.9426 154.119L32.3184 154.656L31.6365 150.049L36.274 150.47L35.9426 154.119ZM60.057 156.762L39.4498 155.251L39.9858 147.943L60.593 149.454L60.057 156.762ZM59.748 155.976C59.748 156.374 59.9341 156.626 60.0293 156.714C60.1168 156.795 60.1423 156.769 60.057 156.762L60.593 149.454C63.7468 149.686 67.0755 152.094 67.0755 155.976H59.748ZM59.748 161.169V155.976H67.0755V161.169H59.748ZM67.0749 161.105C67.0755 161.141 67.0758 161.176 67.0758 161.212H59.7484C59.7484 161.218 59.7485 161.225 59.7486 161.232L67.0749 161.105ZM67.0758 161.212V174.01H59.7484V161.212H67.0758ZM67.0758 174.01C67.0758 178.149 63.3545 180.552 60.036 180.552V173.225C60.1332 173.225 60.1253 173.19 60.0462 173.257C59.9593 173.332 59.7484 173.585 59.7484 174.01H67.0758ZM60.036 180.552H52.733V173.225H60.036V180.552ZM52.733 180.552C44.9934 180.552 36.8541 176.066 34.4559 168.738L41.4199 166.459C42.5757 169.99 47.2499 173.225 52.733 173.225V180.552ZM34.3137 168.135L32.3187 154.658L39.5671 153.585L41.5621 167.062L34.3137 168.135ZM36.2743 150.472C36.325 150.477 36.3753 150.482 36.4254 150.487L35.7181 157.78C35.6829 157.776 35.6474 157.773 35.6115 157.77L36.2743 150.472ZM39.4498 155.251C39.3445 155.243 39.3365 155.277 39.3958 155.235C39.4424 155.201 39.6485 155.023 39.7024 154.624L32.441 153.642C32.9525 149.86 36.5721 147.693 39.9858 147.943L39.4498 155.251ZM35.7182 157.778C35.6829 157.774 35.6473 157.771 35.6112 157.768L36.274 150.47C36.3249 150.475 36.3755 150.48 36.4257 150.485L35.7182 157.778ZM39.5668 153.583L41.5618 167.06L34.3134 168.133L32.3184 154.656L39.5668 153.583Z" fill="#352E88"/>
<path d="M9.59646 47.5718L62.3864 87.7378C63.039 88.2343 63.4121 88.9446 63.4121 89.6904V116.326C63.4121 118.221 61.123 119.488 59.0931 118.716L21.5853 104.456C11.1837 100.502 4.4838 91.7 4.4838 81.9893V49.5244C4.4838 47.264 7.61845 46.0668 9.59646 47.5718Z" fill="#4452CD"/>
<path d="M26.3196 114.979L61.6152 128.687C62.7097 129.112 63.4121 130.043 63.4121 131.069V146.122C63.4121 147.622 61.936 150.124 60.179 150.044L40.5717 149.149C30.1459 148.674 21.9781 140.019 21.9781 131.116V117.36C21.9781 115.456 24.2873 114.189 26.3196 114.979Z" fill="#4452CD"/>
<path d="M43.4624 156.079L60.3254 158.339C62.0713 158.467 63.4121 159.713 63.4121 161.207V174.005C63.4121 175.595 61.9006 176.884 60.036 176.884H52.733C46.1217 176.884 39.7149 173.023 37.9379 167.594L35.9429 154.117C40.2648 154.509 41.1151 155.907 43.4624 156.079Z" fill="#4452CD"/>
<path d="M9.59646 47.5718L62.3864 87.7378C63.039 88.2343 63.4121 88.9446 63.4121 89.6904V116.326C63.4121 118.221 61.123 119.488 59.0931 118.716L21.5853 104.456C11.1837 100.502 4.4838 91.7 4.4838 81.9893V49.5244C4.4838 47.264 7.61845 46.0668 9.59646 47.5718Z" stroke="black"/>
<path d="M26.3196 114.979L61.6152 128.687C62.7097 129.112 63.4121 130.043 63.4121 131.069V146.122C63.4121 147.622 61.936 150.124 60.179 150.044L40.5717 149.149C30.1459 148.674 21.9781 140.019 21.9781 131.116V117.36C21.9781 115.456 24.2873 114.189 26.3196 114.979Z" stroke="black"/>
<path d="M43.4624 156.079L60.3254 158.339C62.0713 158.467 63.4121 159.713 63.4121 161.207V174.005C63.4121 175.595 61.9006 176.884 60.036 176.884H52.733C46.1217 176.884 39.7149 173.023 37.9379 167.594L35.9429 154.117C40.2648 154.509 41.1151 155.907 43.4624 156.079Z" stroke="black"/>
<g filter="url(#filter5_i_181_12639)">
<path d="M9.59645 38.9371L62.3864 79.1031C63.039 79.5996 63.4121 80.3099 63.4121 81.0556V107.691C63.4121 109.586 61.123 110.853 59.0931 110.081L21.5853 95.8216C11.1836 91.8671 4.48379 83.0652 4.48379 73.3545V40.8896C4.48379 38.6292 7.61844 37.4321 9.59645 38.9371Z" fill="#7886FF"/>
<path d="M26.3196 110.007L61.6152 123.716C62.7097 124.141 63.4121 125.072 63.4121 126.097V141.151C63.4121 142.651 61.936 143.844 60.179 143.764L40.5717 142.87C30.1459 142.394 21.9781 135.048 21.9781 126.145V112.389C21.9781 110.485 24.2873 109.218 26.3196 110.007Z" fill="#7886FF"/>
<path d="M39.7182 151.595L60.3254 153.106C62.0713 153.234 63.4121 154.48 63.4121 155.974V168.772C63.4121 170.362 61.9006 171.651 60.036 171.651H52.733C46.1217 171.651 40.32 167.896 38.543 162.466L36.177 155.236C35.5437 153.302 37.3708 151.423 39.7182 151.595Z" fill="#7886FF"/>
<path d="M9.59645 38.9371L62.3864 79.1031C63.039 79.5996 63.4121 80.3099 63.4121 81.0556V107.691C63.4121 109.586 61.123 110.853 59.0931 110.081L21.5853 95.8216C11.1836 91.8671 4.48379 83.0652 4.48379 73.3545V40.8896C4.48379 38.6292 7.61844 37.4321 9.59645 38.9371Z" stroke="black"/>
<path d="M26.3196 110.007L61.6152 123.716C62.7097 124.141 63.4121 125.072 63.4121 126.097V141.151C63.4121 142.651 61.936 143.844 60.179 143.764L40.5717 142.87C30.1459 142.394 21.9781 135.048 21.9781 126.145V112.389C21.9781 110.485 24.2873 109.218 26.3196 110.007Z" stroke="black"/>
<path d="M39.7182 151.595L60.3254 153.106C62.0713 153.234 63.4121 154.48 63.4121 155.974V168.772C63.4121 170.362 61.9006 171.651 60.036 171.651H52.733C46.1217 171.651 40.32 167.896 38.543 162.466L36.177 155.236C35.5437 153.302 37.3708 151.423 39.7182 151.595Z" stroke="black"/>
</g>
<mask id="path-13-outside-1_181_12639" maskUnits="userSpaceOnUse" x="63.1892" y="35.2764" width="157" height="185" fill="black">
<rect fill="white" x="63.1892" y="35.2764" width="157" height="185"/>
<path fill-rule="evenodd" clip-rule="evenodd" d="M135.49 41.9104C139.346 39.7247 144.067 39.7322 147.915 41.9301L208.397 76.4746C212.3 78.7042 214.715 82.85 214.728 87.3455L214.957 165.966C214.97 170.35 212.696 174.424 208.957 176.714L199.903 182.26V191.092C199.903 195.52 197.526 199.603 193.679 201.798C189.141 204.387 182.945 207.937 177.987 210.834C176.221 211.866 173.994 210.593 173.994 208.548V198.131L148.27 213.888C144.243 216.354 139.174 216.354 135.147 213.888L109.44 198.141V208.548C109.44 210.593 107.213 211.866 105.447 210.834C100.489 207.937 94.2927 204.387 89.7549 201.798C85.9085 199.603 83.531 195.52 83.531 191.092V182.271L74.4186 176.689C70.7021 174.413 68.4313 170.372 68.4186 166.014L68.1893 87.4213C68.176 82.8853 70.6093 78.6945 74.5553 76.4573L135.49 41.9104Z"/>
</mask>
<path fill-rule="evenodd" clip-rule="evenodd" d="M135.49 41.9104C139.346 39.7247 144.067 39.7322 147.915 41.9301L208.397 76.4746C212.3 78.7042 214.715 82.85 214.728 87.3455L214.957 165.966C214.97 170.35 212.696 174.424 208.957 176.714L199.903 182.26V191.092C199.903 195.52 197.526 199.603 193.679 201.798C189.141 204.387 182.945 207.937 177.987 210.834C176.221 211.866 173.994 210.593 173.994 208.548V198.131L148.27 213.888C144.243 216.354 139.174 216.354 135.147 213.888L109.44 198.141V208.548C109.44 210.593 107.213 211.866 105.447 210.834C100.489 207.937 94.2927 204.387 89.7549 201.798C85.9085 199.603 83.531 195.52 83.531 191.092V182.271L74.4186 176.689C70.7021 174.413 68.4313 170.372 68.4186 166.014L68.1893 87.4213C68.176 82.8853 70.6093 78.6945 74.5553 76.4573L135.49 41.9104Z" fill="#3F4CC2"/>
<path d="M147.915 41.9301L145.737 45.7434V45.7434L147.915 41.9301ZM135.49 41.9104L133.324 38.0902V38.0902L135.49 41.9104ZM208.397 76.4746L210.575 72.6614L208.397 76.4746ZM214.728 87.3455L210.337 87.3583V87.3583L214.728 87.3455ZM214.957 165.966L219.349 165.953L214.957 165.966ZM208.957 176.714L206.664 172.97H206.664L208.957 176.714ZM199.903 182.26L197.609 178.516L195.512 179.801V182.26H199.903ZM193.679 201.798L191.503 197.983L193.679 201.798ZM177.987 210.834L180.202 214.626L177.987 210.834ZM173.994 198.131H178.385V190.291L171.7 194.386L173.994 198.131ZM148.27 213.888L145.976 210.143H145.976L148.27 213.888ZM135.147 213.888L132.853 217.633L135.147 213.888ZM109.44 198.141L111.734 194.397L105.049 190.302V198.141H109.44ZM105.447 210.834L103.232 214.626H103.232L105.447 210.834ZM89.7549 201.798L87.5788 205.612H87.5788L89.7549 201.798ZM83.531 182.271H87.9224V179.811L85.8248 178.526L83.531 182.271ZM74.4186 176.689L72.1248 180.434H72.1248L74.4186 176.689ZM68.4186 166.014L64.0272 166.027L68.4186 166.014ZM68.1893 87.4213L72.5806 87.4085L68.1893 87.4213ZM74.5553 76.4573L76.7211 80.2775V80.2775L74.5553 76.4573ZM150.093 38.1169C144.9 35.1505 138.527 35.1404 133.324 38.0902L137.656 45.7305C140.164 44.3089 143.235 44.3138 145.737 45.7434L150.093 38.1169ZM210.575 72.6614L150.093 38.1169L145.737 45.7434L206.219 80.2878L210.575 72.6614ZM219.119 87.3327C219.102 81.2656 215.843 75.6704 210.575 72.6614L206.219 80.2878C208.758 81.738 210.328 84.4344 210.337 87.3583L219.119 87.3327ZM219.349 165.953L219.119 87.3327L210.337 87.3583L210.566 165.979L219.349 165.953ZM211.251 180.459C216.297 177.368 219.366 171.87 219.349 165.953L210.566 165.979C210.574 168.83 209.095 171.48 206.664 172.97L211.251 180.459ZM202.197 186.005L211.251 180.459L206.664 172.97L197.609 178.516L202.197 186.005ZM195.512 182.26V191.092H204.294V182.26H195.512ZM195.512 191.092C195.512 193.939 193.983 196.568 191.503 197.983L195.855 205.612C201.068 202.638 204.294 197.101 204.294 191.092H195.512ZM191.503 197.983C186.963 200.574 180.75 204.133 175.771 207.042L180.202 214.626C185.14 211.74 191.32 208.199 195.855 205.612L191.503 197.983ZM175.771 207.042C176.92 206.372 178.385 207.187 178.385 208.548H169.602C169.602 214 175.523 217.36 180.202 214.626L175.771 207.042ZM178.385 208.548V198.131H169.602V208.548H178.385ZM150.563 217.633L176.288 201.876L171.7 194.386L145.976 210.143L150.563 217.633ZM132.853 217.633C138.288 220.961 145.129 220.961 150.563 217.633L145.976 210.143C143.357 211.747 140.06 211.747 137.441 210.143L132.853 217.633ZM107.147 201.886L132.853 217.633L137.441 210.143L111.734 194.397L107.147 201.886ZM113.832 208.548V198.141H105.049V208.548H113.832ZM103.232 214.626C107.911 217.36 113.832 214 113.832 208.548H105.049C105.049 207.187 106.515 206.372 107.663 207.042L103.232 214.626ZM87.5788 205.612C92.114 208.199 98.294 211.74 103.232 214.626L107.663 207.042C102.684 204.133 96.4714 200.574 91.931 197.983L87.5788 205.612ZM79.1396 191.092C79.1396 197.101 82.3662 202.638 87.5788 205.612L91.931 197.983C89.4509 196.568 87.9224 193.939 87.9224 191.092H79.1396ZM79.1396 182.271V191.092H87.9224V182.271H79.1396ZM72.1248 180.434L81.2373 186.016L85.8248 178.526L76.7123 172.944L72.1248 180.434ZM64.0272 166.027C64.0443 171.909 67.1091 177.362 72.1248 180.434L76.7124 172.944C74.2952 171.464 72.8182 168.836 72.8099 166.001L64.0272 166.027ZM63.7979 87.4341L64.0272 166.027L72.8099 166.001L72.5806 87.4085L63.7979 87.4341ZM72.3895 72.6372C67.064 75.6564 63.78 81.3123 63.7979 87.4341L72.5806 87.4085C72.572 84.4582 74.1547 81.7325 76.7211 80.2775L72.3895 72.6372ZM133.324 38.0902L72.3895 72.6372L76.7211 80.2775L137.656 45.7305L133.324 38.0902Z" fill="#352E88" mask="url(#path-13-outside-1_181_12639)"/>
<path d="M109.439 200.64V187.714L84.8566 173.131C84.2711 172.783 83.5302 173.205 83.5302 173.886V183.183C83.5302 187.612 85.9077 191.695 89.754 193.889C94.2919 196.478 100.488 200.028 105.446 202.926C107.212 203.957 109.439 202.685 109.439 200.64Z" fill="#7886FF"/>
<path d="M173.993 200.64V187.714L198.576 173.131C199.161 172.783 199.902 173.205 199.902 173.886V183.183C199.902 187.612 197.525 191.695 193.678 193.889C189.141 196.478 182.944 200.028 177.986 202.926C176.22 203.957 173.993 202.685 173.993 200.64Z" fill="#7886FF"/>
<g filter="url(#filter6_ii_181_12639)">
<path d="M135.361 41.8913C139.124 39.719 143.759 39.719 147.522 41.8913L206.071 75.6947C209.834 77.8669 212.151 81.8814 212.151 86.2259V153.833C212.151 158.177 209.834 162.192 206.071 164.364L147.522 198.167C143.759 200.34 139.124 200.34 135.361 198.167L76.8122 164.364C73.0498 162.192 70.732 158.177 70.732 153.833V86.2259C70.732 81.8814 73.0498 77.8669 76.8122 75.6947L135.361 41.8913Z" fill="#4E47A1"/>
<path d="M135.361 41.8913C139.124 39.719 143.759 39.719 147.522 41.8913L206.071 75.6947C209.834 77.8669 212.151 81.8814 212.151 86.2259V153.833C212.151 158.177 209.834 162.192 206.071 164.364L147.522 198.167C143.759 200.34 139.124 200.34 135.361 198.167L76.8122 164.364C73.0498 162.192 70.732 158.177 70.732 153.833V86.2259C70.732 81.8814 73.0498 77.8669 76.8122 75.6947L135.361 41.8913Z" fill="url(#paint0_linear_181_12639)"/>
</g>
<g filter="url(#filter7_i_181_12639)">
<path d="M135.624 68.5846C139.386 66.4124 144.022 66.4124 147.784 68.5846L186.163 90.7427C189.925 92.9149 192.243 96.9294 192.243 101.274V145.59C192.243 149.934 189.925 153.949 186.163 156.121L147.784 178.279C144.022 180.451 139.386 180.451 135.624 178.279L97.2448 156.121C93.4824 153.949 91.1646 149.934 91.1646 145.59V101.274C91.1646 96.9294 93.4824 92.9149 97.2448 90.7427L135.624 68.5846Z" fill="#3F4CC2"/>
</g>
<ellipse cx="130.683" cy="56.0073" rx="9.50209" ry="4.93607" transform="rotate(-29.6591 130.683 56.0073)" fill="#FFF7D9"/>
<path d="M95.6296 67.5857L96.441 67.5858C96.7846 67.9904 97.1955 68.2889 97.5228 68.4937C98.3307 68.9991 99.4057 69.4216 100.621 69.7895C103.079 70.5332 106.545 71.1794 110.722 71.714C119.101 72.7866 130.623 73.4445 143.314 73.4445C156.005 73.4445 167.527 72.7866 175.906 71.714C180.083 71.1794 183.549 70.5332 186.007 69.7895C187.222 69.4216 188.297 68.9991 189.105 68.4937C189.778 68.0732 190.802 67.2571 190.873 65.9397L195.993 28.3958C196.506 24.6355 192.857 21.6659 189.279 22.932L167.006 30.8147C166.384 31.0349 165.691 30.8173 165.306 30.2808L146.845 4.53509C144.813 1.7013 140.593 1.71759 138.583 4.56698L120.49 30.215C120.1 30.7685 119.384 30.9871 118.751 30.7462L98.54 23.0555C95.0046 21.7101 91.2906 24.5682 91.6939 28.3331C93.091 41.3755 95.1738 61.2054 95.5106 65.9205L95.6296 67.5857Z" fill="url(#paint1_linear_181_12639)" stroke="#813B02" stroke-width="3.58617"/>
<g filter="url(#filter8_ii_181_12639)">
<path d="M97.2992 65.7928C96.9594 61.0367 94.8714 41.1617 93.4768 28.1422C93.2162 25.7096 95.6158 23.8612 97.9023 24.7313L118.113 32.4221C119.511 32.9542 121.093 32.4713 121.955 31.2486L140.048 5.60058C141.347 3.75906 144.074 3.74853 145.388 5.57997L163.849 31.3257C164.698 32.5108 166.229 32.9916 167.604 32.505L189.877 24.6224C192.189 23.8041 194.548 25.7233 194.216 28.1535L189.084 65.7889C189.084 65.7902 189.084 65.7915 189.084 65.7928C189.084 69.0284 168.592 71.6514 143.314 71.6514C118.036 71.6514 97.5438 69.0284 97.5438 65.7928L97.2992 65.7928Z" fill="url(#paint2_linear_181_12639)"/>
</g>
<g filter="url(#filter9_i_181_12639)">
<circle cx="143.643" cy="43.3808" r="10.5732" fill="#F854FC"/>
</g>
<circle cx="143.643" cy="43.3808" r="11.41" stroke="#813B02" stroke-width="1.67355"/>
<ellipse cx="140.966" cy="38.1268" rx="4.68006" ry="2.43116" transform="rotate(-29.6591 140.966 38.1268)" fill="#FFF7D9"/>
<mask id="path-25-outside-2_181_12639" maskUnits="userSpaceOnUse" x="101.154" y="76.9502" width="82" height="84" fill="black">
<rect fill="white" x="101.154" y="76.9502" width="82" height="84"/>
<path fill-rule="evenodd" clip-rule="evenodd" d="M144.191 81.0934C143.14 79.5691 140.889 79.5691 139.838 81.0934L134.64 88.6372L127.794 98.5724C127.453 99.0686 126.951 99.433 126.374 99.6053L114.82 103.053L106.042 105.672C104.375 106.17 103.661 108.092 104.518 109.542C104.414 109.825 104.357 110.132 104.357 110.454V112.741C104.357 113.877 104.723 114.983 105.401 115.895L117.608 132.307C117.788 132.549 117.924 132.819 118.012 133.103L117.833 140.419L117.609 149.585C117.602 149.885 117.644 150.171 117.726 150.437L117.61 155.201C117.564 157.05 119.385 158.373 121.13 157.757L129.765 154.713L141.136 150.704C141.705 150.503 142.325 150.503 142.894 150.704L154.264 154.713L162.899 157.757C164.645 158.373 166.465 157.05 166.42 155.201L166.304 150.435C166.386 150.169 166.427 149.884 166.42 149.585L166.196 140.419L166.017 133.108C166.105 132.821 166.242 132.55 166.424 132.306L178.954 115.513C179.635 114.6 180.003 113.491 180.003 112.352V110.444C180.003 109.987 179.888 109.56 179.686 109.187C180.248 107.795 179.521 106.13 177.987 105.672L169.209 103.053L157.655 99.6053C157.078 99.433 156.576 99.0686 156.235 98.5724L149.389 88.6372L144.191 81.0934Z"/>
</mask>
<path fill-rule="evenodd" clip-rule="evenodd" d="M144.191 81.0934C143.14 79.5691 140.889 79.5691 139.838 81.0934L134.64 88.6372L127.794 98.5724C127.453 99.0686 126.951 99.433 126.374 99.6053L114.82 103.053L106.042 105.672C104.375 106.17 103.661 108.092 104.518 109.542C104.414 109.825 104.357 110.132 104.357 110.454V112.741C104.357 113.877 104.723 114.983 105.401 115.895L117.608 132.307C117.788 132.549 117.924 132.819 118.012 133.103L117.833 140.419L117.609 149.585C117.602 149.885 117.644 150.171 117.726 150.437L117.61 155.201C117.564 157.05 119.385 158.373 121.13 157.757L129.765 154.713L141.136 150.704C141.705 150.503 142.325 150.503 142.894 150.704L154.264 154.713L162.899 157.757C164.645 158.373 166.465 157.05 166.42 155.201L166.304 150.435C166.386 150.169 166.427 149.884 166.42 149.585L166.196 140.419L166.017 133.108C166.105 132.821 166.242 132.55 166.424 132.306L178.954 115.513C179.635 114.6 180.003 113.491 180.003 112.352V110.444C180.003 109.987 179.888 109.56 179.686 109.187C180.248 107.795 179.521 106.13 177.987 105.672L169.209 103.053L157.655 99.6053C157.078 99.433 156.576 99.0686 156.235 98.5724L149.389 88.6372L144.191 81.0934Z" fill="#FDDB18"/>
<path d="M139.838 81.0934L142.133 82.6747V82.6747L139.838 81.0934ZM144.191 81.0934L146.485 79.5122L146.485 79.5122L144.191 81.0934ZM134.64 88.6372L136.935 90.2184L134.64 88.6372ZM127.794 98.5724L130.089 100.154L130.089 100.154L127.794 98.5724ZM126.374 99.6053L127.171 102.276L126.374 99.6053ZM114.82 103.053L114.023 100.382H114.023L114.82 103.053ZM106.042 105.672L106.839 108.343H106.839L106.042 105.672ZM104.518 109.542L107.134 110.503L107.59 109.262L106.917 108.124L104.518 109.542ZM105.401 115.895L107.637 114.232H107.637L105.401 115.895ZM117.608 132.307L119.844 130.643L119.844 130.643L117.608 132.307ZM118.012 133.103L120.798 133.171L120.809 132.716L120.675 132.28L118.012 133.103ZM117.833 140.419L115.047 140.351L117.833 140.419ZM117.609 149.585L120.395 149.653L117.609 149.585ZM117.726 150.437L120.512 150.506L120.523 150.049L120.388 149.612L117.726 150.437ZM117.61 155.201L114.824 155.132L117.61 155.201ZM121.13 157.757L122.057 160.386H122.057L121.13 157.757ZM129.765 154.713L130.692 157.341L129.765 154.713ZM141.136 150.704L142.063 153.332H142.063L141.136 150.704ZM142.894 150.704L141.967 153.332H141.967L142.894 150.704ZM154.264 154.713L153.338 157.341L154.264 154.713ZM162.899 157.757L161.973 160.386H161.973L162.899 157.757ZM166.42 155.201L169.206 155.132V155.132L166.42 155.201ZM166.304 150.435L163.641 149.613L163.506 150.048L163.518 150.503L166.304 150.435ZM166.42 149.585L169.206 149.517L166.42 149.585ZM166.196 140.419L168.982 140.351V140.351L166.196 140.419ZM166.017 133.108L163.353 132.288L163.22 132.722L163.231 133.176L166.017 133.108ZM166.424 132.306L164.191 130.639L164.191 130.639L166.424 132.306ZM178.954 115.513L181.188 117.179L181.188 117.179L178.954 115.513ZM179.686 109.187L177.102 108.145L176.611 109.361L177.236 110.515L179.686 109.187ZM177.987 105.672L177.19 108.343V108.343L177.987 105.672ZM169.209 103.053L168.412 105.723L169.209 103.053ZM157.655 99.6053L158.452 96.9348L158.452 96.9348L157.655 99.6053ZM156.235 98.5724L158.529 96.9912V96.9912L156.235 98.5724ZM149.389 88.6372L147.094 90.2184H147.094L149.389 88.6372ZM142.133 82.6747C142.127 82.6835 142.107 82.705 142.076 82.7208C142.05 82.734 142.029 82.737 142.014 82.737C142 82.737 141.979 82.734 141.953 82.7208C141.922 82.705 141.902 82.6835 141.896 82.6747L146.485 79.5122C144.327 76.3804 139.702 76.3804 137.544 79.5122L142.133 82.6747ZM136.935 90.2184L142.133 82.6747L137.544 79.5122L132.345 87.056L136.935 90.2184ZM130.089 100.154L136.935 90.2184L132.345 87.056L125.5 96.9912L130.089 100.154ZM127.171 102.276C128.357 101.922 129.387 101.173 130.089 100.154L125.5 96.9912C125.518 96.9641 125.546 96.9442 125.577 96.9348L127.171 102.276ZM115.617 105.723L127.171 102.276L125.577 96.9348L114.023 100.382L115.617 105.723ZM106.839 108.343L115.617 105.723L114.023 100.382L105.246 103.002L106.839 108.343ZM106.917 108.124C106.929 108.144 106.938 108.173 106.94 108.2C106.942 108.224 106.938 108.242 106.933 108.254C106.928 108.268 106.918 108.286 106.897 108.306C106.873 108.329 106.848 108.34 106.839 108.343L105.246 103.002C101.814 104.025 100.355 107.976 102.119 110.96L106.917 108.124ZM107.144 110.454C107.144 110.458 107.143 110.466 107.142 110.475C107.14 110.484 107.137 110.493 107.134 110.503L101.902 108.581C101.686 109.168 101.57 109.8 101.57 110.454H107.144ZM107.144 112.741V110.454H101.57V112.741H107.144ZM107.637 114.232C107.317 113.801 107.144 113.278 107.144 112.741H101.57C101.57 114.476 102.129 116.166 103.165 117.558L107.637 114.232ZM119.844 130.643L107.637 114.232L103.165 117.558L115.372 133.97L119.844 130.643ZM120.675 132.28C120.494 131.696 120.214 131.141 119.844 130.643L115.372 133.97C115.362 133.957 115.354 133.942 115.35 133.926L120.675 132.28ZM120.619 140.488L120.798 133.171L115.226 133.035L115.047 140.351L120.619 140.488ZM120.395 149.653L120.619 140.488L115.047 140.351L114.823 149.517L120.395 149.653ZM120.388 149.612C120.391 149.622 120.393 149.632 120.394 149.639C120.395 149.647 120.395 149.652 120.395 149.653L114.823 149.517C114.808 150.121 114.893 150.709 115.064 151.262L120.388 149.612ZM120.396 155.269L120.512 150.506L114.94 150.369L114.824 155.132L120.396 155.269ZM120.204 155.129C120.214 155.126 120.243 155.12 120.277 155.126C120.306 155.13 120.325 155.14 120.336 155.149C120.348 155.157 120.363 155.172 120.376 155.198C120.392 155.229 120.396 155.258 120.396 155.269L114.824 155.132C114.731 158.933 118.472 161.65 122.057 160.386L120.204 155.129ZM128.839 152.085L120.204 155.129L122.057 160.386L130.692 157.341L128.839 152.085ZM140.209 148.076L128.839 152.085L130.692 157.341L142.063 153.332L140.209 148.076ZM143.82 148.076C142.652 147.664 141.378 147.664 140.209 148.076L142.063 153.332C142.032 153.343 141.998 153.343 141.967 153.332L143.82 148.076ZM155.191 152.085L143.82 148.076L141.967 153.332L153.338 157.341L155.191 152.085ZM163.826 155.129L155.191 152.085L153.338 157.341L161.973 160.386L163.826 155.129ZM163.634 155.269C163.634 155.258 163.638 155.229 163.654 155.198C163.667 155.172 163.682 155.157 163.693 155.149C163.705 155.14 163.724 155.13 163.753 155.126C163.787 155.12 163.816 155.126 163.826 155.129L161.973 160.386C165.558 161.65 169.299 158.933 169.206 155.132L163.634 155.269ZM163.518 150.503L163.634 155.269L169.206 155.132L169.09 150.367L163.518 150.503ZM163.634 149.653C163.634 149.652 163.634 149.647 163.635 149.64C163.636 149.632 163.638 149.622 163.641 149.613L168.966 151.257C169.137 150.705 169.22 150.119 169.206 149.517L163.634 149.653ZM163.41 140.488L163.634 149.653L169.206 149.517L168.982 140.351L163.41 140.488ZM163.231 133.176L163.41 140.488L168.982 140.351L168.803 133.04L163.231 133.176ZM164.191 130.639C163.817 131.14 163.535 131.699 163.353 132.288L168.68 133.928C168.675 133.944 168.668 133.959 168.658 133.972L164.191 130.639ZM176.72 113.846L164.191 130.639L168.658 133.972L181.188 117.179L176.72 113.846ZM177.216 112.352C177.216 112.89 177.042 113.414 176.72 113.846L181.188 117.179C182.228 115.785 182.79 114.092 182.79 112.352H177.216ZM177.216 110.444V112.352H182.79V110.444H177.216ZM177.236 110.515C177.23 110.503 177.225 110.49 177.221 110.477C177.217 110.462 177.216 110.451 177.216 110.444H182.79C182.79 109.512 182.554 108.63 182.136 107.859L177.236 110.515ZM177.19 108.343C177.182 108.34 177.16 108.331 177.137 108.31C177.116 108.292 177.105 108.274 177.099 108.261C177.09 108.242 177.079 108.201 177.102 108.145L182.271 110.229C183.424 107.369 181.947 103.946 178.783 103.002L177.19 108.343ZM168.412 105.723L177.19 108.343L178.783 103.002L170.005 100.382L168.412 105.723ZM156.858 102.276L168.412 105.723L170.005 100.382L158.452 96.9348L156.858 102.276ZM153.94 100.154C154.642 101.173 155.672 101.922 156.858 102.276L158.452 96.9348C158.483 96.9442 158.511 96.9641 158.529 96.9912L153.94 100.154ZM147.094 90.2184L153.94 100.154L158.529 96.9912L151.683 87.056L147.094 90.2184ZM141.896 82.6747L147.094 90.2184L151.683 87.056L146.485 79.5122L141.896 82.6747Z" fill="#813B02" mask="url(#path-25-outside-2_181_12639)"/>
<path d="M139.838 86.7069C140.888 85.1826 143.139 85.1826 144.19 86.7069L149.388 94.2507L156.234 104.186C156.576 104.682 157.077 105.046 157.654 105.219L166.337 107.81C168.232 108.375 170.221 108.557 172.187 108.344L177.075 107.815C178.638 107.646 180.002 108.87 180.002 110.442V112.35C180.002 113.489 179.634 114.598 178.953 115.511L166.423 132.304C166.069 132.778 165.885 133.357 165.899 133.949L166.195 146.033L166.419 155.199C166.464 157.049 164.643 158.371 162.898 157.756L154.263 154.711L142.892 150.702C142.324 150.502 141.704 150.502 141.135 150.702L129.764 154.711L121.129 157.756C119.384 158.371 117.563 157.049 117.609 155.199L117.833 146.033L118.128 133.947C118.143 133.356 117.959 132.778 117.607 132.305L105.4 115.893C104.722 114.982 104.356 113.876 104.356 112.739V110.452C104.356 108.877 105.726 107.651 107.292 107.826L111.816 108.331C113.798 108.552 115.805 108.372 117.716 107.802L126.373 105.219C126.951 105.046 127.452 104.682 127.794 104.186L134.64 94.2507L139.838 86.7069Z" fill="#C65900"/>
<path d="M139.838 81.0897C140.888 79.5654 143.14 79.5654 144.19 81.0897L149.388 88.6335L156.234 98.5687C156.576 99.0649 157.077 99.4293 157.655 99.6016L169.208 103.049L177.986 105.668C179.758 106.197 180.453 108.335 179.331 109.805L173.766 117.091L166.442 126.68C166.076 127.158 165.885 127.747 165.9 128.348L166.195 140.416L166.419 149.582C166.464 151.431 164.644 152.754 162.899 152.139L154.263 149.094L142.893 145.085C142.324 144.884 141.704 144.884 141.135 145.085L129.765 149.094L121.129 152.139C119.384 152.754 117.564 151.431 117.609 149.582L117.833 140.416L118.128 128.348C118.143 127.747 117.952 127.158 117.586 126.68L110.262 117.091L104.697 109.805C103.575 108.335 104.27 106.197 106.042 105.668L114.82 103.049L126.374 99.6016C126.951 99.4293 127.452 99.0649 127.794 98.5687L134.64 88.6335L139.838 81.0897Z" fill="#FDDB18"/>
<mask id="mask0_181_12639" style="mask-type:alpha" maskUnits="userSpaceOnUse" x="104" y="79" width="76" height="74">
<path d="M139.838 81.0897C140.888 79.5654 143.14 79.5654 144.19 81.0897L149.388 88.6335L156.234 98.5687C156.576 99.0649 157.077 99.4293 157.654 99.6016L169.208 103.049L177.986 105.668C179.758 106.197 180.453 108.335 179.33 109.805L173.765 117.091L166.442 126.68C166.076 127.158 165.885 127.747 165.9 128.348L166.195 140.416L166.419 149.582C166.464 151.431 164.643 152.754 162.898 152.139L154.263 149.094L142.893 145.085C142.324 144.884 141.704 144.884 141.135 145.085L129.764 149.094L121.129 152.139C119.384 152.754 117.563 151.431 117.609 149.582L117.833 140.416L118.128 128.348C118.142 127.747 117.951 127.158 117.586 126.68L110.262 117.091L104.697 109.805C103.575 108.335 104.27 106.197 106.042 105.668L114.82 103.049L126.373 99.6016C126.951 99.4293 127.452 99.0649 127.794 98.5687L134.64 88.6335L139.838 81.0897Z" fill="#FDDB18"/>
</mask>
<g mask="url(#mask0_181_12639)">
<path d="M142.294 120.376L102.539 107.713L142.085 79.415L142.294 120.376Z" fill="white"/>
<path d="M142.18 120.378L115.918 155.394L102.54 106.835L142.18 120.378Z" fill="#FFAC0E"/>
<path d="M142.097 120.462L182.48 106.092L168.441 156.138L142.097 120.462Z" fill="#FFAC0E"/>
<path d="M142.18 120.381L168.111 155.539H115.753L142.18 120.381Z" fill="#EA6C05"/>
</g>
<defs>
<filter id="filter0_i_181_12639" x="216.28" y="34.6055" width="66.2559" height="121.46" filterUnits="userSpaceOnUse" color-interpolation-filters="sRGB">
<feFlood flood-opacity="0" result="BackgroundImageFix"/>
<feBlend mode="normal" in="SourceGraphic" in2="BackgroundImageFix" result="shape"/>
<feColorMatrix in="SourceAlpha" type="matrix" values="0 0 0 0 0 0 0 0 0 0 0 0 0 0 0 0 0 0 127 0" result="hardAlpha"/>
<feOffset dy="7.32742"/>
<feComposite in2="hardAlpha" operator="arithmetic" k2="-1" k3="1"/>
<feColorMatrix type="matrix" values="0 0 0 0 0.898039 0 0 0 0 0.929412 0 0 0 0 1 0 0 0 1 0"/>
<feBlend mode="normal" in2="shape" result="effect1_innerShadow_181_12639"/>
</filter>
<filter id="filter1_i_181_12639" x="216.28" y="147.924" width="35.439" height="32.6279" filterUnits="userSpaceOnUse" color-interpolation-filters="sRGB">
<feFlood flood-opacity="0" result="BackgroundImageFix"/>
<feBlend mode="normal" in="SourceGraphic" in2="BackgroundImageFix" result="shape"/>
<feColorMatrix in="SourceAlpha" type="matrix" values="0 0 0 0 0 0 0 0 0 0 0 0 0 0 0 0 0 0 127 0" result="hardAlpha"/>
<feOffset dy="7.32742"/>
<feComposite in2="hardAlpha" operator="arithmetic" k2="-1" k3="1"/>
<feColorMatrix type="matrix" values="0 0 0 0 0.898039 0 0 0 0 0.929412 0 0 0 0 1 0 0 0 1 0"/>
<feBlend mode="normal" in2="shape" result="effect1_innerShadow_181_12639"/>
</filter>
<filter id="filter2_i_181_12639" x="219.944" y="38.2676" width="58.9282" height="133.384" filterUnits="userSpaceOnUse" color-interpolation-filters="sRGB">
<feFlood flood-opacity="0" result="BackgroundImageFix"/>
<feBlend mode="normal" in="SourceGraphic" in2="BackgroundImageFix" result="shape"/>
<feColorMatrix in="SourceAlpha" type="matrix" values="0 0 0 0 0 0 0 0 0 0 0 0 0 0 0 0 0 0 127 0" result="hardAlpha"/>
<feOffset dy="6.01895"/>
<feComposite in2="hardAlpha" operator="arithmetic" k2="-1" k3="1"/>
<feColorMatrix type="matrix" values="0 0 0 0 0.733333 0 0 0 0 0.760784 0 0 0 0 1 0 0 0 1 0"/>
<feBlend mode="normal" in2="shape" result="effect1_innerShadow_181_12639"/>
</filter>
<filter id="filter3_i_181_12639" x="0.820068" y="34.6055" width="66.2559" height="121.46" filterUnits="userSpaceOnUse" color-interpolation-filters="sRGB">
<feFlood flood-opacity="0" result="BackgroundImageFix"/>
<feBlend mode="normal" in="SourceGraphic" in2="BackgroundImageFix" result="shape"/>
<feColorMatrix in="SourceAlpha" type="matrix" values="0 0 0 0 0 0 0 0 0 0 0 0 0 0 0 0 0 0 127 0" result="hardAlpha"/>
<feOffset dy="7.32742"/>
<feComposite in2="hardAlpha" operator="arithmetic" k2="-1" k3="1"/>
<feColorMatrix type="matrix" values="0 0 0 0 0.898039 0 0 0 0 0.929412 0 0 0 0 1 0 0 0 1 0"/>
<feBlend mode="normal" in2="shape" result="effect1_innerShadow_181_12639"/>
</filter>
<filter id="filter4_i_181_12639" x="31.6365" y="147.924" width="35.4395" height="32.6279" filterUnits="userSpaceOnUse" color-interpolation-filters="sRGB">
<feFlood flood-opacity="0" result="BackgroundImageFix"/>
<feBlend mode="normal" in="SourceGraphic" in2="BackgroundImageFix" result="shape"/>
<feColorMatrix in="SourceAlpha" type="matrix" values="0 0 0 0 0 0 0 0 0 0 0 0 0 0 0 0 0 0 127 0" result="hardAlpha"/>
<feOffset dy="7.32742"/>
<feComposite in2="hardAlpha" operator="arithmetic" k2="-1" k3="1"/>
<feColorMatrix type="matrix" values="0 0 0 0 0.898039 0 0 0 0 0.929412 0 0 0 0 1 0 0 0 1 0"/>
<feBlend mode="normal" in2="shape" result="effect1_innerShadow_181_12639"/>
</filter>
<filter id="filter5_i_181_12639" x="4.48389" y="38.2676" width="58.9282" height="133.384" filterUnits="userSpaceOnUse" color-interpolation-filters="sRGB">
<feFlood flood-opacity="0" result="BackgroundImageFix"/>
<feBlend mode="normal" in="SourceGraphic" in2="BackgroundImageFix" result="shape"/>
<feColorMatrix in="SourceAlpha" type="matrix" values="0 0 0 0 0 0 0 0 0 0 0 0 0 0 0 0 0 0 127 0" result="hardAlpha"/>
<feOffset dy="6.01895"/>
<feComposite in2="hardAlpha" operator="arithmetic" k2="-1" k3="1"/>
<feColorMatrix type="matrix" values="0 0 0 0 0.733333 0 0 0 0 0.760784 0 0 0 0 1 0 0 0 1 0"/>
<feBlend mode="normal" in2="shape" result="effect1_innerShadow_181_12639"/>
</filter>
<filter id="filter6_ii_181_12639" x="70.7319" y="40.2617" width="141.419" height="159.535" filterUnits="userSpaceOnUse" color-interpolation-filters="sRGB">
<feFlood flood-opacity="0" result="BackgroundImageFix"/>
<feBlend mode="normal" in="SourceGraphic" in2="BackgroundImageFix" result="shape"/>
<feColorMatrix in="SourceAlpha" type="matrix" values="0 0 0 0 0 0 0 0 0 0 0 0 0 0 0 0 0 0 127 0" result="hardAlpha"/>
<feOffset dy="10.4232"/>
<feComposite in2="hardAlpha" operator="arithmetic" k2="-1" k3="1"/>
<feColorMatrix type="matrix" values="0 0 0 0 0.733333 0 0 0 0 0.760988 0 0 0 0 1 0 0 0 1 0"/>
<feBlend mode="normal" in2="shape" result="effect1_innerShadow_181_12639"/>
<feColorMatrix in="SourceAlpha" type="matrix" values="0 0 0 0 0 0 0 0 0 0 0 0 0 0 0 0 0 0 127 0" result="hardAlpha"/>
<feOffset dy="-39.9556"/>
<feComposite in2="hardAlpha" operator="arithmetic" k2="-1" k3="1"/>
<feColorMatrix type="matrix" values="0 0 0 0 0.387153 0 0 0 0 0.443362 0 0 0 0 0.929167 0 0 0 1 0"/>
<feBlend mode="normal" in2="effect1_innerShadow_181_12639" result="effect2_innerShadow_181_12639"/>
</filter>
<filter id="filter7_i_181_12639" x="91.1646" y="66.9551" width="101.079" height="112.953" filterUnits="userSpaceOnUse" color-interpolation-filters="sRGB">
<feFlood flood-opacity="0" result="BackgroundImageFix"/>
<feBlend mode="normal" in="SourceGraphic" in2="BackgroundImageFix" result="shape"/>
<feColorMatrix in="SourceAlpha" type="matrix" values="0 0 0 0 0 0 0 0 0 0 0 0 0 0 0 0 0 0 127 0" result="hardAlpha"/>
<feOffset dy="5.23387"/>
<feComposite in2="hardAlpha" operator="arithmetic" k2="-1" k3="1"/>
<feColorMatrix type="matrix" values="0 0 0 0 0.126736 0 0 0 0 0.174528 0 0 0 0 0.608333 0 0 0 1 0"/>
<feBlend mode="normal" in2="shape" result="effect1_innerShadow_181_12639"/>
</filter>
<filter id="filter8_ii_181_12639" x="93.4573" y="4.21289" width="100.791" height="67.4385" filterUnits="userSpaceOnUse" color-interpolation-filters="sRGB">
<feFlood flood-opacity="0" result="BackgroundImageFix"/>
<feBlend mode="normal" in="SourceGraphic" in2="BackgroundImageFix" result="shape"/>
<feColorMatrix in="SourceAlpha" type="matrix" values="0 0 0 0 0 0 0 0 0 0 0 0 0 0 0 0 0 0 127 0" result="hardAlpha"/>
<feOffset dy="4.06433"/>
<feComposite in2="hardAlpha" operator="arithmetic" k2="-1" k3="1"/>
<feColorMatrix type="matrix" values="0 0 0 0 1 0 0 0 0 0.928239 0 0 0 0 0.516667 0 0 0 1 0"/>
<feBlend mode="normal" in2="shape" result="effect1_innerShadow_181_12639"/>
<feColorMatrix in="SourceAlpha" type="matrix" values="0 0 0 0 0 0 0 0 0 0 0 0 0 0 0 0 0 0 127 0" result="hardAlpha"/>
<feOffset dy="-10.5194"/>
<feComposite in2="hardAlpha" operator="arithmetic" k2="-1" k3="1"/>
<feColorMatrix type="matrix" values="0 0 0 0 0.995833 0 0 0 0 0.5975 0 0 0 0 0 0 0 0 1 0"/>
<feBlend mode="normal" in2="effect1_innerShadow_181_12639" result="effect2_innerShadow_181_12639"/>
</filter>
<filter id="filter9_i_181_12639" x="131.396" y="31.1338" width="24.4937" height="24.4941" filterUnits="userSpaceOnUse" color-interpolation-filters="sRGB">
<feFlood flood-opacity="0" result="BackgroundImageFix"/>
<feBlend mode="normal" in="SourceGraphic" in2="BackgroundImageFix" result="shape"/>
<feColorMatrix in="SourceAlpha" type="matrix" values="0 0 0 0 0 0 0 0 0 0 0 0 0 0 0 0 0 0 127 0" result="hardAlpha"/>
<feOffset dy="-4.54248"/>
<feComposite in2="hardAlpha" operator="arithmetic" k2="-1" k3="1"/>
<feColorMatrix type="matrix" values="0 0 0 0 0.841667 0 0 0 0 0.143785 0 0 0 0 0.835946 0 0 0 1 0"/>
<feBlend mode="normal" in2="shape" result="effect1_innerShadow_181_12639"/>
</filter>
<linearGradient id="paint0_linear_181_12639" x1="-4.85409" y1="-78.2399" x2="146.703" y2="236.673" gradientUnits="userSpaceOnUse">
<stop stop-color="#7886FF"/>
<stop offset="1" stop-color="#7886FF"/>
</linearGradient>
<linearGradient id="paint1_linear_181_12639" x1="137.835" y1="12.5523" x2="160.413" y2="82.1288" gradientUnits="userSpaceOnUse">
<stop stop-color="#FFBE11"/>
</linearGradient>
<linearGradient id="paint2_linear_181_12639" x1="137.835" y1="12.5523" x2="160.413" y2="82.1288" gradientUnits="userSpaceOnUse">
<stop stop-color="#FFBE11"/>
</linearGradient>
</defs>
</svg>
