<svg width="120" height="86" viewBox="0 0 120 86" fill="none" xmlns="http://www.w3.org/2000/svg">
<g filter="url(#filter0_d_624_7116)">
<mask id="path-1-outside-1_624_7116" maskUnits="userSpaceOnUse" x="9.13739e-05" y="-0.0104275" width="120.111" height="84.6013" fill="black">
<rect fill="white" x="9.13739e-05" y="-0.0104275" width="120.111" height="84.6013"/>
<path d="M5.61328 26.9492C4.84395 26.6785 4.01501 27.1645 3.89575 27.9713C0.869496 48.4453 7.90108 69.7538 10.0389 75.0216L110.489 73.6631C115.669 59.4304 118.319 41.6948 116.556 26.5033C116.46 25.6721 115.611 25.159 114.824 25.4412L88.7832 34.7695C86.0167 35.8386 82.895 34.5792 81.645 31.8895C77.5927 23.1702 72.1635 15.16 65.5656 8.166L61.8208 4.38166C60.1845 2.7281 57.5278 2.68208 55.8352 4.27797L52.2079 7.69802C45.4743 14.9857 40.1582 23.4648 36.532 32.7008C35.525 35.2658 32.638 36.5388 30.0649 35.5525L5.61328 26.9492Z"/>
<path d="M110.489 73.6631C111.107 77.0582 88.0937 80.7066 60.3551 81.0817C32.6165 81.4568 10.0892 78.7435 10.0389 75.0216C8.66999 71.2456 32.4343 67.9783 60.1729 67.6032C87.9114 67.2281 110.489 73.6631 110.489 73.6631Z"/>
</mask>
<g filter="url(#filter1_ii_624_7116)">
<path d="M5.61328 26.9492C4.84395 26.6785 4.01501 27.1645 3.89575 27.9713C0.869496 48.4453 7.90108 69.7538 10.0389 75.0216L110.489 73.6631C115.669 59.4304 118.319 41.6948 116.556 26.5033C116.46 25.6721 115.611 25.159 114.824 25.4412L88.7832 34.7695C86.0167 35.8386 82.895 34.5792 81.645 31.8895C77.5927 23.1702 72.1635 15.16 65.5656 8.166L61.8208 4.38166C60.1845 2.7281 57.5278 2.68208 55.8352 4.27797L52.2079 7.69802C45.4743 14.9857 40.1582 23.4648 36.532 32.7008C35.525 35.2658 32.638 36.5388 30.0649 35.5525L5.61328 26.9492Z" fill="url(#paint0_linear_624_7116)"/>
<path d="M110.489 73.6631C111.107 77.0582 88.0937 80.7066 60.3551 81.0817C32.6165 81.4568 10.0892 78.7435 10.0389 75.0216C8.66999 71.2456 32.4343 67.9783 60.1729 67.6032C87.9114 67.2281 110.489 73.6631 110.489 73.6631Z" fill="url(#paint1_linear_624_7116)"/>
</g>
<path d="M30.0649 35.5525L30.86 33.4785L30.8312 33.4675L30.8022 33.4573L30.0649 35.5525ZM88.7832 34.7695L88.0342 32.6784L88.0082 32.6877L87.9826 32.6976L88.7832 34.7695ZM65.5656 8.166L67.1813 6.64181L67.1631 6.62251L67.1445 6.60365L65.5656 8.166ZM52.2079 7.69802L50.6842 6.08192L50.6285 6.13442L50.5765 6.19064L52.2079 7.69802ZM36.532 32.7008L34.4645 31.889L34.4645 31.889L36.532 32.7008ZM81.645 31.8895L79.6307 32.8256L79.6307 32.8257L81.645 31.8895ZM114.824 25.4412L114.075 23.3501L114.824 25.4412ZM116.556 26.5033L114.35 26.7593L116.556 26.5033ZM61.8208 4.38166L60.242 5.94401L61.8208 4.38166ZM55.8352 4.27797L54.3114 2.66187L55.8352 4.27797ZM5.61328 26.9492L4.87606 29.0445L5.61328 26.9492ZM12.097 74.1863C10.0157 69.0577 3.15247 48.1905 6.09306 28.2961L1.69845 27.6465C-1.41348 48.7 5.78642 70.4498 7.98071 75.8568L12.097 74.1863ZM4.87606 29.0445L29.3277 37.6478L30.8022 33.4573L6.35051 24.8539L4.87606 29.0445ZM89.5323 36.8605L115.573 27.5323L114.075 23.3501L88.0342 32.6784L89.5323 36.8605ZM110.459 71.4421L10.0088 72.8006L10.0689 77.2425L110.519 75.8841L110.459 71.4421ZM60.242 5.94401L63.9868 9.72835L67.1445 6.60365L63.3996 2.81931L60.242 5.94401ZM53.7317 9.31411L57.359 5.89407L54.3114 2.66187L50.6842 6.08192L53.7317 9.31411ZM114.35 26.7593C116.067 41.5587 113.482 58.9458 108.401 72.9033L112.576 74.4229C117.857 59.915 120.571 41.8308 118.763 26.2473L114.35 26.7593ZM38.5996 33.5125C42.1248 24.5335 47.293 16.2903 53.8393 9.2054L50.5765 6.19064C43.6555 13.6811 38.1915 22.3961 34.4645 31.889L38.5996 33.5125ZM63.9499 9.69019C70.3842 16.5108 75.6789 24.3225 79.6307 32.8256L83.6593 30.9534C79.5065 22.018 73.9427 13.8091 67.1813 6.64181L63.9499 9.69019ZM87.9826 32.6976C86.307 33.3451 84.4164 32.5824 83.6593 30.9534L79.6307 32.8257C81.3737 36.576 85.7264 38.3321 89.5839 36.8413L87.9826 32.6976ZM29.2699 37.6266C32.9819 39.0494 37.1468 37.2129 38.5996 33.5125L34.4645 31.889C33.9032 33.3187 32.2941 34.0282 30.86 33.4785L29.2699 37.6266ZM108.303 74.061C108.122 73.064 108.926 72.7465 108.399 73.1057C108.031 73.3562 107.307 73.7014 106.121 74.0923C103.793 74.8597 100.251 75.6237 95.7234 76.3087C86.702 77.6736 74.1181 78.6742 60.3251 78.8607L60.3851 83.3027C74.3307 83.1141 87.1226 82.1029 96.3879 80.7011C101.004 80.0027 104.832 79.1946 107.512 78.3114C108.83 77.8769 110.019 77.3772 110.9 76.7768C111.622 76.2852 113.01 75.111 112.674 73.2652L108.303 74.061ZM60.3251 78.8607C46.5227 79.0473 34.0596 78.4643 25.0795 77.3828C20.5732 76.84 17.0341 76.182 14.6643 75.4653C13.4636 75.1022 12.6946 74.7623 12.2704 74.4922C11.734 74.1507 12.2501 74.2688 12.2599 74.9915L7.81789 75.0516C7.84025 76.7048 9.07131 77.7218 9.88487 78.2397C10.8106 78.829 12.0265 79.3087 13.3783 79.7175C16.1133 80.5446 19.9492 81.2393 24.5483 81.7933C33.7791 82.905 46.449 83.4911 60.3851 83.3027L60.3251 78.8607ZM12.1271 74.2645C12.2487 74.6 12.2172 74.9686 12.0922 75.2424C11.9983 75.4481 11.9075 75.4808 12.037 75.3788C12.3094 75.1641 12.9462 74.8223 14.112 74.4242C16.3828 73.6486 19.9291 72.8975 24.5085 72.2354C33.6227 70.9174 46.3973 70.0108 60.2029 69.8242L60.1428 65.3822C46.2099 65.5706 33.233 66.4852 23.8727 67.8387C19.2147 68.5123 15.343 69.3094 12.6762 70.2202C11.3732 70.6652 10.1612 71.2011 9.28769 71.8894C8.84417 72.2388 8.35607 72.7292 8.0509 73.3979C7.71471 74.1344 7.65795 74.9711 7.95067 75.7786L12.1271 74.2645ZM60.2029 69.8242C73.9002 69.639 86.3385 71.1358 95.3574 72.6817C99.8638 73.4542 103.509 74.2376 106.021 74.8261C107.277 75.1203 108.249 75.3657 108.903 75.5365C109.231 75.6219 109.479 75.6887 109.643 75.7335C109.725 75.756 109.786 75.7729 109.826 75.784C109.845 75.7895 109.86 75.7936 109.869 75.7962C109.874 75.7974 109.877 75.7983 109.878 75.7988C109.879 75.7991 109.88 75.7993 109.88 75.7993C109.88 75.7994 109.88 75.7993 109.88 75.7993C109.88 75.7993 109.88 75.7992 110.489 73.6631C111.097 71.527 111.097 71.5269 111.096 71.5267C111.096 71.5266 111.096 71.5265 111.095 71.5263C111.094 71.526 111.092 71.5255 111.09 71.525C111.087 71.524 111.082 71.5225 111.075 71.5207C111.062 71.5171 111.044 71.5119 111.02 71.5053C110.973 71.4921 110.904 71.4729 110.814 71.4483C110.634 71.3991 110.369 71.3279 110.025 71.2381C109.337 71.0585 108.328 70.8041 107.034 70.5009C104.446 69.8946 100.713 69.0926 96.108 68.3032C86.9037 66.7255 74.1841 65.1923 60.1428 65.3822L60.2029 69.8242ZM115.573 27.5323C115.049 27.7199 114.422 27.3847 114.35 26.7593L118.763 26.2473C118.497 23.9595 116.174 22.598 114.075 23.3501L115.573 27.5323ZM63.3996 2.81931C60.9152 0.308638 56.8814 0.238757 54.3114 2.66187L57.359 5.89407C58.1742 5.1254 59.4538 5.14756 60.242 5.94401L63.3996 2.81931ZM6.09306 28.2961C6.00259 28.9082 5.38793 29.2246 4.87606 29.0445L6.35051 24.8539C4.29997 24.1324 2.02743 25.4208 1.69845 27.6465L6.09306 28.2961Z" fill="#47230F" mask="url(#path-1-outside-1_624_7116)"/>
<mask id="mask0_624_7116" style="mask-type:alpha" maskUnits="userSpaceOnUse" x="3" y="3" width="115" height="79">
<mask id="path-3-inside-2_624_7116" fill="white">
<path d="M5.61426 26.9482C4.84493 26.6775 4.01598 27.1635 3.89673 27.9703C0.870472 48.4443 7.90206 69.7528 10.0398 75.0206L110.49 73.6621C115.67 59.4294 118.32 41.6938 116.557 26.5024C116.461 25.6711 115.612 25.158 114.825 25.4402L88.7842 34.7685C86.0177 35.8376 82.896 34.5782 81.646 31.8885C77.5937 23.1693 72.1645 15.159 65.5666 8.16503L61.8218 4.38068C60.1855 2.72712 57.5288 2.6811 55.8362 4.27699L52.2089 7.69704C45.4753 14.9847 40.1591 23.4638 36.533 32.6998C35.526 35.2648 32.639 36.5379 30.0659 35.5516L5.61426 26.9482Z"/>
<path d="M110.49 73.6621C111.108 77.0572 88.0947 80.7056 60.3561 81.0807C32.6175 81.4558 10.0902 78.7426 10.0398 75.0206C8.67097 71.2446 32.4353 67.9773 60.1738 67.6022C87.9124 67.2271 110.49 73.6621 110.49 73.6621Z"/>
</mask>
<path d="M5.61426 26.9482C4.84493 26.6775 4.01598 27.1635 3.89673 27.9703C0.870472 48.4443 7.90206 69.7528 10.0398 75.0206L110.49 73.6621C115.67 59.4294 118.32 41.6938 116.557 26.5024C116.461 25.6711 115.612 25.158 114.825 25.4402L88.7842 34.7685C86.0177 35.8376 82.896 34.5782 81.646 31.8885C77.5937 23.1693 72.1645 15.159 65.5666 8.16503L61.8218 4.38068C60.1855 2.72712 57.5288 2.6811 55.8362 4.27699L52.2089 7.69704C45.4753 14.9847 40.1591 23.4638 36.533 32.6998C35.526 35.2648 32.639 36.5379 30.0659 35.5516L5.61426 26.9482Z" fill="url(#paint2_linear_624_7116)"/>
<path d="M110.49 73.6621C111.108 77.0572 88.0947 80.7056 60.3561 81.0807C32.6175 81.4558 10.0902 78.7426 10.0398 75.0206C8.67097 71.2446 32.4353 67.9773 60.1738 67.6022C87.9124 67.2271 110.49 73.6621 110.49 73.6621Z" fill="url(#paint3_linear_624_7116)"/>
<path d="M30.0659 35.5516L32.0716 30.3192L31.9991 30.2914L31.9258 30.2656L30.0659 35.5516ZM88.7842 34.7685L86.8945 29.4931L86.829 29.5165L86.7642 29.5416L88.7842 34.7685ZM65.5666 8.16503L69.6427 4.31976L69.5968 4.27107L69.5497 4.22349L65.5666 8.16503ZM52.2089 7.69704L48.3647 3.61991L48.2242 3.75237L48.0932 3.89418L52.2089 7.69704ZM36.533 32.6998L31.317 30.6519L31.317 30.6519L36.533 32.6998ZM81.646 31.8885L76.5643 34.2502L76.5643 34.2503L81.646 31.8885ZM114.825 25.4402L112.935 20.1648L114.825 25.4402ZM116.557 26.5024L110.991 27.1482L116.557 26.5024ZM61.8218 4.38068L65.8049 0.439153L61.8218 4.38068ZM55.8362 4.27699L59.6804 8.35412L55.8362 4.27699ZM5.61426 26.9482L3.75437 32.2342L5.61426 26.9482ZM15.2322 72.9134C13.237 67.9968 6.63001 47.8016 9.44016 28.7897L-1.64669 27.1509C-4.88906 49.087 2.56714 71.5087 4.84748 77.1278L15.2322 72.9134ZM3.75437 32.2342L28.206 40.8376L31.9258 30.2656L7.47414 21.6622L3.75437 32.2342ZM90.674 40.0439L116.714 30.7156L112.935 20.1648L86.8945 29.4931L90.674 40.0439ZM110.414 68.059L9.96407 69.4174L10.1156 80.6237L110.565 79.2653L110.414 68.059ZM57.8387 8.32222L61.5835 12.1066L69.5497 4.22349L65.8049 0.439153L57.8387 8.32222ZM56.0531 11.7742L59.6804 8.35412L51.992 0.199867L48.3647 3.61991L56.0531 11.7742ZM110.991 27.1482C112.639 41.3506 110.152 58.2069 105.224 71.7454L115.755 75.5788C121.189 60.652 124.001 42.037 122.124 25.8565L110.991 27.1482ZM41.7491 34.7477C45.1207 26.16 50.0636 18.276 56.3247 11.4999L48.0932 3.89418C40.8869 11.6934 35.1976 20.7676 31.317 30.6519L41.7491 34.7477ZM61.4905 12.0103C67.6757 18.5669 72.7654 26.0762 76.5643 34.2502L86.7276 29.5268C82.4219 20.2623 76.6532 11.7511 69.6427 4.31976L61.4905 12.0103ZM86.7642 29.5416C86.7603 29.5431 86.7577 29.5439 86.7564 29.5443C86.755 29.5446 86.7544 29.5447 86.7544 29.5447C86.7543 29.5448 86.7545 29.5447 86.7549 29.5447C86.7552 29.5447 86.7554 29.5447 86.7554 29.5447C86.7555 29.5447 86.7544 29.5447 86.752 29.5442C86.7496 29.5437 86.7465 29.5428 86.743 29.5414C86.7396 29.54 86.7367 29.5385 86.7346 29.5372C86.7326 29.5359 86.7318 29.5351 86.7318 29.5352C86.7319 29.5352 86.732 29.5353 86.7322 29.5356C86.7324 29.5358 86.7326 29.536 86.7325 29.5359C86.7325 29.5359 86.7321 29.5354 86.7314 29.5342C86.7307 29.533 86.7294 29.5306 86.7276 29.5268L76.5643 34.2503C79.058 39.6158 85.2853 42.1282 90.8042 39.9954L86.7642 29.5416ZM28.0603 40.784C33.5066 42.8717 39.6175 40.177 41.7491 34.7476L31.317 30.6519C31.4345 30.3526 31.7714 30.2041 32.0716 30.3192L28.0603 40.784ZM104.977 74.6659C104.702 73.1588 105.187 71.9224 105.662 71.2052C106.072 70.587 106.483 70.3181 106.495 70.3096C106.519 70.2935 106.149 70.5212 105.064 70.8788C103.003 71.5581 99.6787 72.2885 95.2183 72.9633C86.3828 74.3001 73.9572 75.2926 60.2803 75.4776L60.4319 86.6839C74.4936 86.4937 87.4438 85.4745 96.8949 84.0445C101.578 83.336 105.625 82.4943 108.572 81.5228C109.991 81.0551 111.534 80.4378 112.806 79.571C113.675 78.9786 116.733 76.6687 116.003 72.6583L104.977 74.6659ZM60.2803 75.4776C46.5798 75.6628 34.2742 75.0822 25.4849 74.0236C21.0493 73.4894 17.7361 72.8593 15.6444 72.2267C15.1399 72.0741 14.7554 71.9358 14.4749 71.8193C14.1839 71.6984 14.0755 71.6301 14.0877 71.6378C14.0988 71.6449 14.1681 71.6895 14.2727 71.7789C14.3759 71.8671 14.5444 72.0251 14.7305 72.2643C15.1155 72.7589 15.6259 73.6794 15.643 74.9448L4.43671 75.0963C4.48352 78.5585 7.04488 80.4399 8.06948 81.0921C9.37699 81.9244 10.9332 82.5105 12.4002 82.9542C15.4133 83.8654 19.475 84.5881 24.1448 85.1505C33.5665 86.2852 46.3938 86.8737 60.4319 86.6839L60.2803 75.4776ZM15.308 73.1107C15.7451 74.3165 15.6464 75.6028 15.1703 76.6458C14.7726 77.5173 14.241 77.9483 14.1313 78.0347C13.9461 78.1806 14.1449 77.9866 15.2061 77.6241C17.1755 76.9515 20.474 76.2356 24.9935 75.582C33.9205 74.2912 46.5409 73.3907 60.2496 73.2054L60.0981 61.9991C46.0682 62.1888 32.9372 63.1095 23.3896 64.4901C18.6718 65.1723 14.5523 66.0046 11.584 67.0183C10.1764 67.499 8.52648 68.1827 7.19532 69.2315C6.51268 69.7694 5.58377 70.6581 4.97475 71.9924C4.28747 73.4983 4.16348 75.2527 4.7717 76.9304L15.308 73.1107ZM60.2496 73.2054C73.685 73.0237 85.9091 74.4928 94.7869 76.0146C99.2181 76.7742 102.796 77.5434 105.25 78.1184C106.477 78.4058 107.422 78.6444 108.05 78.8085C108.365 78.8905 108.6 78.9539 108.752 78.9954C108.828 79.0162 108.883 79.0315 108.917 79.0409C108.934 79.0456 108.945 79.0488 108.951 79.0506C108.955 79.0514 108.956 79.0519 108.957 79.052C108.957 79.0521 108.957 79.052 108.956 79.0519C108.956 79.0518 108.955 79.0516 108.955 79.0516C108.954 79.0514 108.954 79.0512 110.49 73.6621C112.026 68.2731 112.025 68.2728 112.024 68.2725C112.023 68.2724 112.022 68.272 112.021 68.2718C112.019 68.2712 112.017 68.2706 112.014 68.2699C112.009 68.2684 112.003 68.2666 111.995 68.2644C111.979 68.2599 111.958 68.2539 111.931 68.2465C111.878 68.2316 111.803 68.2108 111.706 68.1845C111.514 68.1319 111.237 68.0574 110.88 67.9642C110.166 67.7779 109.13 67.5166 107.807 67.2066C105.161 66.5868 101.361 65.7707 96.6804 64.9684C87.335 63.3665 74.4013 61.8057 60.0981 61.9991L60.2496 73.2054ZM116.714 30.7156C114.193 31.6188 111.321 29.9917 110.991 27.1482L122.124 25.8565C121.601 21.3505 117.032 18.6972 112.935 20.1648L116.714 30.7156ZM65.8049 0.439153C62.0288 -3.37675 55.8979 -3.48297 51.992 0.199867L59.6804 8.35412C59.1596 8.84517 58.3421 8.831 57.8387 8.32222L65.8049 0.439153ZM9.44016 28.7897C9.03029 31.5626 6.2173 33.1008 3.75437 32.2342L7.47414 21.6622C3.47255 20.2542 -0.998325 22.7644 -1.64669 27.1509L9.44016 28.7897Z" fill="black" mask="url(#path-3-inside-2_624_7116)"/>
</mask>
<g mask="url(#mask0_624_7116)">
<g style="mix-blend-mode:overlay" filter="url(#filter2_f_624_7116)">
<path d="M148.912 49.219C150.562 76.9938 101.976 40.4144 52.8705 43.3315C3.76524 46.2486 -27.2639 87.5576 -28.9138 59.7829C-30.5638 32.0081 7.90635 7.12739 57.0117 4.21027C106.117 1.29315 147.262 21.4443 148.912 49.219Z" fill="white" fill-opacity="0.2"/>
</g>
<g style="mix-blend-mode:overlay" filter="url(#filter3_f_624_7116)">
<rect x="48.1514" y="-4.96094" width="27.8664" height="95.7372" fill="white" fill-opacity="0.2"/>
</g>
<g style="mix-blend-mode:multiply" filter="url(#filter4_f_624_7116)">
<rect x="90.3779" y="-0.345703" width="32.8242" height="95.7372" fill="#EF9E54" fill-opacity="0.3"/>
</g>
<g style="mix-blend-mode:overlay">
<path d="M48.4912 18.6313V36.1006C48.4912 39.4523 51.4138 42.0543 54.743 41.6667L68.8662 40.0222C71.5293 39.7121 73.5997 37.5591 73.8053 34.8859L74.3378 27.9631C74.5363 25.3822 73.7064 22.8243 71.9751 20.8999C67.2967 15.6998 60.6001 8.7657 58.2359 8.20279C55.3638 7.51896 50.5427 14.8702 48.4912 18.6313Z" fill="url(#paint4_linear_624_7116)" fill-opacity="0.4"/>
</g>
<g style="mix-blend-mode:multiply" filter="url(#filter5_f_624_7116)">
<rect x="-24.6787" y="-0.858398" width="55.0489" height="95.7372" fill="#EF9E54" fill-opacity="0.3"/>
</g>
<ellipse cx="60.589" cy="75.4325" rx="52.4845" ry="6.41097" fill="#C87325" stroke="#FFCF51" stroke-width="1.15369"/>
<ellipse cx="59.905" cy="75.5186" rx="43.2527" ry="2.90631" fill="#844307"/>
</g>
<ellipse cx="68.9495" cy="18.2893" rx="9.77531" ry="3.62455" transform="rotate(55.8242 68.9495 18.2893)" fill="#FFEE8F"/>
<ellipse cx="68.5981" cy="17.5296" rx="6.27188" ry="1.98844" transform="rotate(52.2902 68.5981 17.5296)" fill="white"/>
<path d="M64.8714 32.4939L61.6587 29.1263C60.9604 28.3943 59.7887 28.4053 59.1042 29.1502L56.1636 32.3503C49.8511 39.2199 44.9604 47.2707 41.7733 56.039C41.4255 56.996 42.0818 58.022 43.0964 58.1075L52.6192 58.9098C57.7801 59.3446 62.9684 59.3446 68.1293 58.9098L77.861 58.0899C78.7731 58.0131 79.3744 57.1047 79.0888 56.235C76.1752 47.362 71.318 39.2512 64.8714 32.4939Z" fill="#FA0677" stroke="#C87325" stroke-width="0.824066"/>
<mask id="mask1_624_7116" style="mask-type:alpha" maskUnits="userSpaceOnUse" x="42" y="28" width="37" height="31">
<path d="M61.1817 29.5804L64.3944 32.948C70.7732 39.6343 75.5794 47.66 78.4625 56.4397C78.6153 56.905 78.2936 57.3909 77.8056 57.432L68.074 58.2519C62.9499 58.6835 57.7986 58.6835 52.6745 58.2519L43.1518 57.4496C42.5698 57.4006 42.1934 56.8121 42.3929 56.2632C45.5503 47.5767 50.3954 39.6009 56.6491 32.7954L59.5897 29.5953C60.0162 29.131 60.7465 29.1242 61.1817 29.5804Z" fill="#FA0677" stroke="#C87325" stroke-width="0.49444"/>
</mask>
<g mask="url(#mask1_624_7116)">
<path d="M60.4613 48.8914V27.3506L50.2037 31.9665L40.2881 57.7813L60.4613 48.8914Z" fill="#C80660"/>
<path d="M60.4596 47.8653V28.376L70.7172 30.9404L80.6328 56.7552L60.4596 47.8653Z" fill="#FFAED4"/>
</g>
<g filter="url(#filter6_i_624_7116)">
<path d="M58.6811 37.0575C59.5967 36.0607 61.1645 36.046 62.0986 37.0255L63.9198 38.9353C67.2365 42.4131 69.7353 46.5872 71.2342 51.1532V51.1532C71.5803 52.2078 70.8512 53.3092 69.7452 53.4024L66.695 53.6595C62.4876 54.0141 58.2578 54.0141 54.0504 53.6595L51.2971 53.4274C50.0552 53.3228 49.2519 52.067 49.6775 50.8956V50.8956C51.2792 46.4873 53.7374 42.4395 56.9102 38.9853L58.6811 37.0575Z" fill="url(#paint5_linear_624_7116)"/>
</g>
</g>
<defs>
<filter id="filter0_d_624_7116" x="0.929688" y="0.889648" width="118.392" height="84.9204" filterUnits="userSpaceOnUse" color-interpolation-filters="sRGB">
<feFlood flood-opacity="0" result="BackgroundImageFix"/>
<feColorMatrix in="SourceAlpha" type="matrix" values="0 0 0 0 0 0 0 0 0 0 0 0 0 0 0 0 0 0 127 0" result="hardAlpha"/>
<feOffset dy="2.4722"/>
<feComposite in2="hardAlpha" operator="out"/>
<feColorMatrix type="matrix" values="0 0 0 0 0 0 0 0 0 0 0 0 0 0 0 0 0 0 0.35 0"/>
<feBlend mode="normal" in2="BackgroundImageFix" result="effect1_dropShadow_624_7116"/>
<feBlend mode="normal" in="SourceGraphic" in2="effect1_dropShadow_624_7116" result="shape"/>
</filter>
<filter id="filter1_ii_624_7116" x="0.929688" y="0.889648" width="118.392" height="82.4482" filterUnits="userSpaceOnUse" color-interpolation-filters="sRGB">
<feFlood flood-opacity="0" result="BackgroundImageFix"/>
<feBlend mode="normal" in="SourceGraphic" in2="BackgroundImageFix" result="shape"/>
<feColorMatrix in="SourceAlpha" type="matrix" values="0 0 0 0 0 0 0 0 0 0 0 0 0 0 0 0 0 0 127 0" result="hardAlpha"/>
<feOffset dy="-7.25178"/>
<feComposite in2="hardAlpha" operator="arithmetic" k2="-1" k3="1"/>
<feColorMatrix type="matrix" values="0 0 0 0 1 0 0 0 0 0.843678 0 0 0 0 0.433333 0 0 0 1 0"/>
<feBlend mode="normal" in2="shape" result="effect1_innerShadow_624_7116"/>
<feColorMatrix in="SourceAlpha" type="matrix" values="0 0 0 0 0 0 0 0 0 0 0 0 0 0 0 0 0 0 127 0" result="hardAlpha"/>
<feOffset dy="1.97776"/>
<feComposite in2="hardAlpha" operator="arithmetic" k2="-1" k3="1"/>
<feColorMatrix type="matrix" values="0 0 0 0 1 0 0 0 0 0.908 0 0 0 0 0.425 0 0 0 1 0"/>
<feBlend mode="normal" in2="effect1_innerShadow_624_7116" result="effect2_innerShadow_624_7116"/>
</filter>
<filter id="filter2_f_624_7116" x="-38.0296" y="-5.13504" width="196.047" height="83.5396" filterUnits="userSpaceOnUse" color-interpolation-filters="sRGB">
<feFlood flood-opacity="0" result="BackgroundImageFix"/>
<feBlend mode="normal" in="SourceGraphic" in2="BackgroundImageFix" result="shape"/>
<feGaussianBlur stdDeviation="4.53237" result="effect1_foregroundBlur_624_7116"/>
</filter>
<filter id="filter3_f_624_7116" x="44.8551" y="-8.2572" width="34.4587" height="102.33" filterUnits="userSpaceOnUse" color-interpolation-filters="sRGB">
<feFlood flood-opacity="0" result="BackgroundImageFix"/>
<feBlend mode="normal" in="SourceGraphic" in2="BackgroundImageFix" result="shape"/>
<feGaussianBlur stdDeviation="1.64813" result="effect1_foregroundBlur_624_7116"/>
</filter>
<filter id="filter4_f_624_7116" x="87.9057" y="-2.8179" width="37.7686" height="100.682" filterUnits="userSpaceOnUse" color-interpolation-filters="sRGB">
<feFlood flood-opacity="0" result="BackgroundImageFix"/>
<feBlend mode="normal" in="SourceGraphic" in2="BackgroundImageFix" result="shape"/>
<feGaussianBlur stdDeviation="1.2361" result="effect1_foregroundBlur_624_7116"/>
</filter>
<filter id="filter5_f_624_7116" x="-27.1509" y="-3.3306" width="59.9932" height="100.682" filterUnits="userSpaceOnUse" color-interpolation-filters="sRGB">
<feFlood flood-opacity="0" result="BackgroundImageFix"/>
<feBlend mode="normal" in="SourceGraphic" in2="BackgroundImageFix" result="shape"/>
<feGaussianBlur stdDeviation="1.2361" result="effect1_foregroundBlur_624_7116"/>
</filter>
<filter id="filter6_i_624_7116" x="49.5625" y="36.2998" width="21.7588" height="17.626" filterUnits="userSpaceOnUse" color-interpolation-filters="sRGB">
<feFlood flood-opacity="0" result="BackgroundImageFix"/>
<feBlend mode="normal" in="SourceGraphic" in2="BackgroundImageFix" result="shape"/>
<feColorMatrix in="SourceAlpha" type="matrix" values="0 0 0 0 0 0 0 0 0 0 0 0 0 0 0 0 0 0 127 0" result="hardAlpha"/>
<feOffset dx="-0.164813" dy="0.659253"/>
<feComposite in2="hardAlpha" operator="arithmetic" k2="-1" k3="1"/>
<feColorMatrix type="matrix" values="0 0 0 0 1 0 0 0 0 0.733333 0 0 0 0 0.909804 0 0 0 1 0"/>
<feBlend mode="normal" in2="shape" result="effect1_innerShadow_624_7116"/>
</filter>
<linearGradient id="paint0_linear_624_7116" x1="42.2478" y1="6.08882" x2="79.2319" y2="88.8876" gradientUnits="userSpaceOnUse">
<stop stop-color="#FFCA39"/>
<stop offset="1" stop-color="#FE9B34"/>
</linearGradient>
<linearGradient id="paint1_linear_624_7116" x1="42.2478" y1="6.08882" x2="79.2319" y2="88.8876" gradientUnits="userSpaceOnUse">
<stop stop-color="#FFCA39"/>
<stop offset="1" stop-color="#FE9B34"/>
</linearGradient>
<linearGradient id="paint2_linear_624_7116" x1="42.108" y1="-5.33" x2="83.367" y2="94.7331" gradientUnits="userSpaceOnUse">
<stop stop-color="#FFCA39"/>
<stop offset="0.776042" stop-color="#FF9839"/>
<stop offset="1" stop-color="#FFCF2F"/>
</linearGradient>
<linearGradient id="paint3_linear_624_7116" x1="42.108" y1="-5.33" x2="83.367" y2="94.7331" gradientUnits="userSpaceOnUse">
<stop stop-color="#FFCA39"/>
<stop offset="0.776042" stop-color="#FF9839"/>
<stop offset="1" stop-color="#FFCF2F"/>
</linearGradient>
<linearGradient id="paint4_linear_624_7116" x1="61.5696" y1="8.1582" x2="61.5696" y2="39.4883" gradientUnits="userSpaceOnUse">
<stop stop-color="white"/>
<stop offset="1" stop-color="white" stop-opacity="0"/>
</linearGradient>
<linearGradient id="paint5_linear_624_7116" x1="60.4582" y1="32.3095" x2="60.4582" y2="54.1923" gradientUnits="userSpaceOnUse">
<stop stop-color="#FF5FD2"/>
<stop offset="0.0001" stop-color="#C80660"/>
<stop offset="1" stop-color="#FF60CC"/>
</linearGradient>
</defs>
</svg>
