<svg width="284" height="221" viewBox="0 0 284 221" fill="none" xmlns="http://www.w3.org/2000/svg">
<g filter="url(#filter0_i_631_13711)">
<path fill-rule="evenodd" clip-rule="evenodd" d="M221.682 77.8991L274.787 37.4938C276.777 35.9798 279.93 37.1841 279.93 39.458V48.1455V72.1164V80.8039C279.93 90.5724 273.19 99.4267 262.727 103.405L224.995 117.749C222.953 118.526 220.651 117.252 220.651 115.345V106.658V88.5508V79.8633C220.651 79.1132 221.026 78.3986 221.682 77.8991ZM222.458 122.778L257.964 108.988C260.009 108.194 262.332 109.468 262.332 111.383V120.071V125.222V133.909C262.332 142.865 254.115 150.255 243.627 150.733L223.903 151.633C222.136 151.714 220.651 150.513 220.651 149.004V140.317V133.861V125.174C220.651 124.142 221.357 123.205 222.458 122.778Z" fill="#63CBFE"/>
</g>
<path d="M274.787 37.4938L272.555 34.5607V34.5607L274.787 37.4938ZM221.682 77.8991L219.451 74.9661H219.451L221.682 77.8991ZM262.727 103.405L261.417 99.9598L262.727 103.405ZM224.995 117.749L226.305 121.194H226.305L224.995 117.749ZM257.964 108.988L259.299 112.423H259.299L257.964 108.988ZM222.458 122.778L221.124 119.342L221.124 119.342L222.458 122.778ZM243.627 150.733L243.795 154.415L243.627 150.733ZM223.903 151.633L223.735 147.951H223.735L223.903 151.633ZM272.555 34.5607L219.451 74.9661L223.914 80.8322L277.019 40.4269L272.555 34.5607ZM283.616 39.458C283.616 36.3914 281.468 34.3949 279.42 33.6125C277.36 32.826 274.7 32.9285 272.555 34.5607L277.019 40.4269C276.945 40.4829 276.874 40.5011 276.84 40.5049C276.819 40.5073 276.809 40.5057 276.79 40.4985C276.775 40.4929 276.661 40.4476 276.527 40.2791C276.371 40.0848 276.245 39.7871 276.245 39.458H283.616ZM283.616 48.1455V39.458H276.245V48.1455H283.616ZM283.616 72.1164V48.1455H276.245V72.1164H283.616ZM283.616 80.8039V72.1164H276.245V80.8039H283.616ZM264.036 106.85C275.66 102.431 283.616 92.3728 283.616 80.8039H276.245C276.245 88.772 270.721 96.4227 261.417 99.9598L264.036 106.85ZM226.305 121.194L264.036 106.85L261.417 99.9598L223.686 114.304L226.305 121.194ZM216.965 115.345C216.965 117.916 218.533 119.815 220.273 120.778C222.012 121.741 224.228 121.984 226.305 121.194L223.686 114.304C223.721 114.291 223.764 114.286 223.842 114.329C223.89 114.356 224.005 114.432 224.118 114.604C224.242 114.791 224.336 115.054 224.336 115.345H216.965ZM216.965 106.658V115.345H224.336V106.658H216.965ZM216.965 88.5508V106.658H224.336V88.5508H216.965ZM216.965 79.8633V88.5508H224.336V79.8633H216.965ZM219.451 74.9661C217.983 76.0826 216.965 77.8362 216.965 79.8633H224.336C224.336 80.3901 224.069 80.7146 223.914 80.8322L219.451 74.9661ZM256.63 105.552L221.124 119.342L223.793 126.213L259.299 112.423L256.63 105.552ZM266.017 111.383C266.017 108.8 264.436 106.897 262.687 105.938C260.939 104.979 258.712 104.744 256.63 105.552L259.299 112.423C259.261 112.438 259.218 112.442 259.142 112.401C259.094 112.374 258.98 112.299 258.865 112.127C258.741 111.939 258.646 111.676 258.646 111.383H266.017ZM266.017 120.071V111.383H258.646V120.071H266.017ZM266.017 125.222V120.071H258.646V125.222H266.017ZM266.017 133.909V125.222H258.646V133.909H266.017ZM243.795 154.415C255.718 153.871 266.017 145.328 266.017 133.909H258.646C258.646 140.401 252.513 146.639 243.459 147.052L243.795 154.415ZM224.071 155.315L243.795 154.415L243.459 147.052L223.735 147.951L224.071 155.315ZM216.965 149.004C216.965 153.18 220.816 155.463 224.071 155.315L223.735 147.951C223.721 147.952 223.799 147.942 223.931 148.048C224.07 148.161 224.336 148.484 224.336 149.004H216.965ZM216.965 140.317V149.004H224.336V140.317H216.965ZM216.965 133.861V140.317H224.336V133.861H216.965ZM216.965 125.174V133.861H224.336V125.174H216.965ZM221.124 119.342C218.871 120.217 216.965 122.356 216.965 125.174H224.336C224.336 125.928 223.844 126.193 223.793 126.213L221.124 119.342Z" fill="#1C2E6F"/>
<g filter="url(#filter1_i_631_13711)">
<path fill-rule="evenodd" clip-rule="evenodd" d="M244.486 150.82L223.756 152.34C221.999 152.469 220.651 153.722 220.651 155.225V160.475C220.651 160.48 220.651 160.485 220.651 160.49V173.365C220.651 174.964 222.171 176.26 224.047 176.26H231.393C238.044 176.26 244.489 172.377 246.277 166.915L248.284 153.357C248.24 153.361 248.196 153.365 248.153 153.37C247.951 151.88 246.388 150.68 244.486 150.82Z" fill="#63CBFE"/>
</g>
<path d="M223.756 152.34L223.486 148.664H223.486L223.756 152.34ZM244.486 150.82L244.755 154.495L244.486 150.82ZM220.651 160.475L224.336 160.497L224.336 160.486V160.475H220.651ZM246.277 166.915L249.779 168.061L249.877 167.764L249.922 167.455L246.277 166.915ZM248.284 153.357L251.929 153.897L252.615 149.263L247.95 149.687L248.284 153.357ZM248.153 153.37L244.501 153.866L244.979 157.38L248.509 157.038L248.153 153.37ZM248.284 153.357L251.929 153.897L252.615 149.263L247.95 149.687L248.284 153.357ZM224.025 156.016L244.755 154.495L244.216 147.144L223.486 148.664L224.025 156.016ZM224.336 155.225C224.336 155.625 224.149 155.878 224.053 155.967C223.965 156.049 223.94 156.022 224.025 156.016L223.486 148.664C220.314 148.897 216.965 151.319 216.965 155.225H224.336ZM224.336 160.475V155.225H216.965V160.475H224.336ZM216.965 160.454C216.965 160.466 216.965 160.478 216.965 160.49H224.336C224.336 160.492 224.336 160.495 224.336 160.497L216.965 160.454ZM216.965 160.49V173.365H224.336V160.49H216.965ZM216.965 173.365C216.965 177.529 220.709 179.946 224.047 179.946V172.575C223.949 172.575 223.957 172.54 224.037 172.608C224.124 172.682 224.336 172.938 224.336 173.365H216.965ZM224.047 179.946H231.393V172.575H224.047V179.946ZM231.393 179.946C239.179 179.946 247.367 175.433 249.779 168.061L242.774 165.769C241.611 169.321 236.909 172.575 231.393 172.575V179.946ZM249.922 167.455L251.929 153.897L244.638 152.818L242.631 166.375L249.922 167.455ZM247.95 149.687C247.899 149.692 247.848 149.696 247.798 149.701L248.509 157.038C248.545 157.035 248.581 157.031 248.617 157.028L247.95 149.687ZM244.755 154.495C244.861 154.488 244.869 154.522 244.81 154.479C244.763 154.445 244.556 154.266 244.501 153.866L251.805 152.874C251.289 149.071 247.649 146.892 244.216 147.144L244.755 154.495ZM248.509 157.038C248.545 157.034 248.581 157.031 248.617 157.028L247.95 149.687C247.899 149.692 247.848 149.696 247.798 149.701L248.509 157.038ZM244.638 152.818L242.631 166.375L249.923 167.455L251.929 153.897L244.638 152.818Z" fill="#1C2E6F"/>
<path d="M274.787 46.1793L221.682 86.5847C221.026 87.0842 220.651 87.7987 220.651 88.5489V115.343C220.651 117.25 222.953 118.524 224.995 117.748L262.727 103.403C273.19 99.4248 279.93 90.5704 279.93 80.8019V48.1435C279.93 45.8697 276.777 44.6654 274.787 46.1793Z" fill="#3B6FBD"/>
<path d="M257.964 113.988L222.458 127.778C221.357 128.206 220.651 129.142 220.651 130.174V145.317C220.651 146.826 222.136 149.342 223.903 149.262L243.627 148.362C254.115 147.884 262.332 139.177 262.332 130.222V116.383C262.332 114.468 260.009 113.194 257.964 113.988Z" fill="#3B6FBD"/>
<path d="M240.719 155.333L223.756 157.607C221.999 157.735 220.651 158.989 220.651 160.492V173.366C220.651 174.965 222.171 176.262 224.047 176.262H231.393C238.044 176.262 244.489 172.379 246.277 166.916L248.284 153.359C243.936 153.754 243.081 155.16 240.719 155.333Z" fill="#3B6FBD"/>
<path d="M274.787 46.1793L221.682 86.5847C221.026 87.0842 220.651 87.7987 220.651 88.5489V115.343C220.651 117.25 222.953 118.524 224.995 117.748L262.727 103.403C273.19 99.4248 279.93 90.5704 279.93 80.8019V48.1435C279.93 45.8697 276.777 44.6654 274.787 46.1793Z" stroke="black"/>
<path d="M257.964 113.988L222.458 127.778C221.357 128.206 220.651 129.142 220.651 130.174V145.317C220.651 146.826 222.136 149.342 223.903 149.262L243.627 148.362C254.115 147.884 262.332 139.177 262.332 130.222V116.383C262.332 114.468 260.009 113.194 257.964 113.988Z" stroke="black"/>
<path d="M240.719 155.333L223.756 157.607C221.999 157.735 220.651 158.989 220.651 160.492V173.366C220.651 174.965 222.171 176.262 224.047 176.262H231.393C238.044 176.262 244.489 172.379 246.277 166.916L248.284 153.359C243.936 153.754 243.081 155.16 240.719 155.333Z" stroke="black"/>
<g filter="url(#filter2_i_631_13711)">
<path d="M274.787 37.4918L221.682 77.8972C221.026 78.3967 220.651 79.1112 220.651 79.8614V106.656C220.651 108.562 222.953 109.836 224.995 109.06L262.727 94.7153C273.19 90.7373 279.93 81.8829 279.93 72.1144V39.456C279.93 37.1822 276.777 35.9779 274.787 37.4918Z" fill="#63CBFE"/>
<path d="M257.964 108.986L222.458 122.776C221.357 123.204 220.651 124.14 220.651 125.172V140.315C220.651 141.824 222.136 143.024 223.903 142.944L243.627 142.044C254.115 141.566 262.332 134.175 262.332 125.22V111.381C262.332 109.466 260.009 108.192 257.964 108.986Z" fill="#63CBFE"/>
<path d="M244.486 150.821L223.756 152.341C221.999 152.47 220.651 153.723 220.651 155.226V168.101C220.651 169.7 222.171 170.997 224.047 170.997H231.393C238.044 170.997 243.88 167.219 245.668 161.757L248.048 154.484C248.685 152.538 246.847 150.648 244.486 150.821Z" fill="#63CBFE"/>
<path d="M274.787 37.4918L221.682 77.8972C221.026 78.3967 220.651 79.1112 220.651 79.8614V106.656C220.651 108.562 222.953 109.836 224.995 109.06L262.727 94.7153C273.19 90.7373 279.93 81.8829 279.93 72.1144V39.456C279.93 37.1822 276.777 35.9779 274.787 37.4918Z" stroke="black"/>
<path d="M257.964 108.986L222.458 122.776C221.357 123.204 220.651 124.14 220.651 125.172V140.315C220.651 141.824 222.136 143.024 223.903 142.944L243.627 142.044C254.115 141.566 262.332 134.175 262.332 125.22V111.381C262.332 109.466 260.009 108.192 257.964 108.986Z" stroke="black"/>
<path d="M244.486 150.821L223.756 152.341C221.999 152.47 220.651 153.723 220.651 155.226V168.101C220.651 169.7 222.171 170.997 224.047 170.997H231.393C238.044 170.997 243.88 167.219 245.668 161.757L248.048 154.484C248.685 152.538 246.847 150.648 244.486 150.821Z" stroke="black"/>
</g>
<g filter="url(#filter3_i_631_13711)">
<path fill-rule="evenodd" clip-rule="evenodd" d="M62.1535 77.8991L9.04895 37.4938C7.05915 35.9798 3.90582 37.1841 3.90582 39.458V48.1455V72.1164V80.8039C3.90582 90.5724 10.6456 99.4267 21.1092 103.405L58.8405 117.749C60.8826 118.526 63.1853 117.252 63.1853 115.345V106.658V88.5508V79.8633C63.1853 79.1132 62.8099 78.3986 62.1535 77.8991ZM61.3777 122.778L25.8717 108.988C23.8273 108.194 21.5044 109.468 21.5044 111.383V120.071V125.222V133.909C21.5044 142.865 29.7209 150.255 40.2088 150.733L59.9329 151.633C61.7003 151.714 63.1853 150.513 63.1853 149.004V140.317V133.861V125.174C63.1853 124.142 62.4787 123.205 61.3777 122.778Z" fill="#63CBFE"/>
</g>
<path d="M9.04895 37.4938L11.2806 34.5607V34.5607L9.04895 37.4938ZM62.1535 77.8991L64.3852 74.9661H64.3852L62.1535 77.8991ZM21.1092 103.405L22.4189 99.9598L21.1092 103.405ZM58.8405 117.749L57.5308 121.194H57.5308L58.8405 117.749ZM25.8717 108.988L24.5374 112.423H24.5374L25.8717 108.988ZM61.3777 122.778L62.712 119.342L62.712 119.342L61.3777 122.778ZM40.2088 150.733L40.0409 154.415L40.2088 150.733ZM59.9329 151.633L60.1008 147.951H60.1008L59.9329 151.633ZM11.2806 34.5607L64.3852 74.9661L59.9218 80.8322L6.81728 40.4269L11.2806 34.5607ZM0.220272 39.458C0.220272 36.3914 2.36753 34.3949 4.4163 33.6125C6.47555 32.826 9.13544 32.9285 11.2806 34.5607L6.81728 40.4269C6.89093 40.4829 6.96234 40.5011 6.99554 40.5049C7.01704 40.5073 7.02725 40.5057 7.04611 40.4985C7.06066 40.4929 7.17466 40.4476 7.30923 40.2791C7.46444 40.0848 7.59136 39.7871 7.59136 39.458H0.220272ZM0.220272 48.1455V39.458H7.59136V48.1455H0.220272ZM0.220272 72.1164V48.1455H7.59136V72.1164H0.220272ZM0.220272 80.8039V72.1164H7.59136V80.8039H0.220272ZM19.7995 106.85C8.17591 102.431 0.220272 92.3728 0.220272 80.8039H7.59136C7.59136 88.772 13.1153 96.4227 22.4189 99.9598L19.7995 106.85ZM57.5308 121.194L19.7995 106.85L22.4189 99.9598L60.1502 114.304L57.5308 121.194ZM66.8708 115.345C66.8708 117.916 65.3033 119.815 63.5632 120.778C61.8238 121.741 59.6078 121.984 57.5308 121.194L60.1502 114.304C60.1153 114.291 60.0717 114.286 59.9942 114.329C59.9454 114.356 59.8314 114.432 59.7176 114.604C59.5941 114.791 59.4998 115.054 59.4998 115.345H66.8708ZM66.8708 106.658V115.345H59.4998V106.658H66.8708ZM66.8708 88.5508V106.658H59.4998V88.5508H66.8708ZM66.8708 79.8633V88.5508H59.4998V79.8633H66.8708ZM64.3852 74.9661C65.8527 76.0826 66.8708 77.8362 66.8708 79.8633H59.4998C59.4998 80.3901 59.7672 80.7146 59.9218 80.8322L64.3852 74.9661ZM27.2061 105.552L62.712 119.342L60.0434 126.213L24.5374 112.423L27.2061 105.552ZM17.8189 111.383C17.8189 108.8 19.4002 106.897 21.1489 105.938C22.8971 104.979 25.1244 104.744 27.2061 105.552L24.5374 112.423C24.5746 112.438 24.6183 112.442 24.6939 112.401C24.742 112.374 24.8562 112.299 24.9705 112.127C25.0948 111.939 25.19 111.676 25.19 111.383H17.8189ZM17.8189 120.071V111.383H25.19V120.071H17.8189ZM17.8189 125.222V120.071H25.19V125.222H17.8189ZM17.8189 133.909V125.222H25.19V133.909H17.8189ZM40.0409 154.415C28.1183 153.871 17.8189 145.328 17.8189 133.909H25.19C25.19 140.401 31.3234 146.639 40.3767 147.052L40.0409 154.415ZM59.765 155.315L40.0409 154.415L40.3767 147.052L60.1008 147.951L59.765 155.315ZM66.8708 149.004C66.8708 153.18 63.0202 155.463 59.765 155.315L60.1008 147.951C60.1151 147.952 60.0372 147.942 59.9052 148.048C59.7655 148.161 59.4998 148.484 59.4998 149.004H66.8708ZM66.8708 140.317V149.004H59.4998V140.317H66.8708ZM66.8708 133.861V140.317H59.4998V133.861H66.8708ZM66.8708 125.174V133.861H59.4998V125.174H66.8708ZM62.712 119.342C64.9652 120.217 66.8708 122.356 66.8708 125.174H59.4998C59.4998 125.928 59.9921 126.193 60.0433 126.213L62.712 119.342Z" fill="#1C2E6F"/>
<g filter="url(#filter4_i_631_13711)">
<path fill-rule="evenodd" clip-rule="evenodd" d="M39.3501 150.82L60.0801 152.34C61.8365 152.469 63.1852 153.722 63.1852 155.225V160.473C63.1853 160.479 63.1853 160.485 63.1853 160.49V173.365C63.1853 174.964 61.6648 176.26 59.7891 176.26H52.4426C45.7918 176.26 39.3469 172.377 37.5593 166.915L35.5524 153.357C35.5961 153.361 35.6395 153.365 35.6825 153.37C35.8848 151.88 37.4476 150.68 39.3501 150.82Z" fill="#63CBFE"/>
</g>
<path d="M60.0801 152.34L60.3497 148.664H60.3497L60.0801 152.34ZM39.3501 150.82L39.0805 154.495L39.3501 150.82ZM63.1852 160.473L59.4998 160.498L59.4997 160.486V160.473H63.1852ZM37.5593 166.915L34.0565 168.061L33.9593 167.764L33.9135 167.455L37.5593 166.915ZM35.5524 153.357L31.9066 153.897L31.2207 149.263L35.8858 149.687L35.5524 153.357ZM35.6825 153.37L39.3345 153.866L38.8572 157.38L35.3266 157.038L35.6825 153.37ZM35.5523 153.357L31.9065 153.897L31.2205 149.263L35.8856 149.687L35.5523 153.357ZM59.8105 156.016L39.0805 154.495L39.6197 147.144L60.3497 148.664L59.8105 156.016ZM59.4997 155.225C59.4997 155.625 59.6869 155.878 59.7826 155.967C59.8707 156.049 59.8963 156.022 59.8105 156.016L60.3497 148.664C63.5223 148.897 66.8708 151.319 66.8708 155.225H59.4997ZM59.4997 160.473V155.225H66.8708V160.473H59.4997ZM66.8707 160.449C66.8708 160.463 66.8708 160.476 66.8708 160.49H59.4998C59.4998 160.493 59.4998 160.495 59.4998 160.498L66.8707 160.449ZM66.8708 160.49V173.365H59.4998V160.49H66.8708ZM66.8708 173.365C66.8708 177.529 63.1274 179.946 59.7891 179.946V172.575C59.8869 172.575 59.8789 172.54 59.7993 172.608C59.7119 172.682 59.4998 172.938 59.4998 173.365H66.8708ZM59.7891 179.946H52.4426V172.575H59.7891V179.946ZM52.4426 179.946C44.6569 179.946 36.4691 175.433 34.0565 168.061L41.062 165.769C42.2247 169.321 46.9268 172.575 52.4426 172.575V179.946ZM33.9135 167.455L31.9066 153.897L39.1982 152.818L41.2051 166.375L33.9135 167.455ZM35.8858 149.687C35.937 149.692 35.9878 149.696 36.0383 149.701L35.3266 157.038C35.2911 157.035 35.2553 157.031 35.219 157.028L35.8858 149.687ZM39.0805 154.495C38.9746 154.488 38.9665 154.522 39.0261 154.479C39.073 154.445 39.2801 154.266 39.3345 153.866L32.0305 152.874C32.5469 149.071 36.1865 146.892 39.6197 147.144L39.0805 154.495ZM35.3266 157.038C35.2911 157.034 35.2552 157.031 35.2189 157.028L35.8856 149.687C35.9369 149.692 35.9878 149.696 36.0384 149.701L35.3266 157.038ZM39.1981 152.818L41.205 166.375L33.9133 167.455L31.9065 153.897L39.1981 152.818Z" fill="#1C2E6F"/>
<path d="M9.04895 46.1793L62.1535 86.5847C62.8099 87.0842 63.1853 87.7987 63.1853 88.5489V115.343C63.1853 117.25 60.8826 118.524 58.8405 117.748L21.1092 103.403C10.6456 99.4248 3.90582 90.5704 3.90582 80.8019V48.1435C3.90582 45.8697 7.05915 44.6654 9.04895 46.1793Z" fill="#3B6FBD"/>
<path d="M25.8717 113.988L61.3777 127.778C62.4787 128.206 63.1853 129.142 63.1853 130.174V145.317C63.1853 146.826 61.7003 149.342 59.9329 149.262L40.2088 148.362C29.7209 147.884 21.5044 139.177 21.5044 130.222V116.383C21.5044 114.468 23.8273 113.194 25.8717 113.988Z" fill="#3B6FBD"/>
<path d="M43.1167 155.333L60.0802 157.607C61.8365 157.735 63.1853 158.989 63.1853 160.492V173.366C63.1853 174.965 61.6648 176.262 59.7891 176.262H52.4426C45.7918 176.262 39.3469 172.379 37.5593 166.916L35.5524 153.359C39.9 153.754 40.7554 155.16 43.1167 155.333Z" fill="#3B6FBD"/>
<path d="M9.04895 46.1793L62.1535 86.5847C62.8099 87.0842 63.1853 87.7987 63.1853 88.5489V115.343C63.1853 117.25 60.8826 118.524 58.8405 117.748L21.1092 103.403C10.6456 99.4248 3.90582 90.5704 3.90582 80.8019V48.1435C3.90582 45.8697 7.05915 44.6654 9.04895 46.1793Z" stroke="black"/>
<path d="M25.8717 113.988L61.3777 127.778C62.4787 128.206 63.1853 129.142 63.1853 130.174V145.317C63.1853 146.826 61.7003 149.342 59.9329 149.262L40.2088 148.362C29.7209 147.884 21.5044 139.177 21.5044 130.222V116.383C21.5044 114.468 23.8273 113.194 25.8717 113.988Z" stroke="black"/>
<path d="M43.1167 155.333L60.0802 157.607C61.8365 157.735 63.1853 158.989 63.1853 160.492V173.366C63.1853 174.965 61.6648 176.262 59.7891 176.262H52.4426C45.7918 176.262 39.3469 172.379 37.5593 166.916L35.5524 153.359C39.9 153.754 40.7554 155.16 43.1167 155.333Z" stroke="black"/>
<g filter="url(#filter5_i_631_13711)">
<path d="M9.04894 37.4918L62.1535 77.8972C62.8099 78.3967 63.1853 79.1112 63.1853 79.8614V106.656C63.1853 108.562 60.8826 109.836 58.8405 109.06L21.1092 94.7153C10.6456 90.7373 3.90581 81.8829 3.90581 72.1144V39.456C3.90581 37.1822 7.05915 35.9779 9.04894 37.4918Z" fill="#63CBFE"/>
<path d="M25.8717 108.986L61.3777 122.776C62.4787 123.204 63.1853 124.14 63.1853 125.172V140.315C63.1853 141.824 61.7003 143.024 59.9329 142.944L40.2088 142.044C29.7209 141.566 21.5044 134.175 21.5044 125.22V111.381C21.5044 109.466 23.8273 108.192 25.8717 108.986Z" fill="#63CBFE"/>
<path d="M39.3502 150.821L60.0802 152.341C61.8365 152.47 63.1853 153.723 63.1853 155.226V168.101C63.1853 169.7 61.6648 170.997 59.7891 170.997H52.4426C45.7919 170.997 39.9556 167.219 38.168 161.757L35.7879 154.484C35.1508 152.538 36.9888 150.648 39.3502 150.821Z" fill="#63CBFE"/>
<path d="M9.04894 37.4918L62.1535 77.8972C62.8099 78.3967 63.1853 79.1112 63.1853 79.8614V106.656C63.1853 108.562 60.8826 109.836 58.8405 109.06L21.1092 94.7153C10.6456 90.7373 3.90581 81.8829 3.90581 72.1144V39.456C3.90581 37.1822 7.05915 35.9779 9.04894 37.4918Z" stroke="black"/>
<path d="M25.8717 108.986L61.3777 122.776C62.4787 123.204 63.1853 124.14 63.1853 125.172V140.315C63.1853 141.824 61.7003 143.024 59.9329 142.944L40.2088 142.044C29.7209 141.566 21.5044 134.175 21.5044 125.22V111.381C21.5044 109.466 23.8273 108.192 25.8717 108.986Z" stroke="black"/>
<path d="M39.3502 150.821L60.0802 152.341C61.8365 152.47 63.1853 153.723 63.1853 155.226V168.101C63.1853 169.7 61.6648 170.997 59.7891 170.997H52.4426C45.7919 170.997 39.9556 167.219 38.168 161.757L35.7879 154.484C35.1508 152.538 36.9888 150.648 39.3502 150.821Z" stroke="black"/>
</g>
<mask id="path-13-outside-1_631_13711" maskUnits="userSpaceOnUse" x="62.989" y="33.832" width="158" height="186" fill="black">
<rect fill="white" x="62.989" y="33.832" width="158" height="186"/>
<path fill-rule="evenodd" clip-rule="evenodd" d="M135.691 40.4758C139.569 38.277 144.319 38.2846 148.19 40.4957L209.032 75.246C212.959 77.4889 215.388 81.6593 215.401 86.1816L215.632 165.271C215.645 169.681 213.357 173.779 209.596 176.083L200.488 181.662V190.547C200.488 195.001 198.096 199.109 194.227 201.316C189.662 203.921 183.429 207.492 178.441 210.407C176.665 211.444 174.424 210.164 174.424 208.107V197.627L148.547 213.478C144.496 215.959 139.397 215.959 135.346 213.478L109.486 197.638V208.107C109.486 210.164 107.245 211.444 105.469 210.407C100.481 207.492 94.2479 203.921 89.683 201.316C85.8138 199.109 83.4221 195.001 83.4221 190.547V181.673L74.2555 176.058C70.5169 173.768 68.2325 169.703 68.2197 165.319L67.9891 86.2579C67.9758 81.6948 70.4236 77.4791 74.393 75.2286L135.691 40.4758Z"/>
</mask>
<path fill-rule="evenodd" clip-rule="evenodd" d="M135.691 40.4758C139.569 38.277 144.319 38.2846 148.19 40.4957L209.032 75.246C212.959 77.4889 215.388 81.6593 215.401 86.1816L215.632 165.271C215.645 169.681 213.357 173.779 209.596 176.083L200.488 181.662V190.547C200.488 195.001 198.096 199.109 194.227 201.316C189.662 203.921 183.429 207.492 178.441 210.407C176.665 211.444 174.424 210.164 174.424 208.107V197.627L148.547 213.478C144.496 215.959 139.397 215.959 135.346 213.478L109.486 197.638V208.107C109.486 210.164 107.245 211.444 105.469 210.407C100.481 207.492 94.2479 203.921 89.683 201.316C85.8138 199.109 83.4221 195.001 83.4221 190.547V181.673L74.2555 176.058C70.5169 173.768 68.2325 169.703 68.2197 165.319L67.9891 86.2579C67.9758 81.6948 70.4236 77.4791 74.393 75.2286L135.691 40.4758Z" fill="#3B6FBD"/>
<path d="M148.19 40.4957L145.999 44.3316L145.999 44.3316L148.19 40.4957ZM135.691 40.4758L137.87 44.3187L135.691 40.4758ZM209.032 75.246L211.223 71.41V71.41L209.032 75.246ZM215.401 86.1816L219.819 86.1687V86.1687L215.401 86.1816ZM215.632 165.271L220.049 165.258L215.632 165.271ZM209.596 176.083L211.904 179.85L209.596 176.083ZM200.488 181.662L198.18 177.895L196.07 179.188V181.662H200.488ZM194.227 201.316L196.416 205.153V205.153L194.227 201.316ZM178.441 210.407L180.67 214.221V214.221L178.441 210.407ZM174.424 197.627H178.842V189.741L172.117 193.86L174.424 197.627ZM148.547 213.478L146.239 209.711L148.547 213.478ZM135.346 213.478L137.654 209.711L135.346 213.478ZM109.486 197.638L111.793 193.871L105.068 189.751V197.638H109.486ZM105.469 210.407L103.24 214.221L103.24 214.221L105.469 210.407ZM89.683 201.316L87.494 205.153L87.494 205.153L89.683 201.316ZM83.4221 181.673H87.8397V179.198L85.7296 177.906L83.4221 181.673ZM74.2555 176.058L71.948 179.825H71.948L74.2555 176.058ZM68.2197 165.319L63.8022 165.332L68.2197 165.319ZM67.9891 86.2579L72.4066 86.245L67.9891 86.2579ZM74.393 75.2286L72.2143 71.3857L74.393 75.2286ZM150.381 36.6597C145.157 33.6757 138.746 33.6655 133.512 36.6329L137.87 44.3187C140.392 42.8886 143.482 42.8936 145.999 44.3316L150.381 36.6597ZM211.223 71.41L150.381 36.6597L145.999 44.3316L206.841 79.0819L211.223 71.41ZM219.819 86.1687C219.801 80.0655 216.523 74.437 211.223 71.41L206.841 79.0819C209.395 80.5407 210.975 83.2532 210.984 86.1945L219.819 86.1687ZM220.049 165.258L219.819 86.1687L210.984 86.1945L211.214 165.284L220.049 165.258ZM211.904 179.85C216.979 176.741 220.067 171.21 220.049 165.258L211.214 165.284C211.223 168.152 209.735 170.818 207.289 172.316L211.904 179.85ZM202.795 185.429L211.904 179.85L207.289 172.316L198.18 177.895L202.795 185.429ZM196.07 181.662V190.547H204.905V181.662H196.07ZM196.07 190.547C196.07 193.411 194.533 196.056 192.038 197.479L196.416 205.153C201.659 202.162 204.905 196.592 204.905 190.547H196.07ZM192.038 197.479C187.47 200.085 181.221 203.666 176.212 206.592L180.67 214.221C185.637 211.318 191.854 207.756 196.416 205.153L192.038 197.479ZM176.212 206.592C177.367 205.917 178.842 206.737 178.842 208.107H170.006C170.006 213.591 175.962 216.971 180.67 214.221L176.212 206.592ZM178.842 208.107V197.627H170.006V208.107H178.842ZM150.854 217.245L176.731 201.394L172.117 193.86L146.239 209.711L150.854 217.245ZM133.039 217.245C138.505 220.594 145.388 220.594 150.854 217.245L146.239 209.711C143.605 211.325 140.288 211.325 137.654 209.711L133.039 217.245ZM107.178 201.405L133.039 217.245L137.654 209.711L111.793 193.871L107.178 201.405ZM113.903 208.107V197.638H105.068V208.107H113.903ZM103.24 214.221C107.948 216.971 113.903 213.591 113.903 208.107H105.068C105.068 206.737 106.543 205.917 107.698 206.592L103.24 214.221ZM87.494 205.153C92.0562 207.756 98.273 211.318 103.24 214.221L107.698 206.592C102.689 203.666 96.4396 200.085 91.8721 197.479L87.494 205.153ZM79.0045 190.547C79.0045 196.592 82.2503 202.162 87.494 205.153L91.8721 197.479C89.3772 196.056 87.8397 193.411 87.8397 190.547H79.0045ZM79.0045 181.673V190.547H87.8397V181.673H79.0045ZM71.948 179.825L81.1146 185.44L85.7296 177.906L76.5629 172.291L71.948 179.825ZM63.8022 165.332C63.8194 171.249 66.9024 176.734 71.948 179.825L76.563 172.291C74.1314 170.801 72.6456 168.158 72.6373 165.306L63.8022 165.332ZM63.5715 86.2708L63.8022 165.332L72.6373 165.306L72.4066 86.245L63.5715 86.2708ZM72.2143 71.3857C66.8571 74.4229 63.5536 80.1125 63.5715 86.2708L72.4066 86.245C72.398 83.2772 73.99 80.5352 76.5718 79.0715L72.2143 71.3857ZM133.512 36.6329L72.2143 71.3857L76.5718 79.0715L137.87 44.3187L133.512 36.6329Z" fill="#1C2E6F" mask="url(#path-13-outside-1_631_13711)"/>
<path d="M109.486 200.156V187.153L84.7562 172.483C84.1673 172.134 83.4219 172.558 83.4219 173.243V182.596C83.4219 187.05 85.8136 191.158 89.6829 193.365C94.2477 195.97 100.481 199.541 105.469 202.455C107.245 203.493 109.486 202.213 109.486 200.156Z" fill="#63CBFE"/>
<path d="M174.424 200.156V187.153L199.153 172.483C199.742 172.134 200.487 172.558 200.487 173.243V182.596C200.487 187.05 198.096 191.158 194.227 193.365C189.662 195.97 183.429 199.541 178.441 202.455C176.664 203.493 174.424 202.213 174.424 200.156Z" fill="#63CBFE"/>
<g filter="url(#filter6_ii_631_13711)">
<path d="M135.562 40.461C139.347 38.2758 144.01 38.2758 147.795 40.461L206.693 74.4659C210.478 76.651 212.809 80.6894 212.809 85.0598V153.07C212.809 157.44 210.478 161.478 206.693 163.663L147.795 197.668C144.01 199.854 139.347 199.854 135.562 197.668L76.6639 163.663C72.879 161.478 70.5475 157.44 70.5475 153.07V85.0598C70.5475 80.6894 72.879 76.651 76.6639 74.4659L135.562 40.461Z" fill="#4E47A1"/>
<path d="M135.562 40.461C139.347 38.2758 144.01 38.2758 147.795 40.461L206.693 74.4659C210.478 76.651 212.809 80.6894 212.809 85.0598V153.07C212.809 157.44 210.478 161.478 206.693 163.663L147.795 197.668C144.01 199.854 139.347 199.854 135.562 197.668L76.6639 163.663C72.879 161.478 70.5475 157.44 70.5475 153.07V85.0598C70.5475 80.6894 72.879 76.651 76.6639 74.4659L135.562 40.461Z" fill="url(#paint0_linear_631_13711)"/>
</g>
<g filter="url(#filter7_i_631_13711)">
<path d="M135.825 67.3126C139.61 65.1274 144.273 65.1274 148.058 67.3126L186.666 89.6027C190.45 91.7878 192.782 95.8262 192.782 100.197V144.777C192.782 149.147 190.45 153.186 186.666 155.371L148.058 177.661C144.273 179.846 139.61 179.846 135.825 177.661L97.2176 155.371C93.4327 153.186 91.1011 149.147 91.1011 144.777V100.197C91.1011 95.8263 93.4327 91.7878 97.2176 89.6027L135.825 67.3126Z" fill="#3B6FBD"/>
</g>
<ellipse cx="130.855" cy="54.6611" rx="9.55871" ry="4.96549" transform="rotate(-29.6591 130.855 54.6611)" fill="#FFF7D9"/>
<defs>
<filter id="filter0_i_631_13711" x="216.965" y="33.1357" width="66.6506" height="122.186" filterUnits="userSpaceOnUse" color-interpolation-filters="sRGB">
<feFlood flood-opacity="0" result="BackgroundImageFix"/>
<feBlend mode="normal" in="SourceGraphic" in2="BackgroundImageFix" result="shape"/>
<feColorMatrix in="SourceAlpha" type="matrix" values="0 0 0 0 0 0 0 0 0 0 0 0 0 0 0 0 0 0 127 0" result="hardAlpha"/>
<feOffset dy="7.37109"/>
<feComposite in2="hardAlpha" operator="arithmetic" k2="-1" k3="1"/>
<feColorMatrix type="matrix" values="0 0 0 0 0.898039 0 0 0 0 0.929412 0 0 0 0 1 0 0 0 1 0"/>
<feBlend mode="normal" in2="shape" result="effect1_innerShadow_631_13711"/>
</filter>
<filter id="filter1_i_631_13711" x="216.965" y="147.124" width="35.6504" height="32.8223" filterUnits="userSpaceOnUse" color-interpolation-filters="sRGB">
<feFlood flood-opacity="0" result="BackgroundImageFix"/>
<feBlend mode="normal" in="SourceGraphic" in2="BackgroundImageFix" result="shape"/>
<feColorMatrix in="SourceAlpha" type="matrix" values="0 0 0 0 0 0 0 0 0 0 0 0 0 0 0 0 0 0 127 0" result="hardAlpha"/>
<feOffset dy="7.37109"/>
<feComposite in2="hardAlpha" operator="arithmetic" k2="-1" k3="1"/>
<feColorMatrix type="matrix" values="0 0 0 0 0.898039 0 0 0 0 0.929412 0 0 0 0 1 0 0 0 1 0"/>
<feBlend mode="normal" in2="shape" result="effect1_innerShadow_631_13711"/>
</filter>
<filter id="filter2_i_631_13711" x="220.651" y="36.8184" width="59.2795" height="134.179" filterUnits="userSpaceOnUse" color-interpolation-filters="sRGB">
<feFlood flood-opacity="0" result="BackgroundImageFix"/>
<feBlend mode="normal" in="SourceGraphic" in2="BackgroundImageFix" result="shape"/>
<feColorMatrix in="SourceAlpha" type="matrix" values="0 0 0 0 0 0 0 0 0 0 0 0 0 0 0 0 0 0 127 0" result="hardAlpha"/>
<feOffset dy="6.05482"/>
<feComposite in2="hardAlpha" operator="arithmetic" k2="-1" k3="1"/>
<feColorMatrix type="matrix" values="0 0 0 0 0.745098 0 0 0 0 0.984314 0 0 0 0 1 0 0 0 1 0"/>
<feBlend mode="normal" in2="shape" result="effect1_innerShadow_631_13711"/>
</filter>
<filter id="filter3_i_631_13711" x="0.220215" y="33.1357" width="66.6506" height="122.186" filterUnits="userSpaceOnUse" color-interpolation-filters="sRGB">
<feFlood flood-opacity="0" result="BackgroundImageFix"/>
<feBlend mode="normal" in="SourceGraphic" in2="BackgroundImageFix" result="shape"/>
<feColorMatrix in="SourceAlpha" type="matrix" values="0 0 0 0 0 0 0 0 0 0 0 0 0 0 0 0 0 0 127 0" result="hardAlpha"/>
<feOffset dy="7.37109"/>
<feComposite in2="hardAlpha" operator="arithmetic" k2="-1" k3="1"/>
<feColorMatrix type="matrix" values="0 0 0 0 0.898039 0 0 0 0 0.929412 0 0 0 0 1 0 0 0 1 0"/>
<feBlend mode="normal" in2="shape" result="effect1_innerShadow_631_13711"/>
</filter>
<filter id="filter4_i_631_13711" x="31.2205" y="147.124" width="35.6504" height="32.8223" filterUnits="userSpaceOnUse" color-interpolation-filters="sRGB">
<feFlood flood-opacity="0" result="BackgroundImageFix"/>
<feBlend mode="normal" in="SourceGraphic" in2="BackgroundImageFix" result="shape"/>
<feColorMatrix in="SourceAlpha" type="matrix" values="0 0 0 0 0 0 0 0 0 0 0 0 0 0 0 0 0 0 127 0" result="hardAlpha"/>
<feOffset dy="7.37109"/>
<feComposite in2="hardAlpha" operator="arithmetic" k2="-1" k3="1"/>
<feColorMatrix type="matrix" values="0 0 0 0 0.898039 0 0 0 0 0.929412 0 0 0 0 1 0 0 0 1 0"/>
<feBlend mode="normal" in2="shape" result="effect1_innerShadow_631_13711"/>
</filter>
<filter id="filter5_i_631_13711" x="3.90576" y="36.8184" width="59.2795" height="134.179" filterUnits="userSpaceOnUse" color-interpolation-filters="sRGB">
<feFlood flood-opacity="0" result="BackgroundImageFix"/>
<feBlend mode="normal" in="SourceGraphic" in2="BackgroundImageFix" result="shape"/>
<feColorMatrix in="SourceAlpha" type="matrix" values="0 0 0 0 0 0 0 0 0 0 0 0 0 0 0 0 0 0 127 0" result="hardAlpha"/>
<feOffset dy="6.05482"/>
<feComposite in2="hardAlpha" operator="arithmetic" k2="-1" k3="1"/>
<feColorMatrix type="matrix" values="0 0 0 0 0.745098 0 0 0 0 0.984314 0 0 0 0 1 0 0 0 1 0"/>
<feBlend mode="normal" in2="shape" result="effect1_innerShadow_631_13711"/>
</filter>
<filter id="filter6_ii_631_13711" x="70.5474" y="38.8223" width="142.262" height="160.485" filterUnits="userSpaceOnUse" color-interpolation-filters="sRGB">
<feFlood flood-opacity="0" result="BackgroundImageFix"/>
<feBlend mode="normal" in="SourceGraphic" in2="BackgroundImageFix" result="shape"/>
<feColorMatrix in="SourceAlpha" type="matrix" values="0 0 0 0 0 0 0 0 0 0 0 0 0 0 0 0 0 0 127 0" result="hardAlpha"/>
<feOffset dy="10.4853"/>
<feComposite in2="hardAlpha" operator="arithmetic" k2="-1" k3="1"/>
<feColorMatrix type="matrix" values="0 0 0 0 0.745098 0 0 0 0 0.984314 0 0 0 0 1 0 0 0 1 0"/>
<feBlend mode="normal" in2="shape" result="effect1_innerShadow_631_13711"/>
<feColorMatrix in="SourceAlpha" type="matrix" values="0 0 0 0 0 0 0 0 0 0 0 0 0 0 0 0 0 0 127 0" result="hardAlpha"/>
<feOffset dy="-40.1937"/>
<feComposite in2="hardAlpha" operator="arithmetic" k2="-1" k3="1"/>
<feColorMatrix type="matrix" values="0 0 0 0 0.45098 0 0 0 0 0.180392 0 0 0 0 0.580392 0 0 0 0.2 0"/>
<feBlend mode="normal" in2="effect1_innerShadow_631_13711" result="effect2_innerShadow_631_13711"/>
</filter>
<filter id="filter7_i_631_13711" x="91.1011" y="65.6738" width="101.681" height="113.626" filterUnits="userSpaceOnUse" color-interpolation-filters="sRGB">
<feFlood flood-opacity="0" result="BackgroundImageFix"/>
<feBlend mode="normal" in="SourceGraphic" in2="BackgroundImageFix" result="shape"/>
<feColorMatrix in="SourceAlpha" type="matrix" values="0 0 0 0 0 0 0 0 0 0 0 0 0 0 0 0 0 0 127 0" result="hardAlpha"/>
<feOffset dy="5.26506"/>
<feComposite in2="hardAlpha" operator="arithmetic" k2="-1" k3="1"/>
<feColorMatrix type="matrix" values="0 0 0 0 0.089375 0 0 0 0 0.248625 0 0 0 0 0.4875 0 0 0 1 0"/>
<feBlend mode="normal" in2="shape" result="effect1_innerShadow_631_13711"/>
</filter>
<linearGradient id="paint0_linear_631_13711" x1="-5.48908" y1="-80.386" x2="146.971" y2="236.403" gradientUnits="userSpaceOnUse">
<stop stop-color="#70FFB2"/>
<stop offset="1" stop-color="#63CBFE"/>
</linearGradient>
</defs>
</svg>
