<svg width="284" height="187" viewBox="0 0 284 187" fill="none" xmlns="http://www.w3.org/2000/svg">
<g filter="url(#filter0_i_487_6598)">
<path fill-rule="evenodd" clip-rule="evenodd" d="M221.934 44.8991L275.038 4.4938C277.028 2.97984 280.182 4.18412 280.182 6.458V15.1455V39.1164V47.8039C280.182 57.5724 273.442 66.4267 262.978 70.4048L225.247 84.7495C223.205 85.5258 220.902 84.2515 220.902 82.3451V73.6576V55.5508V46.8633C220.902 46.1132 221.277 45.3986 221.934 44.8991ZM222.71 89.7779L258.216 75.9877C260.26 75.1936 262.583 76.4679 262.583 78.3834V87.0709V92.2218V100.909C262.583 109.865 254.367 117.255 243.879 117.733L224.154 118.633C222.387 118.714 220.902 117.513 220.902 116.004V107.317V100.861V92.1736C220.902 91.142 221.609 90.2055 222.71 89.7779Z" fill="#63CBFE"/>
</g>
<path d="M275.038 4.4938L272.807 1.56073L272.807 1.56073L275.038 4.4938ZM221.934 44.8991L219.702 41.9661L219.702 41.9661L221.934 44.8991ZM262.978 70.4048L261.668 66.9598L261.668 66.9598L262.978 70.4048ZM225.247 84.7495L226.557 88.1944L226.557 88.1944L225.247 84.7495ZM258.216 75.9877L259.55 79.4232L259.55 79.4232L258.216 75.9877ZM222.71 89.7779L221.375 86.3424L221.375 86.3424L222.71 89.7779ZM243.879 117.733L244.047 121.415L244.047 121.415L243.879 117.733ZM224.154 118.633L223.987 114.951L223.987 114.951L224.154 118.633ZM272.807 1.56073L219.702 41.9661L224.166 47.8322L277.27 7.42687L272.807 1.56073ZM283.867 6.458C283.867 3.39141 281.72 1.39489 279.671 0.612455C277.612 -0.173986 274.952 -0.0714502 272.807 1.56073L277.27 7.42687C277.196 7.48291 277.125 7.50115 277.092 7.50487C277.07 7.50728 277.06 7.50566 277.041 7.49846C277.027 7.4929 276.913 7.4476 276.778 7.27912C276.623 7.08482 276.496 6.78712 276.496 6.458H283.867ZM283.867 15.1455V6.458H276.496V15.1455H283.867ZM283.867 39.1164V15.1455H276.496V39.1164H283.867ZM283.867 47.8039V39.1164H276.496V47.8039H283.867ZM264.288 73.8498C275.911 69.4307 283.867 59.3728 283.867 47.8039H276.496C276.496 55.772 270.972 63.4227 261.668 66.9598L264.288 73.8498ZM226.557 88.1944L264.288 73.8498L261.668 66.9598L223.937 81.3045L226.557 88.1944ZM217.217 82.3451C217.217 84.9156 218.784 86.8151 220.524 87.778C222.264 88.7406 224.48 88.984 226.557 88.1944L223.937 81.3045C223.972 81.2912 224.016 81.2857 224.093 81.3286C224.142 81.3556 224.256 81.4317 224.37 81.604C224.493 81.7911 224.588 82.0535 224.588 82.3451H217.217ZM217.217 73.6576V82.3451H224.588V73.6576H217.217ZM217.217 55.5508V73.6576H224.588V55.5508H217.217ZM217.217 46.8633V55.5508H224.588V46.8633H217.217ZM219.702 41.9661C218.235 43.0826 217.217 44.8362 217.217 46.8633H224.588C224.588 47.3901 224.32 47.7146 224.166 47.8322L219.702 41.9661ZM256.881 72.5522L221.375 86.3424L224.044 93.2134L259.55 79.4232L256.881 72.5522ZM266.269 78.3834C266.269 75.8004 264.687 73.8974 262.939 72.9381C261.19 71.9792 258.963 71.7437 256.881 72.5522L259.55 79.4232C259.513 79.4377 259.469 79.4423 259.393 79.4008C259.345 79.3744 259.231 79.299 259.117 79.1267C258.993 78.9393 258.897 78.676 258.897 78.3834H266.269ZM266.269 87.0709V78.3834H258.897V87.0709H266.269ZM266.269 92.2218V87.0709H258.897V92.2218H266.269ZM266.269 100.909V92.2218H258.897V100.909H266.269ZM244.047 121.415C255.969 120.871 266.269 112.328 266.269 100.909H258.897C258.897 107.401 252.764 113.639 243.711 114.052L244.047 121.415ZM224.322 122.315L244.047 121.415L243.711 114.052L223.987 114.951L224.322 122.315ZM217.217 116.004C217.217 120.18 221.067 122.463 224.322 122.315L223.987 114.951C223.972 114.952 224.05 114.942 224.182 115.048C224.322 115.161 224.588 115.484 224.588 116.004H217.217ZM217.217 107.317V116.004H224.588V107.317H217.217ZM217.217 100.861V107.317H224.588V100.861H217.217ZM217.217 92.1736V100.861H224.588V92.1736H217.217ZM221.375 86.3424C219.122 87.2175 217.217 89.3556 217.217 92.1736H224.588C224.588 92.9284 224.095 93.1935 224.044 93.2134L221.375 86.3424Z" fill="#1C2E6F"/>
<g filter="url(#filter1_i_487_6598)">
<path fill-rule="evenodd" clip-rule="evenodd" d="M244.737 117.82L224.007 119.34C222.251 119.469 220.902 120.722 220.902 122.225V127.475C220.902 127.48 220.902 127.485 220.902 127.49V140.365C220.902 141.964 222.423 143.26 224.298 143.26H231.645C238.296 143.26 244.741 139.377 246.528 133.915L248.535 120.357C248.491 120.361 248.448 120.365 248.405 120.37C248.203 118.88 246.64 117.68 244.737 117.82Z" fill="#63CBFE"/>
</g>
<path d="M224.007 119.34L223.738 115.664L223.738 115.664L224.007 119.34ZM244.737 117.82L245.007 121.495L245.007 121.495L244.737 117.82ZM220.902 127.475L224.588 127.497L224.588 127.486V127.475H220.902ZM246.528 133.915L250.031 135.061L250.128 134.764L250.174 134.455L246.528 133.915ZM248.535 120.357L252.181 120.897L252.867 116.263L248.202 116.687L248.535 120.357ZM248.405 120.37L244.753 120.866L245.23 124.38L248.761 124.038L248.405 120.37ZM248.535 120.357L252.181 120.897L252.867 116.263L248.202 116.687L248.535 120.357ZM224.277 123.016L245.007 121.495L244.468 114.144L223.738 115.664L224.277 123.016ZM224.588 122.225C224.588 122.625 224.4 122.878 224.305 122.967C224.217 123.049 224.191 123.022 224.277 123.016L223.738 115.664C220.565 115.897 217.217 118.319 217.217 122.225H224.588ZM224.588 127.475V122.225H217.217V127.475H224.588ZM217.217 127.454C217.217 127.466 217.217 127.478 217.217 127.49H224.588C224.588 127.492 224.588 127.495 224.588 127.497L217.217 127.454ZM217.217 127.49V140.365H224.588V127.49H217.217ZM217.217 140.365C217.217 144.529 220.96 146.946 224.298 146.946V139.575C224.201 139.575 224.208 139.54 224.288 139.608C224.375 139.682 224.588 139.938 224.588 140.365H217.217ZM224.298 146.946H231.645V139.575H224.298V146.946ZM231.645 146.946C239.431 146.946 247.618 142.433 250.031 135.061L243.025 132.769C241.863 136.321 237.161 139.575 231.645 139.575V146.946ZM250.174 134.455L252.181 120.897L244.889 119.818L242.882 133.375L250.174 134.455ZM248.202 116.687C248.15 116.692 248.1 116.696 248.049 116.701L248.761 124.038C248.796 124.035 248.832 124.031 248.868 124.028L248.202 116.687ZM245.007 121.495C245.113 121.488 245.121 121.522 245.061 121.479C245.014 121.445 244.807 121.266 244.753 120.866L252.057 119.874C251.541 116.071 247.901 113.892 244.468 114.144L245.007 121.495ZM248.761 124.038C248.796 124.034 248.832 124.031 248.868 124.028L248.202 116.687C248.15 116.692 248.1 116.696 248.049 116.701L248.761 124.038ZM244.889 119.818L242.882 133.375L250.174 134.455L252.181 120.897L244.889 119.818Z" fill="#1C2E6F"/>
<path d="M275.038 13.1793L221.934 53.5847C221.277 54.0842 220.902 54.7987 220.902 55.5489V82.3431C220.902 84.2496 223.205 85.5239 225.247 84.7475L262.978 70.4028C273.442 66.4248 280.182 57.5704 280.182 47.8019V15.1435C280.182 12.8697 277.028 11.6654 275.038 13.1793Z" fill="#3B6FBD"/>
<path d="M258.216 80.9877L222.71 94.7779C221.609 95.2055 220.902 96.142 220.902 97.1736V112.317C220.902 113.826 222.387 116.342 224.154 116.262L243.879 115.362C254.367 114.884 262.583 106.177 262.583 97.2218V83.3834C262.583 81.4679 260.26 80.1937 258.216 80.9877Z" fill="#3B6FBD"/>
<path d="M240.971 122.333L224.007 124.607C222.251 124.735 220.902 125.989 220.902 127.492V140.366C220.902 141.965 222.423 143.262 224.298 143.262H231.645C238.296 143.262 244.741 139.379 246.528 133.916L248.535 120.359C244.187 120.754 243.332 122.16 240.971 122.333Z" fill="#3B6FBD"/>
<path d="M275.038 13.1793L221.934 53.5847C221.277 54.0842 220.902 54.7987 220.902 55.5489V82.3431C220.902 84.2496 223.205 85.5239 225.247 84.7475L262.978 70.4028C273.442 66.4248 280.182 57.5704 280.182 47.8019V15.1435C280.182 12.8697 277.028 11.6654 275.038 13.1793Z" stroke="black"/>
<path d="M258.216 80.9877L222.71 94.7779C221.609 95.2055 220.902 96.142 220.902 97.1736V112.317C220.902 113.826 222.387 116.342 224.154 116.262L243.879 115.362C254.367 114.884 262.583 106.177 262.583 97.2218V83.3834C262.583 81.4679 260.26 80.1937 258.216 80.9877Z" stroke="black"/>
<path d="M240.971 122.333L224.007 124.607C222.251 124.735 220.902 125.989 220.902 127.492V140.366C220.902 141.965 222.423 143.262 224.298 143.262H231.645C238.296 143.262 244.741 139.379 246.528 133.916L248.535 120.359C244.187 120.754 243.332 122.16 240.971 122.333Z" stroke="black"/>
<g filter="url(#filter2_i_487_6598)">
<path d="M275.038 4.49185L221.934 44.8972C221.277 45.3967 220.902 46.1112 220.902 46.8614V73.6556C220.902 75.562 223.205 76.8363 225.247 76.06L262.978 61.7153C273.442 57.7373 280.182 48.8829 280.182 39.1144V6.45604C280.182 4.18216 277.028 2.97788 275.038 4.49185Z" fill="#63CBFE"/>
<path d="M258.216 75.9857L222.71 89.7759C221.609 90.2035 220.902 91.1401 220.902 92.1716V107.315C220.902 108.824 222.387 110.024 224.154 109.944L243.879 109.044C254.367 108.566 262.583 101.175 262.583 92.2199V78.3814C262.583 76.4659 260.26 75.1917 258.216 75.9857Z" fill="#63CBFE"/>
<path d="M244.737 117.821L224.007 119.341C222.251 119.47 220.902 120.723 220.902 122.226V135.101C220.902 136.7 222.423 137.997 224.298 137.997H231.645C238.296 137.997 244.132 134.219 245.919 128.757L248.3 121.484C248.937 119.538 247.099 117.648 244.737 117.821Z" fill="#63CBFE"/>
<path d="M275.038 4.49185L221.934 44.8972C221.277 45.3967 220.902 46.1112 220.902 46.8614V73.6556C220.902 75.562 223.205 76.8363 225.247 76.06L262.978 61.7153C273.442 57.7373 280.182 48.8829 280.182 39.1144V6.45604C280.182 4.18216 277.028 2.97788 275.038 4.49185Z" stroke="black"/>
<path d="M258.216 75.9857L222.71 89.7759C221.609 90.2035 220.902 91.1401 220.902 92.1716V107.315C220.902 108.824 222.387 110.024 224.154 109.944L243.879 109.044C254.367 108.566 262.583 101.175 262.583 92.2199V78.3814C262.583 76.4659 260.26 75.1917 258.216 75.9857Z" stroke="black"/>
<path d="M244.737 117.821L224.007 119.341C222.251 119.47 220.902 120.723 220.902 122.226V135.101C220.902 136.7 222.423 137.997 224.298 137.997H231.645C238.296 137.997 244.132 134.219 245.919 128.757L248.3 121.484C248.937 119.538 247.099 117.648 244.737 117.821Z" stroke="black"/>
</g>
<g filter="url(#filter3_i_487_6598)">
<path fill-rule="evenodd" clip-rule="evenodd" d="M62.405 44.8991L9.30042 4.4938C7.31062 2.97984 4.15728 4.18412 4.15728 6.458V15.1455V39.1164V47.8039C4.15728 57.5724 10.8971 66.4267 21.3607 70.4048L59.092 84.7495C61.134 85.5258 63.4368 84.2515 63.4368 82.3451V73.6576V55.5508V46.8633C63.4368 46.1132 63.0614 45.3986 62.405 44.8991ZM61.6291 89.7779L26.1232 75.9877C24.0788 75.1936 21.7559 76.4679 21.7559 78.3834V87.0709V92.2218V100.909C21.7559 109.865 29.9723 117.255 40.4603 117.733L60.1844 118.633C61.9518 118.714 63.4368 117.513 63.4368 116.004V107.317V100.861V92.1736C63.4368 91.142 62.7301 90.2055 61.6291 89.7779Z" fill="#63CBFE"/>
</g>
<path d="M9.30042 4.4938L11.5321 1.56073L11.5321 1.56073L9.30042 4.4938ZM62.405 44.8991L64.6366 41.9661L64.6366 41.9661L62.405 44.8991ZM21.3607 70.4048L22.6704 66.9598L22.6704 66.9598L21.3607 70.4048ZM59.092 84.7495L57.7823 88.1944L57.7823 88.1944L59.092 84.7495ZM26.1232 75.9877L24.7889 79.4232L24.7889 79.4232L26.1232 75.9877ZM61.6291 89.7779L62.9635 86.3424L62.9635 86.3424L61.6291 89.7779ZM40.4603 117.733L40.2923 121.415L40.2923 121.415L40.4603 117.733ZM60.1844 118.633L60.3523 114.951L60.3523 114.951L60.1844 118.633ZM11.5321 1.56073L64.6366 41.9661L60.1733 47.8322L7.06875 7.42687L11.5321 1.56073ZM0.471735 6.458C0.471735 3.39141 2.619 1.39489 4.66777 0.612455C6.72702 -0.173986 9.38691 -0.0714502 11.5321 1.56073L7.06875 7.42687C7.1424 7.48291 7.2138 7.50115 7.247 7.50487C7.2685 7.50728 7.27872 7.50566 7.29758 7.49846C7.31212 7.4929 7.42612 7.4476 7.5607 7.27912C7.7159 7.08482 7.84282 6.78712 7.84282 6.458H0.471735ZM0.471735 15.1455V6.458H7.84282V15.1455H0.471735ZM0.471735 39.1164V15.1455H7.84282V39.1164H0.471735ZM0.471735 47.8039V39.1164H7.84282V47.8039H0.471735ZM20.051 73.8498C8.42738 69.4307 0.471735 59.3728 0.471735 47.8039H7.84282C7.84282 55.772 13.3668 63.4227 22.6704 66.9598L20.051 73.8498ZM57.7823 88.1944L20.051 73.8498L22.6704 66.9598L60.4017 81.3045L57.7823 88.1944ZM67.1223 82.3451C67.1223 84.9156 65.5548 86.8151 63.8147 87.778C62.0753 88.7406 59.8592 88.984 57.7823 88.1944L60.4017 81.3045C60.3668 81.2912 60.3231 81.2857 60.2456 81.3286C60.1969 81.3556 60.0828 81.4317 59.9691 81.604C59.8456 81.7911 59.7512 82.0535 59.7512 82.3451H67.1223ZM67.1223 73.6576V82.3451H59.7512V73.6576H67.1223ZM67.1223 55.5508V73.6576H59.7512V55.5508H67.1223ZM67.1223 46.8633V55.5508H59.7512V46.8633H67.1223ZM64.6366 41.9661C66.1041 43.0826 67.1223 44.8362 67.1223 46.8633H59.7512C59.7512 47.3901 60.0187 47.7146 60.1733 47.8322L64.6366 41.9661ZM27.4575 72.5522L62.9635 86.3424L60.2948 93.2134L24.7889 79.4232L27.4575 72.5522ZM18.0703 78.3834C18.0703 75.8004 19.6517 73.8974 21.4004 72.9381C23.1486 71.9792 25.3759 71.7437 27.4575 72.5522L24.7889 79.4232C24.8261 79.4377 24.8697 79.4423 24.9454 79.4008C24.9934 79.3744 25.1077 79.299 25.222 79.1267C25.3463 78.9393 25.4414 78.676 25.4414 78.3834H18.0703ZM18.0703 87.0709V78.3834H25.4414V87.0709H18.0703ZM18.0703 92.2218V87.0709H25.4414V92.2218H18.0703ZM18.0703 100.909V92.2218H25.4414V100.909H18.0703ZM40.2923 121.415C28.3698 120.871 18.0703 112.328 18.0703 100.909H25.4414C25.4414 107.401 31.5748 113.639 40.6282 114.052L40.2923 121.415ZM60.0165 122.315L40.2923 121.415L40.6282 114.052L60.3523 114.951L60.0165 122.315ZM67.1223 116.004C67.1223 120.18 63.2717 122.463 60.0165 122.315L60.3523 114.951C60.3666 114.952 60.2887 114.942 60.1566 115.048C60.0169 115.161 59.7512 115.484 59.7512 116.004H67.1223ZM67.1223 107.317V116.004H59.7512V107.317H67.1223ZM67.1223 100.861V107.317H59.7512V100.861H67.1223ZM67.1223 92.1736V100.861H59.7512V92.1736H67.1223ZM62.9635 86.3424C65.2167 87.2175 67.1223 89.3556 67.1223 92.1736H59.7512C59.7512 92.9284 60.2436 93.1935 60.2948 93.2134L62.9635 86.3424Z" fill="#1C2E6F"/>
<g filter="url(#filter4_i_487_6598)">
<path fill-rule="evenodd" clip-rule="evenodd" d="M39.6016 117.82L60.3316 119.34C62.0879 119.469 63.4367 120.722 63.4367 122.225V127.473C63.4367 127.479 63.4368 127.485 63.4368 127.49V140.365C63.4368 141.964 61.9162 143.26 60.0405 143.26H52.694C46.0433 143.26 39.5983 139.377 37.8107 133.915L35.8039 120.357C35.8476 120.361 35.8909 120.365 35.934 120.37C36.1362 118.88 37.6991 117.68 39.6016 117.82Z" fill="#63CBFE"/>
</g>
<path d="M60.3316 119.34L60.6012 115.664L60.6012 115.664L60.3316 119.34ZM39.6016 117.82L39.332 121.495L39.332 121.495L39.6016 117.82ZM63.4367 127.473L59.7512 127.498L59.7512 127.486V127.473H63.4367ZM37.8107 133.915L34.308 135.061L34.2107 134.764L34.1649 134.455L37.8107 133.915ZM35.8039 120.357L32.1581 120.897L31.4721 116.263L36.1373 116.687L35.8039 120.357ZM35.934 120.37L39.586 120.866L39.1087 124.38L35.5781 124.038L35.934 120.37ZM35.8037 120.357L32.1579 120.897L31.472 116.263L36.1371 116.687L35.8037 120.357ZM60.062 123.016L39.332 121.495L39.8712 114.144L60.6012 115.664L60.062 123.016ZM59.7512 122.225C59.7512 122.625 59.9384 122.878 60.0341 122.967C60.1221 123.049 60.1478 123.022 60.062 123.016L60.6012 115.664C63.7738 115.897 67.1223 118.319 67.1223 122.225H59.7512ZM59.7512 127.473V122.225H67.1223V127.473H59.7512ZM67.1222 127.449C67.1223 127.463 67.1223 127.476 67.1223 127.49H59.7512C59.7512 127.493 59.7512 127.495 59.7512 127.498L67.1222 127.449ZM67.1223 127.49V140.365H59.7512V127.49H67.1223ZM67.1223 140.365C67.1223 144.529 63.3788 146.946 60.0405 146.946V139.575C60.1383 139.575 60.1304 139.54 60.0508 139.608C59.9634 139.682 59.7512 139.938 59.7512 140.365H67.1223ZM60.0405 146.946H52.694V139.575H60.0405V146.946ZM52.694 146.946C44.9083 146.946 36.7205 142.433 34.308 135.061L41.3135 132.769C42.4761 136.321 47.1783 139.575 52.694 139.575V146.946ZM34.1649 134.455L32.1581 120.897L39.4497 119.818L41.4566 133.375L34.1649 134.455ZM36.1373 116.687C36.1884 116.692 36.2393 116.696 36.2898 116.701L35.5781 124.038C35.5426 124.035 35.5067 124.031 35.4705 124.028L36.1373 116.687ZM39.332 121.495C39.2261 121.488 39.218 121.522 39.2776 121.479C39.3244 121.445 39.5315 121.266 39.586 120.866L32.2819 119.874C32.7983 116.071 36.4379 113.892 39.8712 114.144L39.332 121.495ZM35.5781 124.038C35.5425 124.034 35.5066 124.031 35.4704 124.028L36.1371 116.687C36.1884 116.692 36.2393 116.696 36.2898 116.701L35.5781 124.038ZM39.4496 119.818L41.4564 133.375L34.1648 134.455L32.1579 120.897L39.4496 119.818Z" fill="#1C2E6F"/>
<path d="M9.30042 13.1793L62.405 53.5847C63.0614 54.0842 63.4368 54.7987 63.4368 55.5489V82.3431C63.4368 84.2496 61.134 85.5239 59.092 84.7475L21.3607 70.4028C10.8971 66.4248 4.15728 57.5704 4.15728 47.8019V15.1435C4.15728 12.8697 7.31062 11.6654 9.30042 13.1793Z" fill="#3B6FBD"/>
<path d="M26.1232 80.9877L61.6291 94.7779C62.7301 95.2055 63.4368 96.142 63.4368 97.1736V112.317C63.4368 113.826 61.9518 116.342 60.1844 116.262L40.4603 115.362C29.9723 114.884 21.7559 106.177 21.7559 97.2218V83.3834C21.7559 81.4679 24.0788 80.1937 26.1232 80.9877Z" fill="#3B6FBD"/>
<path d="M43.3682 122.333L60.3316 124.607C62.088 124.735 63.4368 125.989 63.4368 127.492V140.366C63.4368 141.965 61.9162 143.262 60.0405 143.262H52.694C46.0433 143.262 39.5983 139.379 37.8107 133.916L35.8039 120.359C40.1515 120.754 41.0068 122.16 43.3682 122.333Z" fill="#3B6FBD"/>
<path d="M9.30042 13.1793L62.405 53.5847C63.0614 54.0842 63.4368 54.7987 63.4368 55.5489V82.3431C63.4368 84.2496 61.134 85.5239 59.092 84.7475L21.3607 70.4028C10.8971 66.4248 4.15728 57.5704 4.15728 47.8019V15.1435C4.15728 12.8697 7.31062 11.6654 9.30042 13.1793Z" stroke="black"/>
<path d="M26.1232 80.9877L61.6291 94.7779C62.7301 95.2055 63.4368 96.142 63.4368 97.1736V112.317C63.4368 113.826 61.9518 116.342 60.1844 116.262L40.4603 115.362C29.9723 114.884 21.7559 106.177 21.7559 97.2218V83.3834C21.7559 81.4679 24.0788 80.1937 26.1232 80.9877Z" stroke="black"/>
<path d="M43.3682 122.333L60.3316 124.607C62.088 124.735 63.4368 125.989 63.4368 127.492V140.366C63.4368 141.965 61.9162 143.262 60.0405 143.262H52.694C46.0433 143.262 39.5983 139.379 37.8107 133.916L35.8039 120.359C40.1515 120.754 41.0068 122.16 43.3682 122.333Z" stroke="black"/>
<g filter="url(#filter5_i_487_6598)">
<path d="M9.30041 4.49185L62.405 44.8972C63.0614 45.3967 63.4368 46.1112 63.4368 46.8614V73.6556C63.4368 75.5621 61.1341 76.8364 59.092 76.06L21.3607 61.7153C10.8971 57.7373 4.15728 48.8829 4.15728 39.1144V6.45604C4.15728 4.18216 7.31061 2.97788 9.30041 4.49185Z" fill="#63CBFE"/>
<path d="M26.1232 75.9857L61.6291 89.7759C62.7301 90.2035 63.4368 91.1401 63.4368 92.1716V107.315C63.4368 108.824 61.9518 110.024 60.1844 109.944L40.4602 109.044C29.9723 108.566 21.7559 101.175 21.7559 92.2199V78.3814C21.7559 76.4659 24.0788 75.1917 26.1232 75.9857Z" fill="#63CBFE"/>
<path d="M39.6016 117.821L60.3316 119.341C62.088 119.47 63.4368 120.723 63.4368 122.226V135.101C63.4368 136.7 61.9162 137.997 60.0406 137.997H52.694C46.0433 137.997 40.2071 134.219 38.4195 128.757L36.0393 121.484C35.4023 119.538 37.2403 117.648 39.6016 117.821Z" fill="#63CBFE"/>
<path d="M9.30041 4.49185L62.405 44.8972C63.0614 45.3967 63.4368 46.1112 63.4368 46.8614V73.6556C63.4368 75.5621 61.1341 76.8364 59.092 76.06L21.3607 61.7153C10.8971 57.7373 4.15728 48.8829 4.15728 39.1144V6.45604C4.15728 4.18216 7.31061 2.97788 9.30041 4.49185Z" stroke="black"/>
<path d="M26.1232 75.9857L61.6291 89.7759C62.7301 90.2035 63.4368 91.1401 63.4368 92.1716V107.315C63.4368 108.824 61.9518 110.024 60.1844 109.944L40.4602 109.044C29.9723 108.566 21.7559 101.175 21.7559 92.2199V78.3814C21.7559 76.4659 24.0788 75.1917 26.1232 75.9857Z" stroke="black"/>
<path d="M39.6016 117.821L60.3316 119.341C62.088 119.47 63.4368 120.723 63.4368 122.226V135.101C63.4368 136.7 61.9162 137.997 60.0406 137.997H52.694C46.0433 137.997 40.2071 134.219 38.4195 128.757L36.0393 121.484C35.4023 119.538 37.2403 117.648 39.6016 117.821Z" stroke="black"/>
</g>
<mask id="path-13-outside-1_487_6598" maskUnits="userSpaceOnUse" x="63.2407" y="0.832031" width="158" height="186" fill="black">
<rect fill="white" x="63.2407" y="0.832031" width="158" height="186"/>
<path fill-rule="evenodd" clip-rule="evenodd" d="M135.943 7.47578C139.821 5.27705 144.571 5.2846 148.442 7.49566L209.284 42.246C213.211 44.4889 215.64 48.6593 215.653 53.1816L215.884 132.271C215.896 136.681 213.609 140.779 209.848 143.083L200.739 148.662V157.547C200.739 162.001 198.348 166.109 194.478 168.316C189.914 170.921 183.68 174.492 178.693 177.407C176.916 178.444 174.676 177.164 174.676 175.107V164.627L148.798 180.478C144.748 182.959 139.648 182.959 135.598 180.478L109.737 164.638V175.107C109.737 177.164 107.497 178.444 105.721 177.407C100.733 174.492 94.4996 170.921 89.9348 168.316C86.0655 166.109 83.6738 162.001 83.6738 157.547V148.673L74.5072 143.058C70.7686 140.768 68.4842 136.703 68.4714 132.319L68.2408 53.2579C68.2275 48.6948 70.6753 44.4791 74.6448 42.2286L135.943 7.47578Z"/>
</mask>
<path fill-rule="evenodd" clip-rule="evenodd" d="M135.943 7.47578C139.821 5.27705 144.571 5.2846 148.442 7.49566L209.284 42.246C213.211 44.4889 215.64 48.6593 215.653 53.1816L215.884 132.271C215.896 136.681 213.609 140.779 209.848 143.083L200.739 148.662V157.547C200.739 162.001 198.348 166.109 194.478 168.316C189.914 170.921 183.68 174.492 178.693 177.407C176.916 178.444 174.676 177.164 174.676 175.107V164.627L148.798 180.478C144.748 182.959 139.648 182.959 135.598 180.478L109.737 164.638V175.107C109.737 177.164 107.497 178.444 105.721 177.407C100.733 174.492 94.4996 170.921 89.9348 168.316C86.0655 166.109 83.6738 162.001 83.6738 157.547V148.673L74.5072 143.058C70.7686 140.768 68.4842 136.703 68.4714 132.319L68.2408 53.2579C68.2275 48.6948 70.6753 44.4791 74.6448 42.2286L135.943 7.47578Z" fill="#3B6FBD"/>
<path d="M148.442 7.49566L146.251 11.3316L146.251 11.3316L148.442 7.49566ZM135.943 7.47578L138.122 11.3187L138.122 11.3187L135.943 7.47578ZM209.284 42.246L211.475 38.41L211.475 38.41L209.284 42.246ZM215.653 53.1816L220.07 53.1687L220.07 53.1687L215.653 53.1816ZM215.884 132.271L220.301 132.258L220.301 132.258L215.884 132.271ZM209.848 143.083L212.155 146.85L212.155 146.85L209.848 143.083ZM200.739 148.662L198.432 144.895L196.322 146.188V148.662H200.739ZM194.478 168.316L196.667 172.153L196.667 172.153L194.478 168.316ZM178.693 177.407L180.921 181.221L180.921 181.221L178.693 177.407ZM174.676 164.627H179.093V156.741L172.368 160.86L174.676 164.627ZM148.798 180.478L146.491 176.711L146.491 176.711L148.798 180.478ZM135.598 180.478L137.905 176.711L137.905 176.711L135.598 180.478ZM109.737 164.638L112.045 160.871L105.32 156.751V164.638H109.737ZM105.721 177.407L103.492 181.221L103.492 181.221L105.721 177.407ZM89.9348 168.316L87.7457 172.153L87.7457 172.153L89.9348 168.316ZM83.6738 148.673H88.0914V146.198L85.9813 144.906L83.6738 148.673ZM74.5072 143.058L72.1997 146.825L72.1997 146.825L74.5072 143.058ZM68.4714 132.319L64.0539 132.332L68.4714 132.319ZM68.2408 53.2579L72.6583 53.245L68.2408 53.2579ZM74.6448 42.2286L72.466 38.3857L72.466 38.3857L74.6448 42.2286ZM150.633 3.65969C145.408 0.675653 138.998 0.665455 133.764 3.63286L138.122 11.3187C140.644 9.88864 143.733 9.89355 146.251 11.3316L150.633 3.65969ZM211.475 38.41L150.633 3.65969L146.251 11.3316L207.093 46.0819L211.475 38.41ZM220.07 53.1687C220.053 47.0655 216.774 41.437 211.475 38.41L207.093 46.0819C209.647 47.5407 211.227 50.2532 211.235 53.1945L220.07 53.1687ZM220.301 132.258L220.07 53.1687L211.235 53.1945L211.466 132.284L220.301 132.258ZM212.155 146.85C217.231 143.741 220.318 138.21 220.301 132.258L211.466 132.284C211.474 135.152 209.986 137.818 207.54 139.316L212.155 146.85ZM203.047 152.429L212.155 146.85L207.54 139.316L198.432 144.895L203.047 152.429ZM196.322 148.662V157.547H205.157V148.662H196.322ZM196.322 157.547C196.322 160.411 194.784 163.056 192.289 164.479L196.667 172.153C201.911 169.162 205.157 163.592 205.157 157.547H196.322ZM192.289 164.479C187.722 167.085 181.472 170.666 176.464 173.592L180.921 181.221C185.888 178.318 192.105 174.756 196.667 172.153L192.289 164.479ZM176.464 173.592C177.619 172.917 179.093 173.737 179.093 175.107H170.258C170.258 180.591 176.214 183.971 180.921 181.221L176.464 173.592ZM179.093 175.107V164.627H170.258V175.107H179.093ZM151.106 184.245L176.983 168.394L172.368 160.86L146.491 176.711L151.106 184.245ZM133.29 184.245C138.757 187.594 145.639 187.594 151.106 184.245L146.491 176.711C143.857 178.325 140.54 178.325 137.905 176.711L133.29 184.245ZM107.43 168.405L133.29 184.245L137.905 176.711L112.045 160.871L107.43 168.405ZM114.155 175.107V164.638H105.32V175.107H114.155ZM103.492 181.221C108.199 183.971 114.155 180.591 114.155 175.107H105.32C105.32 173.737 106.794 172.917 107.949 173.592L103.492 181.221ZM87.7457 172.153C92.308 174.756 98.5247 178.318 103.492 181.221L107.949 173.592C102.941 170.666 96.6913 167.085 92.1238 164.479L87.7457 172.153ZM79.2562 157.547C79.2562 163.592 82.502 169.162 87.7457 172.153L92.1238 164.479C89.6289 163.056 88.0914 160.411 88.0914 157.547H79.2562ZM79.2562 148.673V157.547H88.0914V148.673H79.2562ZM72.1997 146.825L81.3664 152.44L85.9813 144.906L76.8147 139.291L72.1997 146.825ZM64.0539 132.332C64.0711 138.249 67.1541 143.734 72.1997 146.825L76.8147 139.291C74.3831 137.801 72.8973 135.158 72.889 132.306L64.0539 132.332ZM63.8232 53.2708L64.0539 132.332L72.889 132.306L72.6583 53.245L63.8232 53.2708ZM72.466 38.3857C67.1088 41.4229 63.8053 47.1125 63.8232 53.2708L72.6583 53.245C72.6497 50.2772 74.2417 47.5352 76.8235 46.0715L72.466 38.3857ZM133.764 3.63286L72.466 38.3857L76.8235 46.0715L138.122 11.3187L133.764 3.63286Z" fill="#1C2E6F" mask="url(#path-13-outside-1_487_6598)"/>
<path d="M109.737 167.156V154.153L85.0079 139.483C84.419 139.134 83.6736 139.558 83.6736 140.243V149.596C83.6736 154.05 86.0653 158.158 89.9346 160.365C94.4995 162.97 100.733 166.541 105.72 169.455C107.497 170.493 109.737 169.213 109.737 167.156Z" fill="#63CBFE"/>
<path d="M174.676 167.156V154.153L199.405 139.483C199.994 139.134 200.739 139.558 200.739 140.243V149.596C200.739 154.05 198.348 158.158 194.478 160.365C189.913 162.97 183.68 166.541 178.692 169.455C176.916 170.493 174.676 169.213 174.676 167.156Z" fill="#63CBFE"/>
<g filter="url(#filter6_ii_487_6598)">
<path d="M135.814 7.46101C139.599 5.27582 144.262 5.27582 148.047 7.46101L206.945 41.4659C210.73 43.651 213.061 47.6894 213.061 52.0598V120.07C213.061 124.44 210.73 128.478 206.945 130.663L148.047 164.668C144.262 166.854 139.599 166.854 135.814 164.668L76.9156 130.663C73.1307 128.478 70.7992 124.44 70.7992 120.07V52.0598C70.7992 47.6894 73.1307 43.651 76.9156 41.4659L135.814 7.46101Z" fill="#4E47A1"/>
<path d="M135.814 7.46101C139.599 5.27582 144.262 5.27582 148.047 7.46101L206.945 41.4659C210.73 43.651 213.061 47.6894 213.061 52.0598V120.07C213.061 124.44 210.73 128.478 206.945 130.663L148.047 164.668C144.262 166.854 139.599 166.854 135.814 164.668L76.9156 130.663C73.1307 128.478 70.7992 124.44 70.7992 120.07V52.0598C70.7992 47.6894 73.1307 43.651 76.9156 41.4659L135.814 7.46101Z" fill="url(#paint0_linear_487_6598)"/>
</g>
<g filter="url(#filter7_i_487_6598)">
<path d="M136.077 34.3126C139.862 32.1274 144.525 32.1274 148.31 34.3126L186.917 56.6027C190.702 58.7878 193.034 62.8262 193.034 67.1966V111.777C193.034 116.147 190.702 120.186 186.917 122.371L148.31 144.661C144.525 146.846 139.862 146.846 136.077 144.661L97.4693 122.371C93.6844 120.186 91.3528 116.147 91.3528 111.777V67.1966C91.3528 62.8263 93.6844 58.7878 97.4693 56.6027L136.077 34.3126Z" fill="#3B6FBD"/>
</g>
<ellipse cx="131.107" cy="21.6611" rx="9.55871" ry="4.96549" transform="rotate(-29.6591 131.107 21.6611)" fill="#FFF7D9"/>
<mask id="path-20-outside-2_487_6598" maskUnits="userSpaceOnUse" x="100.975" y="44.2939" width="83" height="85" fill="black">
<rect fill="white" x="100.975" y="44.2939" width="83" height="85"/>
<path fill-rule="evenodd" clip-rule="evenodd" d="M144.395 48.4481C143.334 46.9092 141.061 46.9092 140.001 48.4481L134.753 56.064L127.842 66.0941C127.497 66.595 126.991 66.9629 126.408 67.1369L114.744 70.6173L105.882 73.2616C104.199 73.7639 103.478 75.705 104.343 77.1685C104.238 77.4549 104.18 77.7651 104.18 78.0901V80.399C104.18 81.5463 104.55 82.6629 105.234 83.5835L117.558 100.152C117.74 100.397 117.877 100.669 117.966 100.957L117.786 108.341L117.559 117.594C117.552 117.897 117.594 118.185 117.677 118.454L117.559 123.264C117.514 125.132 119.352 126.467 121.114 125.846L129.831 122.772L141.311 118.725C141.885 118.522 142.511 118.522 143.085 118.725L154.564 122.772L163.282 125.846C165.044 126.467 166.882 125.132 166.836 123.264L166.719 118.453C166.802 118.185 166.844 117.897 166.836 117.594L166.61 108.341L166.429 100.96C166.519 100.67 166.657 100.397 166.84 100.151L179.49 83.1972C180.178 82.2755 180.549 81.1563 180.549 80.0063V78.08C180.549 77.6188 180.433 77.1872 180.229 76.8112C180.797 75.4054 180.063 73.724 178.514 73.2616L169.652 70.6173L157.988 67.1369C157.405 66.9629 156.899 66.595 156.554 66.0941L149.642 56.064L144.395 48.4481Z"/>
</mask>
<path fill-rule="evenodd" clip-rule="evenodd" d="M144.395 48.4481C143.334 46.9092 141.061 46.9092 140.001 48.4481L134.753 56.064L127.842 66.0941C127.497 66.595 126.991 66.9629 126.408 67.1369L114.744 70.6173L105.882 73.2616C104.199 73.7639 103.478 75.705 104.343 77.1685C104.238 77.4549 104.18 77.7651 104.18 78.0901V80.399C104.18 81.5463 104.55 82.6629 105.234 83.5835L117.558 100.152C117.74 100.397 117.877 100.669 117.966 100.957L117.786 108.341L117.559 117.594C117.552 117.897 117.594 118.185 117.677 118.454L117.559 123.264C117.514 125.132 119.352 126.467 121.114 125.846L129.831 122.772L141.311 118.725C141.885 118.522 142.511 118.522 143.085 118.725L154.564 122.772L163.282 125.846C165.044 126.467 166.882 125.132 166.836 123.264L166.719 118.453C166.802 118.185 166.844 117.897 166.836 117.594L166.61 108.341L166.429 100.96C166.519 100.67 166.657 100.397 166.84 100.151L179.49 83.1972C180.178 82.2755 180.549 81.1563 180.549 80.0063V78.08C180.549 77.6188 180.433 77.1872 180.229 76.8112C180.797 75.4054 180.063 73.724 178.514 73.2616L169.652 70.6173L157.988 67.1369C157.405 66.9629 156.899 66.595 156.554 66.0941L149.642 56.064L144.395 48.4481Z" fill="#69E3DC"/>
<path d="M140.001 48.4481L142.318 50.0444L142.318 50.0444L140.001 48.4481ZM144.395 48.4481L142.078 50.0444L142.078 50.0444L144.395 48.4481ZM134.753 56.064L137.07 57.6603L137.07 57.6603L134.753 56.064ZM127.842 66.0941L125.525 64.4977L125.525 64.4977L127.842 66.0941ZM126.408 67.1369L127.212 69.8328L127.212 69.8328L126.408 67.1369ZM114.744 70.6173L113.939 67.9213L113.939 67.9213L114.744 70.6173ZM105.882 73.2616L106.686 75.9576L106.686 75.9576L105.882 73.2616ZM104.343 77.1685L106.984 78.1397L107.445 76.8864L106.765 75.7368L104.343 77.1685ZM105.234 83.5835L102.977 85.2626L102.977 85.2626L105.234 83.5835ZM117.558 100.152L115.3 101.831L115.3 101.831L117.558 100.152ZM117.966 100.957L120.779 101.026L120.79 100.567L120.654 100.127L117.966 100.957ZM117.786 108.341L114.973 108.272L114.973 108.272L117.786 108.341ZM117.559 117.594L114.747 117.526L114.747 117.526L117.559 117.594ZM117.677 118.454L120.49 118.522L120.501 118.062L120.365 117.622L117.677 118.454ZM117.559 123.264L114.747 123.196L114.747 123.196L117.559 123.264ZM121.114 125.846L122.049 128.499L122.049 128.499L121.114 125.846ZM129.831 122.772L128.896 120.119L128.896 120.119L129.831 122.772ZM141.311 118.725L142.246 121.378L142.246 121.378L141.311 118.725ZM143.085 118.725L142.149 121.378L142.149 121.378L143.085 118.725ZM154.564 122.772L153.629 125.425L153.629 125.425L154.564 122.772ZM163.282 125.846L164.217 123.192L164.217 123.192L163.282 125.846ZM166.836 123.264L164.024 123.333L164.024 123.333L166.836 123.264ZM166.719 118.453L164.031 117.622L163.895 118.062L163.906 118.522L166.719 118.453ZM166.836 117.594L169.649 117.526L169.649 117.526L166.836 117.594ZM166.61 108.341L169.422 108.272L169.422 108.272L166.61 108.341ZM166.429 100.96L163.741 100.13L163.606 100.569L163.617 101.028L166.429 100.96ZM166.84 100.151L169.095 101.833L169.095 101.833L166.84 100.151ZM179.49 83.1972L181.745 84.8797L181.745 84.8797L179.49 83.1972ZM180.229 76.8112L177.62 75.7577L177.124 76.9864L177.755 78.1515L180.229 76.8112ZM178.514 73.2616L179.318 70.5656L179.318 70.5656L178.514 73.2616ZM169.652 70.6173L168.847 73.3133L168.847 73.3133L169.652 70.6173ZM157.988 67.1369L157.183 69.8328L157.183 69.8328L157.988 67.1369ZM156.554 66.0941L154.237 67.6904L154.237 67.6904L156.554 66.0941ZM149.642 56.064L147.326 57.6603L147.326 57.6603L149.642 56.064ZM142.318 50.0444C142.311 50.0533 142.291 50.0751 142.26 50.091C142.233 50.1043 142.212 50.1074 142.198 50.1074C142.183 50.1074 142.162 50.1043 142.136 50.091C142.105 50.0751 142.084 50.0533 142.078 50.0444L146.711 46.8517C144.533 43.6901 139.863 43.6901 137.684 46.8517L142.318 50.0444ZM137.07 57.6603L142.318 50.0444L137.684 46.8517L132.436 54.4676L137.07 57.6603ZM130.159 67.6904L137.07 57.6603L132.436 54.4676L125.525 64.4977L130.159 67.6904ZM127.212 69.8328C128.41 69.4755 129.449 68.7196 130.159 67.6904L125.525 64.4977C125.544 64.4704 125.572 64.4503 125.603 64.4409L127.212 69.8328ZM115.548 73.3133L127.212 69.8328L125.603 64.4409L113.939 67.9213L115.548 73.3133ZM106.686 75.9576L115.548 73.3133L113.939 67.9213L105.077 70.5656L106.686 75.9576ZM106.765 75.7368C106.777 75.7575 106.786 75.7863 106.788 75.8142C106.79 75.8382 106.786 75.8558 106.781 75.8686C106.776 75.8819 106.766 75.9007 106.745 75.9205C106.72 75.9436 106.695 75.9549 106.686 75.9576L105.077 70.5656C101.614 71.5992 100.14 75.5872 101.921 78.6001L106.765 75.7368ZM106.993 78.0901C106.993 78.0946 106.993 78.1019 106.991 78.1113C106.99 78.1205 106.987 78.1302 106.984 78.1397L101.703 76.1972C101.484 76.7906 101.366 77.4294 101.366 78.0901H106.993ZM106.993 80.399V78.0901H101.366V80.399H106.993ZM107.492 81.9044C107.168 81.4692 106.993 80.9413 106.993 80.399H101.366C101.366 82.1512 101.931 83.8567 102.977 85.2626L107.492 81.9044ZM119.815 98.4725L107.492 81.9044L102.977 85.2626L115.3 101.831L119.815 98.4725ZM120.654 100.127C120.472 99.5362 120.189 98.9759 119.815 98.4725L115.3 101.831C115.29 101.817 115.283 101.802 115.278 101.787L120.654 100.127ZM120.598 108.41L120.779 101.026L115.154 100.888L114.973 108.272L120.598 108.41ZM120.372 117.663L120.598 108.41L114.973 108.272L114.747 117.526L120.372 117.663ZM120.365 117.622C120.368 117.632 120.37 117.641 120.371 117.649C120.372 117.657 120.372 117.662 120.372 117.663L114.747 117.526C114.732 118.135 114.817 118.727 114.989 119.285L120.365 117.622ZM120.372 123.333L120.49 118.522L114.864 118.385L114.747 123.196L120.372 123.333ZM120.178 123.192C120.188 123.189 120.218 123.183 120.252 123.189C120.281 123.193 120.3 123.203 120.312 123.212C120.324 123.22 120.339 123.235 120.352 123.261C120.368 123.293 120.372 123.322 120.372 123.333L114.747 123.196C114.653 127.032 118.43 129.775 122.049 128.499L120.178 123.192ZM128.896 120.119L120.178 123.192L122.049 128.499L130.767 125.425L128.896 120.119ZM140.375 116.071L128.896 120.119L130.767 125.425L142.246 121.378L140.375 116.071ZM144.02 116.071C142.841 115.655 141.555 115.655 140.375 116.071L142.246 121.378C142.215 121.389 142.181 121.389 142.149 121.378L144.02 116.071ZM155.5 120.119L144.02 116.071L142.149 121.378L153.629 125.425L155.5 120.119ZM164.217 123.192L155.5 120.119L153.629 125.425L162.346 128.499L164.217 123.192ZM164.024 123.333C164.023 123.322 164.027 123.293 164.043 123.261C164.057 123.235 164.072 123.22 164.084 123.212C164.095 123.203 164.114 123.193 164.143 123.189C164.178 123.183 164.207 123.189 164.217 123.192L162.346 128.499C165.966 129.775 169.743 127.032 169.649 123.196L164.024 123.333ZM163.906 118.522L164.024 123.333L169.649 123.196L169.531 118.385L163.906 118.522ZM164.024 117.663C164.023 117.662 164.023 117.657 164.025 117.649C164.026 117.641 164.028 117.632 164.031 117.622L169.406 119.285C169.579 118.727 169.664 118.134 169.649 117.526L164.024 117.663ZM163.797 108.41L164.024 117.663L169.649 117.526L169.422 108.272L163.797 108.41ZM163.617 101.028L163.797 108.41L169.422 108.272L169.242 100.891L163.617 101.028ZM164.585 98.4681C164.209 98.9734 163.924 99.5361 163.741 100.13L169.118 101.789C169.113 101.805 169.105 101.82 169.095 101.833L164.585 98.4681ZM177.235 81.5147L164.585 98.4682L169.095 101.833L181.745 84.8797L177.235 81.5147ZM177.736 80.0063C177.736 80.5499 177.56 81.079 177.235 81.5147L181.745 84.8797C182.795 83.472 183.363 81.7627 183.363 80.0063H177.736ZM177.736 78.08V80.0063H183.363V78.08H177.736ZM177.755 78.1515C177.749 78.1401 177.744 78.127 177.74 78.113C177.737 78.0986 177.736 78.0869 177.736 78.08H183.363C183.363 77.1395 183.124 76.2484 182.703 75.4709L177.755 78.1515ZM177.709 75.9576C177.702 75.9554 177.679 75.9457 177.656 75.9252C177.635 75.9069 177.623 75.8889 177.617 75.8756C177.608 75.8563 177.597 75.8143 177.62 75.7577L182.838 77.8646C184.004 74.9766 182.512 71.5188 179.318 70.5656L177.709 75.9576ZM168.847 73.3133L177.709 75.9576L179.318 70.5656L170.456 67.9213L168.847 73.3133ZM157.183 69.8328L168.847 73.3133L170.456 67.9213L158.792 64.4409L157.183 69.8328ZM154.237 67.6904C154.946 68.7196 155.986 69.4755 157.183 69.8328L158.792 64.4409C158.824 64.4503 158.852 64.4704 158.87 64.4977L154.237 67.6904ZM147.326 57.6603L154.237 67.6904L158.87 64.4977L151.959 54.4676L147.326 57.6603ZM142.078 50.0444L147.326 57.6603L151.959 54.4676L146.711 46.8517L142.078 50.0444Z" fill="#1C2E6F" mask="url(#path-20-outside-2_487_6598)"/>
<path d="M140.001 54.116C141.061 52.5771 143.334 52.5771 144.395 54.116L149.642 61.7319L156.554 71.762C156.899 72.2629 157.405 72.6308 157.988 72.8047L166.753 75.4203C168.666 75.9912 170.674 76.1746 172.659 75.9597L177.594 75.4256C179.172 75.2548 180.549 76.4909 180.549 78.078V80.0043C180.549 81.1543 180.178 82.2735 179.49 83.1952L166.84 100.149C166.483 100.627 166.297 101.212 166.312 101.809L166.61 114.009L166.836 123.262C166.882 125.13 165.044 126.465 163.282 125.844L154.564 122.77L143.085 118.723C142.511 118.52 141.885 118.52 141.311 118.723L129.831 122.77L121.114 125.844C119.352 126.465 117.514 125.13 117.559 123.262L117.786 114.009L118.084 101.807C118.099 101.211 117.913 100.628 117.558 100.15L105.234 83.5814C104.55 82.6609 104.18 81.5442 104.18 80.397V78.0881C104.18 76.4974 105.563 75.2602 107.144 75.4367L111.711 75.9466C113.712 76.1701 115.738 75.9885 117.668 75.4128L126.408 72.8047C126.991 72.6308 127.497 72.2629 127.842 71.762L134.753 61.7319L140.001 54.116Z" fill="#3B6FBD"/>
<path d="M140.001 48.448C141.061 46.9092 143.334 46.9092 144.395 48.448L149.643 56.0639L156.554 66.094C156.899 66.5949 157.405 66.9628 157.988 67.1368L169.652 70.6173L178.514 73.2616C180.303 73.7953 181.004 75.954 179.871 77.4375L174.253 84.7931L166.859 94.4735C166.49 94.9564 166.297 95.5507 166.312 96.1582L166.61 108.341L166.836 117.594C166.882 119.462 165.044 120.797 163.282 120.176L154.564 117.102L143.085 113.055C142.511 112.852 141.885 112.852 141.311 113.055L129.831 117.102L121.114 120.176C119.352 120.797 117.514 119.462 117.56 117.594L117.786 108.341L118.084 96.1581C118.099 95.5507 117.906 94.9564 117.537 94.4735L110.143 84.7931L104.525 77.4375C103.392 75.954 104.093 73.7953 105.882 73.2616L114.744 70.6173L126.408 67.1368C126.991 66.9628 127.497 66.5949 127.842 66.094L134.753 56.0639L140.001 48.448Z" fill="#69E3DC"/>
<mask id="mask0_487_6598" style="mask-type:alpha" maskUnits="userSpaceOnUse" x="103" y="47" width="78" height="74">
<path d="M140.001 48.448C141.061 46.9092 143.334 46.9092 144.395 48.448L149.643 56.0639L156.554 66.094C156.899 66.5949 157.405 66.9628 157.988 67.1368L169.652 70.6173L178.514 73.2616C180.303 73.7953 181.004 75.954 179.871 77.4375L174.253 84.7931L166.859 94.4735C166.49 94.9564 166.297 95.5507 166.312 96.1582L166.61 108.341L166.836 117.594C166.882 119.462 165.044 120.797 163.282 120.176L154.564 117.102L143.085 113.055C142.511 112.852 141.885 112.852 141.311 113.055L129.831 117.102L121.114 120.176C119.352 120.797 117.514 119.462 117.56 117.594L117.786 108.341L118.084 96.1581C118.099 95.5507 117.906 94.9564 117.537 94.4735L110.143 84.7931L104.525 77.4375C103.392 75.954 104.093 73.7953 105.882 73.2616L114.744 70.6173L126.408 67.1368C126.991 66.9628 127.497 66.5949 127.842 66.094L134.753 56.0639L140.001 48.448Z" fill="#FDDB18"/>
</mask>
<g mask="url(#mask0_487_6598)">
<path d="M142.481 88.1126L102.346 75.3289L142.27 46.7607L142.481 88.1126Z" fill="white"/>
<path d="M142.365 88.1134L115.852 123.463L102.346 74.4403L142.365 88.1134Z" fill="#54A1D5"/>
<path d="M142.281 88.197L183.05 73.6903L168.877 124.214L142.281 88.197Z" fill="#54A1D5"/>
<path d="M142.365 88.1133L168.544 123.607H115.686L142.365 88.1133Z" fill="#376EC1"/>
</g>
<defs>
<filter id="filter0_i_487_6598" x="217.217" y="0.135742" width="66.6506" height="122.186" filterUnits="userSpaceOnUse" color-interpolation-filters="sRGB">
<feFlood flood-opacity="0" result="BackgroundImageFix"/>
<feBlend mode="normal" in="SourceGraphic" in2="BackgroundImageFix" result="shape"/>
<feColorMatrix in="SourceAlpha" type="matrix" values="0 0 0 0 0 0 0 0 0 0 0 0 0 0 0 0 0 0 127 0" result="hardAlpha"/>
<feOffset dy="7.37109"/>
<feComposite in2="hardAlpha" operator="arithmetic" k2="-1" k3="1"/>
<feColorMatrix type="matrix" values="0 0 0 0 0.898039 0 0 0 0 0.929412 0 0 0 0 1 0 0 0 1 0"/>
<feBlend mode="normal" in2="shape" result="effect1_innerShadow_487_6598"/>
</filter>
<filter id="filter1_i_487_6598" x="217.217" y="114.124" width="35.6504" height="32.8223" filterUnits="userSpaceOnUse" color-interpolation-filters="sRGB">
<feFlood flood-opacity="0" result="BackgroundImageFix"/>
<feBlend mode="normal" in="SourceGraphic" in2="BackgroundImageFix" result="shape"/>
<feColorMatrix in="SourceAlpha" type="matrix" values="0 0 0 0 0 0 0 0 0 0 0 0 0 0 0 0 0 0 127 0" result="hardAlpha"/>
<feOffset dy="7.37109"/>
<feComposite in2="hardAlpha" operator="arithmetic" k2="-1" k3="1"/>
<feColorMatrix type="matrix" values="0 0 0 0 0.898039 0 0 0 0 0.929412 0 0 0 0 1 0 0 0 1 0"/>
<feBlend mode="normal" in2="shape" result="effect1_innerShadow_487_6598"/>
</filter>
<filter id="filter2_i_487_6598" x="220.902" y="3.81836" width="59.2795" height="134.179" filterUnits="userSpaceOnUse" color-interpolation-filters="sRGB">
<feFlood flood-opacity="0" result="BackgroundImageFix"/>
<feBlend mode="normal" in="SourceGraphic" in2="BackgroundImageFix" result="shape"/>
<feColorMatrix in="SourceAlpha" type="matrix" values="0 0 0 0 0 0 0 0 0 0 0 0 0 0 0 0 0 0 127 0" result="hardAlpha"/>
<feOffset dy="6.05482"/>
<feComposite in2="hardAlpha" operator="arithmetic" k2="-1" k3="1"/>
<feColorMatrix type="matrix" values="0 0 0 0 0.745098 0 0 0 0 0.984314 0 0 0 0 1 0 0 0 1 0"/>
<feBlend mode="normal" in2="shape" result="effect1_innerShadow_487_6598"/>
</filter>
<filter id="filter3_i_487_6598" x="0.47168" y="0.135742" width="66.6506" height="122.186" filterUnits="userSpaceOnUse" color-interpolation-filters="sRGB">
<feFlood flood-opacity="0" result="BackgroundImageFix"/>
<feBlend mode="normal" in="SourceGraphic" in2="BackgroundImageFix" result="shape"/>
<feColorMatrix in="SourceAlpha" type="matrix" values="0 0 0 0 0 0 0 0 0 0 0 0 0 0 0 0 0 0 127 0" result="hardAlpha"/>
<feOffset dy="7.37109"/>
<feComposite in2="hardAlpha" operator="arithmetic" k2="-1" k3="1"/>
<feColorMatrix type="matrix" values="0 0 0 0 0.898039 0 0 0 0 0.929412 0 0 0 0 1 0 0 0 1 0"/>
<feBlend mode="normal" in2="shape" result="effect1_innerShadow_487_6598"/>
</filter>
<filter id="filter4_i_487_6598" x="31.4719" y="114.124" width="35.6504" height="32.8223" filterUnits="userSpaceOnUse" color-interpolation-filters="sRGB">
<feFlood flood-opacity="0" result="BackgroundImageFix"/>
<feBlend mode="normal" in="SourceGraphic" in2="BackgroundImageFix" result="shape"/>
<feColorMatrix in="SourceAlpha" type="matrix" values="0 0 0 0 0 0 0 0 0 0 0 0 0 0 0 0 0 0 127 0" result="hardAlpha"/>
<feOffset dy="7.37109"/>
<feComposite in2="hardAlpha" operator="arithmetic" k2="-1" k3="1"/>
<feColorMatrix type="matrix" values="0 0 0 0 0.898039 0 0 0 0 0.929412 0 0 0 0 1 0 0 0 1 0"/>
<feBlend mode="normal" in2="shape" result="effect1_innerShadow_487_6598"/>
</filter>
<filter id="filter5_i_487_6598" x="4.15723" y="3.81836" width="59.2795" height="134.179" filterUnits="userSpaceOnUse" color-interpolation-filters="sRGB">
<feFlood flood-opacity="0" result="BackgroundImageFix"/>
<feBlend mode="normal" in="SourceGraphic" in2="BackgroundImageFix" result="shape"/>
<feColorMatrix in="SourceAlpha" type="matrix" values="0 0 0 0 0 0 0 0 0 0 0 0 0 0 0 0 0 0 127 0" result="hardAlpha"/>
<feOffset dy="6.05482"/>
<feComposite in2="hardAlpha" operator="arithmetic" k2="-1" k3="1"/>
<feColorMatrix type="matrix" values="0 0 0 0 0.745098 0 0 0 0 0.984314 0 0 0 0 1 0 0 0 1 0"/>
<feBlend mode="normal" in2="shape" result="effect1_innerShadow_487_6598"/>
</filter>
<filter id="filter6_ii_487_6598" x="70.7991" y="5.82227" width="142.262" height="160.485" filterUnits="userSpaceOnUse" color-interpolation-filters="sRGB">
<feFlood flood-opacity="0" result="BackgroundImageFix"/>
<feBlend mode="normal" in="SourceGraphic" in2="BackgroundImageFix" result="shape"/>
<feColorMatrix in="SourceAlpha" type="matrix" values="0 0 0 0 0 0 0 0 0 0 0 0 0 0 0 0 0 0 127 0" result="hardAlpha"/>
<feOffset dy="10.4853"/>
<feComposite in2="hardAlpha" operator="arithmetic" k2="-1" k3="1"/>
<feColorMatrix type="matrix" values="0 0 0 0 0.745098 0 0 0 0 0.984314 0 0 0 0 1 0 0 0 1 0"/>
<feBlend mode="normal" in2="shape" result="effect1_innerShadow_487_6598"/>
<feColorMatrix in="SourceAlpha" type="matrix" values="0 0 0 0 0 0 0 0 0 0 0 0 0 0 0 0 0 0 127 0" result="hardAlpha"/>
<feOffset dy="-40.1937"/>
<feComposite in2="hardAlpha" operator="arithmetic" k2="-1" k3="1"/>
<feColorMatrix type="matrix" values="0 0 0 0 0.45098 0 0 0 0 0.180392 0 0 0 0 0.580392 0 0 0 0.2 0"/>
<feBlend mode="normal" in2="effect1_innerShadow_487_6598" result="effect2_innerShadow_487_6598"/>
</filter>
<filter id="filter7_i_487_6598" x="91.3528" y="32.6738" width="101.681" height="113.626" filterUnits="userSpaceOnUse" color-interpolation-filters="sRGB">
<feFlood flood-opacity="0" result="BackgroundImageFix"/>
<feBlend mode="normal" in="SourceGraphic" in2="BackgroundImageFix" result="shape"/>
<feColorMatrix in="SourceAlpha" type="matrix" values="0 0 0 0 0 0 0 0 0 0 0 0 0 0 0 0 0 0 127 0" result="hardAlpha"/>
<feOffset dy="5.26506"/>
<feComposite in2="hardAlpha" operator="arithmetic" k2="-1" k3="1"/>
<feColorMatrix type="matrix" values="0 0 0 0 0.089375 0 0 0 0 0.248625 0 0 0 0 0.4875 0 0 0 1 0"/>
<feBlend mode="normal" in2="shape" result="effect1_innerShadow_487_6598"/>
</filter>
<linearGradient id="paint0_linear_487_6598" x1="-5.23737" y1="-113.386" x2="147.223" y2="203.403" gradientUnits="userSpaceOnUse">
<stop stop-color="#70FFB2"/>
<stop offset="1" stop-color="#63CBFE"/>
</linearGradient>
</defs>
</svg>
