<svg width="284" height="221" viewBox="0 0 284 221" fill="none" xmlns="http://www.w3.org/2000/svg">
<path d="M147.914 42.2248C143.509 39.7088 138.105 39.7002 133.691 42.2022L73.3653 76.4039C68.8484 78.9648 66.063 83.762 66.0781 88.9543L66.3051 166.762C66.3197 171.751 68.9191 176.376 73.1733 178.981L133.295 215.809C137.904 218.632 143.707 218.632 148.316 215.809L208.398 179.006C212.677 176.385 215.281 171.722 215.266 166.703L215.039 88.8679C215.024 83.722 212.26 78.9763 207.791 76.4241L147.914 42.2248Z" fill="#A64B00" stroke="#592F0D" stroke-width="3.88618"/>
<g filter="url(#filter0_ii_631_13757)">
<path d="M134.522 43.8777C138.247 41.7271 142.836 41.7271 146.561 43.8777L204.525 77.3433C208.25 79.4938 210.545 83.4682 210.545 87.7693V154.701C210.545 159.002 208.25 162.976 204.525 165.127L146.561 198.592C142.836 200.743 138.247 200.743 134.522 198.592L76.5582 165.127C72.8333 162.976 70.5387 159.002 70.5387 154.701V87.7693C70.5387 83.4682 72.8333 79.4939 76.5582 77.3433L134.522 43.8777Z" fill="#4E47A1"/>
<path d="M134.522 43.8777C138.247 41.7271 142.836 41.7271 146.561 43.8777L204.525 77.3433C208.25 79.4938 210.545 83.4682 210.545 87.7693V154.701C210.545 159.002 208.25 162.976 204.525 165.127L146.561 198.592C142.836 200.743 138.247 200.743 134.522 198.592L76.5582 165.127C72.8333 162.976 70.5387 159.002 70.5387 154.701V87.7693C70.5387 83.4682 72.8333 79.4939 76.5582 77.3433L134.522 43.8777Z" fill="url(#paint0_linear_631_13757)"/>
</g>
<g filter="url(#filter1_i_631_13757)">
<path d="M134.781 70.3035C138.506 68.1529 143.096 68.1529 146.82 70.3035L184.816 92.2401C188.541 94.3906 190.835 98.365 190.835 102.666V146.539C190.835 150.84 188.541 154.815 184.816 156.965L146.82 178.902C143.096 181.052 138.506 181.052 134.782 178.902L96.7861 156.965C93.0613 154.815 90.7667 150.84 90.7667 146.539V102.666C90.7667 98.365 93.0613 94.3906 96.7861 92.2401L134.781 70.3035Z" fill="#EA6C05"/>
</g>
<ellipse cx="129.89" cy="57.8532" rx="9.40714" ry="4.88675" transform="rotate(-29.6591 129.89 57.8532)" fill="#FFF7D9"/>
<g filter="url(#filter2_i_631_13757)">
<path fill-rule="evenodd" clip-rule="evenodd" d="M220.353 81.1696L264.914 41.405C266.584 39.915 269.23 41.1002 269.23 43.338V51.8888V75.4786V84.0294C269.23 93.643 263.575 102.357 254.794 106.272L223.133 120.389C221.419 121.153 219.487 119.899 219.487 118.023V109.472V91.6535V83.1027C219.487 82.3644 219.802 81.6612 220.353 81.1696ZM221.004 125.337L250.798 111.765C252.513 110.984 254.463 112.238 254.463 114.123V122.674V127.742V136.293C254.463 145.106 247.568 152.379 238.767 152.85L222.216 153.735C220.733 153.815 219.487 152.634 219.487 151.148V142.598V136.245V127.694C219.487 126.679 220.08 125.758 221.004 125.337Z" fill="#FFC511"/>
</g>
<path d="M264.914 41.405L267.329 44.1113L264.914 41.405ZM220.353 81.1696L217.938 78.4634L217.938 78.4634L220.353 81.1696ZM254.794 106.272L253.317 102.959L254.794 106.272ZM223.133 120.389L224.61 123.702L224.61 123.702L223.133 120.389ZM250.798 111.765L249.294 108.464L249.294 108.464L250.798 111.765ZM221.004 125.337L219.5 122.036H219.5L221.004 125.337ZM238.767 152.85L238.574 149.228H238.574L238.767 152.85ZM222.216 153.735L222.41 157.357H222.41L222.216 153.735ZM262.499 38.6987L217.938 78.4634L222.768 83.8759L267.329 44.1113L262.499 38.6987ZM272.857 43.338C272.857 37.9673 266.507 35.1228 262.499 38.6987L267.329 44.1113C266.662 44.7073 265.603 44.2332 265.603 43.338H272.857ZM272.857 51.8888V43.338H265.603V51.8888H272.857ZM272.857 75.4786V51.8888H265.603V75.4786H272.857ZM272.857 84.0294V75.4786H265.603V84.0294H272.857ZM256.271 109.585C266.359 105.087 272.857 95.0748 272.857 84.0294H265.603C265.603 92.2111 260.79 99.6273 253.317 102.959L256.271 109.585ZM224.61 123.702L256.271 109.585L253.317 102.959L221.656 117.076L224.61 123.702ZM215.86 118.023C215.86 122.526 220.497 125.536 224.61 123.702L221.656 117.076C222.341 116.771 223.114 117.272 223.114 118.023H215.86ZM215.86 109.472V118.023H223.114V109.472H215.86ZM215.86 91.6535V109.472H223.114V91.6535H215.86ZM215.86 83.1027V91.6535H223.114V83.1027H215.86ZM217.938 78.4634C216.616 79.6431 215.86 81.3308 215.86 83.1027H223.114C223.114 83.398 222.988 83.6793 222.768 83.8759L217.938 78.4634ZM249.294 108.464L219.5 122.036L222.507 128.638L252.301 115.066L249.294 108.464ZM258.09 114.123C258.09 109.599 253.412 106.589 249.294 108.464L252.301 115.066C251.615 115.379 250.836 114.877 250.836 114.123H258.09ZM258.09 122.674V114.123H250.836V122.674H258.09ZM258.09 127.742V122.674H250.836V127.742H258.09ZM258.09 136.293V127.742H250.836V136.293H258.09ZM238.961 156.472C249.687 155.898 258.09 147.034 258.09 136.293H250.836C250.836 143.178 245.449 148.86 238.574 149.228L238.961 156.472ZM222.41 157.357L238.961 156.472L238.574 149.228L222.022 150.113L222.41 157.357ZM215.86 151.148C215.86 154.713 218.851 157.548 222.41 157.357L222.022 150.113C222.616 150.082 223.114 150.554 223.114 151.148H215.86ZM215.86 142.598V151.148H223.114V142.598H215.86ZM215.86 136.245V142.598H223.114V136.245H215.86ZM215.86 127.694V136.245H223.114V127.694H215.86ZM219.5 122.036C217.283 123.046 215.86 125.258 215.86 127.694H223.114C223.114 128.101 222.877 128.469 222.507 128.638L219.5 122.036Z" fill="#592F0D"/>
<g filter="url(#filter3_i_631_13757)">
<path fill-rule="evenodd" clip-rule="evenodd" d="M239.488 152.939L222.093 154.435C220.619 154.562 219.487 155.795 219.487 157.274V162.43C219.487 162.438 219.487 162.447 219.487 162.455V175.126C219.487 176.699 220.763 177.975 222.337 177.975H228.502C234.082 177.975 239.491 174.154 240.991 168.778L242.675 155.436C242.638 155.439 242.602 155.443 242.565 155.448C242.395 153.982 241.084 152.801 239.488 152.939Z" fill="#FFC511"/>
</g>
<path d="M222.093 154.435L221.782 150.821L221.782 150.821L222.093 154.435ZM239.488 152.939L239.799 156.552H239.799L239.488 152.939ZM219.487 162.43L223.114 162.461L223.114 162.446V162.43H219.487ZM240.991 168.778L244.484 169.753L244.556 169.497L244.589 169.232L240.991 168.778ZM242.675 155.436L246.273 155.89L246.847 151.343L242.29 151.829L242.675 155.436ZM242.565 155.448L238.963 155.866L239.38 159.461L242.975 159.051L242.565 155.448ZM242.675 155.438L246.273 155.892L246.848 151.34L242.287 151.831L242.675 155.438ZM222.404 158.049L239.799 156.552L239.177 149.325L221.782 150.821L222.404 158.049ZM223.114 157.274C223.114 157.678 222.806 158.014 222.404 158.049L221.782 150.821C218.432 151.109 215.86 153.912 215.86 157.274H223.114ZM223.114 162.43V157.274H215.86V162.43H223.114ZM215.86 162.398C215.86 162.417 215.86 162.436 215.86 162.455H223.114C223.114 162.457 223.114 162.459 223.114 162.461L215.86 162.398ZM215.86 162.455V175.126H223.114V162.455H215.86ZM215.86 175.126C215.86 178.703 218.76 181.603 222.337 181.603V174.348C222.766 174.348 223.114 174.696 223.114 175.126H215.86ZM222.337 181.603H228.502V174.348H222.337V181.603ZM228.502 181.603C235.584 181.603 242.514 176.814 244.484 169.753L237.497 167.803C236.467 171.493 232.58 174.348 228.502 174.348V181.603ZM244.589 169.232L246.273 155.89L239.076 154.981L237.392 168.324L244.589 169.232ZM242.29 151.829C242.245 151.834 242.2 151.839 242.155 151.844L242.975 159.051C243.003 159.048 243.031 159.045 243.059 159.042L242.29 151.829ZM239.799 156.552C239.593 156.57 239.379 156.495 239.228 156.368C239.092 156.255 238.988 156.083 238.963 155.866L246.168 155.03C245.784 151.712 242.823 149.011 239.177 149.325L239.799 156.552ZM228.502 174.35H222.337V181.604H228.502V174.35ZM243.062 159.044L243.063 159.044L242.287 151.831L242.286 151.831L243.062 159.044ZM239.076 154.983L237.392 168.326L244.589 169.234L246.273 155.892L239.076 154.983Z" fill="#592F0D"/>
<path d="M264.914 49.9558L220.353 89.7204C219.802 90.212 219.487 90.9152 219.487 91.6535V118.023C219.487 119.899 221.419 121.153 223.133 120.389L254.794 106.272C263.575 102.357 269.23 93.643 269.23 84.0294V51.8888C269.23 49.651 266.584 48.4658 264.914 49.9558Z" fill="#A64B00"/>
<path d="M250.798 116.689L221.004 130.26C220.08 130.681 219.487 131.603 219.487 132.618V147.521C219.487 149.006 220.733 151.483 222.216 151.404L238.767 150.518C247.568 150.048 254.463 141.479 254.463 132.666V119.047C254.463 117.161 252.513 115.907 250.798 116.689Z" fill="#A64B00"/>
<path d="M236.327 157.379L222.093 159.616C220.619 159.743 219.487 160.976 219.487 162.455V175.126C219.487 176.7 220.763 177.976 222.337 177.976H228.502C234.082 177.976 239.491 174.154 240.991 168.778L242.675 155.436C239.026 155.824 238.309 157.208 236.327 157.379Z" fill="#A64B00"/>
<path d="M264.914 49.9558L220.353 89.7204C219.802 90.212 219.487 90.9152 219.487 91.6535V118.023C219.487 119.899 221.419 121.153 223.133 120.389L254.794 106.272C263.575 102.357 269.23 93.643 269.23 84.0294V51.8888C269.23 49.651 266.584 48.4658 264.914 49.9558Z" stroke="black"/>
<path d="M250.798 116.689L221.004 130.26C220.08 130.681 219.487 131.603 219.487 132.618V147.521C219.487 149.006 220.733 151.483 222.216 151.404L238.767 150.518C247.568 150.048 254.463 141.479 254.463 132.666V119.047C254.463 117.161 252.513 115.907 250.798 116.689Z" stroke="black"/>
<path d="M236.327 157.379L222.093 159.616C220.619 159.743 219.487 160.976 219.487 162.455V175.126C219.487 176.7 220.763 177.976 222.337 177.976H228.502C234.082 177.976 239.491 174.154 240.991 168.778L242.675 155.436C239.026 155.824 238.309 157.208 236.327 157.379Z" stroke="black"/>
<g filter="url(#filter4_i_631_13757)">
<path d="M264.914 41.405L220.353 81.1696C219.802 81.6612 219.487 82.3644 219.487 83.1027V109.472C219.487 111.348 221.419 112.602 223.133 111.838L254.794 97.7211C263.575 93.8061 269.23 85.0922 269.23 75.4786V43.338C269.23 41.1002 266.584 39.915 264.914 41.405Z" fill="#FFC511"/>
<path d="M250.798 111.765L221.004 125.337C220.08 125.758 219.487 126.679 219.487 127.694V142.598C219.487 144.083 220.733 145.264 222.216 145.185L238.767 144.299C247.568 143.829 254.463 136.555 254.463 127.742V114.123C254.463 112.238 252.514 110.984 250.798 111.765Z" fill="#FFC511"/>
<path d="M239.488 152.937L222.093 154.433C220.619 154.56 219.487 155.793 219.487 157.273V169.943C219.487 171.517 220.763 172.793 222.337 172.793H228.502C234.082 172.793 238.98 169.075 240.48 163.7L242.477 156.542C243.012 154.627 241.469 152.766 239.488 152.937Z" fill="#FFC511"/>
<path d="M264.914 41.405L220.353 81.1696C219.802 81.6612 219.487 82.3644 219.487 83.1027V109.472C219.487 111.348 221.419 112.602 223.133 111.838L254.794 97.7211C263.575 93.8061 269.23 85.0922 269.23 75.4786V43.338C269.23 41.1002 266.584 39.915 264.914 41.405Z" stroke="black"/>
<path d="M250.798 111.765L221.004 125.337C220.08 125.758 219.487 126.679 219.487 127.694V142.598C219.487 144.083 220.733 145.264 222.216 145.185L238.767 144.299C247.568 143.829 254.463 136.555 254.463 127.742V114.123C254.463 112.238 252.514 110.984 250.798 111.765Z" stroke="black"/>
<path d="M239.488 152.937L222.093 154.433C220.619 154.56 219.487 155.793 219.487 157.273V169.943C219.487 171.517 220.763 172.793 222.337 172.793H228.502C234.082 172.793 238.98 169.075 240.48 163.7L242.477 156.542C243.012 154.627 241.469 152.766 239.488 152.937Z" stroke="black"/>
</g>
<g filter="url(#filter5_i_631_13757)">
<path fill-rule="evenodd" clip-rule="evenodd" d="M63.4835 76.945L18.922 37.1804C17.2523 35.6904 14.6062 36.8756 14.6062 39.1134V47.6621V71.254V79.8026C14.6062 89.4163 20.2618 98.1302 29.0421 102.045L60.7035 116.162C62.4171 116.926 64.3494 115.672 64.3494 113.796V105.247V87.4268V78.8781C64.3494 78.1398 64.0344 77.4366 63.4835 76.945ZM62.8325 121.112L33.0385 107.541C31.3229 106.759 29.3737 108.013 29.3737 109.898V118.447V123.517V132.066C29.3737 140.879 36.2684 148.153 45.0691 148.623L61.6202 149.509C63.1033 149.588 64.3494 148.407 64.3494 146.922V138.373V132.019V123.47C64.3494 122.455 63.7564 121.533 62.8325 121.112Z" fill="#FFC511"/>
</g>
<path d="M18.922 37.1804L16.507 39.8867L18.922 37.1804ZM63.4835 76.945L65.8985 74.2388L65.8985 74.2388L63.4835 76.945ZM29.0421 102.045L30.5192 98.7325L29.0421 102.045ZM60.7035 116.162L62.1806 112.85H62.1806L60.7035 116.162ZM33.0385 107.541L34.542 104.24L34.542 104.24L33.0385 107.541ZM62.8325 121.112L64.3361 117.811H64.3361L62.8325 121.112ZM45.0691 148.623L44.8754 152.245H44.8754L45.0691 148.623ZM61.6202 149.509L61.8139 145.887H61.8139L61.6202 149.509ZM21.3369 34.4741L65.8985 74.2388L61.0686 79.6513L16.507 39.8867L21.3369 34.4741ZM10.9791 39.1134C10.9791 33.7427 17.3297 30.8982 21.3369 34.4741L16.507 39.8867C17.1749 40.4826 18.2333 40.0086 18.2333 39.1134H10.9791ZM10.9791 47.6621V39.1134H18.2333V47.6621H10.9791ZM10.9791 71.254V47.6621H18.2333V71.254H10.9791ZM10.9791 79.8026V71.254H18.2333V79.8026H10.9791ZM27.565 105.358C17.477 100.86 10.9791 90.8481 10.9791 79.8026H18.2333C18.2333 87.9844 23.0466 95.4006 30.5192 98.7325L27.565 105.358ZM59.2264 119.475L27.565 105.358L30.5192 98.7325L62.1806 112.85L59.2264 119.475ZM67.9765 113.796C67.9765 118.299 63.339 121.309 59.2264 119.475L62.1806 112.85C61.4952 112.544 60.7223 113.046 60.7223 113.796H67.9765ZM67.9765 105.247V113.796H60.7223V105.247H67.9765ZM67.9765 87.4268V105.247H60.7223V87.4268H67.9765ZM67.9765 78.8781V87.4268H60.7223V78.8781H67.9765ZM65.8985 74.2388C67.2205 75.4185 67.9765 77.1062 67.9765 78.8781H60.7223C60.7223 79.1734 60.8483 79.4547 61.0686 79.6513L65.8985 74.2388ZM34.542 104.24L64.3361 117.811L61.329 124.413L31.5349 110.841L34.542 104.24ZM25.7466 109.898C25.7466 105.374 30.4247 102.364 34.542 104.24L31.5349 110.841C32.2211 111.154 33.0008 110.652 33.0008 109.898H25.7466ZM25.7466 118.447V109.898H33.0008V118.447H25.7466ZM25.7466 123.517V118.447H33.0008V123.517H25.7466ZM25.7466 132.066V123.517H33.0008V132.066H25.7466ZM44.8754 152.245C34.1495 151.672 25.7466 142.807 25.7466 132.066H33.0008C33.0008 138.951 38.3873 144.634 45.2628 145.001L44.8754 152.245ZM61.4265 153.131L44.8754 152.245L45.2628 145.001L61.8139 145.887L61.4265 153.131ZM67.9765 146.922C67.9765 150.486 64.9859 153.321 61.4264 153.131L61.8139 145.887C61.2207 145.855 60.7223 146.328 60.7223 146.922H67.9765ZM67.9765 138.373V146.922H60.7223V138.373H67.9765ZM67.9765 132.019V138.373H60.7223V132.019H67.9765ZM67.9765 123.47V132.019H60.7223V123.47H67.9765ZM64.3361 117.811C66.5534 118.821 67.9765 121.033 67.9765 123.47H60.7223C60.7223 123.876 60.9594 124.245 61.329 124.413L64.3361 117.811Z" fill="#592F0D"/>
<g filter="url(#filter6_i_631_13757)">
<path fill-rule="evenodd" clip-rule="evenodd" d="M44.3486 148.714L61.7437 150.21C63.2176 150.337 64.3494 151.57 64.3494 153.05V158.231V165.72V170.901C64.3494 172.475 63.0734 173.751 61.4995 173.751H55.3348C49.754 173.751 44.3458 169.929 42.8458 164.553L41.1618 151.211C41.1985 151.215 41.2349 151.219 41.2711 151.223C41.4411 149.757 42.7524 148.577 44.3486 148.714Z" fill="#FFC511"/>
</g>
<path d="M61.7437 150.21L62.0546 146.597L62.0546 146.597L61.7437 150.21ZM44.3486 148.714L44.0378 152.328L44.3486 148.714ZM42.8458 164.553L39.3522 165.528L39.2806 165.272L39.2473 165.008L42.8458 164.553ZM41.1618 151.211L37.5633 151.665L36.9895 147.119L41.546 147.604L41.1618 151.211ZM41.2711 151.223L44.874 151.641L44.457 155.236L40.861 154.827L41.2711 151.223ZM41.1617 151.213L37.5632 151.667L36.9895 147.122L41.5449 147.606L41.1617 151.213ZM61.4329 153.824L44.0378 152.328L44.6595 145.1L62.0546 146.597L61.4329 153.824ZM60.7223 153.05C60.7223 153.453 61.0309 153.79 61.4329 153.824L62.0546 146.597C65.4042 146.885 67.9765 149.688 67.9765 153.05H60.7223ZM60.7223 158.231V153.05H67.9765V158.231H60.7223ZM67.9765 158.231V165.72H60.7223V158.231H67.9765ZM67.9765 165.72V170.901H60.7223V165.72H67.9765ZM67.9765 170.901C67.9765 174.478 65.0766 177.378 61.4995 177.378V170.124C61.0702 170.124 60.7223 170.472 60.7223 170.901H67.9765ZM61.4995 177.378H55.3348V170.124H61.4995V177.378ZM55.3348 177.378C48.252 177.378 41.3226 172.59 39.3522 165.528L46.3395 163.579C47.3691 167.268 51.2561 170.124 55.3348 170.124V177.378ZM39.2473 165.008L37.5633 151.665L44.7604 150.757L46.4444 164.099L39.2473 165.008ZM41.546 147.604C41.5913 147.609 41.6363 147.614 41.6811 147.619L40.861 154.827C40.8335 154.824 40.8057 154.821 40.7776 154.818L41.546 147.604ZM44.0378 152.328C44.2433 152.345 44.4578 152.271 44.609 152.144C44.7442 152.03 44.8487 151.859 44.874 151.641L37.6681 150.805C38.053 147.488 41.0138 144.787 44.6595 145.1L44.0378 152.328ZM55.3347 170.126H61.4994V177.38H55.3347V170.126ZM40.7788 154.82L40.7785 154.82L41.5449 147.606L41.5453 147.606L40.7788 154.82ZM44.7603 150.759L46.4443 164.101L39.2472 165.01L37.5632 151.667L44.7603 150.759Z" fill="#592F0D"/>
<path d="M18.922 45.7292L63.4835 85.4939C64.0344 85.9854 64.3494 86.6886 64.3494 87.4269V113.796C64.3494 115.672 62.4171 116.927 60.7035 116.163L29.0421 102.045C20.2618 98.1303 14.6062 89.4164 14.6062 79.8028V47.6623C14.6062 45.4244 17.2523 44.2393 18.922 45.7292Z" fill="#A64B00"/>
<path d="M33.0385 112.462L62.8325 126.034C63.7564 126.455 64.3494 127.376 64.3494 128.392V143.295C64.3494 144.78 63.1033 147.256 61.6202 147.177L45.0691 146.292C36.2684 145.821 29.3737 137.252 29.3737 128.439V114.82C29.3737 112.935 31.3229 111.681 33.0385 112.462Z" fill="#A64B00"/>
<path d="M47.5092 153.152L61.7437 155.389C63.2176 155.516 64.3494 156.75 64.3494 158.229V170.899C64.3494 172.473 63.0734 173.749 61.4995 173.749H55.3348C49.754 173.749 44.3458 169.927 42.8458 164.552L41.1618 151.209C44.81 151.598 45.5278 152.982 47.5092 153.152Z" fill="#A64B00"/>
<path d="M18.922 45.7292L63.4835 85.4939C64.0344 85.9854 64.3494 86.6886 64.3494 87.4269V113.796C64.3494 115.672 62.4171 116.927 60.7035 116.163L29.0421 102.045C20.2618 98.1303 14.6062 89.4164 14.6062 79.8028V47.6623C14.6062 45.4244 17.2523 44.2393 18.922 45.7292Z" stroke="black"/>
<path d="M33.0385 112.462L62.8325 126.034C63.7564 126.455 64.3494 127.376 64.3494 128.392V143.295C64.3494 144.78 63.1033 147.256 61.6202 147.177L45.0691 146.292C36.2684 145.821 29.3737 137.252 29.3737 128.439V114.82C29.3737 112.935 31.3229 111.681 33.0385 112.462Z" stroke="black"/>
<path d="M47.5092 153.152L61.7437 155.389C63.2176 155.516 64.3494 156.75 64.3494 158.229V170.899C64.3494 172.473 63.0734 173.749 61.4995 173.749H55.3348C49.754 173.749 44.3458 169.927 42.8458 164.552L41.1618 151.209C44.81 151.598 45.5278 152.982 47.5092 153.152Z" stroke="black"/>
<g filter="url(#filter7_i_631_13757)">
<path d="M18.9217 37.1804L63.4833 76.945C64.0341 77.4366 64.3491 78.1398 64.3491 78.8781V105.247C64.3491 107.124 62.4168 108.378 60.7033 107.614L29.0419 93.4965C20.2615 89.5815 14.606 80.8676 14.606 71.254V39.1134C14.606 36.8756 17.252 35.6904 18.9217 37.1804Z" fill="#FFC511"/>
<path d="M33.0382 107.541L62.8323 121.112C63.7562 121.533 64.3491 122.455 64.3491 123.47V138.373C64.3491 139.858 63.1031 141.039 61.6199 140.96L45.0688 140.075C36.2681 139.604 29.3735 132.331 29.3735 123.517V109.898C29.3735 108.013 31.3227 106.759 33.0382 107.541Z" fill="#FFC511"/>
<path d="M44.3484 148.712L61.7435 150.209C63.2173 150.335 64.3491 151.569 64.3491 153.048V165.718C64.3491 167.292 63.0732 168.568 61.4993 168.568H55.3346C49.7538 168.568 44.8564 164.85 43.3564 159.475L41.3591 152.318C40.8246 150.402 42.3669 148.542 44.3484 148.712Z" fill="#FFC511"/>
<path d="M18.9217 37.1804L63.4833 76.945C64.0341 77.4366 64.3491 78.1398 64.3491 78.8781V105.247C64.3491 107.124 62.4168 108.378 60.7033 107.614L29.0419 93.4965C20.2615 89.5815 14.606 80.8676 14.606 71.254V39.1134C14.606 36.8756 17.252 35.6904 18.9217 37.1804Z" stroke="black"/>
<path d="M33.0382 107.541L62.8323 121.112C63.7562 121.533 64.3491 122.455 64.3491 123.47V138.373C64.3491 139.858 63.1031 141.039 61.6199 140.96L45.0688 140.075C36.2681 139.604 29.3735 132.331 29.3735 123.517V109.898C29.3735 108.013 31.3227 106.759 33.0382 107.541Z" stroke="black"/>
<path d="M44.3484 148.712L61.7435 150.209C63.2173 150.335 64.3491 151.569 64.3491 153.048V165.718C64.3491 167.292 63.0732 168.568 61.4993 168.568H55.3346C49.7538 168.568 44.8564 164.85 43.3564 159.475L41.3591 152.318C40.8246 150.402 42.3669 148.542 44.3484 148.712Z" stroke="black"/>
</g>
<defs>
<filter id="filter0_ii_631_13757" x="70.5388" y="42.2646" width="140.006" height="157.94" filterUnits="userSpaceOnUse" color-interpolation-filters="sRGB">
<feFlood flood-opacity="0" result="BackgroundImageFix"/>
<feBlend mode="normal" in="SourceGraphic" in2="BackgroundImageFix" result="shape"/>
<feColorMatrix in="SourceAlpha" type="matrix" values="0 0 0 0 0 0 0 0 0 0 0 0 0 0 0 0 0 0 127 0" result="hardAlpha"/>
<feOffset dy="10.3191"/>
<feComposite in2="hardAlpha" operator="arithmetic" k2="-1" k3="1"/>
<feColorMatrix type="matrix" values="0 0 0 0 1 0 0 0 0 0.901186 0 0 0 0 0.545833 0 0 0 1 0"/>
<feBlend mode="normal" in2="shape" result="effect1_innerShadow_631_13757"/>
<feColorMatrix in="SourceAlpha" type="matrix" values="0 0 0 0 0 0 0 0 0 0 0 0 0 0 0 0 0 0 127 0" result="hardAlpha"/>
<feOffset dy="-39.5564"/>
<feComposite in2="hardAlpha" operator="arithmetic" k2="-1" k3="1"/>
<feColorMatrix type="matrix" values="0 0 0 0 0.917647 0 0 0 0 0.423529 0 0 0 0 0.0196078 0 0 0 0.3 0"/>
<feBlend mode="normal" in2="effect1_innerShadow_631_13757" result="effect2_innerShadow_631_13757"/>
</filter>
<filter id="filter1_i_631_13757" x="90.7666" y="68.6904" width="100.069" height="111.824" filterUnits="userSpaceOnUse" color-interpolation-filters="sRGB">
<feFlood flood-opacity="0" result="BackgroundImageFix"/>
<feBlend mode="normal" in="SourceGraphic" in2="BackgroundImageFix" result="shape"/>
<feColorMatrix in="SourceAlpha" type="matrix" values="0 0 0 0 0 0 0 0 0 0 0 0 0 0 0 0 0 0 127 0" result="hardAlpha"/>
<feOffset dy="5.18158"/>
<feComposite in2="hardAlpha" operator="arithmetic" k2="-1" k3="1"/>
<feColorMatrix type="matrix" values="0 0 0 0 0.6875 0 0 0 0 0.350296 0 0 0 0 0.0716146 0 0 0 1 0"/>
<feBlend mode="normal" in2="shape" result="effect1_innerShadow_631_13757"/>
</filter>
<filter id="filter2_i_631_13757" x="215.86" y="37.1084" width="56.9973" height="120.258" filterUnits="userSpaceOnUse" color-interpolation-filters="sRGB">
<feFlood flood-opacity="0" result="BackgroundImageFix"/>
<feBlend mode="normal" in="SourceGraphic" in2="BackgroundImageFix" result="shape"/>
<feColorMatrix in="SourceAlpha" type="matrix" values="0 0 0 0 0 0 0 0 0 0 0 0 0 0 0 0 0 0 127 0" result="hardAlpha"/>
<feOffset dy="7.25421"/>
<feComposite in2="hardAlpha" operator="arithmetic" k2="-1" k3="1"/>
<feColorMatrix type="matrix" values="0 0 0 0 0.898039 0 0 0 0 0.929412 0 0 0 0 1 0 0 0 1 0"/>
<feBlend mode="normal" in2="shape" result="effect1_innerShadow_631_13757"/>
</filter>
<filter id="filter3_i_631_13757" x="215.86" y="149.3" width="30.988" height="32.3047" filterUnits="userSpaceOnUse" color-interpolation-filters="sRGB">
<feFlood flood-opacity="0" result="BackgroundImageFix"/>
<feBlend mode="normal" in="SourceGraphic" in2="BackgroundImageFix" result="shape"/>
<feColorMatrix in="SourceAlpha" type="matrix" values="0 0 0 0 0 0 0 0 0 0 0 0 0 0 0 0 0 0 127 0" result="hardAlpha"/>
<feOffset dy="7.25421"/>
<feComposite in2="hardAlpha" operator="arithmetic" k2="-1" k3="1"/>
<feColorMatrix type="matrix" values="0 0 0 0 0.898039 0 0 0 0 0.929412 0 0 0 0 1 0 0 0 1 0"/>
<feBlend mode="normal" in2="shape" result="effect1_innerShadow_631_13757"/>
</filter>
<filter id="filter4_i_631_13757" x="219.487" y="40.7422" width="49.7432" height="132.051" filterUnits="userSpaceOnUse" color-interpolation-filters="sRGB">
<feFlood flood-opacity="0" result="BackgroundImageFix"/>
<feBlend mode="normal" in="SourceGraphic" in2="BackgroundImageFix" result="shape"/>
<feColorMatrix in="SourceAlpha" type="matrix" values="0 0 0 0 0 0 0 0 0 0 0 0 0 0 0 0 0 0 127 0" result="hardAlpha"/>
<feOffset dy="5.95881"/>
<feComposite in2="hardAlpha" operator="arithmetic" k2="-1" k3="1"/>
<feColorMatrix type="matrix" values="0 0 0 0 1 0 0 0 0 0.901961 0 0 0 0 0.545098 0 0 0 1 0"/>
<feBlend mode="normal" in2="shape" result="effect1_innerShadow_631_13757"/>
</filter>
<filter id="filter5_i_631_13757" x="10.9792" y="32.8838" width="56.9973" height="120.256" filterUnits="userSpaceOnUse" color-interpolation-filters="sRGB">
<feFlood flood-opacity="0" result="BackgroundImageFix"/>
<feBlend mode="normal" in="SourceGraphic" in2="BackgroundImageFix" result="shape"/>
<feColorMatrix in="SourceAlpha" type="matrix" values="0 0 0 0 0 0 0 0 0 0 0 0 0 0 0 0 0 0 127 0" result="hardAlpha"/>
<feOffset dy="7.25421"/>
<feComposite in2="hardAlpha" operator="arithmetic" k2="-1" k3="1"/>
<feColorMatrix type="matrix" values="0 0 0 0 0.898039 0 0 0 0 0.929412 0 0 0 0 1 0 0 0 1 0"/>
<feBlend mode="normal" in2="shape" result="effect1_innerShadow_631_13757"/>
</filter>
<filter id="filter6_i_631_13757" x="36.9895" y="145.075" width="30.9871" height="32.3047" filterUnits="userSpaceOnUse" color-interpolation-filters="sRGB">
<feFlood flood-opacity="0" result="BackgroundImageFix"/>
<feBlend mode="normal" in="SourceGraphic" in2="BackgroundImageFix" result="shape"/>
<feColorMatrix in="SourceAlpha" type="matrix" values="0 0 0 0 0 0 0 0 0 0 0 0 0 0 0 0 0 0 127 0" result="hardAlpha"/>
<feOffset dy="7.25421"/>
<feComposite in2="hardAlpha" operator="arithmetic" k2="-1" k3="1"/>
<feColorMatrix type="matrix" values="0 0 0 0 0.898039 0 0 0 0 0.929412 0 0 0 0 1 0 0 0 1 0"/>
<feBlend mode="normal" in2="shape" result="effect1_innerShadow_631_13757"/>
</filter>
<filter id="filter7_i_631_13757" x="14.606" y="36.5176" width="49.7432" height="132.051" filterUnits="userSpaceOnUse" color-interpolation-filters="sRGB">
<feFlood flood-opacity="0" result="BackgroundImageFix"/>
<feBlend mode="normal" in="SourceGraphic" in2="BackgroundImageFix" result="shape"/>
<feColorMatrix in="SourceAlpha" type="matrix" values="0 0 0 0 0 0 0 0 0 0 0 0 0 0 0 0 0 0 127 0" result="hardAlpha"/>
<feOffset dy="5.95881"/>
<feComposite in2="hardAlpha" operator="arithmetic" k2="-1" k3="1"/>
<feColorMatrix type="matrix" values="0 0 0 0 1 0 0 0 0 0.901961 0 0 0 0 0.545098 0 0 0 1 0"/>
<feBlend mode="normal" in2="shape" result="effect1_innerShadow_631_13757"/>
</filter>
<linearGradient id="paint0_linear_631_13757" x1="-4.2921" y1="-75.0531" x2="145.751" y2="236.713" gradientUnits="userSpaceOnUse">
<stop stop-color="#FFF00C"/>
<stop offset="1" stop-color="#FFA913"/>
</linearGradient>
</defs>
</svg>
