<svg width="263" height="188" viewBox="0 0 263 188" fill="none" xmlns="http://www.w3.org/2000/svg">
<path d="M137.278 10.2248C132.873 7.70881 127.468 7.7002 123.055 10.2022L62.7291 44.4039C58.2122 46.9648 55.4267 51.762 55.4419 56.9543L55.6689 134.762C55.6834 139.751 58.2829 144.376 62.5371 146.981L122.659 183.809C127.268 186.632 133.071 186.632 137.68 183.809L197.761 147.006C202.041 144.385 204.644 139.722 204.63 134.703L204.403 56.8679C204.388 51.722 201.624 46.9763 197.155 44.4241L137.278 10.2248Z" fill="#A64B00" stroke="#592F0D" stroke-width="3.88618"/>
<g filter="url(#filter0_ii_181_12348)">
<path d="M123.886 11.8777C127.611 9.72713 132.2 9.72713 135.925 11.8777L193.889 45.3433C197.614 47.4938 199.909 51.4682 199.909 55.7693V122.701C199.909 127.002 197.614 130.976 193.889 133.127L135.925 166.592C132.2 168.743 127.611 168.743 123.886 166.592L65.922 133.127C62.1971 130.976 59.9025 127.002 59.9025 122.701V55.7693C59.9025 51.4682 62.1971 47.4939 65.922 45.3433L123.886 11.8777Z" fill="#4E47A1"/>
<path d="M123.886 11.8777C127.611 9.72713 132.2 9.72713 135.925 11.8777L193.889 45.3433C197.614 47.4938 199.909 51.4682 199.909 55.7693V122.701C199.909 127.002 197.614 130.976 193.889 133.127L135.925 166.592C132.2 168.743 127.611 168.743 123.886 166.592L65.922 133.127C62.1971 130.976 59.9025 127.002 59.9025 122.701V55.7693C59.9025 51.4682 62.1971 47.4939 65.922 45.3433L123.886 11.8777Z" fill="url(#paint0_linear_181_12348)"/>
</g>
<g filter="url(#filter1_i_181_12348)">
<path d="M124.145 38.3035C127.87 36.1529 132.459 36.1529 136.184 38.3035L174.18 60.2401C177.904 62.3906 180.199 66.365 180.199 70.6661V114.539C180.199 118.84 177.904 122.815 174.18 124.965L136.184 146.902C132.459 149.052 127.87 149.052 124.145 146.902L86.1499 124.965C82.4251 122.815 80.1305 118.84 80.1305 114.539V70.6661C80.1305 66.365 82.4251 62.3906 86.1499 60.2401L124.145 38.3035Z" fill="#EA6C05"/>
</g>
<ellipse cx="119.254" cy="25.8532" rx="9.40714" ry="4.88675" transform="rotate(-29.6591 119.254 25.8532)" fill="#FFF7D9"/>
<mask id="path-5-outside-1_181_12348" maskUnits="userSpaceOnUse" x="89.5525" y="48.082" width="82" height="84" fill="black">
<rect fill="white" x="89.5525" y="48.082" width="82" height="84"/>
<path fill-rule="evenodd" clip-rule="evenodd" d="M132.331 52.2179C131.287 50.7034 129.05 50.7034 128.007 52.2179L122.842 59.713L116.041 69.5841C115.701 70.077 115.203 70.4391 114.629 70.6103L103.15 74.0356L94.4288 76.6379C92.7722 77.1323 92.063 79.0428 92.9145 80.4831C92.8109 80.7649 92.7541 81.0702 92.7541 81.39V83.6622C92.7541 84.7913 93.118 85.8903 93.7918 86.7962L105.92 103.102C106.099 103.343 106.234 103.611 106.321 103.894L106.144 111.161L105.921 120.268C105.914 120.566 105.955 120.85 106.037 121.114L105.921 125.848C105.876 127.686 107.685 129 109.419 128.388L117.999 125.363L129.296 121.38C129.861 121.181 130.477 121.181 131.042 121.38L142.339 125.363L150.919 128.388C152.653 129 154.462 127.686 154.417 125.848L154.301 121.112C154.383 120.849 154.424 120.565 154.417 120.268L154.194 111.161L154.016 103.897C154.104 103.613 154.24 103.343 154.421 103.101L166.87 86.416C167.547 85.5089 167.912 84.4075 167.912 83.2757V81.38C167.912 80.926 167.798 80.5011 167.597 80.131C168.156 78.7475 167.434 77.0929 165.909 76.6379L157.187 74.0356L145.708 70.6103C145.135 70.4391 144.637 70.077 144.297 69.5841L137.495 59.713L132.331 52.2179Z"/>
</mask>
<path fill-rule="evenodd" clip-rule="evenodd" d="M132.331 52.2179C131.287 50.7034 129.05 50.7034 128.007 52.2179L122.842 59.713L116.041 69.5841C115.701 70.077 115.203 70.4391 114.629 70.6103L103.15 74.0356L94.4288 76.6379C92.7722 77.1323 92.063 79.0428 92.9145 80.4831C92.8109 80.7649 92.7541 81.0702 92.7541 81.39V83.6622C92.7541 84.7913 93.118 85.8903 93.7918 86.7962L105.92 103.102C106.099 103.343 106.234 103.611 106.321 103.894L106.144 111.161L105.921 120.268C105.914 120.566 105.955 120.85 106.037 121.114L105.921 125.848C105.876 127.686 107.685 129 109.419 128.388L117.999 125.363L129.296 121.38C129.861 121.181 130.477 121.181 131.042 121.38L142.339 125.363L150.919 128.388C152.653 129 154.462 127.686 154.417 125.848L154.301 121.112C154.383 120.849 154.424 120.565 154.417 120.268L154.194 111.161L154.016 103.897C154.104 103.613 154.24 103.343 154.421 103.101L166.87 86.416C167.547 85.5089 167.912 84.4075 167.912 83.2757V81.38C167.912 80.926 167.798 80.5011 167.597 80.131C168.156 78.7475 167.434 77.0929 165.909 76.6379L157.187 74.0356L145.708 70.6103C145.135 70.4391 144.637 70.077 144.297 69.5841L137.495 59.713L132.331 52.2179Z" fill="#FDDB18"/>
<path d="M128.007 52.2179L125.727 50.6468V50.6468L128.007 52.2179ZM132.331 52.2179L134.611 50.6468L134.611 50.6468L132.331 52.2179ZM122.842 59.713L125.122 61.284V61.284L122.842 59.713ZM116.041 69.5841L113.761 68.013V68.013L116.041 69.5841ZM114.629 70.6103L115.421 73.2635H115.421L114.629 70.6103ZM103.15 74.0356L102.358 71.3823H102.358L103.15 74.0356ZM94.4288 76.6379L93.6371 73.9847H93.6371L94.4288 76.6379ZM92.9145 80.4831L95.5132 81.4387L95.9668 80.2052L95.2979 79.0739L92.9145 80.4831ZM93.7918 86.7962L91.5701 88.4486H91.5701L93.7918 86.7962ZM105.92 103.102L103.698 104.754L103.698 104.754L105.92 103.102ZM106.321 103.894L109.089 103.961L109.101 103.509L108.967 103.076L106.321 103.894ZM106.144 111.161L108.912 111.229L106.144 111.161ZM105.921 120.268L108.689 120.335V120.335L105.921 120.268ZM106.037 121.114L108.805 121.182L108.816 120.728L108.682 120.295L106.037 121.114ZM105.921 125.848L103.153 125.78L105.921 125.848ZM109.419 128.388L110.34 131L109.419 128.388ZM117.999 125.363L118.919 127.975L118.919 127.975L117.999 125.363ZM129.296 121.38L128.375 118.769H128.375L129.296 121.38ZM131.042 121.38L131.963 118.769H131.963L131.042 121.38ZM142.339 125.363L141.419 127.975L142.339 125.363ZM150.919 128.388L151.84 125.777H151.84L150.919 128.388ZM154.417 125.848L157.185 125.78L154.417 125.848ZM154.301 121.112L151.656 120.295L151.522 120.727L151.533 121.18L154.301 121.112ZM154.417 120.268L157.185 120.2L154.417 120.268ZM154.194 111.161L156.962 111.093V111.093L154.194 111.161ZM154.016 103.897L151.37 103.082L151.237 103.514L151.248 103.965L154.016 103.897ZM154.421 103.101L152.202 101.445H152.202L154.421 103.101ZM166.87 86.416L164.651 84.7602V84.7602L166.87 86.416ZM167.597 80.131L165.03 79.0945L164.541 80.3038L165.163 81.4503L167.597 80.131ZM165.909 76.6379L166.7 73.9847L165.909 76.6379ZM157.187 74.0356L156.396 76.6888L157.187 74.0356ZM145.708 70.6103L144.917 73.2635L144.917 73.2635L145.708 70.6103ZM144.297 69.5841L146.577 68.013L146.577 68.013L144.297 69.5841ZM137.495 59.713L135.215 61.284V61.284L137.495 59.713ZM130.287 53.7889C130.281 53.7977 130.26 53.8191 130.23 53.8347C130.204 53.8478 130.183 53.8509 130.169 53.8509C130.155 53.8509 130.134 53.8478 130.108 53.8347C130.077 53.8191 130.057 53.7977 130.051 53.7889L134.611 50.6468C132.467 47.5353 127.871 47.5353 125.727 50.6468L130.287 53.7889ZM125.122 61.284L130.287 53.7889L125.727 50.6468L120.562 58.1419L125.122 61.284ZM118.321 71.1551L125.122 61.284L120.562 58.1419L113.761 68.013L118.321 71.1551ZM115.421 73.2635C116.6 72.9118 117.623 72.1679 118.321 71.1551L113.761 68.013C113.779 67.9861 113.806 67.9664 113.838 67.957L115.421 73.2635ZM103.942 76.6888L115.421 73.2635L113.838 67.957L102.358 71.3823L103.942 76.6888ZM95.2206 79.2912L103.942 76.6888L102.358 71.3823L93.6371 73.9847L95.2206 79.2912ZM95.2979 79.0739C95.31 79.0942 95.319 79.1225 95.3209 79.15C95.3226 79.1737 95.3188 79.191 95.3139 79.2036C95.3089 79.2167 95.2986 79.2352 95.278 79.2547C95.2541 79.2773 95.2295 79.2885 95.2206 79.2912L93.6371 73.9847C90.228 75.002 88.778 78.9271 90.5311 81.8923L95.2979 79.0739ZM95.5229 81.39C95.5229 81.3944 95.5225 81.4016 95.5209 81.4108C95.5192 81.4199 95.5167 81.4293 95.5132 81.4387L90.3158 79.5275C90.1011 80.1113 89.9852 80.7398 89.9852 81.39H95.5229ZM95.5229 83.6622V81.39H89.9852V83.6622H95.5229ZM96.0135 85.1437C95.695 84.7155 95.5229 84.1959 95.5229 83.6622H89.9852C89.9852 85.3866 90.541 87.065 91.5701 88.4486L96.0135 85.1437ZM108.141 101.449L96.0135 85.1437L91.5701 88.4486L103.698 104.754L108.141 101.449ZM108.967 103.076C108.787 102.495 108.509 101.944 108.141 101.449L103.698 104.754C103.688 104.741 103.681 104.726 103.676 104.711L108.967 103.076ZM108.912 111.229L109.089 103.961L103.553 103.826L103.376 111.093L108.912 111.229ZM108.689 120.335L108.912 111.229L103.376 111.093L103.153 120.2L108.689 120.335ZM108.682 120.295C108.685 120.305 108.687 120.314 108.688 120.322C108.689 120.329 108.689 120.334 108.689 120.335L103.153 120.2C103.138 120.8 103.222 121.383 103.392 121.933L108.682 120.295ZM108.689 125.916L108.805 121.182L103.269 121.046L103.153 125.78L108.689 125.916ZM108.499 125.777C108.509 125.773 108.538 125.768 108.572 125.773C108.6 125.778 108.619 125.788 108.63 125.796C108.642 125.804 108.657 125.819 108.67 125.845C108.686 125.876 108.69 125.905 108.689 125.916L103.153 125.78C103.061 129.556 106.778 132.255 110.34 131L108.499 125.777ZM117.078 122.752L108.499 125.777L110.34 131L118.919 127.975L117.078 122.752ZM128.375 118.769L117.078 122.752L118.919 127.975L130.217 123.991L128.375 118.769ZM131.963 118.769C130.802 118.36 129.536 118.36 128.375 118.769L130.217 123.991C130.186 124.002 130.152 124.002 130.121 123.991L131.963 118.769ZM143.26 122.752L131.963 118.769L130.121 123.991L141.419 127.975L143.26 122.752ZM151.84 125.777L143.26 122.752L141.419 127.975L149.998 131L151.84 125.777ZM151.649 125.916C151.649 125.905 151.652 125.876 151.668 125.845C151.681 125.819 151.696 125.804 151.708 125.796C151.719 125.788 151.738 125.778 151.766 125.773C151.801 125.768 151.83 125.773 151.84 125.777L149.998 131C153.56 132.255 157.277 129.556 157.185 125.78L151.649 125.916ZM151.533 121.18L151.649 125.916L157.185 125.78L157.069 121.045L151.533 121.18ZM151.648 120.335C151.648 120.334 151.648 120.329 151.65 120.322C151.651 120.314 151.653 120.305 151.656 120.295L156.946 121.93C157.116 121.381 157.199 120.799 157.185 120.2L151.648 120.335ZM151.426 111.229L151.648 120.335L157.185 120.2L156.962 111.093L151.426 111.229ZM151.248 103.965L151.426 111.229L156.962 111.093L156.784 103.83L151.248 103.965ZM152.202 101.445C151.831 101.942 151.551 102.497 151.37 103.082L156.662 104.713C156.657 104.728 156.65 104.743 156.64 104.756L152.202 101.445ZM164.651 84.7602L152.202 101.445L156.64 104.756L169.089 88.0718L164.651 84.7602ZM165.143 83.2757C165.143 83.8107 164.971 84.3314 164.651 84.7602L169.089 88.0718C170.123 86.6865 170.681 85.0042 170.681 83.2757H165.143ZM165.143 81.38V83.2757H170.681V81.38H165.143ZM165.163 81.4503C165.157 81.4391 165.152 81.4262 165.148 81.4125C165.144 81.3983 165.143 81.3868 165.143 81.38H170.681C170.681 80.4541 170.446 79.577 170.031 78.8116L165.163 81.4503ZM165.117 79.2912C165.11 79.289 165.088 79.2795 165.065 79.2592C165.044 79.2413 165.033 79.2235 165.027 79.2105C165.018 79.1915 165.007 79.1502 165.03 79.0945L170.165 81.1675C171.312 78.3253 169.844 74.9227 166.7 73.9847L165.117 79.2912ZM156.396 76.6888L165.117 79.2912L166.7 73.9847L157.979 71.3823L156.396 76.6888ZM144.917 73.2635L156.396 76.6888L157.979 71.3823L146.5 67.957L144.917 73.2635ZM142.017 71.1551C142.715 72.1679 143.738 72.9118 144.917 73.2635L146.5 67.957C146.531 67.9664 146.559 67.9861 146.577 68.013L142.017 71.1551ZM135.215 61.284L142.017 71.1551L146.577 68.013L139.775 58.1419L135.215 61.284ZM130.051 53.7889L135.215 61.284L139.775 58.1419L134.611 50.6468L130.051 53.7889Z" fill="#A64B00" mask="url(#path-5-outside-1_181_12348)"/>
<path d="M128.007 57.7959C129.05 56.2814 131.287 56.2814 132.331 57.7959L137.495 65.291L144.297 75.1621C144.637 75.6551 145.135 76.0171 145.708 76.1883L154.335 78.7624C156.218 79.3242 158.194 79.5047 160.147 79.2933L165.004 78.7676C166.557 78.5995 167.912 79.816 167.912 81.378V83.2737C167.912 84.4054 167.546 85.5069 166.87 86.414L154.421 103.099C154.069 103.57 153.886 104.145 153.9 104.733L154.194 116.739L154.417 125.846C154.462 127.684 152.653 128.997 150.919 128.386L142.339 125.361L131.042 121.378C130.477 121.179 129.861 121.179 129.296 121.378L117.999 125.361L109.419 128.386C107.685 128.997 105.876 127.684 105.921 125.846L106.144 116.739L106.437 104.731C106.452 104.144 106.269 103.57 105.919 103.1L93.7916 86.7941C93.1178 85.8882 92.7539 84.7892 92.7539 83.6602V81.3879C92.7539 79.8224 94.1151 78.6048 95.6709 78.7785L100.166 79.2804C102.135 79.5003 104.129 79.3216 106.028 78.755L114.629 76.1883C115.203 76.0171 115.701 75.6551 116.041 75.1621L122.842 65.291L128.007 57.7959Z" fill="#C65900"/>
<path d="M128.007 52.2178C129.05 50.7033 131.287 50.7033 132.331 52.2178L137.495 59.7129L144.297 69.584C144.637 70.0769 145.135 70.439 145.708 70.6102L157.188 74.0355L165.909 76.6378C167.669 77.1631 168.36 79.2876 167.245 80.7476L161.716 87.9865L154.439 97.5135C154.076 97.9887 153.886 98.5736 153.901 99.1714L154.194 111.161L154.417 120.268C154.462 122.106 152.652 123.419 150.919 122.808L142.339 119.783L131.042 115.8C130.477 115.601 129.861 115.601 129.296 115.8L117.998 119.783L109.419 122.808C107.685 123.419 105.876 122.106 105.921 120.268L106.144 111.161L106.437 99.1714C106.452 98.5736 106.262 97.9887 105.899 97.5135L98.6221 87.9865L93.0931 80.7476C91.9779 79.2876 92.6685 77.1631 94.4289 76.6378L103.15 74.0355L114.629 70.6102C115.203 70.439 115.701 70.0769 116.041 69.584L122.842 59.7129L128.007 52.2178Z" fill="#FDDB18"/>
<mask id="mask0_181_12348" style="mask-type:alpha" maskUnits="userSpaceOnUse" x="92" y="51" width="76" height="72">
<path d="M128.007 52.2178C129.05 50.7033 131.287 50.7033 132.331 52.2178L137.495 59.7129L144.297 69.584C144.637 70.0769 145.135 70.439 145.708 70.6102L157.188 74.0355L165.909 76.6378C167.669 77.1631 168.36 79.2876 167.245 80.7476L161.716 87.9865L154.439 97.5135C154.076 97.9887 153.886 98.5736 153.901 99.1714L154.194 111.161L154.417 120.268C154.462 122.106 152.652 123.419 150.919 122.808L142.339 119.783L131.042 115.8C130.477 115.601 129.861 115.601 129.296 115.8L117.998 119.783L109.419 122.808C107.685 123.419 105.876 122.106 105.921 120.268L106.144 111.161L106.437 99.1714C106.452 98.5736 106.262 97.9887 105.899 97.5135L98.6221 87.9865L93.0931 80.7476C91.9779 79.2876 92.6685 77.1631 94.4289 76.6378L103.15 74.0355L114.629 70.6102C115.203 70.439 115.701 70.0769 116.041 69.584L122.842 59.7129L128.007 52.2178Z" fill="#FDDB18"/>
</mask>
<g mask="url(#mask0_181_12348)">
<path d="M130.447 91.2535L90.9487 78.6724L130.239 50.5573L130.447 91.2535Z" fill="white"/>
<path d="M130.333 91.2525L104.241 126.042L90.9489 77.7962L130.333 91.2525Z" fill="#FFAC0E"/>
<path d="M130.251 91.3354L170.374 77.0587L156.425 126.781L130.251 91.3354Z" fill="#FFAC0E"/>
<path d="M130.333 91.2539L156.097 126.185H104.077L130.333 91.2539Z" fill="#EA6C05"/>
</g>
<g filter="url(#filter2_i_181_12348)">
<path fill-rule="evenodd" clip-rule="evenodd" d="M209.717 49.1696L254.278 9.405C255.948 7.91504 258.594 9.10022 258.594 11.338V19.8888V43.4786V52.0294C258.594 61.643 252.938 70.3569 244.158 74.2719L212.497 88.3891C210.783 89.1531 208.851 87.899 208.851 86.0229V77.4721V59.6535V51.1027C208.851 50.3644 209.166 49.6612 209.717 49.1696ZM210.368 93.3368L240.162 79.7652C241.877 78.9838 243.826 80.2378 243.826 82.1229V90.6737V95.7419V104.293C243.826 113.106 236.932 120.379 228.131 120.85L211.58 121.735C210.097 121.815 208.851 120.634 208.851 119.148V110.598V104.245V95.6945C208.851 94.6793 209.444 93.7576 210.368 93.3368Z" fill="#FFC511"/>
</g>
<path d="M254.278 9.405L256.693 12.1113L254.278 9.405ZM209.717 49.1696L207.302 46.4634L207.302 46.4634L209.717 49.1696ZM244.158 74.2719L242.681 70.9592L244.158 74.2719ZM212.497 88.3891L213.974 91.7018L213.974 91.7018L212.497 88.3891ZM240.162 79.7652L238.658 76.4644L238.658 76.4644L240.162 79.7652ZM210.368 93.3368L208.864 90.036H208.864L210.368 93.3368ZM228.131 120.85L227.937 117.228H227.937L228.131 120.85ZM211.58 121.735L211.774 125.357H211.774L211.58 121.735ZM251.863 6.69873L207.302 46.4634L212.132 51.8759L256.693 12.1113L251.863 6.69873ZM262.221 11.338C262.221 5.96727 255.871 3.12282 251.863 6.69873L256.693 12.1113C256.025 12.7073 254.967 12.2332 254.967 11.338H262.221ZM262.221 19.8888V11.338H254.967V19.8888H262.221ZM262.221 43.4786V19.8888H254.967V43.4786H262.221ZM262.221 52.0294V43.4786H254.967V52.0294H262.221ZM245.635 77.5846C255.723 73.0865 262.221 63.0748 262.221 52.0294H254.967C254.967 60.2111 250.154 67.6273 242.681 70.9592L245.635 77.5846ZM213.974 91.7018L245.635 77.5846L242.681 70.9592L211.02 85.0764L213.974 91.7018ZM205.224 86.0229C205.224 90.5257 209.861 93.5355 213.974 91.7018L211.02 85.0764C211.705 84.7708 212.478 85.2724 212.478 86.0229H205.224ZM205.224 77.4721V86.0229H212.478V77.4721H205.224ZM205.224 59.6535V77.4721H212.478V59.6535H205.224ZM205.224 51.1027V59.6535H212.478V51.1027H205.224ZM207.302 46.4634C205.98 47.6431 205.224 49.3308 205.224 51.1027H212.478C212.478 51.398 212.352 51.6793 212.132 51.8759L207.302 46.4634ZM238.658 76.4644L208.864 90.036L211.871 96.6375L241.665 83.066L238.658 76.4644ZM247.454 82.1229C247.454 77.5986 242.775 74.589 238.658 76.4644L241.665 83.066C240.979 83.3786 240.199 82.877 240.199 82.1229H247.454ZM247.454 90.6737V82.1229H240.199V90.6737H247.454ZM247.454 95.7419V90.6737H240.199V95.7419H247.454ZM247.454 104.293V95.7419H240.199V104.293H247.454ZM228.325 124.472C239.051 123.898 247.454 115.034 247.454 104.293H240.199C240.199 111.178 234.813 116.86 227.937 117.228L228.325 124.472ZM211.774 125.357L228.325 124.472L227.937 117.228L211.386 118.113L211.774 125.357ZM205.224 119.148C205.224 122.713 208.214 125.548 211.774 125.357L211.386 118.113C211.979 118.082 212.478 118.554 212.478 119.148H205.224ZM205.224 110.598V119.148H212.478V110.598H205.224ZM205.224 104.245V110.598H212.478V104.245H205.224ZM205.224 95.6945V104.245H212.478V95.6945H205.224ZM208.864 90.036C206.647 91.046 205.224 93.2579 205.224 95.6945H212.478C212.478 96.1006 212.241 96.4692 211.871 96.6375L208.864 90.036Z" fill="#592F0D"/>
<g filter="url(#filter3_i_181_12348)">
<path fill-rule="evenodd" clip-rule="evenodd" d="M228.852 120.939L211.457 122.435C209.983 122.562 208.851 123.795 208.851 125.274V130.43C208.851 130.438 208.851 130.447 208.851 130.455V143.126C208.851 144.699 210.127 145.975 211.701 145.975H217.865C223.446 145.975 228.854 142.154 230.354 136.778L232.038 123.436C232.002 123.439 231.965 123.443 231.929 123.448C231.759 121.982 230.448 120.801 228.852 120.939Z" fill="#FFC511"/>
</g>
<path d="M211.457 122.435L211.146 118.821L211.146 118.821L211.457 122.435ZM228.852 120.939L229.163 124.552H229.163L228.852 120.939ZM208.851 130.43L212.478 130.461L212.478 130.446V130.43H208.851ZM230.354 136.778L233.848 137.753L233.92 137.497L233.953 137.232L230.354 136.778ZM232.038 123.436L235.637 123.89L236.211 119.343L231.654 119.829L232.038 123.436ZM231.929 123.448L228.326 123.866L228.743 127.461L232.339 127.051L231.929 123.448ZM232.039 123.438L235.637 123.892L236.212 119.34L231.651 119.831L232.039 123.438ZM211.767 126.049L229.163 124.552L228.541 117.325L211.146 118.821L211.767 126.049ZM212.478 125.274C212.478 125.678 212.169 126.014 211.767 126.049L211.146 118.821C207.796 119.109 205.224 121.912 205.224 125.274H212.478ZM212.478 130.43V125.274H205.224V130.43H212.478ZM205.224 130.398C205.224 130.417 205.224 130.436 205.224 130.455H212.478C212.478 130.457 212.478 130.459 212.478 130.461L205.224 130.398ZM205.224 130.455V143.126H212.478V130.455H205.224ZM205.224 143.126C205.224 146.703 208.124 149.603 211.701 149.603V142.348C212.13 142.348 212.478 142.696 212.478 143.126H205.224ZM211.701 149.603H217.865V142.348H211.701V149.603ZM217.865 149.603C224.948 149.603 231.878 144.814 233.848 137.753L226.861 135.803C225.831 139.493 221.944 142.348 217.865 142.348V149.603ZM233.953 137.232L235.637 123.89L228.44 122.981L226.756 136.324L233.953 137.232ZM231.654 119.829C231.609 119.834 231.564 119.839 231.519 119.844L232.339 127.051C232.367 127.048 232.394 127.045 232.423 127.042L231.654 119.829ZM229.163 124.552C228.957 124.57 228.742 124.495 228.591 124.368C228.456 124.255 228.352 124.083 228.326 123.866L235.532 123.03C235.147 119.712 232.186 117.011 228.541 117.325L229.163 124.552ZM217.866 142.35H211.701V149.604H217.866V142.35ZM232.426 127.044L232.427 127.044L231.651 119.831L231.65 119.831L232.426 127.044ZM228.44 122.983L226.756 136.326L233.953 137.234L235.637 123.892L228.44 122.983Z" fill="#592F0D"/>
<path d="M254.278 17.9558L209.717 57.7204C209.166 58.212 208.851 58.9152 208.851 59.6535V86.0229C208.851 87.899 210.783 89.1531 212.497 88.3891L244.158 74.2719C252.938 70.3569 258.594 61.643 258.594 52.0294V19.8888C258.594 17.651 255.948 16.4658 254.278 17.9558Z" fill="#A64B00"/>
<path d="M240.162 84.6889L210.368 98.2604C209.444 98.6813 208.851 99.6029 208.851 100.618V115.521C208.851 117.006 210.097 119.483 211.58 119.404L228.131 118.518C236.932 118.048 243.826 109.479 243.826 100.666V87.0466C243.826 85.1615 241.877 83.9075 240.162 84.6889Z" fill="#A64B00"/>
<path d="M225.691 125.379L211.456 127.616C209.983 127.743 208.851 128.976 208.851 130.455V143.126C208.851 144.7 210.127 145.976 211.701 145.976H217.865C223.446 145.976 228.854 142.154 230.354 136.778L232.038 123.436C228.39 123.824 227.672 125.208 225.691 125.379Z" fill="#A64B00"/>
<path d="M254.278 17.9558L209.717 57.7204C209.166 58.212 208.851 58.9152 208.851 59.6535V86.0229C208.851 87.899 210.783 89.1531 212.497 88.3891L244.158 74.2719C252.938 70.3569 258.594 61.643 258.594 52.0294V19.8888C258.594 17.651 255.948 16.4658 254.278 17.9558Z" stroke="black"/>
<path d="M240.162 84.6889L210.368 98.2604C209.444 98.6813 208.851 99.6029 208.851 100.618V115.521C208.851 117.006 210.097 119.483 211.58 119.404L228.131 118.518C236.932 118.048 243.826 109.479 243.826 100.666V87.0466C243.826 85.1615 241.877 83.9075 240.162 84.6889Z" stroke="black"/>
<path d="M225.691 125.379L211.456 127.616C209.983 127.743 208.851 128.976 208.851 130.455V143.126C208.851 144.7 210.127 145.976 211.701 145.976H217.865C223.446 145.976 228.854 142.154 230.354 136.778L232.038 123.436C228.39 123.824 227.672 125.208 225.691 125.379Z" stroke="black"/>
<g filter="url(#filter4_i_181_12348)">
<path d="M254.278 9.405L209.717 49.1696C209.166 49.6612 208.851 50.3644 208.851 51.1027V77.4721C208.851 79.3483 210.783 80.6023 212.497 79.8383L244.158 65.7211C252.938 61.8061 258.594 53.0922 258.594 43.4786V11.338C258.594 9.10022 255.948 7.91504 254.278 9.405Z" fill="#FFC511"/>
<path d="M240.162 79.7652L210.368 93.3367C209.444 93.7576 208.851 94.6792 208.851 95.6945V110.598C208.851 112.083 210.097 113.264 211.58 113.185L228.131 112.299C236.932 111.829 243.826 104.555 243.826 95.7419V82.1229C243.826 80.2378 241.877 78.9838 240.162 79.7652Z" fill="#FFC511"/>
<path d="M228.852 120.937L211.456 122.433C209.983 122.56 208.851 123.793 208.851 125.273V137.943C208.851 139.517 210.127 140.793 211.701 140.793H217.865C223.446 140.793 228.344 137.075 229.844 131.7L231.841 124.542C232.375 122.627 230.833 120.766 228.852 120.937Z" fill="#FFC511"/>
<path d="M254.278 9.405L209.717 49.1696C209.166 49.6612 208.851 50.3644 208.851 51.1027V77.4721C208.851 79.3483 210.783 80.6023 212.497 79.8383L244.158 65.7211C252.938 61.8061 258.594 53.0922 258.594 43.4786V11.338C258.594 9.10022 255.948 7.91504 254.278 9.405Z" stroke="black"/>
<path d="M240.162 79.7652L210.368 93.3367C209.444 93.7576 208.851 94.6792 208.851 95.6945V110.598C208.851 112.083 210.097 113.264 211.58 113.185L228.131 112.299C236.932 111.829 243.826 104.555 243.826 95.7419V82.1229C243.826 80.2378 241.877 78.9838 240.162 79.7652Z" stroke="black"/>
<path d="M228.852 120.937L211.456 122.433C209.983 122.56 208.851 123.793 208.851 125.273V137.943C208.851 139.517 210.127 140.793 211.701 140.793H217.865C223.446 140.793 228.344 137.075 229.844 131.7L231.841 124.542C232.375 122.627 230.833 120.766 228.852 120.937Z" stroke="black"/>
</g>
<g filter="url(#filter5_i_181_12348)">
<path fill-rule="evenodd" clip-rule="evenodd" d="M52.8473 44.945L8.28576 5.18039C6.61606 3.69043 3.97001 4.87561 3.97001 7.11344V15.6621V39.254V47.8026C3.97001 57.4163 9.62555 66.1302 18.4059 70.0452L50.0673 84.1624C51.7809 84.9264 53.7131 83.6723 53.7131 81.7962V73.2475V55.4268V46.8781C53.7131 46.1398 53.3982 45.4366 52.8473 44.945ZM52.1963 89.1121L22.4023 75.5406C20.6867 74.7592 18.7375 76.0132 18.7375 77.8983V86.447V91.5173V100.066C18.7375 108.879 25.6322 116.153 34.4329 116.623L50.984 117.509C52.4671 117.588 53.7131 116.407 53.7131 114.922V106.373V100.019V91.4698C53.7131 90.4546 53.1202 89.533 52.1963 89.1121Z" fill="#FFC511"/>
</g>
<path d="M8.28576 5.18039L5.87081 7.88666L8.28576 5.18039ZM52.8473 44.945L55.2623 42.2388L55.2623 42.2388L52.8473 44.945ZM18.4059 70.0452L19.883 66.7325L18.4059 70.0452ZM50.0673 84.1624L51.5444 80.8497H51.5444L50.0673 84.1624ZM22.4023 75.5406L23.9058 72.2398L23.9058 72.2398L22.4023 75.5406ZM52.1963 89.1121L53.6999 85.8114H53.6999L52.1963 89.1121ZM34.4329 116.623L34.2391 120.245H34.2391L34.4329 116.623ZM50.984 117.509L51.1777 113.887H51.1777L50.984 117.509ZM10.7007 2.47412L55.2623 42.2388L50.4324 47.6513L5.87081 7.88666L10.7007 2.47412ZM0.342903 7.11344C0.342903 1.74266 6.69343 -1.10179 10.7007 2.47412L5.87081 7.88666C6.53868 8.48264 7.59711 8.00857 7.59711 7.11344H0.342903ZM0.342903 15.6621V7.11344H7.59711V15.6621H0.342903ZM0.342903 39.254V15.6621H7.59711V39.254H0.342903ZM0.342903 47.8026V39.254H7.59711V47.8026H0.342903ZM16.9288 73.3579C6.84077 68.8598 0.342903 58.8481 0.342903 47.8026H7.59711C7.59711 55.9844 12.4103 63.4006 19.883 66.7325L16.9288 73.3579ZM48.5902 87.4751L16.9288 73.3579L19.883 66.7325L51.5444 80.8497L48.5902 87.4751ZM57.3402 81.7962C57.3402 86.299 52.7028 89.3088 48.5902 87.4751L51.5444 80.8497C50.8589 80.544 50.086 81.0457 50.086 81.7962H57.3402ZM57.3402 73.2475V81.7962H50.086V73.2475H57.3402ZM57.3402 55.4268V73.2475H50.086V55.4268H57.3402ZM57.3402 46.8781V55.4268H50.086V46.8781H57.3402ZM55.2623 42.2388C56.5843 43.4185 57.3402 45.1062 57.3402 46.8781H50.086C50.086 47.1734 50.212 47.4547 50.4324 47.6513L55.2623 42.2388ZM23.9058 72.2398L53.6999 85.8114L50.6928 92.4129L20.8987 78.8414L23.9058 72.2398ZM15.1104 77.8983C15.1104 73.374 19.7885 70.3644 23.9058 72.2398L20.8987 78.8414C21.5849 79.154 22.3646 78.6524 22.3646 77.8983H15.1104ZM15.1104 86.447V77.8983H22.3646V86.447H15.1104ZM15.1104 91.5173V86.447H22.3646V91.5173H15.1104ZM15.1104 100.066V91.5173H22.3646V100.066H15.1104ZM34.2391 120.245C23.5133 119.672 15.1104 110.807 15.1104 100.066H22.3646C22.3646 106.951 27.751 112.634 34.6266 113.001L34.2391 120.245ZM50.7902 121.131L34.2391 120.245L34.6266 113.001L51.1777 113.887L50.7902 121.131ZM57.3402 114.922C57.3402 118.486 54.3497 121.321 50.7902 121.131L51.1777 113.887C50.5845 113.855 50.086 114.328 50.086 114.922H57.3402ZM57.3402 106.373V114.922H50.086V106.373H57.3402ZM57.3402 100.019V106.373H50.086V100.019H57.3402ZM57.3402 91.4698V100.019H50.086V91.4698H57.3402ZM53.6999 85.8114C55.9172 86.8214 57.3402 89.0333 57.3402 91.4698H50.086C50.086 91.8759 50.3232 92.2446 50.6928 92.4129L53.6999 85.8114Z" fill="#592F0D"/>
<g filter="url(#filter6_i_181_12348)">
<path fill-rule="evenodd" clip-rule="evenodd" d="M33.7124 116.714L51.1075 118.21C52.5813 118.337 53.7131 119.57 53.7131 121.05V126.231V133.72V138.901C53.7131 140.475 52.4372 141.751 50.8633 141.751H44.6986C39.1178 141.751 33.7096 137.929 32.2096 132.553L30.5256 119.211C30.5623 119.215 30.5987 119.219 30.6348 119.223C30.8049 117.757 32.1161 116.577 33.7124 116.714Z" fill="#FFC511"/>
</g>
<path d="M51.1075 118.21L51.4184 114.597L51.4184 114.597L51.1075 118.21ZM33.7124 116.714L33.4015 120.328L33.7124 116.714ZM32.2096 132.553L28.716 133.528L28.6444 133.272L28.611 133.008L32.2096 132.553ZM30.5256 119.211L26.927 119.665L26.3532 115.119L30.9098 115.604L30.5256 119.211ZM30.6348 119.223L34.2378 119.641L33.8207 123.236L30.2248 122.827L30.6348 119.223ZM30.5255 119.213L26.9269 119.667L26.3533 115.122L30.9087 115.606L30.5255 119.213ZM50.7967 121.824L33.4015 120.328L34.0233 113.1L51.4184 114.597L50.7967 121.824ZM50.086 121.05C50.086 121.453 50.3947 121.79 50.7967 121.824L51.4184 114.597C54.768 114.885 57.3402 117.688 57.3402 121.05H50.086ZM50.086 126.231V121.05H57.3402V126.231H50.086ZM57.3402 126.231V133.72H50.086V126.231H57.3402ZM57.3402 133.72V138.901H50.086V133.72H57.3402ZM57.3402 138.901C57.3402 142.478 54.4404 145.378 50.8633 145.378V138.124C50.434 138.124 50.086 138.472 50.086 138.901H57.3402ZM50.8633 145.378H44.6986V138.124H50.8633V145.378ZM44.6986 145.378C37.6157 145.378 30.6864 140.59 28.716 133.528L35.7032 131.579C36.7329 135.268 40.6198 138.124 44.6986 138.124V145.378ZM28.611 133.008L26.927 119.665L34.1241 118.757L35.8081 132.099L28.611 133.008ZM30.9098 115.604C30.9551 115.609 31.0001 115.614 31.0449 115.619L30.2248 122.827C30.1973 122.824 30.1695 122.821 30.1414 122.818L30.9098 115.604ZM33.4015 120.328C33.6071 120.345 33.8216 120.271 33.9728 120.144C34.108 120.03 34.2125 119.859 34.2378 119.641L27.0319 118.805C27.4167 115.488 30.3776 112.787 34.0233 113.1L33.4015 120.328ZM44.6985 138.126H50.8632V145.38H44.6985V138.126ZM30.1426 122.82L30.1423 122.82L30.9087 115.606L30.9091 115.606L30.1426 122.82ZM34.124 118.759L35.8081 132.101L28.6109 133.01L26.9269 119.667L34.124 118.759Z" fill="#592F0D"/>
<path d="M8.28576 13.7292L52.8473 53.4939C53.3982 53.9854 53.7131 54.6886 53.7131 55.4269V81.7963C53.7131 83.6725 51.7809 84.9266 50.0673 84.1625L18.4059 70.0453C9.62555 66.1303 3.97001 57.4164 3.97001 47.8028V15.6623C3.97001 13.4244 6.61606 12.2393 8.28576 13.7292Z" fill="#A64B00"/>
<path d="M22.4023 80.4623L52.1963 94.0339C53.1202 94.4547 53.7131 95.3764 53.7131 96.3916V111.295C53.7131 112.78 52.4671 115.256 50.984 115.177L34.4329 114.292C25.6322 113.821 18.7375 105.252 18.7375 96.4391V82.8201C18.7375 80.9349 20.6867 79.6809 22.4023 80.4623Z" fill="#A64B00"/>
<path d="M36.873 121.152L51.1075 123.389C52.5813 123.516 53.7131 124.75 53.7131 126.229V138.899C53.7131 140.473 52.4372 141.749 50.8633 141.749H44.6986C39.1178 141.749 33.7096 137.927 32.2096 132.552L30.5256 119.209C34.1738 119.598 34.8915 120.982 36.873 121.152Z" fill="#A64B00"/>
<path d="M8.28576 13.7292L52.8473 53.4939C53.3982 53.9854 53.7131 54.6886 53.7131 55.4269V81.7963C53.7131 83.6725 51.7809 84.9266 50.0673 84.1625L18.4059 70.0453C9.62555 66.1303 3.97001 57.4164 3.97001 47.8028V15.6623C3.97001 13.4244 6.61606 12.2393 8.28576 13.7292Z" stroke="black"/>
<path d="M22.4023 80.4623L52.1963 94.0339C53.1202 94.4547 53.7131 95.3764 53.7131 96.3916V111.295C53.7131 112.78 52.4671 115.256 50.984 115.177L34.4329 114.292C25.6322 113.821 18.7375 105.252 18.7375 96.4391V82.8201C18.7375 80.9349 20.6867 79.6809 22.4023 80.4623Z" stroke="black"/>
<path d="M36.873 121.152L51.1075 123.389C52.5813 123.516 53.7131 124.75 53.7131 126.229V138.899C53.7131 140.473 52.4372 141.749 50.8633 141.749H44.6986C39.1178 141.749 33.7096 137.927 32.2096 132.552L30.5256 119.209C34.1738 119.598 34.8915 120.982 36.873 121.152Z" stroke="black"/>
<g filter="url(#filter7_i_181_12348)">
<path d="M8.28549 5.18039L52.8471 44.945C53.3979 45.4366 53.7129 46.1398 53.7129 46.8781V73.2475C53.7129 75.1236 51.7806 76.3777 50.067 75.6137L18.4056 61.4965C9.62529 57.5815 3.96974 48.8676 3.96974 39.254V7.11344C3.96974 4.87561 6.61579 3.69043 8.28549 5.18039Z" fill="#FFC511"/>
<path d="M22.402 75.5406L52.1961 89.1121C53.1199 89.533 53.7129 90.4546 53.7129 91.4698V106.373C53.7129 107.858 52.4668 109.039 50.9837 108.96L34.4326 108.075C25.6319 107.604 18.7372 100.331 18.7372 91.5173V77.8983C18.7372 76.0132 20.6864 74.7592 22.402 75.5406Z" fill="#FFC511"/>
<path d="M33.7121 116.712L51.1073 118.209C52.5811 118.335 53.7129 119.569 53.7129 121.048V133.718C53.7129 135.292 52.437 136.568 50.863 136.568H44.6983C39.1175 136.568 34.2202 132.85 32.7202 127.475L30.7229 120.318C30.1884 118.402 31.7307 116.542 33.7121 116.712Z" fill="#FFC511"/>
<path d="M8.28549 5.18039L52.8471 44.945C53.3979 45.4366 53.7129 46.1398 53.7129 46.8781V73.2475C53.7129 75.1236 51.7806 76.3777 50.067 75.6137L18.4056 61.4965C9.62529 57.5815 3.96974 48.8676 3.96974 39.254V7.11344C3.96974 4.87561 6.61579 3.69043 8.28549 5.18039Z" stroke="black"/>
<path d="M22.402 75.5406L52.1961 89.1121C53.1199 89.533 53.7129 90.4546 53.7129 91.4698V106.373C53.7129 107.858 52.4668 109.039 50.9837 108.96L34.4326 108.075C25.6319 107.604 18.7372 100.331 18.7372 91.5173V77.8983C18.7372 76.0132 20.6864 74.7592 22.402 75.5406Z" stroke="black"/>
<path d="M33.7121 116.712L51.1073 118.209C52.5811 118.335 53.7129 119.569 53.7129 121.048V133.718C53.7129 135.292 52.437 136.568 50.863 136.568H44.6983C39.1175 136.568 34.2202 132.85 32.7202 127.475L30.7229 120.318C30.1884 118.402 31.7307 116.542 33.7121 116.712Z" stroke="black"/>
</g>
<defs>
<filter id="filter0_ii_181_12348" x="59.9026" y="10.2646" width="140.006" height="157.94" filterUnits="userSpaceOnUse" color-interpolation-filters="sRGB">
<feFlood flood-opacity="0" result="BackgroundImageFix"/>
<feBlend mode="normal" in="SourceGraphic" in2="BackgroundImageFix" result="shape"/>
<feColorMatrix in="SourceAlpha" type="matrix" values="0 0 0 0 0 0 0 0 0 0 0 0 0 0 0 0 0 0 127 0" result="hardAlpha"/>
<feOffset dy="10.3191"/>
<feComposite in2="hardAlpha" operator="arithmetic" k2="-1" k3="1"/>
<feColorMatrix type="matrix" values="0 0 0 0 1 0 0 0 0 0.901186 0 0 0 0 0.545833 0 0 0 1 0"/>
<feBlend mode="normal" in2="shape" result="effect1_innerShadow_181_12348"/>
<feColorMatrix in="SourceAlpha" type="matrix" values="0 0 0 0 0 0 0 0 0 0 0 0 0 0 0 0 0 0 127 0" result="hardAlpha"/>
<feOffset dy="-39.5564"/>
<feComposite in2="hardAlpha" operator="arithmetic" k2="-1" k3="1"/>
<feColorMatrix type="matrix" values="0 0 0 0 0.917647 0 0 0 0 0.423529 0 0 0 0 0.0196078 0 0 0 0.3 0"/>
<feBlend mode="normal" in2="effect1_innerShadow_181_12348" result="effect2_innerShadow_181_12348"/>
</filter>
<filter id="filter1_i_181_12348" x="80.1304" y="36.6904" width="100.069" height="111.824" filterUnits="userSpaceOnUse" color-interpolation-filters="sRGB">
<feFlood flood-opacity="0" result="BackgroundImageFix"/>
<feBlend mode="normal" in="SourceGraphic" in2="BackgroundImageFix" result="shape"/>
<feColorMatrix in="SourceAlpha" type="matrix" values="0 0 0 0 0 0 0 0 0 0 0 0 0 0 0 0 0 0 127 0" result="hardAlpha"/>
<feOffset dy="5.18158"/>
<feComposite in2="hardAlpha" operator="arithmetic" k2="-1" k3="1"/>
<feColorMatrix type="matrix" values="0 0 0 0 0.6875 0 0 0 0 0.350296 0 0 0 0 0.0716146 0 0 0 1 0"/>
<feBlend mode="normal" in2="shape" result="effect1_innerShadow_181_12348"/>
</filter>
<filter id="filter2_i_181_12348" x="205.224" y="5.1084" width="56.9973" height="120.258" filterUnits="userSpaceOnUse" color-interpolation-filters="sRGB">
<feFlood flood-opacity="0" result="BackgroundImageFix"/>
<feBlend mode="normal" in="SourceGraphic" in2="BackgroundImageFix" result="shape"/>
<feColorMatrix in="SourceAlpha" type="matrix" values="0 0 0 0 0 0 0 0 0 0 0 0 0 0 0 0 0 0 127 0" result="hardAlpha"/>
<feOffset dy="7.25421"/>
<feComposite in2="hardAlpha" operator="arithmetic" k2="-1" k3="1"/>
<feColorMatrix type="matrix" values="0 0 0 0 0.898039 0 0 0 0 0.929412 0 0 0 0 1 0 0 0 1 0"/>
<feBlend mode="normal" in2="shape" result="effect1_innerShadow_181_12348"/>
</filter>
<filter id="filter3_i_181_12348" x="205.224" y="117.3" width="30.988" height="32.3047" filterUnits="userSpaceOnUse" color-interpolation-filters="sRGB">
<feFlood flood-opacity="0" result="BackgroundImageFix"/>
<feBlend mode="normal" in="SourceGraphic" in2="BackgroundImageFix" result="shape"/>
<feColorMatrix in="SourceAlpha" type="matrix" values="0 0 0 0 0 0 0 0 0 0 0 0 0 0 0 0 0 0 127 0" result="hardAlpha"/>
<feOffset dy="7.25421"/>
<feComposite in2="hardAlpha" operator="arithmetic" k2="-1" k3="1"/>
<feColorMatrix type="matrix" values="0 0 0 0 0.898039 0 0 0 0 0.929412 0 0 0 0 1 0 0 0 1 0"/>
<feBlend mode="normal" in2="shape" result="effect1_innerShadow_181_12348"/>
</filter>
<filter id="filter4_i_181_12348" x="208.851" y="8.74219" width="49.7432" height="132.051" filterUnits="userSpaceOnUse" color-interpolation-filters="sRGB">
<feFlood flood-opacity="0" result="BackgroundImageFix"/>
<feBlend mode="normal" in="SourceGraphic" in2="BackgroundImageFix" result="shape"/>
<feColorMatrix in="SourceAlpha" type="matrix" values="0 0 0 0 0 0 0 0 0 0 0 0 0 0 0 0 0 0 127 0" result="hardAlpha"/>
<feOffset dy="5.95881"/>
<feComposite in2="hardAlpha" operator="arithmetic" k2="-1" k3="1"/>
<feColorMatrix type="matrix" values="0 0 0 0 1 0 0 0 0 0.901961 0 0 0 0 0.545098 0 0 0 1 0"/>
<feBlend mode="normal" in2="shape" result="effect1_innerShadow_181_12348"/>
</filter>
<filter id="filter5_i_181_12348" x="0.343018" y="0.883789" width="56.9973" height="120.256" filterUnits="userSpaceOnUse" color-interpolation-filters="sRGB">
<feFlood flood-opacity="0" result="BackgroundImageFix"/>
<feBlend mode="normal" in="SourceGraphic" in2="BackgroundImageFix" result="shape"/>
<feColorMatrix in="SourceAlpha" type="matrix" values="0 0 0 0 0 0 0 0 0 0 0 0 0 0 0 0 0 0 127 0" result="hardAlpha"/>
<feOffset dy="7.25421"/>
<feComposite in2="hardAlpha" operator="arithmetic" k2="-1" k3="1"/>
<feColorMatrix type="matrix" values="0 0 0 0 0.898039 0 0 0 0 0.929412 0 0 0 0 1 0 0 0 1 0"/>
<feBlend mode="normal" in2="shape" result="effect1_innerShadow_181_12348"/>
</filter>
<filter id="filter6_i_181_12348" x="26.3533" y="113.075" width="30.9871" height="32.3047" filterUnits="userSpaceOnUse" color-interpolation-filters="sRGB">
<feFlood flood-opacity="0" result="BackgroundImageFix"/>
<feBlend mode="normal" in="SourceGraphic" in2="BackgroundImageFix" result="shape"/>
<feColorMatrix in="SourceAlpha" type="matrix" values="0 0 0 0 0 0 0 0 0 0 0 0 0 0 0 0 0 0 127 0" result="hardAlpha"/>
<feOffset dy="7.25421"/>
<feComposite in2="hardAlpha" operator="arithmetic" k2="-1" k3="1"/>
<feColorMatrix type="matrix" values="0 0 0 0 0.898039 0 0 0 0 0.929412 0 0 0 0 1 0 0 0 1 0"/>
<feBlend mode="normal" in2="shape" result="effect1_innerShadow_181_12348"/>
</filter>
<filter id="filter7_i_181_12348" x="3.96973" y="4.51758" width="49.7432" height="132.051" filterUnits="userSpaceOnUse" color-interpolation-filters="sRGB">
<feFlood flood-opacity="0" result="BackgroundImageFix"/>
<feBlend mode="normal" in="SourceGraphic" in2="BackgroundImageFix" result="shape"/>
<feColorMatrix in="SourceAlpha" type="matrix" values="0 0 0 0 0 0 0 0 0 0 0 0 0 0 0 0 0 0 127 0" result="hardAlpha"/>
<feOffset dy="5.95881"/>
<feComposite in2="hardAlpha" operator="arithmetic" k2="-1" k3="1"/>
<feColorMatrix type="matrix" values="0 0 0 0 1 0 0 0 0 0.901961 0 0 0 0 0.545098 0 0 0 1 0"/>
<feBlend mode="normal" in2="shape" result="effect1_innerShadow_181_12348"/>
</filter>
<linearGradient id="paint0_linear_181_12348" x1="-14.9283" y1="-107.053" x2="135.115" y2="204.713" gradientUnits="userSpaceOnUse">
<stop stop-color="#FFF00C"/>
<stop offset="1" stop-color="#FFA913"/>
</linearGradient>
</defs>
</svg>
