<svg width="286" height="189" viewBox="0 0 286 189" fill="none" xmlns="http://www.w3.org/2000/svg">
<g filter="url(#filter0_i_487_6085)">
<path fill-rule="evenodd" clip-rule="evenodd" d="M222.649 46.0788L275.754 5.67349C277.743 4.15952 280.897 5.3638 280.897 7.63769V16.3252V40.2961V48.9836C280.897 58.7521 274.157 67.6064 263.693 71.5845L225.962 85.9291C223.92 86.7055 221.617 85.4312 221.617 83.5248V74.8373V56.7305V48.043C221.617 47.2928 221.993 46.5783 222.649 46.0788ZM223.425 90.9576L258.931 77.1674C260.975 76.3733 263.298 77.6476 263.298 79.5631V88.2506V93.4015V102.089C263.298 111.044 255.082 118.435 244.594 118.913L224.87 119.813C223.102 119.893 221.617 118.693 221.617 117.184V108.496V102.041V93.3533C221.617 92.3217 222.324 91.3852 223.425 90.9576Z" fill="url(#paint0_linear_487_6085)"/>
</g>
<path d="M275.754 5.67349L273.029 2.09225V2.09225L275.754 5.67349ZM222.649 46.0788L219.924 42.4976H219.924L222.649 46.0788ZM263.693 71.5845L262.094 67.3782L263.693 71.5845ZM225.962 85.9291L227.561 90.1354H227.561L225.962 85.9291ZM258.931 77.1674L260.56 81.3621H260.56L258.931 77.1674ZM223.425 90.9576L221.796 86.7628H221.796L223.425 90.9576ZM244.594 118.913L244.799 123.408H244.799L244.594 118.913ZM224.87 119.813L224.665 115.317H224.665L224.87 119.813ZM273.029 2.09225L219.924 42.4976L225.374 49.6601L278.478 9.25473L273.029 2.09225ZM285.397 7.63769C285.397 4.14467 282.949 1.89911 280.677 1.03129C278.392 0.158576 275.428 0.266661 273.029 2.09225L278.478 9.25473C278.069 9.56635 277.677 9.51959 277.466 9.439C277.333 9.38846 277.093 9.26322 276.857 8.96713C276.595 8.6395 276.397 8.16516 276.397 7.63769H285.397ZM285.397 16.3252V7.63769H276.397V16.3252H285.397ZM285.397 40.2961V16.3252H276.397V40.2961H285.397ZM285.397 48.9836V40.2961H276.397V48.9836H285.397ZM265.292 75.7907C277.172 71.2742 285.397 60.9503 285.397 48.9836H276.397C276.397 56.5538 271.141 63.9386 262.094 67.3782L265.292 75.7907ZM227.561 90.1354L265.292 75.7907L262.094 67.3782L224.363 81.7229L227.561 90.1354ZM217.117 83.5248C217.117 86.4528 218.904 88.5962 220.845 89.6703C222.785 90.744 225.251 91.0137 227.561 90.1354L224.363 81.7229C224.631 81.6209 224.924 81.6417 225.203 81.7957C225.482 81.9501 226.117 82.5032 226.117 83.5248H217.117ZM217.117 74.8373V83.5248H226.117V74.8373H217.117ZM217.117 56.7305V74.8373H226.117V56.7305H217.117ZM217.117 48.043V56.7305H226.117V48.043H217.117ZM219.924 42.4976C218.277 43.7505 217.117 45.7337 217.117 48.043H226.117C226.117 48.8519 225.708 49.406 225.374 49.6601L219.924 42.4976ZM257.302 72.9727L221.796 86.7628L225.054 95.1523L260.56 81.3621L257.302 72.9727ZM267.798 79.5631C267.798 76.621 265.996 74.4736 264.045 73.4037C262.096 72.3342 259.617 72.0732 257.302 72.9727L260.56 81.3621C260.289 81.4675 259.994 81.4466 259.717 81.2945C259.439 81.1422 258.798 80.5896 258.798 79.5631H267.798ZM267.798 88.2506V79.5631H258.798V88.2506H267.798ZM267.798 93.4015V88.2506H258.798V93.4015H267.798ZM267.798 102.089V93.4015H258.798V102.089H267.798ZM244.799 123.408C257.038 122.85 267.798 114.052 267.798 102.089H258.798C258.798 108.036 253.125 114.019 244.389 114.418L244.799 123.408ZM225.075 124.308L244.799 123.408L244.389 114.418L224.665 115.317L225.075 124.308ZM217.117 117.184C217.117 121.949 221.491 124.472 225.075 124.308L224.665 115.317C224.842 115.309 225.117 115.359 225.409 115.595C225.711 115.838 226.117 116.382 226.117 117.184H217.117ZM217.117 108.496V117.184H226.117V108.496H217.117ZM217.117 102.041V108.496H226.117V102.041H217.117ZM217.117 93.3533V102.041H226.117V93.3533H217.117ZM221.796 86.7628C219.288 87.7369 217.117 90.1405 217.117 93.3533H226.117C226.117 94.5029 225.36 95.0335 225.054 95.1523L221.796 86.7628Z" fill="#6053A7"/>
<g filter="url(#filter1_i_487_6085)">
<path fill-rule="evenodd" clip-rule="evenodd" d="M224.723 120.524L245.453 119.003C247.355 118.864 248.918 120.064 249.12 121.553C249.163 121.549 249.207 121.545 249.25 121.541L247.243 135.099C245.456 140.561 239.011 144.444 232.36 144.444H225.014C223.138 144.444 221.617 143.148 221.617 141.548V128.674C221.617 128.667 221.617 128.66 221.618 128.653V123.409C221.618 121.906 222.966 120.653 224.723 120.524Z" fill="url(#paint1_linear_487_6085)"/>
</g>
<path d="M245.453 119.003L245.782 123.491L245.782 123.491L245.453 119.003ZM224.723 120.524L224.393 116.036L224.393 116.036L224.723 120.524ZM249.12 121.553L244.661 122.159L245.244 126.45L249.555 126.032L249.12 121.553ZM249.25 121.541L253.702 122.2L254.539 116.542L248.843 117.059L249.25 121.541ZM247.243 135.099L251.52 136.498L251.639 136.135L251.695 135.757L247.243 135.099ZM221.618 128.653L226.117 128.69L226.118 128.672V128.653H221.618ZM245.123 114.515L224.393 116.036L225.052 125.012L245.782 123.491L245.123 114.515ZM253.579 120.948C252.994 116.634 248.895 114.239 245.123 114.515L245.782 123.491C245.701 123.497 245.519 123.48 245.302 123.325C245.1 123.18 244.75 122.813 244.661 122.159L253.579 120.948ZM248.843 117.059C248.79 117.064 248.738 117.069 248.686 117.074L249.555 126.032C249.589 126.029 249.623 126.026 249.657 126.023L248.843 117.059ZM251.695 135.757L253.702 122.2L244.799 120.882L242.792 134.44L251.695 135.757ZM232.36 148.944C240.397 148.944 248.97 144.292 251.52 136.498L242.967 133.699C241.942 136.829 237.625 139.944 232.36 139.944V148.944ZM225.014 148.944H232.36V139.944H225.014V148.944ZM217.117 141.548C217.117 146.279 221.352 148.944 225.014 148.944V139.944C225.102 139.944 225.299 139.973 225.532 140.172C225.774 140.378 226.117 140.85 226.117 141.548H217.117ZM217.117 128.674V141.548H226.117V128.674H217.117ZM217.118 128.615C217.118 128.635 217.117 128.654 217.117 128.674H226.117C226.117 128.679 226.117 128.685 226.117 128.69L217.118 128.615ZM217.118 123.409V128.653H226.118V123.409H217.118ZM224.393 116.036C220.908 116.291 217.118 118.972 217.118 123.409H226.118C226.118 124.063 225.814 124.525 225.574 124.748C225.344 124.962 225.141 125.005 225.052 125.012L224.393 116.036Z" fill="#6053A7"/>
<path d="M275.754 14.361L222.649 54.7663C221.993 55.2658 221.617 55.9803 221.617 56.7305V83.5248C221.617 85.4312 223.92 86.7055 225.962 85.9292L263.693 71.5845C274.157 67.6064 280.897 58.7521 280.897 48.9836V16.3252C280.897 14.0513 277.743 12.847 275.754 14.361Z" fill="#8473D4"/>
<path d="M258.931 82.1693L223.425 95.9595C222.324 96.3872 221.617 97.3237 221.617 98.3552V113.498C221.617 115.008 223.102 117.524 224.87 117.443L244.594 116.544C255.082 116.066 263.298 107.359 263.298 98.4035V84.565C263.298 82.6495 260.975 81.3753 258.931 82.1693Z" fill="#8473D4"/>
<path d="M241.686 123.515L224.722 125.788C222.966 125.917 221.617 127.17 221.617 128.673V141.548C221.617 143.147 223.138 144.444 225.013 144.444H232.36C239.011 144.444 245.456 140.56 247.243 135.098L249.25 121.541C244.902 121.935 244.047 123.342 241.686 123.515Z" fill="#8473D4"/>
<path d="M275.754 14.361L222.649 54.7663C221.993 55.2658 221.617 55.9803 221.617 56.7305V83.5248C221.617 85.4312 223.92 86.7055 225.962 85.9292L263.693 71.5845C274.157 67.6064 280.897 58.7521 280.897 48.9836V16.3252C280.897 14.0513 277.743 12.847 275.754 14.361Z" stroke="black"/>
<path d="M258.931 82.1693L223.425 95.9595C222.324 96.3872 221.617 97.3237 221.617 98.3552V113.498C221.617 115.008 223.102 117.524 224.87 117.443L244.594 116.544C255.082 116.066 263.298 107.359 263.298 98.4035V84.565C263.298 82.6495 260.975 81.3753 258.931 82.1693Z" stroke="black"/>
<path d="M241.686 123.515L224.722 125.788C222.966 125.917 221.617 127.17 221.617 128.673V141.548C221.617 143.147 223.138 144.444 225.013 144.444H232.36C239.011 144.444 245.456 140.56 247.243 135.098L249.25 121.541C244.902 121.935 244.047 123.342 241.686 123.515Z" stroke="black"/>
<g filter="url(#filter2_i_487_6085)">
<path d="M275.754 5.67349L222.649 46.0788C221.993 46.5783 221.617 47.2928 221.617 48.043V74.8373C221.617 76.7437 223.92 78.018 225.962 77.2416L263.694 62.897C274.157 58.9189 280.897 50.0646 280.897 40.2961V7.63769C280.897 5.3638 277.744 4.15952 275.754 5.67349Z" fill="url(#paint2_linear_487_6085)"/>
<path d="M258.931 77.1674L223.425 90.9576C222.324 91.3852 221.617 92.3217 221.617 93.3533V108.496C221.617 110.006 223.102 111.206 224.87 111.125L244.594 110.226C255.082 109.747 263.298 102.357 263.298 93.4015V79.5631C263.298 77.6476 260.975 76.3733 258.931 77.1674Z" fill="url(#paint3_linear_487_6085)"/>
<path d="M245.453 119.002L224.723 120.523C222.966 120.652 221.617 121.905 221.617 123.408V136.283C221.617 137.882 223.138 139.178 225.014 139.178H232.36C239.011 139.178 244.847 135.401 246.635 129.939L249.015 122.666C249.652 120.719 247.814 118.829 245.453 119.002Z" fill="url(#paint4_linear_487_6085)"/>
<path d="M275.754 5.67349L222.649 46.0788C221.993 46.5783 221.617 47.2928 221.617 48.043V74.8373C221.617 76.7437 223.92 78.018 225.962 77.2416L263.694 62.897C274.157 58.9189 280.897 50.0646 280.897 40.2961V7.63769C280.897 5.3638 277.744 4.15952 275.754 5.67349Z" stroke="black"/>
<path d="M258.931 77.1674L223.425 90.9576C222.324 91.3852 221.617 92.3217 221.617 93.3533V108.496C221.617 110.006 223.102 111.206 224.87 111.125L244.594 110.226C255.082 109.747 263.298 102.357 263.298 93.4015V79.5631C263.298 77.6476 260.975 76.3733 258.931 77.1674Z" stroke="black"/>
<path d="M245.453 119.002L224.723 120.523C222.966 120.652 221.617 121.905 221.617 123.408V136.283C221.617 137.882 223.138 139.178 225.014 139.178H232.36C239.011 139.178 244.847 135.401 246.635 129.939L249.015 122.666C249.652 120.719 247.814 118.829 245.453 119.002Z" stroke="black"/>
</g>
<g filter="url(#filter3_i_487_6085)">
<path fill-rule="evenodd" clip-rule="evenodd" d="M63.1203 46.0788L10.0157 5.67349C8.02595 4.15952 4.87261 5.3638 4.87261 7.63769V16.3252V40.2961V48.9836C4.87261 58.7521 11.6124 67.6064 22.076 71.5845L59.8073 85.9291C61.8494 86.7055 64.1521 85.4312 64.1521 83.5248V74.8373V56.7305V48.043C64.1521 47.2928 63.7767 46.5783 63.1203 46.0788ZM62.3445 90.9576L26.8385 77.1674C24.7941 76.3733 22.4712 77.6476 22.4712 79.5631V88.2506V93.4015V102.089C22.4712 111.044 30.6877 118.435 41.1756 118.913L60.8997 119.813C62.6671 119.893 64.1521 118.693 64.1521 117.184V108.496V102.041V93.3533C64.1521 92.3217 63.4455 91.3852 62.3445 90.9576Z" fill="url(#paint5_linear_487_6085)"/>
</g>
<path d="M10.0157 5.67349L12.7406 2.09225V2.09225L10.0157 5.67349ZM63.1203 46.0788L65.8451 42.4976H65.8451L63.1203 46.0788ZM22.076 71.5845L23.6752 67.3782L22.076 71.5845ZM59.8073 85.9291L58.2082 90.1354H58.2082L59.8073 85.9291ZM26.8385 77.1674L25.2094 81.3621H25.2093L26.8385 77.1674ZM62.3445 90.9576L63.9737 86.7628H63.9737L62.3445 90.9576ZM41.1756 118.913L40.9706 123.408H40.9706L41.1756 118.913ZM60.8997 119.813L61.1047 115.317H61.1047L60.8997 119.813ZM12.7406 2.09225L65.8451 42.4976L60.3955 49.6601L7.29091 9.25473L12.7406 2.09225ZM0.372612 7.63769C0.372612 4.14467 2.82018 1.89911 5.09253 1.03129C7.37766 0.158576 10.3412 0.266661 12.7406 2.09225L7.29091 9.25473C7.70048 9.56635 8.09246 9.51959 8.30349 9.439C8.43583 9.38846 8.67587 9.26322 8.91238 8.96713C9.17409 8.6395 9.37261 8.16516 9.37261 7.63769H0.372612ZM0.372612 16.3252V7.63769H9.37261V16.3252H0.372612ZM0.372612 40.2961V16.3252H9.37261V40.2961H0.372612ZM0.372612 48.9836V40.2961H9.37261V48.9836H0.372612ZM20.4769 75.7907C8.59694 71.2742 0.372612 60.9503 0.372612 48.9836H9.37261C9.37261 56.5538 14.6279 63.9386 23.6752 67.3782L20.4769 75.7907ZM58.2082 90.1354L20.4769 75.7907L23.6752 67.3782L61.4064 81.7229L58.2082 90.1354ZM68.6521 83.5248C68.6521 86.4528 66.8654 88.5962 64.9244 89.6703C62.9842 90.744 60.5185 91.0137 58.2082 90.1354L61.4064 81.7229C61.1382 81.6209 60.8449 81.6417 60.5666 81.7957C60.2875 81.9501 59.6521 82.5032 59.6521 83.5248H68.6521ZM68.6521 74.8373V83.5248H59.6521V74.8373H68.6521ZM68.6521 56.7305V74.8373H59.6521V56.7305H68.6521ZM68.6521 48.043V56.7305H59.6521V48.043H68.6521ZM65.8451 42.4976C67.4919 43.7505 68.6521 45.7337 68.6521 48.043H59.6521C59.6521 48.8519 60.0616 49.406 60.3954 49.6601L65.8451 42.4976ZM28.4677 72.9727L63.9737 86.7628L60.7153 95.1523L25.2094 81.3621L28.4677 72.9727ZM17.9712 79.5631C17.9712 76.621 19.7737 74.4736 21.724 73.4037C23.6737 72.3342 26.152 72.0732 28.4677 72.9727L25.2093 81.3621C25.4807 81.4675 25.7752 81.4466 26.0524 81.2945C26.3302 81.1422 26.9712 80.5896 26.9712 79.5631H17.9712ZM17.9712 88.2506V79.5631H26.9712V88.2506H17.9712ZM17.9712 93.4015V88.2506H26.9712V93.4015H17.9712ZM17.9712 102.089V93.4015H26.9712V102.089H17.9712ZM40.9706 123.408C28.731 122.85 17.9712 114.052 17.9712 102.089H26.9712C26.9712 108.036 32.6443 114.019 41.3806 114.418L40.9706 123.408ZM60.6947 124.308L40.9706 123.408L41.3806 114.418L61.1047 115.317L60.6947 124.308ZM68.6521 117.184C68.6521 121.949 64.2787 124.472 60.6947 124.308L61.1047 115.317C60.9269 115.309 60.6521 115.359 60.36 115.595C60.0586 115.838 59.6521 116.382 59.6521 117.184H68.6521ZM68.6521 108.496V117.184H59.6521V108.496H68.6521ZM68.6521 102.041V108.496H59.6521V102.041H68.6521ZM68.6521 93.3533V102.041H59.6521V93.3533H68.6521ZM63.9737 86.7628C66.4815 87.7369 68.6521 90.1405 68.6521 93.3533H59.6521C59.6521 94.5029 60.4094 95.0335 60.7153 95.1523L63.9737 86.7628Z" fill="#6053A7"/>
<g filter="url(#filter4_i_487_6085)">
<path fill-rule="evenodd" clip-rule="evenodd" d="M61.0469 120.524L40.317 119.003C38.4144 118.864 36.8516 120.064 36.6493 121.553C36.6063 121.549 36.5629 121.545 36.5192 121.541L38.5261 135.099C40.3137 140.561 46.7586 144.444 53.4094 144.444H60.7559C62.6316 144.444 64.1521 143.148 64.1521 141.548V128.674C64.1521 128.671 64.1521 128.669 64.1521 128.666V123.409C64.1521 121.906 62.8033 120.653 61.0469 120.524Z" fill="url(#paint6_linear_487_6085)"/>
</g>
<path d="M40.317 119.003L39.9878 123.491L40.317 119.003ZM61.0469 120.524L61.3761 116.036L61.3761 116.036L61.0469 120.524ZM36.6493 121.553L41.1084 122.159L40.5256 126.45L36.2148 126.032L36.6493 121.553ZM36.5192 121.541L32.0677 122.2L31.2302 116.542L36.9263 117.059L36.5192 121.541ZM38.5261 135.099L34.2493 136.498L34.1305 136.135L34.0746 135.757L38.5261 135.099ZM64.1521 128.666L59.6521 128.68V128.666H64.1521ZM40.6461 114.515L61.3761 116.036L60.7178 125.012L39.9878 123.491L40.6461 114.515ZM32.1903 120.948C32.7761 116.634 36.8746 114.239 40.6461 114.515L39.9878 123.491C40.0687 123.497 40.2503 123.48 40.4675 123.325C40.6692 123.18 41.0196 122.813 41.1084 122.159L32.1903 120.948ZM36.9263 117.059C36.9791 117.064 37.0316 117.069 37.0838 117.074L36.2148 126.032C36.181 126.029 36.1468 126.026 36.1122 126.023L36.9263 117.059ZM34.0746 135.757L32.0677 122.2L40.9707 120.882L42.9776 134.44L34.0746 135.757ZM53.4094 148.944C45.3729 148.944 36.7999 144.292 34.2493 136.498L42.8029 133.699C43.8274 136.829 48.1444 139.944 53.4094 139.944V148.944ZM60.7559 148.944H53.4094V139.944H60.7559V148.944ZM68.6521 141.548C68.6521 146.279 64.4174 148.944 60.7559 148.944V139.944C60.668 139.944 60.4707 139.973 60.2377 140.172C59.9952 140.378 59.6521 140.85 59.6521 141.548H68.6521ZM68.6521 128.674V141.548H59.6521V128.674H68.6521ZM68.6521 128.652C68.6521 128.659 68.6521 128.666 68.6521 128.674H59.6521C59.6521 128.676 59.6521 128.678 59.6521 128.68L68.6521 128.652ZM68.6521 123.409V128.666H59.6521V123.409H68.6521ZM61.3761 116.036C64.8617 116.291 68.6521 118.972 68.6521 123.409H59.6521C59.6521 124.063 59.9552 124.525 60.1951 124.748C60.4256 124.962 60.6285 125.005 60.7178 125.012L61.3761 116.036Z" fill="#6053A7"/>
<path d="M10.0157 14.361L63.1203 54.7663C63.7767 55.2658 64.1521 55.9803 64.1521 56.7305V83.5248C64.1521 85.4312 61.8494 86.7055 59.8073 85.9292L22.076 71.5845C11.6124 67.6064 4.87261 58.7521 4.87261 48.9836V16.3252C4.87261 14.0513 8.02595 12.847 10.0157 14.361Z" fill="#8473D4"/>
<path d="M26.8385 82.1693L62.3445 95.9595C63.4455 96.3872 64.1521 97.3237 64.1521 98.3552V113.498C64.1521 115.008 62.6671 117.524 60.8997 117.443L41.1756 116.544C30.6877 116.066 22.4712 107.359 22.4712 98.4035V84.565C22.4712 82.6495 24.7941 81.3753 26.8385 82.1693Z" fill="#8473D4"/>
<path d="M44.0835 123.515L61.047 125.788C62.8033 125.917 64.1521 127.17 64.1521 128.673V141.548C64.1521 143.147 62.6316 144.444 60.7559 144.444H53.4093C46.7586 144.444 40.3137 140.56 38.5261 135.098L36.5192 121.541C40.8668 121.935 41.7222 123.342 44.0835 123.515Z" fill="#8473D4"/>
<path d="M10.0157 14.361L63.1203 54.7663C63.7767 55.2658 64.1521 55.9803 64.1521 56.7305V83.5248C64.1521 85.4312 61.8494 86.7055 59.8073 85.9292L22.076 71.5845C11.6124 67.6064 4.87261 58.7521 4.87261 48.9836V16.3252C4.87261 14.0513 8.02595 12.847 10.0157 14.361Z" stroke="black"/>
<path d="M26.8385 82.1693L62.3445 95.9595C63.4455 96.3872 64.1521 97.3237 64.1521 98.3552V113.498C64.1521 115.008 62.6671 117.524 60.8997 117.443L41.1756 116.544C30.6877 116.066 22.4712 107.359 22.4712 98.4035V84.565C22.4712 82.6495 24.7941 81.3753 26.8385 82.1693Z" stroke="black"/>
<path d="M44.0835 123.515L61.047 125.788C62.8033 125.917 64.1521 127.17 64.1521 128.673V141.548C64.1521 143.147 62.6316 144.444 60.7559 144.444H53.4093C46.7586 144.444 40.3137 140.56 38.5261 135.098L36.5192 121.541C40.8668 121.935 41.7222 123.342 44.0835 123.515Z" stroke="black"/>
<g filter="url(#filter5_i_487_6085)">
<path d="M10.0157 5.67349L63.1203 46.0788C63.7767 46.5783 64.1521 47.2928 64.1521 48.043V74.8373C64.1521 76.7437 61.8494 78.018 59.8073 77.2416L22.076 62.897C11.6124 58.9189 4.87261 50.0646 4.87261 40.2961V7.63769C4.87261 5.3638 8.02594 4.15952 10.0157 5.67349Z" fill="url(#paint7_linear_487_6085)"/>
<path d="M26.8385 77.1674L62.3445 90.9576C63.4455 91.3852 64.1521 92.3217 64.1521 93.3533V108.496C64.1521 110.006 62.6671 111.206 60.8997 111.125L41.1756 110.226C30.6877 109.747 22.4712 102.357 22.4712 93.4015V79.5631C22.4712 77.6476 24.7941 76.3733 26.8385 77.1674Z" fill="url(#paint8_linear_487_6085)"/>
<path d="M40.317 119.002L61.047 120.523C62.8033 120.652 64.1521 121.905 64.1521 123.408V136.283C64.1521 137.882 62.6316 139.178 60.7559 139.178H53.4094C46.7586 139.178 40.9224 135.401 39.1348 129.939L36.7547 122.666C36.1176 120.719 37.9556 118.829 40.317 119.002Z" fill="url(#paint9_linear_487_6085)"/>
<path d="M10.0157 5.67349L63.1203 46.0788C63.7767 46.5783 64.1521 47.2928 64.1521 48.043V74.8373C64.1521 76.7437 61.8494 78.018 59.8073 77.2416L22.076 62.897C11.6124 58.9189 4.87261 50.0646 4.87261 40.2961V7.63769C4.87261 5.3638 8.02594 4.15952 10.0157 5.67349Z" stroke="black"/>
<path d="M26.8385 77.1674L62.3445 90.9576C63.4455 91.3852 64.1521 92.3217 64.1521 93.3533V108.496C64.1521 110.006 62.6671 111.206 60.8997 111.125L41.1756 110.226C30.6877 109.747 22.4712 102.357 22.4712 93.4015V79.5631C22.4712 77.6476 24.7941 76.3733 26.8385 77.1674Z" stroke="black"/>
<path d="M40.317 119.002L61.047 120.523C62.8033 120.652 64.1521 121.905 64.1521 123.408V136.283C64.1521 137.882 62.6316 139.178 60.7559 139.178H53.4094C46.7586 139.178 40.9224 135.401 39.1348 129.939L36.7547 122.666C36.1176 120.719 37.9556 118.829 40.317 119.002Z" stroke="black"/>
</g>
<mask id="path-13-outside-1_487_6085" maskUnits="userSpaceOnUse" x="63.9558" y="2.01367" width="158" height="187" fill="black">
<rect fill="white" x="63.9558" y="2.01367" width="158" height="187"/>
<path d="M136.658 8.65742C140.536 6.45869 145.286 6.46624 149.157 8.6773L209.999 43.4276C213.926 45.6705 216.355 49.841 216.368 54.3633L216.599 133.452C216.611 137.863 214.324 141.961 210.563 144.265L149.514 181.66C145.463 184.141 140.363 184.141 136.313 181.66L75.2223 144.239C71.4837 141.949 69.1993 137.885 69.1865 133.501L68.9559 54.4395C68.9426 49.8765 71.3904 45.6607 75.3598 43.4102L136.658 8.65742Z"/>
</mask>
<path d="M136.658 8.65742C140.536 6.45869 145.286 6.46624 149.157 8.6773L209.999 43.4276C213.926 45.6705 216.355 49.841 216.368 54.3633L216.599 133.452C216.611 137.863 214.324 141.961 210.563 144.265L149.514 181.66C145.463 184.141 140.363 184.141 136.313 181.66L75.2223 144.239C71.4837 141.949 69.1993 137.885 69.1865 133.501L68.9559 54.4395C68.9426 49.8765 71.3904 45.6607 75.3598 43.4102L136.658 8.65742Z" fill="#8473D4"/>
<path d="M136.658 8.65742L139.124 13.007L139.124 13.007L136.658 8.65742ZM149.157 8.6773L151.637 4.33558L151.637 4.33558L149.157 8.6773ZM209.999 43.4276L207.519 47.7693L207.519 47.7693L209.999 43.4276ZM216.368 54.3633L221.368 54.3487L221.368 54.3487L216.368 54.3633ZM216.599 133.452L221.599 133.438L221.599 133.438L216.599 133.452ZM210.563 144.265L207.951 140.001L207.951 140.001L210.563 144.265ZM149.514 181.66L152.125 185.923L152.125 185.923L149.514 181.66ZM136.313 181.66L138.925 177.396L138.925 177.396L136.313 181.66ZM75.2223 144.239L72.6106 148.503L72.6106 148.503L75.2223 144.239ZM69.1865 133.501L74.1865 133.486L69.1865 133.501ZM68.9559 54.4395L63.9559 54.4541L68.9559 54.4395ZM75.3598 43.4102L72.8939 39.0606L72.8939 39.0606L75.3598 43.4102ZM139.124 13.007C141.468 11.6783 144.338 11.6829 146.677 13.019L151.637 4.33558C146.234 1.24963 139.605 1.23908 134.192 4.30783L139.124 13.007ZM146.677 13.019L207.519 47.7693L212.479 39.0859L151.637 4.33558L146.677 13.019ZM207.519 47.7693C209.892 49.1247 211.36 51.645 211.368 54.3779L221.368 54.3487C221.349 48.037 217.959 42.2163 212.479 39.0859L207.519 47.7693ZM211.368 54.3779L211.599 133.467L221.599 133.438L221.368 54.3487L211.368 54.3779ZM211.599 133.467C211.606 136.132 210.224 138.609 207.951 140.001L213.175 148.528C218.424 145.313 221.617 139.593 221.599 133.438L211.599 133.467ZM207.951 140.001L146.902 177.396L152.125 185.923L213.175 148.528L207.951 140.001ZM146.902 177.396C144.454 178.895 141.372 178.895 138.925 177.396L133.701 185.923C139.354 189.386 146.472 189.386 152.125 185.923L146.902 177.396ZM138.925 177.396L77.834 139.976L72.6106 148.503L133.701 185.923L138.925 177.396ZM77.834 139.976C75.5747 138.592 74.1942 136.136 74.1865 133.486L64.1865 133.515C64.2044 139.634 67.3927 145.307 72.6106 148.503L77.834 139.976ZM74.1865 133.486L73.9558 54.4249L63.9559 54.4541L64.1865 133.515L74.1865 133.486ZM73.9558 54.4249C73.9478 51.6674 75.427 49.1198 77.8258 47.7598L72.8939 39.0606C67.3537 42.2016 63.9373 48.0855 63.9559 54.4541L73.9558 54.4249ZM77.8258 47.7598L139.124 13.007L134.192 4.30783L72.8939 39.0606L77.8258 47.7598Z" fill="#6053A7" mask="url(#path-13-outside-1_487_6085)"/>
<g filter="url(#filter6_ii_487_6085)">
<path d="M136.529 8.64265C140.313 6.45746 144.977 6.45746 148.761 8.64265L207.66 42.6475C211.444 44.8327 213.776 48.8711 213.776 53.2415V121.251C213.776 125.622 211.444 129.66 207.66 131.845L148.761 165.85C144.977 168.035 140.313 168.035 136.529 165.85L77.6305 131.845C73.8456 129.66 71.514 125.622 71.514 121.251V53.2415C71.514 48.8711 73.8456 44.8327 77.6304 42.6475L136.529 8.64265Z" fill="#6C65B8"/>
<path d="M136.529 8.64265C140.313 6.45746 144.977 6.45746 148.761 8.64265L207.66 42.6475C211.444 44.8327 213.776 48.8711 213.776 53.2415V121.251C213.776 125.622 211.444 129.66 207.66 131.845L148.761 165.85C144.977 168.035 140.313 168.035 136.529 165.85L77.6305 131.845C73.8456 129.66 71.514 125.622 71.514 121.251V53.2415C71.514 48.8711 73.8456 44.8327 77.6304 42.6475L136.529 8.64265Z" fill="url(#paint10_linear_487_6085)"/>
</g>
<g filter="url(#filter7_i_487_6085)">
<path d="M136.792 35.4942C140.577 33.309 145.24 33.309 149.025 35.4942L187.632 57.7843C191.417 59.9695 193.749 64.0079 193.749 68.3783V112.958C193.749 117.329 191.417 121.367 187.632 123.552L149.025 145.842C145.24 148.028 140.577 148.028 136.792 145.842L98.1844 123.552C94.3995 121.367 92.0679 117.329 92.0679 112.958V68.3783C92.0679 64.0079 94.3995 59.9695 98.1844 57.7843L136.792 35.4942Z" fill="#7A7FD9"/>
</g>
<ellipse cx="131.822" cy="22.8427" rx="9.55871" ry="4.96549" transform="rotate(-29.6591 131.822 22.8427)" fill="white"/>
<mask id="path-18-outside-2_487_6085" maskUnits="userSpaceOnUse" x="101.69" y="45.4795" width="83" height="85" fill="black">
<rect fill="white" x="101.69" y="45.4795" width="83" height="85"/>
<path fill-rule="evenodd" clip-rule="evenodd" d="M145.11 49.6336C144.049 48.0948 141.776 48.0948 140.716 49.6336L135.468 57.2495L128.557 67.2796C128.212 67.7805 127.706 68.1485 127.123 68.3224L115.459 71.8029L106.597 74.4472C104.914 74.9494 104.193 76.8903 105.058 78.3537C104.953 78.6403 104.895 78.9506 104.895 79.2757V81.5846C104.895 82.7318 105.265 83.8485 105.949 84.769L118.272 101.337C118.455 101.582 118.592 101.855 118.681 102.143L118.501 109.527L118.274 118.78C118.267 119.082 118.309 119.37 118.392 119.638L118.274 124.45C118.229 126.317 120.067 127.652 121.828 127.031L130.546 123.958L142.025 119.91C142.6 119.708 143.226 119.708 143.8 119.91L155.279 123.958L163.997 127.031C165.758 127.652 167.597 126.317 167.551 124.45L167.433 119.64C167.517 119.371 167.559 119.083 167.551 118.78L167.325 109.527L167.144 102.144C167.234 101.856 167.372 101.582 167.555 101.336L180.205 84.3827C180.892 83.4611 181.264 82.3418 181.264 81.1919V79.2656C181.264 78.8045 181.148 78.373 180.944 77.997C181.512 76.5911 180.778 74.9095 179.229 74.4472L170.367 71.8029L158.703 68.3224C158.12 68.1485 157.614 67.7805 157.269 67.2796L150.357 57.2495L145.11 49.6336Z"/>
</mask>
<path fill-rule="evenodd" clip-rule="evenodd" d="M145.11 49.6336C144.049 48.0948 141.776 48.0948 140.716 49.6336L135.468 57.2495L128.557 67.2796C128.212 67.7805 127.706 68.1485 127.123 68.3224L115.459 71.8029L106.597 74.4472C104.914 74.9494 104.193 76.8903 105.058 78.3537C104.953 78.6403 104.895 78.9506 104.895 79.2757V81.5846C104.895 82.7318 105.265 83.8485 105.949 84.769L118.272 101.337C118.455 101.582 118.592 101.855 118.681 102.143L118.501 109.527L118.274 118.78C118.267 119.082 118.309 119.37 118.392 119.638L118.274 124.45C118.229 126.317 120.067 127.652 121.828 127.031L130.546 123.958L142.025 119.91C142.6 119.708 143.226 119.708 143.8 119.91L155.279 123.958L163.997 127.031C165.758 127.652 167.597 126.317 167.551 124.45L167.433 119.64C167.517 119.371 167.559 119.083 167.551 118.78L167.325 109.527L167.144 102.144C167.234 101.856 167.372 101.582 167.555 101.336L180.205 84.3827C180.892 83.4611 181.264 82.3418 181.264 81.1919V79.2656C181.264 78.8045 181.148 78.373 180.944 77.997C181.512 76.5911 180.778 74.9095 179.229 74.4472L170.367 71.8029L158.703 68.3224C158.12 68.1485 157.614 67.7805 157.269 67.2796L150.357 57.2495L145.11 49.6336Z" fill="#146C98"/>
<path d="M140.716 49.6336L143.033 51.23V51.23L140.716 49.6336ZM145.11 49.6336L142.793 51.23V51.23L145.11 49.6336ZM135.468 57.2495L137.785 58.8459H137.785L135.468 57.2495ZM128.557 67.2796L126.24 65.6833L126.24 65.6833L128.557 67.2796ZM127.123 68.3224L127.927 71.0184L127.123 68.3224ZM115.459 71.8029L114.654 69.1069H114.654L115.459 71.8029ZM106.597 74.4472L105.793 71.7512H105.793L106.597 74.4472ZM105.058 78.3537L107.698 79.3253L108.16 78.072L107.48 76.9224L105.058 78.3537ZM105.949 84.769L103.692 86.4481H103.692L105.949 84.769ZM118.272 101.337L116.015 103.016L116.015 103.016L118.272 101.337ZM118.681 102.143L121.494 102.212L121.505 101.753L121.37 101.314L118.681 102.143ZM118.501 109.527L115.688 109.458L118.501 109.527ZM118.274 118.78L115.462 118.711V118.711L118.274 118.78ZM118.392 119.638L121.204 119.707L121.216 119.247L121.08 118.807L118.392 119.638ZM118.274 124.45L115.462 124.381L118.274 124.45ZM121.828 127.031L122.764 129.685H122.764L121.828 127.031ZM130.546 123.958L129.611 121.304L130.546 123.958ZM142.025 119.91L142.961 122.564H142.961L142.025 119.91ZM143.8 119.91L142.864 122.564H142.864L143.8 119.91ZM155.279 123.958L154.344 126.611L155.279 123.958ZM163.997 127.031L164.932 124.378L163.997 127.031ZM167.551 124.45L164.738 124.519L167.551 124.45ZM167.433 119.64L164.746 118.807L164.61 119.248L164.621 119.708L167.433 119.64ZM167.551 118.78L170.364 118.711V118.711L167.551 118.78ZM167.325 109.527L170.138 109.458L167.325 109.527ZM167.144 102.144L164.456 101.314L164.321 101.753L164.332 102.213L167.144 102.144ZM167.555 101.336L169.81 103.019L169.81 103.019L167.555 101.336ZM180.205 84.3827L182.46 86.0652L182.46 86.0652L180.205 84.3827ZM180.944 77.997L178.335 76.9433L177.839 78.1719L178.47 79.337L180.944 77.997ZM179.229 74.4472L180.033 71.7512L180.033 71.7512L179.229 74.4472ZM170.367 71.8029L169.562 74.4989L170.367 71.8029ZM158.703 68.3224L157.898 71.0184L157.898 71.0184L158.703 68.3224ZM157.269 67.2796L154.952 68.876V68.876L157.269 67.2796ZM150.357 57.2495L148.041 58.8459H148.041L150.357 57.2495ZM143.033 51.23C143.027 51.2389 143.006 51.2606 142.975 51.2766C142.948 51.2899 142.927 51.293 142.913 51.293C142.898 51.293 142.877 51.2899 142.851 51.2766C142.82 51.2606 142.799 51.2389 142.793 51.23L147.426 48.0373C145.248 44.8756 140.578 44.8756 138.399 48.0373L143.033 51.23ZM137.785 58.8459L143.033 51.23L138.399 48.0373L133.151 55.6532L137.785 58.8459ZM130.874 68.876L137.785 58.8459L133.151 55.6532L126.24 65.6833L130.874 68.876ZM127.927 71.0184C129.125 70.661 130.165 69.9051 130.874 68.876L126.24 65.6833C126.259 65.656 126.287 65.6359 126.318 65.6264L127.927 71.0184ZM116.263 74.4989L127.927 71.0184L126.318 65.6264L114.654 69.1069L116.263 74.4989ZM107.401 77.1432L116.263 74.4989L114.654 69.1069L105.793 71.7512L107.401 77.1432ZM107.48 76.9224C107.492 76.9431 107.502 76.9718 107.503 76.9997C107.505 77.0238 107.501 77.0413 107.496 77.0542C107.491 77.0675 107.481 77.0863 107.46 77.1061C107.436 77.1291 107.411 77.1405 107.401 77.1432L105.793 71.7512C102.329 72.7847 100.855 76.7723 102.636 79.7851L107.48 76.9224ZM107.708 79.2757C107.708 79.2802 107.708 79.2875 107.706 79.2968C107.704 79.3061 107.702 79.3157 107.698 79.3253L102.418 77.3822C102.199 77.9757 102.081 78.6147 102.081 79.2757H107.708ZM107.708 81.5846V79.2757H102.081V81.5846H107.708ZM108.207 83.0899C107.883 82.6548 107.708 82.1269 107.708 81.5846H102.081C102.081 83.3367 102.646 85.0422 103.692 86.4481L108.207 83.0899ZM120.53 99.6581L108.207 83.0899L103.692 86.4481L116.015 103.016L120.53 99.6581ZM121.37 101.314C121.187 100.723 120.905 100.162 120.53 99.6581L116.015 103.016C116.005 103.003 115.997 102.988 115.993 102.972L121.37 101.314ZM121.313 109.595L121.494 102.212L115.869 102.075L115.688 109.458L121.313 109.595ZM121.087 118.849L121.313 109.595L115.688 109.458L115.462 118.711L121.087 118.849ZM121.08 118.807C121.083 118.817 121.085 118.827 121.086 118.835C121.087 118.843 121.087 118.848 121.087 118.849L115.462 118.711C115.447 119.32 115.531 119.911 115.704 120.469L121.08 118.807ZM121.087 124.519L121.204 119.707L115.579 119.57L115.462 124.381L121.087 124.519ZM120.893 124.378C120.903 124.374 120.933 124.369 120.967 124.374C120.996 124.379 121.015 124.389 121.027 124.397C121.039 124.406 121.054 124.421 121.067 124.447C121.083 124.478 121.087 124.508 121.087 124.519L115.462 124.381C115.368 128.218 119.144 130.961 122.764 129.685L120.893 124.378ZM129.611 121.304L120.893 124.378L122.764 129.685L131.482 126.611L129.611 121.304ZM141.09 117.257L129.611 121.304L131.482 126.611L142.961 122.564L141.09 117.257ZM144.735 117.257C143.556 116.841 142.269 116.841 141.09 117.257L142.961 122.564C142.93 122.575 142.896 122.575 142.864 122.564L144.735 117.257ZM156.215 121.304L144.735 117.257L142.864 122.564L154.344 126.611L156.215 121.304ZM164.932 124.378L156.215 121.304L154.344 126.611L163.061 129.685L164.932 124.378ZM164.738 124.519C164.738 124.508 164.742 124.478 164.758 124.447C164.771 124.421 164.787 124.406 164.798 124.397C164.81 124.389 164.829 124.379 164.858 124.374C164.893 124.369 164.922 124.374 164.932 124.378L163.061 129.685C166.681 130.961 170.457 128.218 170.364 124.381L164.738 124.519ZM164.621 119.708L164.738 124.519L170.364 124.381L170.246 119.571L164.621 119.708ZM164.739 118.849C164.739 118.848 164.739 118.843 164.74 118.835C164.741 118.827 164.743 118.817 164.746 118.807L170.121 120.472C170.294 119.913 170.379 119.32 170.364 118.711L164.739 118.849ZM164.512 109.595L164.739 118.849L170.364 118.711L170.138 109.458L164.512 109.595ZM164.332 102.213L164.512 109.595L170.138 109.458L169.957 102.076L164.332 102.213ZM165.3 99.6537C164.924 100.158 164.64 100.721 164.456 101.314L169.833 102.975C169.828 102.99 169.82 103.005 169.81 103.019L165.3 99.6537ZM177.95 82.7003L165.3 99.6537L169.81 103.019L182.46 86.0652L177.95 82.7003ZM178.45 81.1919C178.45 81.7355 178.275 82.2646 177.95 82.7003L182.46 86.0652C183.51 84.6575 184.077 82.9482 184.077 81.1919H178.45ZM178.45 79.2656V81.1919H184.077V79.2656H178.45ZM178.47 79.337C178.464 79.3256 178.459 79.3125 178.455 79.2985C178.451 79.2841 178.45 79.2724 178.45 79.2656H184.077C184.077 78.3252 183.839 77.4344 183.418 76.657L178.47 79.337ZM178.424 77.1432C178.417 77.1409 178.394 77.1313 178.371 77.1107C178.35 77.0925 178.338 77.0744 178.332 77.0612C178.323 77.0418 178.312 76.9998 178.335 76.9433L183.553 79.0507C184.719 76.1625 183.228 72.7044 180.033 71.7512L178.424 77.1432ZM169.562 74.4989L178.424 77.1432L180.033 71.7512L171.171 69.1069L169.562 74.4989ZM157.898 71.0184L169.562 74.4989L171.171 69.1069L159.507 65.6264L157.898 71.0184ZM154.952 68.876C155.661 69.9051 156.701 70.661 157.898 71.0184L159.507 65.6264C159.539 65.6359 159.567 65.656 159.585 65.6833L154.952 68.876ZM148.041 58.8459L154.952 68.876L159.585 65.6833L152.674 55.6532L148.041 58.8459ZM142.793 51.23L148.041 58.8459L152.674 55.6532L147.426 48.0373L142.793 51.23Z" fill="#6053AE" mask="url(#path-18-outside-2_487_6085)"/>
<path d="M140.716 55.2996C141.776 53.7607 144.049 53.7607 145.11 55.2996L150.357 62.9155L157.269 72.9456C157.614 73.4465 158.12 73.8144 158.703 73.9883L167.468 76.6039C169.381 77.1748 171.389 77.3582 173.374 77.1433L178.309 76.6092C179.887 76.4384 181.264 77.6745 181.264 79.2616V81.1879C181.264 82.3379 180.893 83.4571 180.205 84.3788L167.556 101.332C167.198 101.811 167.012 102.396 167.027 102.993L167.325 115.192L167.551 124.446C167.597 126.313 165.759 127.648 163.997 127.027L155.279 123.954L143.8 119.906C143.226 119.704 142.6 119.704 142.026 119.906L130.546 123.954L121.829 127.027C120.067 127.648 118.229 126.313 118.274 124.446L118.501 115.192L118.799 102.991C118.814 102.395 118.628 101.811 118.273 101.333L105.949 84.765C105.265 83.8445 104.895 82.7278 104.895 81.5806V79.2717C104.895 77.681 106.278 76.4438 107.859 76.6203L112.426 77.1302C114.428 77.3537 116.453 77.1721 118.383 76.5964L127.123 73.9883C127.706 73.8144 128.212 73.4465 128.557 72.9456L135.468 62.9155L140.716 55.2996Z" fill="#6A5DBE"/>
<path d="M140.716 49.6297C141.776 48.0908 144.049 48.0908 145.11 49.6297L150.357 57.2455L157.269 67.2757C157.614 67.7766 158.12 68.1445 158.703 68.3184L170.367 71.7989L179.229 74.4432C181.017 74.977 181.719 77.1356 180.586 78.6191L174.968 85.9747L167.574 95.6552C167.205 96.1381 167.012 96.7324 167.027 97.3398L167.325 109.523L167.551 118.776C167.597 120.643 165.759 121.978 163.997 121.357L155.279 118.284L143.8 114.236C143.226 114.034 142.6 114.034 142.026 114.236L130.546 118.284L121.829 121.357C120.067 121.978 118.229 120.643 118.274 118.776L118.501 109.523L118.799 97.3398C118.813 96.7324 118.62 96.1381 118.252 95.6552L110.858 85.9747L105.24 78.6191C104.107 77.1356 104.808 74.977 106.597 74.4432L115.459 71.7989L127.123 68.3184C127.706 68.1445 128.212 67.7766 128.557 67.2757L135.468 57.2455L140.716 49.6297Z" fill="#BAB8F1"/>
<mask id="mask0_487_6085" style="mask-type:alpha" maskUnits="userSpaceOnUse" x="104" y="48" width="78" height="74">
<path d="M140.716 49.6297C141.776 48.0908 144.049 48.0908 145.11 49.6297L150.357 57.2455L157.269 67.2757C157.614 67.7766 158.12 68.1445 158.703 68.3184L170.367 71.7989L179.229 74.4432C181.017 74.977 181.719 77.1356 180.586 78.6191L174.968 85.9747L167.574 95.6552C167.205 96.138 167.012 96.7324 167.027 97.3398L167.325 109.523L167.551 118.776C167.597 120.643 165.759 121.978 163.997 121.357L155.279 118.284L143.8 114.236C143.226 114.034 142.6 114.034 142.026 114.236L130.546 118.284L121.829 121.357C120.067 121.978 118.229 120.643 118.274 118.776L118.501 109.523L118.799 97.3398C118.813 96.7324 118.62 96.1381 118.252 95.6552L110.858 85.9747L105.24 78.6191C104.107 77.1356 104.808 74.977 106.597 74.4432L115.459 71.7989L127.123 68.3184C127.706 68.1445 128.212 67.7766 128.557 67.2757L135.468 57.2455L140.716 49.6297Z" fill="#FDDB18"/>
</mask>
<g mask="url(#mask0_487_6085)">
<path d="M143.195 89.2943L103.061 76.5105L142.985 47.9423L143.195 89.2943Z" fill="white"/>
<path d="M143.079 89.2951L116.567 124.645L103.061 75.622L143.079 89.2951Z" fill="#AB8CE6"/>
<path d="M142.996 89.3787L183.765 74.8719L169.592 125.396L142.996 89.3787Z" fill="#AB8CE6"/>
<path d="M143.079 89.2949L169.258 124.789H116.4L143.079 89.2949Z" fill="#8473D4"/>
</g>
<defs>
<filter id="filter0_i_487_6085" x="217.117" y="0.500977" width="68.2795" height="123.814" filterUnits="userSpaceOnUse" color-interpolation-filters="sRGB">
<feFlood flood-opacity="0" result="BackgroundImageFix"/>
<feBlend mode="normal" in="SourceGraphic" in2="BackgroundImageFix" result="shape"/>
<feColorMatrix in="SourceAlpha" type="matrix" values="0 0 0 0 0 0 0 0 0 0 0 0 0 0 0 0 0 0 127 0" result="hardAlpha"/>
<feOffset dy="7.37109"/>
<feComposite in2="hardAlpha" operator="arithmetic" k2="-1" k3="1"/>
<feColorMatrix type="matrix" values="0 0 0 0 0.898039 0 0 0 0 0.929412 0 0 0 0 1 0 0 0 1 0"/>
<feBlend mode="normal" in2="shape" result="effect1_innerShadow_487_6085"/>
</filter>
<filter id="filter1_i_487_6085" x="217.117" y="114.494" width="37.4219" height="34.4502" filterUnits="userSpaceOnUse" color-interpolation-filters="sRGB">
<feFlood flood-opacity="0" result="BackgroundImageFix"/>
<feBlend mode="normal" in="SourceGraphic" in2="BackgroundImageFix" result="shape"/>
<feColorMatrix in="SourceAlpha" type="matrix" values="0 0 0 0 0 0 0 0 0 0 0 0 0 0 0 0 0 0 127 0" result="hardAlpha"/>
<feOffset dy="7.37109"/>
<feComposite in2="hardAlpha" operator="arithmetic" k2="-1" k3="1"/>
<feColorMatrix type="matrix" values="0 0 0 0 0.898039 0 0 0 0 0.929412 0 0 0 0 1 0 0 0 1 0"/>
<feBlend mode="normal" in2="shape" result="effect1_innerShadow_487_6085"/>
</filter>
<filter id="filter2_i_487_6085" x="221.617" y="5" width="59.2795" height="134.179" filterUnits="userSpaceOnUse" color-interpolation-filters="sRGB">
<feFlood flood-opacity="0" result="BackgroundImageFix"/>
<feBlend mode="normal" in="SourceGraphic" in2="BackgroundImageFix" result="shape"/>
<feColorMatrix in="SourceAlpha" type="matrix" values="0 0 0 0 0 0 0 0 0 0 0 0 0 0 0 0 0 0 127 0" result="hardAlpha"/>
<feOffset dy="6.05482"/>
<feComposite in2="hardAlpha" operator="arithmetic" k2="-1" k3="1"/>
<feColorMatrix type="matrix" values="0 0 0 0 0.843137 0 0 0 0 0.952941 0 0 0 0 1 0 0 0 1 0"/>
<feBlend mode="normal" in2="shape" result="effect1_innerShadow_487_6085"/>
</filter>
<filter id="filter3_i_487_6085" x="0.372559" y="0.500977" width="68.2795" height="123.814" filterUnits="userSpaceOnUse" color-interpolation-filters="sRGB">
<feFlood flood-opacity="0" result="BackgroundImageFix"/>
<feBlend mode="normal" in="SourceGraphic" in2="BackgroundImageFix" result="shape"/>
<feColorMatrix in="SourceAlpha" type="matrix" values="0 0 0 0 0 0 0 0 0 0 0 0 0 0 0 0 0 0 127 0" result="hardAlpha"/>
<feOffset dy="7.37109"/>
<feComposite in2="hardAlpha" operator="arithmetic" k2="-1" k3="1"/>
<feColorMatrix type="matrix" values="0 0 0 0 0.898039 0 0 0 0 0.929412 0 0 0 0 1 0 0 0 1 0"/>
<feBlend mode="normal" in2="shape" result="effect1_innerShadow_487_6085"/>
</filter>
<filter id="filter4_i_487_6085" x="31.2302" y="114.494" width="37.4219" height="34.4502" filterUnits="userSpaceOnUse" color-interpolation-filters="sRGB">
<feFlood flood-opacity="0" result="BackgroundImageFix"/>
<feBlend mode="normal" in="SourceGraphic" in2="BackgroundImageFix" result="shape"/>
<feColorMatrix in="SourceAlpha" type="matrix" values="0 0 0 0 0 0 0 0 0 0 0 0 0 0 0 0 0 0 127 0" result="hardAlpha"/>
<feOffset dy="7.37109"/>
<feComposite in2="hardAlpha" operator="arithmetic" k2="-1" k3="1"/>
<feColorMatrix type="matrix" values="0 0 0 0 0.898039 0 0 0 0 0.929412 0 0 0 0 1 0 0 0 1 0"/>
<feBlend mode="normal" in2="shape" result="effect1_innerShadow_487_6085"/>
</filter>
<filter id="filter5_i_487_6085" x="4.87256" y="5" width="59.2795" height="134.179" filterUnits="userSpaceOnUse" color-interpolation-filters="sRGB">
<feFlood flood-opacity="0" result="BackgroundImageFix"/>
<feBlend mode="normal" in="SourceGraphic" in2="BackgroundImageFix" result="shape"/>
<feColorMatrix in="SourceAlpha" type="matrix" values="0 0 0 0 0 0 0 0 0 0 0 0 0 0 0 0 0 0 127 0" result="hardAlpha"/>
<feOffset dy="6.05482"/>
<feComposite in2="hardAlpha" operator="arithmetic" k2="-1" k3="1"/>
<feColorMatrix type="matrix" values="0 0 0 0 0.843137 0 0 0 0 0.952941 0 0 0 0 1 0 0 0 1 0"/>
<feBlend mode="normal" in2="shape" result="effect1_innerShadow_487_6085"/>
</filter>
<filter id="filter6_ii_487_6085" x="71.5139" y="7.00391" width="142.262" height="160.485" filterUnits="userSpaceOnUse" color-interpolation-filters="sRGB">
<feFlood flood-opacity="0" result="BackgroundImageFix"/>
<feBlend mode="normal" in="SourceGraphic" in2="BackgroundImageFix" result="shape"/>
<feColorMatrix in="SourceAlpha" type="matrix" values="0 0 0 0 0 0 0 0 0 0 0 0 0 0 0 0 0 0 127 0" result="hardAlpha"/>
<feOffset dy="10.4853"/>
<feComposite in2="hardAlpha" operator="arithmetic" k2="-1" k3="1"/>
<feColorMatrix type="matrix" values="0 0 0 0 0.842535 0 0 0 0 0.958333 0 0 0 0 0.937279 0 0 0 1 0"/>
<feBlend mode="normal" in2="shape" result="effect1_innerShadow_487_6085"/>
<feColorMatrix in="SourceAlpha" type="matrix" values="0 0 0 0 0 0 0 0 0 0 0 0 0 0 0 0 0 0 127 0" result="hardAlpha"/>
<feOffset dy="-40.1937"/>
<feComposite in2="hardAlpha" operator="arithmetic" k2="-1" k3="1"/>
<feColorMatrix type="matrix" values="0 0 0 0 0.705882 0 0 0 0 0.662745 0 0 0 0 0.980392 0 0 0 1 0"/>
<feBlend mode="normal" in2="effect1_innerShadow_487_6085" result="effect2_innerShadow_487_6085"/>
</filter>
<filter id="filter7_i_487_6085" x="92.0679" y="33.8555" width="101.681" height="113.626" filterUnits="userSpaceOnUse" color-interpolation-filters="sRGB">
<feFlood flood-opacity="0" result="BackgroundImageFix"/>
<feBlend mode="normal" in="SourceGraphic" in2="BackgroundImageFix" result="shape"/>
<feColorMatrix in="SourceAlpha" type="matrix" values="0 0 0 0 0 0 0 0 0 0 0 0 0 0 0 0 0 0 127 0" result="hardAlpha"/>
<feOffset dy="5.26506"/>
<feComposite in2="hardAlpha" operator="arithmetic" k2="-1" k3="1"/>
<feColorMatrix type="matrix" values="0 0 0 0 0.34902 0 0 0 0 0.278431 0 0 0 0 0.639216 0 0 0 1 0"/>
<feBlend mode="normal" in2="shape" result="effect1_innerShadow_487_6085"/>
</filter>
<linearGradient id="paint0_linear_487_6085" x1="251.257" y1="5" x2="251.257" y2="119.817" gradientUnits="userSpaceOnUse">
<stop stop-color="#CCE6D7"/>
<stop offset="1" stop-color="#B4A9FA"/>
</linearGradient>
<linearGradient id="paint1_linear_487_6085" x1="235.434" y1="118.992" x2="235.434" y2="144.444" gradientUnits="userSpaceOnUse">
<stop stop-color="#CCE6D7"/>
<stop offset="1" stop-color="#B4A9FA"/>
</linearGradient>
<linearGradient id="paint2_linear_487_6085" x1="251.257" y1="5" x2="251.257" y2="139.178" gradientUnits="userSpaceOnUse">
<stop stop-color="#CCE6D7"/>
<stop offset="1" stop-color="#B4A9FA"/>
</linearGradient>
<linearGradient id="paint3_linear_487_6085" x1="251.257" y1="5" x2="251.257" y2="139.178" gradientUnits="userSpaceOnUse">
<stop stop-color="#CCE6D7"/>
<stop offset="1" stop-color="#B4A9FA"/>
</linearGradient>
<linearGradient id="paint4_linear_487_6085" x1="251.257" y1="5" x2="251.257" y2="139.178" gradientUnits="userSpaceOnUse">
<stop stop-color="#CCE6D7"/>
<stop offset="1" stop-color="#B4A9FA"/>
</linearGradient>
<linearGradient id="paint5_linear_487_6085" x1="34.5124" y1="5" x2="34.5124" y2="119.817" gradientUnits="userSpaceOnUse">
<stop stop-color="#CCE6D7"/>
<stop offset="1" stop-color="#B4A9FA"/>
</linearGradient>
<linearGradient id="paint6_linear_487_6085" x1="50.3357" y1="118.992" x2="50.3357" y2="144.444" gradientUnits="userSpaceOnUse">
<stop stop-color="#CCE6D7"/>
<stop offset="1" stop-color="#B4A9FA"/>
</linearGradient>
<linearGradient id="paint7_linear_487_6085" x1="34.5124" y1="5" x2="34.5124" y2="139.178" gradientUnits="userSpaceOnUse">
<stop stop-color="#CCE6D7"/>
<stop offset="1" stop-color="#B4A9FA"/>
</linearGradient>
<linearGradient id="paint8_linear_487_6085" x1="34.5124" y1="5" x2="34.5124" y2="139.178" gradientUnits="userSpaceOnUse">
<stop stop-color="#CCE6D7"/>
<stop offset="1" stop-color="#B4A9FA"/>
</linearGradient>
<linearGradient id="paint9_linear_487_6085" x1="34.5124" y1="5" x2="34.5124" y2="139.178" gradientUnits="userSpaceOnUse">
<stop stop-color="#CCE6D7"/>
<stop offset="1" stop-color="#B4A9FA"/>
</linearGradient>
<linearGradient id="paint10_linear_487_6085" x1="173.873" y1="-40" x2="154.74" y2="227.345" gradientUnits="userSpaceOnUse">
<stop stop-color="#D8E3E8"/>
<stop offset="1" stop-color="#B4A9FA"/>
</linearGradient>
</defs>
</svg>
