<svg width="286" height="221" viewBox="0 0 286 221" fill="none" xmlns="http://www.w3.org/2000/svg">
<g filter="url(#filter0_i_631_13756)">
<path fill-rule="evenodd" clip-rule="evenodd" d="M223.221 77.0788L276.325 36.6735C278.315 35.1595 281.468 36.3638 281.468 38.6377V47.3252V71.2961V79.9836C281.468 89.7521 274.729 98.6064 264.265 102.584L226.534 116.929C224.492 117.705 222.189 116.431 222.189 114.525V105.837V87.7305V79.043C222.189 78.2928 222.564 77.5783 223.221 77.0788ZM223.997 121.958L259.503 108.167C261.547 107.373 263.87 108.648 263.87 110.563V119.251V124.402V133.089C263.87 142.044 255.653 149.435 245.165 149.913L225.441 150.813C223.674 150.893 222.189 149.693 222.189 148.184V139.496V133.041V124.353C222.189 123.322 222.896 122.385 223.997 121.958Z" fill="url(#paint0_linear_631_13756)"/>
</g>
<path d="M276.325 36.6735L273.6 33.0922V33.0923L276.325 36.6735ZM223.221 77.0788L220.496 73.4976H220.496L223.221 77.0788ZM264.265 102.584L262.666 98.3782L264.265 102.584ZM226.534 116.929L228.133 121.135H228.133L226.534 116.929ZM259.503 108.167L261.132 112.362H261.132L259.503 108.167ZM223.997 121.958L222.367 117.763H222.367L223.997 121.958ZM245.165 149.913L245.371 154.408H245.371L245.165 149.913ZM225.441 150.813L225.236 146.317H225.236L225.441 150.813ZM273.6 33.0923L220.496 73.4976L225.946 80.6601L279.05 40.2547L273.6 33.0923ZM285.968 38.6377C285.968 35.1447 283.521 32.8991 281.249 32.0313C278.963 31.1586 276 31.2667 273.6 33.0922L279.05 40.2547C278.641 40.5664 278.249 40.5196 278.038 40.439C277.905 40.3885 277.665 40.2632 277.429 39.9671C277.167 39.6395 276.968 39.1652 276.968 38.6377H285.968ZM285.968 47.3252V38.6377H276.968V47.3252H285.968ZM285.968 71.2961V47.3252H276.968V71.2961H285.968ZM285.968 79.9836V71.2961H276.968V79.9836H285.968ZM265.864 106.791C277.744 102.274 285.968 91.9503 285.968 79.9836H276.968C276.968 87.5538 271.713 94.9386 262.666 98.3782L265.864 106.791ZM228.133 121.135L265.864 106.791L262.666 98.3782L224.935 112.723L228.133 121.135ZM217.689 114.525C217.689 117.453 219.476 119.596 221.417 120.67C223.357 121.744 225.823 122.014 228.133 121.135L224.935 112.723C225.203 112.621 225.496 112.642 225.774 112.796C226.054 112.95 226.689 113.503 226.689 114.525H217.689ZM217.689 105.837V114.525H226.689V105.837H217.689ZM217.689 87.7305V105.837H226.689V87.7305H217.689ZM217.689 79.043V87.7305H226.689V79.043H217.689ZM220.496 73.4976C218.849 74.7505 217.689 76.7337 217.689 79.043H226.689C226.689 79.8519 226.279 80.406 225.946 80.6601L220.496 73.4976ZM257.873 103.973L222.367 117.763L225.626 126.152L261.132 112.362L257.873 103.973ZM268.37 110.563C268.37 107.621 266.567 105.474 264.617 104.404C262.667 103.334 260.189 103.073 257.873 103.973L261.132 112.362C260.86 112.467 260.566 112.447 260.289 112.295C260.011 112.142 259.37 111.59 259.37 110.563H268.37ZM268.37 119.251V110.563H259.37V119.251H268.37ZM268.37 124.402V119.251H259.37V124.402H268.37ZM268.37 133.089V124.402H259.37V133.089H268.37ZM245.371 154.408C257.61 153.85 268.37 145.052 268.37 133.089H259.37C259.37 139.036 253.697 145.019 244.96 145.418L245.371 154.408ZM225.646 155.308L245.371 154.408L244.96 145.418L225.236 146.317L225.646 155.308ZM217.689 148.184C217.689 152.949 222.062 155.472 225.646 155.308L225.236 146.317C225.414 146.309 225.689 146.359 225.981 146.595C226.282 146.838 226.689 147.382 226.689 148.184H217.689ZM217.689 139.496V148.184H226.689V139.496H217.689ZM217.689 133.041V139.496H226.689V133.041H217.689ZM217.689 124.353V133.041H226.689V124.353H217.689ZM222.367 117.763C219.86 118.737 217.689 121.141 217.689 124.353H226.689C226.689 125.503 225.932 126.033 225.626 126.152L222.367 117.763Z" fill="#6053A7"/>
<g filter="url(#filter1_i_631_13756)">
<path fill-rule="evenodd" clip-rule="evenodd" d="M246.024 150.003L225.294 151.524C223.538 151.653 222.189 152.906 222.189 154.409V159.653C222.189 159.66 222.189 159.667 222.189 159.674V172.548C222.189 174.148 223.71 175.444 225.585 175.444H232.932C239.583 175.444 246.028 171.561 247.815 166.099L249.822 152.541C249.778 152.545 249.735 152.549 249.692 152.553C249.49 151.064 247.927 149.864 246.024 150.003Z" fill="url(#paint1_linear_631_13756)"/>
</g>
<path d="M225.294 151.524L224.965 147.036H224.965L225.294 151.524ZM246.024 150.003L246.354 154.491L246.024 150.003ZM222.189 159.653L226.689 159.69L226.689 159.672V159.653H222.189ZM247.815 166.099L252.092 167.498L252.211 167.135L252.267 166.757L247.815 166.099ZM249.822 152.541L254.274 153.2L255.111 147.542L249.415 148.059L249.822 152.541ZM249.692 152.553L245.233 153.159L245.816 157.45L250.127 157.032L249.692 152.553ZM249.822 152.541L254.274 153.2L255.111 147.542L249.415 148.059L249.822 152.541ZM225.624 156.012L246.354 154.491L245.695 145.515L224.965 147.036L225.624 156.012ZM226.689 154.409C226.689 155.063 226.386 155.525 226.146 155.748C225.916 155.962 225.713 156.005 225.624 156.012L224.965 147.036C221.48 147.291 217.689 149.972 217.689 154.409H226.689ZM226.689 159.653V154.409H217.689V159.653H226.689ZM217.689 159.615C217.689 159.635 217.689 159.654 217.689 159.674H226.689C226.689 159.679 226.689 159.685 226.689 159.69L217.689 159.615ZM217.689 159.674V172.548H226.689V159.674H217.689ZM217.689 172.548C217.689 177.279 221.924 179.944 225.585 179.944V170.944C225.673 170.944 225.871 170.973 226.104 171.172C226.346 171.378 226.689 171.85 226.689 172.548H217.689ZM225.585 179.944H232.932V170.944H225.585V179.944ZM232.932 179.944C240.968 179.944 249.541 175.292 252.092 167.498L243.538 164.699C242.514 167.829 238.197 170.944 232.932 170.944V179.944ZM252.267 166.757L254.274 153.2L245.371 151.882L243.364 165.44L252.267 166.757ZM249.415 148.059C249.362 148.064 249.31 148.069 249.258 148.074L250.127 157.032C250.16 157.029 250.195 157.026 250.229 157.023L249.415 148.059ZM246.354 154.491C246.273 154.497 246.091 154.48 245.874 154.325C245.672 154.18 245.322 153.813 245.233 153.159L254.151 151.948C253.565 147.634 249.467 145.239 245.695 145.515L246.354 154.491ZM250.127 157.032C250.16 157.029 250.195 157.026 250.229 157.022L249.415 148.059C249.362 148.064 249.31 148.069 249.258 148.074L250.127 157.032ZM245.371 151.882L243.364 165.44L252.267 166.757L254.274 153.2L245.371 151.882Z" fill="#6053A7"/>
<path d="M276.325 45.361L223.221 85.7663C222.564 86.2658 222.189 86.9803 222.189 87.7305V114.525C222.189 116.431 224.492 117.706 226.534 116.929L264.265 102.584C274.729 98.6064 281.468 89.7521 281.468 79.9836V47.3252C281.468 45.0513 278.315 43.847 276.325 45.361Z" fill="#8473D4"/>
<path d="M259.503 113.169L223.997 126.96C222.896 127.387 222.189 128.324 222.189 129.355V144.498C222.189 146.008 223.674 148.524 225.441 148.443L245.165 147.544C255.653 147.066 263.87 138.359 263.87 129.403V115.565C263.87 113.65 261.547 112.375 259.503 113.169Z" fill="#8473D4"/>
<path d="M242.258 154.515L225.294 156.788C223.538 156.917 222.189 158.17 222.189 159.673V172.548C222.189 174.147 223.71 175.444 225.585 175.444H232.932C239.582 175.444 246.027 171.56 247.815 166.098L249.822 152.541C245.474 152.935 244.619 154.342 242.258 154.515Z" fill="#8473D4"/>
<path d="M276.325 45.361L223.221 85.7663C222.564 86.2658 222.189 86.9803 222.189 87.7305V114.525C222.189 116.431 224.492 117.706 226.534 116.929L264.265 102.584C274.729 98.6064 281.468 89.7521 281.468 79.9836V47.3252C281.468 45.0513 278.315 43.847 276.325 45.361Z" stroke="black"/>
<path d="M259.503 113.169L223.997 126.96C222.896 127.387 222.189 128.324 222.189 129.355V144.498C222.189 146.008 223.674 148.524 225.441 148.443L245.165 147.544C255.653 147.066 263.87 138.359 263.87 129.403V115.565C263.87 113.65 261.547 112.375 259.503 113.169Z" stroke="black"/>
<path d="M242.258 154.515L225.294 156.788C223.538 156.917 222.189 158.17 222.189 159.673V172.548C222.189 174.147 223.71 175.444 225.585 175.444H232.932C239.582 175.444 246.027 171.56 247.815 166.098L249.822 152.541C245.474 152.935 244.619 154.342 242.258 154.515Z" stroke="black"/>
<g filter="url(#filter2_i_631_13756)">
<path d="M276.326 36.6735L223.221 77.0788C222.565 77.5783 222.189 78.2928 222.189 79.043V105.837C222.189 107.744 224.492 109.018 226.534 108.242L264.265 93.897C274.729 89.9189 281.469 81.0646 281.469 71.2961V38.6377C281.469 36.3638 278.315 35.1595 276.326 36.6735Z" fill="url(#paint2_linear_631_13756)"/>
<path d="M259.503 108.167L223.997 121.958C222.896 122.385 222.189 123.322 222.189 124.353V139.496C222.189 141.006 223.674 142.206 225.442 142.125L245.166 141.226C255.654 140.747 263.87 133.357 263.87 124.402V110.563C263.87 108.648 261.547 107.373 259.503 108.167Z" fill="url(#paint3_linear_631_13756)"/>
<path d="M246.024 150.002L225.294 151.523C223.538 151.652 222.189 152.905 222.189 154.408V167.283C222.189 168.882 223.71 170.178 225.585 170.178H232.932C239.583 170.178 245.419 166.401 247.206 160.939L249.587 153.666C250.224 151.719 248.386 149.829 246.024 150.002Z" fill="url(#paint4_linear_631_13756)"/>
<path d="M276.326 36.6735L223.221 77.0788C222.565 77.5783 222.189 78.2928 222.189 79.043V105.837C222.189 107.744 224.492 109.018 226.534 108.242L264.265 93.897C274.729 89.9189 281.469 81.0646 281.469 71.2961V38.6377C281.469 36.3638 278.315 35.1595 276.326 36.6735Z" stroke="black"/>
<path d="M259.503 108.167L223.997 121.958C222.896 122.385 222.189 123.322 222.189 124.353V139.496C222.189 141.006 223.674 142.206 225.442 142.125L245.166 141.226C255.654 140.747 263.87 133.357 263.87 124.402V110.563C263.87 108.648 261.547 107.373 259.503 108.167Z" stroke="black"/>
<path d="M246.024 150.002L225.294 151.523C223.538 151.652 222.189 152.905 222.189 154.408V167.283C222.189 168.882 223.71 170.178 225.585 170.178H232.932C239.583 170.178 245.419 166.401 247.206 160.939L249.587 153.666C250.224 151.719 248.386 149.829 246.024 150.002Z" stroke="black"/>
</g>
<g filter="url(#filter3_i_631_13756)">
<path fill-rule="evenodd" clip-rule="evenodd" d="M63.6921 77.0788L10.5875 36.6735C8.59772 35.1595 5.44439 36.3638 5.44439 38.6377V47.3252V71.2961V79.9836C5.44439 89.7521 12.1842 98.6064 22.6478 102.584L60.3791 116.929C62.4212 117.705 64.7239 116.431 64.7239 114.525V105.837V87.7305V79.043C64.7239 78.2928 64.3485 77.5783 63.6921 77.0788ZM62.9163 121.958L27.4103 108.167C25.3659 107.373 23.043 108.648 23.043 110.563V119.251V124.402V133.089C23.043 142.044 31.2594 149.435 41.7474 149.913L61.4715 150.813C63.2389 150.893 64.7239 149.693 64.7239 148.184V139.496V133.041V124.353C64.7239 123.322 64.0173 122.385 62.9163 121.958Z" fill="url(#paint5_linear_631_13756)"/>
</g>
<path d="M10.5875 36.6735L13.3124 33.0922V33.0923L10.5875 36.6735ZM63.6921 77.0788L66.4169 73.4976H66.4169L63.6921 77.0788ZM22.6478 102.584L24.247 98.3782L22.6478 102.584ZM60.3791 116.929L58.7799 121.135H58.7799L60.3791 116.929ZM27.4103 108.167L25.7811 112.362H25.7811L27.4103 108.167ZM62.9163 121.958L64.5455 117.763H64.5455L62.9163 121.958ZM41.7474 149.913L41.5423 154.408H41.5423L41.7474 149.913ZM61.4715 150.813L61.6765 146.317H61.6765L61.4715 150.813ZM13.3124 33.0923L66.4169 73.4976L60.9672 80.6601L7.86269 40.2547L13.3124 33.0923ZM0.944389 38.6377C0.944389 35.1447 3.39196 32.8991 5.6643 32.0313C7.94944 31.1586 10.913 31.2667 13.3124 33.0922L7.86269 40.2547C8.27225 40.5664 8.66424 40.5196 8.87526 40.439C9.00761 40.3885 9.24765 40.2632 9.48416 39.9671C9.74587 39.6395 9.94439 39.1652 9.94439 38.6377H0.944389ZM0.944389 47.3252V38.6377H9.94439V47.3252H0.944389ZM0.944389 71.2961V47.3252H9.94439V71.2961H0.944389ZM0.944389 79.9836V71.2961H9.94439V79.9836H0.944389ZM21.0487 106.791C9.16872 102.274 0.944389 91.9503 0.944389 79.9836H9.94439C9.94439 87.5538 15.1996 94.9386 24.247 98.3782L21.0487 106.791ZM58.7799 121.135L21.0487 106.791L24.247 98.3782L61.9782 112.723L58.7799 121.135ZM69.2239 114.525C69.2239 117.453 67.4371 119.596 65.4961 120.67C63.556 121.744 61.0902 122.014 58.7799 121.135L61.9782 112.723C61.71 112.621 61.4166 112.642 61.1384 112.796C60.8593 112.95 60.2239 113.503 60.2239 114.525H69.2239ZM69.2239 105.837V114.525H60.2239V105.837H69.2239ZM69.2239 87.7305V105.837H60.2239V87.7305H69.2239ZM69.2239 79.043V87.7305H60.2239V79.043H69.2239ZM66.4169 73.4976C68.0637 74.7505 69.2239 76.7337 69.2239 79.043H60.2239C60.2239 79.8519 60.6334 80.406 60.9672 80.6601L66.4169 73.4976ZM29.0395 103.973L64.5455 117.763L61.2871 126.152L25.7811 112.362L29.0395 103.973ZM18.543 110.563C18.543 107.621 20.3454 105.474 22.2958 104.404C24.2455 103.334 26.7237 103.073 29.0395 103.973L25.7811 112.362C26.0525 112.467 26.347 112.447 26.6242 112.295C26.902 112.142 27.543 111.59 27.543 110.563H18.543ZM18.543 119.251V110.563H27.543V119.251H18.543ZM18.543 124.402V119.251H27.543V124.402H18.543ZM18.543 133.089V124.402H27.543V133.089H18.543ZM41.5423 154.408C29.3028 153.85 18.543 145.052 18.543 133.089H27.543C27.543 139.036 33.2161 145.019 41.9524 145.418L41.5423 154.408ZM61.2665 155.308L41.5423 154.408L41.9524 145.418L61.6765 146.317L61.2665 155.308ZM69.2239 148.184C69.2239 152.949 64.8505 155.472 61.2665 155.308L61.6765 146.317C61.4987 146.309 61.2238 146.359 60.9318 146.595C60.6303 146.838 60.2239 147.382 60.2239 148.184H69.2239ZM69.2239 139.496V148.184H60.2239V139.496H69.2239ZM69.2239 133.041V139.496H60.2239V133.041H69.2239ZM69.2239 124.353V133.041H60.2239V124.353H69.2239ZM64.5455 117.763C67.0533 118.737 69.2239 121.141 69.2239 124.353H60.2239C60.2239 125.503 60.9812 126.033 61.2871 126.152L64.5455 117.763Z" fill="#6053A7"/>
<g filter="url(#filter4_i_631_13756)">
<path fill-rule="evenodd" clip-rule="evenodd" d="M40.8887 150.003L61.6187 151.524C63.3751 151.653 64.7239 152.906 64.7239 154.409V159.666C64.7239 159.669 64.7239 159.671 64.7239 159.674V172.548C64.7239 174.148 63.2033 175.444 61.3277 175.444H53.9811C47.3304 175.444 40.8854 171.561 39.0979 166.099L37.091 152.541C37.1347 152.545 37.1781 152.549 37.2211 152.553C37.4234 151.064 38.9862 149.864 40.8887 150.003Z" fill="url(#paint6_linear_631_13756)"/>
</g>
<path d="M61.6187 151.524L61.9479 147.036H61.9479L61.6187 151.524ZM40.8887 150.003L40.5596 154.491L40.8887 150.003ZM64.7239 159.666L60.2239 159.68V159.666H64.7239ZM39.0979 166.099L34.8211 167.498L34.7023 167.135L34.6464 166.757L39.0979 166.099ZM37.091 152.541L32.6395 153.2L31.802 147.542L37.498 148.059L37.091 152.541ZM37.2211 152.553L41.6802 153.159L41.0974 157.45L36.7866 157.032L37.2211 152.553ZM37.0911 152.541L32.645 153.235L31.7551 147.538L37.4982 148.059L37.0911 152.541ZM61.2895 156.012L40.5596 154.491L41.2179 145.515L61.9479 147.036L61.2895 156.012ZM60.2239 154.409C60.2239 155.063 60.527 155.525 60.7669 155.748C60.9974 155.962 61.2003 156.005 61.2895 156.012L61.9479 147.036C65.4335 147.291 69.2239 149.972 69.2239 154.409H60.2239ZM60.2239 159.666V154.409H69.2239V159.666H60.2239ZM69.2238 159.652C69.2239 159.659 69.2239 159.666 69.2239 159.674H60.2239C60.2239 159.676 60.2239 159.678 60.2239 159.68L69.2238 159.652ZM69.2239 159.674V172.548H60.2239V159.674H69.2239ZM69.2239 172.548C69.2239 177.279 64.9892 179.944 61.3277 179.944V170.944C61.2398 170.944 61.0424 170.973 60.8095 171.172C60.5669 171.378 60.2239 171.85 60.2239 172.548H69.2239ZM61.3277 179.944H53.9811V170.944H61.3277V179.944ZM53.9811 179.944C45.9446 179.944 37.3717 175.292 34.8211 167.498L43.3746 164.699C44.3992 167.829 48.7162 170.944 53.9811 170.944V179.944ZM34.6464 166.757L32.6395 153.2L41.5425 151.882L43.5493 165.44L34.6464 166.757ZM37.498 148.059C37.5509 148.064 37.6034 148.069 37.6556 148.074L36.7866 157.032C36.7528 157.029 36.7185 157.026 36.6839 157.023L37.498 148.059ZM40.5596 154.491C40.6405 154.497 40.822 154.48 41.0393 154.325C41.241 154.18 41.5914 153.813 41.6802 153.159L32.762 151.948C33.3478 147.634 37.4464 145.239 41.2179 145.515L40.5596 154.491ZM36.7866 157.032C36.7528 157.029 36.7186 157.026 36.6841 157.022L37.4982 148.059C37.551 148.064 37.6034 148.069 37.6556 148.074L36.7866 157.032ZM41.5372 151.847L41.5372 151.847L32.645 153.235L32.645 153.235L41.5372 151.847Z" fill="#6053A7"/>
<path d="M10.5875 45.361L63.6921 85.7663C64.3485 86.2658 64.7239 86.9803 64.7239 87.7305V114.525C64.7239 116.431 62.4212 117.706 60.3791 116.929L22.6478 102.584C12.1842 98.6064 5.44439 89.7521 5.44439 79.9836V47.3252C5.44439 45.0513 8.59772 43.847 10.5875 45.361Z" fill="#8473D4"/>
<path d="M27.4103 113.169L62.9163 126.96C64.0173 127.387 64.7239 128.324 64.7239 129.355V144.498C64.7239 146.008 63.2389 148.524 61.4715 148.443L41.7474 147.544C31.2594 147.066 23.043 138.359 23.043 129.403V115.565C23.043 113.65 25.3659 112.375 27.4103 113.169Z" fill="#8473D4"/>
<path d="M44.6553 154.515L61.6187 156.788C63.3751 156.917 64.7239 158.17 64.7239 159.673V172.548C64.7239 174.147 63.2033 175.444 61.3277 175.444H53.9811C47.3304 175.444 40.8854 171.56 39.0978 166.098L37.091 152.541C41.4386 152.935 42.294 154.342 44.6553 154.515Z" fill="#8473D4"/>
<path d="M10.5875 45.361L63.6921 85.7663C64.3485 86.2658 64.7239 86.9803 64.7239 87.7305V114.525C64.7239 116.431 62.4212 117.706 60.3791 116.929L22.6478 102.584C12.1842 98.6064 5.44439 89.7521 5.44439 79.9836V47.3252C5.44439 45.0513 8.59772 43.847 10.5875 45.361Z" stroke="black"/>
<path d="M27.4103 113.169L62.9163 126.96C64.0173 127.387 64.7239 128.324 64.7239 129.355V144.498C64.7239 146.008 63.2389 148.524 61.4715 148.443L41.7474 147.544C31.2594 147.066 23.043 138.359 23.043 129.403V115.565C23.043 113.65 25.3659 112.375 27.4103 113.169Z" stroke="black"/>
<path d="M44.6553 154.515L61.6187 156.788C63.3751 156.917 64.7239 158.17 64.7239 159.673V172.548C64.7239 174.147 63.2033 175.444 61.3277 175.444H53.9811C47.3304 175.444 40.8854 171.56 39.0978 166.098L37.091 152.541C41.4386 152.935 42.294 154.342 44.6553 154.515Z" stroke="black"/>
<g filter="url(#filter5_i_631_13756)">
<path d="M10.5875 36.6735L63.6921 77.0788C64.3485 77.5783 64.7239 78.2928 64.7239 79.043V105.837C64.7239 107.744 62.4212 109.018 60.3791 108.242L22.6478 93.897C12.1842 89.9189 5.44439 81.0646 5.44439 71.2961V38.6377C5.44439 36.3638 8.59772 35.1595 10.5875 36.6735Z" fill="url(#paint7_linear_631_13756)"/>
<path d="M27.4103 108.167L62.9163 121.958C64.0173 122.385 64.7239 123.322 64.7239 124.353V139.496C64.7239 141.006 63.2389 142.206 61.4715 142.125L41.7474 141.226C31.2594 140.747 23.043 133.357 23.043 124.402V110.563C23.043 108.648 25.3659 107.373 27.4103 108.167Z" fill="url(#paint8_linear_631_13756)"/>
<path d="M40.8888 150.002L61.6187 151.523C63.3751 151.652 64.7239 152.905 64.7239 154.408V167.283C64.7239 168.882 63.2033 170.178 61.3277 170.178H53.9811C47.3304 170.178 41.4942 166.401 39.7066 160.939L37.3264 153.666C36.6894 151.719 38.5274 149.829 40.8888 150.002Z" fill="url(#paint9_linear_631_13756)"/>
<path d="M10.5875 36.6735L63.6921 77.0788C64.3485 77.5783 64.7239 78.2928 64.7239 79.043V105.837C64.7239 107.744 62.4212 109.018 60.3791 108.242L22.6478 93.897C12.1842 89.9189 5.44439 81.0646 5.44439 71.2961V38.6377C5.44439 36.3638 8.59772 35.1595 10.5875 36.6735Z" stroke="black"/>
<path d="M27.4103 108.167L62.9163 121.958C64.0173 122.385 64.7239 123.322 64.7239 124.353V139.496C64.7239 141.006 63.2389 142.206 61.4715 142.125L41.7474 141.226C31.2594 140.747 23.043 133.357 23.043 124.402V110.563C23.043 108.648 25.3659 107.373 27.4103 108.167Z" stroke="black"/>
<path d="M40.8888 150.002L61.6187 151.523C63.3751 151.652 64.7239 152.905 64.7239 154.408V167.283C64.7239 168.882 63.2033 170.178 61.3277 170.178H53.9811C47.3304 170.178 41.4942 166.401 39.7066 160.939L37.3264 153.666C36.6894 151.719 38.5274 149.829 40.8888 150.002Z" stroke="black"/>
</g>
<mask id="path-13-outside-1_631_13756" maskUnits="userSpaceOnUse" x="64.5276" y="33.0137" width="158" height="187" fill="black">
<rect fill="white" x="64.5276" y="33.0137" width="158" height="187"/>
<path d="M137.23 39.6574C141.108 37.4587 145.858 37.4662 149.729 39.6773L210.571 74.4276C214.498 76.6705 216.926 80.841 216.94 85.3633L217.17 164.452C217.183 168.863 214.896 172.961 211.135 175.265L150.085 212.66C146.035 215.141 140.935 215.141 136.885 212.66L75.7941 175.239C72.0555 172.949 69.7711 168.885 69.7583 164.501L69.5276 85.4395C69.5143 80.8765 71.9621 76.6607 75.9316 74.4102L137.23 39.6574Z"/>
</mask>
<path d="M137.23 39.6574C141.108 37.4587 145.858 37.4662 149.729 39.6773L210.571 74.4276C214.498 76.6705 216.926 80.841 216.94 85.3633L217.17 164.452C217.183 168.863 214.896 172.961 211.135 175.265L150.085 212.66C146.035 215.141 140.935 215.141 136.885 212.66L75.7941 175.239C72.0555 172.949 69.7711 168.885 69.7583 164.501L69.5276 85.4395C69.5143 80.8765 71.9621 76.6607 75.9316 74.4102L137.23 39.6574Z" fill="#8473D4"/>
<path d="M69.5276 85.4395L64.5277 85.4541L69.5276 85.4395ZM75.7941 175.239L73.1824 179.503L75.7941 175.239ZM69.7583 164.501L74.7583 164.486L69.7583 164.501ZM136.885 212.66L139.496 208.396L136.885 212.66ZM217.17 164.452L222.17 164.438L217.17 164.452ZM210.571 74.4276L213.05 70.0859L210.571 74.4276ZM149.729 39.6773L147.249 44.019L149.729 39.6773ZM147.249 44.019L208.091 78.7693L213.05 70.0859L152.209 35.3356L147.249 44.019ZM211.94 85.3779L212.17 164.467L222.17 164.438L221.94 85.3487L211.94 85.3779ZM208.523 171.001L147.474 208.396L152.697 216.923L213.746 179.528L208.523 171.001ZM139.496 208.396L78.4057 170.976L73.1824 179.503L134.273 216.923L139.496 208.396ZM74.7583 164.486L74.5276 85.4249L64.5277 85.4541L64.7583 164.515L74.7583 164.486ZM78.3976 78.7598L139.696 44.007L134.764 35.3078L73.4656 70.0606L78.3976 78.7598ZM74.5276 85.4249C74.5196 82.6674 75.9988 80.1198 78.3976 78.7598L73.4656 70.0606C67.9255 73.2016 64.5091 79.0855 64.5277 85.4541L74.5276 85.4249ZM78.4057 170.976C76.1465 169.592 74.766 167.136 74.7583 164.486L64.7583 164.515C64.7762 170.634 67.9645 176.307 73.1824 179.503L78.4057 170.976ZM147.474 208.396C145.026 209.895 141.944 209.895 139.496 208.396L134.273 216.923C139.926 220.386 147.044 220.386 152.697 216.923L147.474 208.396ZM212.17 164.467C212.178 167.132 210.796 169.609 208.523 171.001L213.746 179.528C218.995 176.313 222.188 170.593 222.17 164.438L212.17 164.467ZM208.091 78.7693C210.464 80.1247 211.932 82.645 211.94 85.3779L221.94 85.3487C221.921 79.037 218.531 73.2163 213.05 70.0859L208.091 78.7693ZM152.209 35.3356C146.806 32.2496 140.176 32.2391 134.764 35.3078L139.696 44.007C142.039 42.6783 144.91 42.6829 147.249 44.019L152.209 35.3356Z" fill="#6053A7" mask="url(#path-13-outside-1_631_13756)"/>
<g filter="url(#filter6_ii_631_13756)">
<path d="M137.1 39.6427C140.885 37.4575 145.548 37.4575 149.333 39.6427L208.231 73.6475C212.016 75.8327 214.348 79.8711 214.348 84.2415V152.251C214.348 156.622 212.016 160.66 208.231 162.845L149.333 196.85C145.548 199.035 140.885 199.035 137.1 196.85L78.2022 162.845C74.4174 160.66 72.0858 156.622 72.0858 152.251V84.2415C72.0858 79.8711 74.4174 75.8327 78.2022 73.6475L137.1 39.6427Z" fill="#6C65B8"/>
<path d="M137.1 39.6427C140.885 37.4575 145.548 37.4575 149.333 39.6427L208.231 73.6475C212.016 75.8327 214.348 79.8711 214.348 84.2415V152.251C214.348 156.622 212.016 160.66 208.231 162.845L149.333 196.85C145.548 199.035 140.885 199.035 137.1 196.85L78.2022 162.845C74.4174 160.66 72.0858 156.622 72.0858 152.251V84.2415C72.0858 79.8711 74.4174 75.8327 78.2022 73.6475L137.1 39.6427Z" fill="url(#paint10_linear_631_13756)"/>
</g>
<g filter="url(#filter7_i_631_13756)">
<path d="M137.364 66.4942C141.149 64.309 145.812 64.309 149.597 66.4942L188.204 88.7843C191.989 90.9695 194.321 95.0079 194.321 99.3783V143.958C194.321 148.329 191.989 152.367 188.204 154.552L149.597 176.842C145.812 179.028 141.149 179.028 137.364 176.842L98.7561 154.552C94.9713 152.367 92.6397 148.329 92.6397 143.958V99.3783C92.6397 95.0079 94.9713 90.9695 98.7561 88.7843L137.364 66.4942Z" fill="#7A7FD9"/>
</g>
<ellipse cx="132.394" cy="53.8427" rx="9.55871" ry="4.96549" transform="rotate(-29.6591 132.394 53.8427)" fill="white"/>
<defs>
<filter id="filter0_i_631_13756" x="217.689" y="31.501" width="68.2795" height="123.814" filterUnits="userSpaceOnUse" color-interpolation-filters="sRGB">
<feFlood flood-opacity="0" result="BackgroundImageFix"/>
<feBlend mode="normal" in="SourceGraphic" in2="BackgroundImageFix" result="shape"/>
<feColorMatrix in="SourceAlpha" type="matrix" values="0 0 0 0 0 0 0 0 0 0 0 0 0 0 0 0 0 0 127 0" result="hardAlpha"/>
<feOffset dy="7.37109"/>
<feComposite in2="hardAlpha" operator="arithmetic" k2="-1" k3="1"/>
<feColorMatrix type="matrix" values="0 0 0 0 0.898039 0 0 0 0 0.929412 0 0 0 0 1 0 0 0 1 0"/>
<feBlend mode="normal" in2="shape" result="effect1_innerShadow_631_13756"/>
</filter>
<filter id="filter1_i_631_13756" x="217.689" y="145.494" width="37.4221" height="34.4502" filterUnits="userSpaceOnUse" color-interpolation-filters="sRGB">
<feFlood flood-opacity="0" result="BackgroundImageFix"/>
<feBlend mode="normal" in="SourceGraphic" in2="BackgroundImageFix" result="shape"/>
<feColorMatrix in="SourceAlpha" type="matrix" values="0 0 0 0 0 0 0 0 0 0 0 0 0 0 0 0 0 0 127 0" result="hardAlpha"/>
<feOffset dy="7.37109"/>
<feComposite in2="hardAlpha" operator="arithmetic" k2="-1" k3="1"/>
<feColorMatrix type="matrix" values="0 0 0 0 0.898039 0 0 0 0 0.929412 0 0 0 0 1 0 0 0 1 0"/>
<feBlend mode="normal" in2="shape" result="effect1_innerShadow_631_13756"/>
</filter>
<filter id="filter2_i_631_13756" x="222.189" y="36" width="59.2795" height="134.179" filterUnits="userSpaceOnUse" color-interpolation-filters="sRGB">
<feFlood flood-opacity="0" result="BackgroundImageFix"/>
<feBlend mode="normal" in="SourceGraphic" in2="BackgroundImageFix" result="shape"/>
<feColorMatrix in="SourceAlpha" type="matrix" values="0 0 0 0 0 0 0 0 0 0 0 0 0 0 0 0 0 0 127 0" result="hardAlpha"/>
<feOffset dy="6.05482"/>
<feComposite in2="hardAlpha" operator="arithmetic" k2="-1" k3="1"/>
<feColorMatrix type="matrix" values="0 0 0 0 0.843137 0 0 0 0 0.952941 0 0 0 0 1 0 0 0 1 0"/>
<feBlend mode="normal" in2="shape" result="effect1_innerShadow_631_13756"/>
</filter>
<filter id="filter3_i_631_13756" x="0.944336" y="31.501" width="68.2795" height="123.814" filterUnits="userSpaceOnUse" color-interpolation-filters="sRGB">
<feFlood flood-opacity="0" result="BackgroundImageFix"/>
<feBlend mode="normal" in="SourceGraphic" in2="BackgroundImageFix" result="shape"/>
<feColorMatrix in="SourceAlpha" type="matrix" values="0 0 0 0 0 0 0 0 0 0 0 0 0 0 0 0 0 0 127 0" result="hardAlpha"/>
<feOffset dy="7.37109"/>
<feComposite in2="hardAlpha" operator="arithmetic" k2="-1" k3="1"/>
<feColorMatrix type="matrix" values="0 0 0 0 0.898039 0 0 0 0 0.929412 0 0 0 0 1 0 0 0 1 0"/>
<feBlend mode="normal" in2="shape" result="effect1_innerShadow_631_13756"/>
</filter>
<filter id="filter4_i_631_13756" x="31.7551" y="145.494" width="37.4688" height="34.4502" filterUnits="userSpaceOnUse" color-interpolation-filters="sRGB">
<feFlood flood-opacity="0" result="BackgroundImageFix"/>
<feBlend mode="normal" in="SourceGraphic" in2="BackgroundImageFix" result="shape"/>
<feColorMatrix in="SourceAlpha" type="matrix" values="0 0 0 0 0 0 0 0 0 0 0 0 0 0 0 0 0 0 127 0" result="hardAlpha"/>
<feOffset dy="7.37109"/>
<feComposite in2="hardAlpha" operator="arithmetic" k2="-1" k3="1"/>
<feColorMatrix type="matrix" values="0 0 0 0 0.898039 0 0 0 0 0.929412 0 0 0 0 1 0 0 0 1 0"/>
<feBlend mode="normal" in2="shape" result="effect1_innerShadow_631_13756"/>
</filter>
<filter id="filter5_i_631_13756" x="5.44434" y="36" width="59.2795" height="134.179" filterUnits="userSpaceOnUse" color-interpolation-filters="sRGB">
<feFlood flood-opacity="0" result="BackgroundImageFix"/>
<feBlend mode="normal" in="SourceGraphic" in2="BackgroundImageFix" result="shape"/>
<feColorMatrix in="SourceAlpha" type="matrix" values="0 0 0 0 0 0 0 0 0 0 0 0 0 0 0 0 0 0 127 0" result="hardAlpha"/>
<feOffset dy="6.05482"/>
<feComposite in2="hardAlpha" operator="arithmetic" k2="-1" k3="1"/>
<feColorMatrix type="matrix" values="0 0 0 0 0.843137 0 0 0 0 0.952941 0 0 0 0 1 0 0 0 1 0"/>
<feBlend mode="normal" in2="shape" result="effect1_innerShadow_631_13756"/>
</filter>
<filter id="filter6_ii_631_13756" x="72.0857" y="38.0039" width="142.262" height="160.485" filterUnits="userSpaceOnUse" color-interpolation-filters="sRGB">
<feFlood flood-opacity="0" result="BackgroundImageFix"/>
<feBlend mode="normal" in="SourceGraphic" in2="BackgroundImageFix" result="shape"/>
<feColorMatrix in="SourceAlpha" type="matrix" values="0 0 0 0 0 0 0 0 0 0 0 0 0 0 0 0 0 0 127 0" result="hardAlpha"/>
<feOffset dy="10.4853"/>
<feComposite in2="hardAlpha" operator="arithmetic" k2="-1" k3="1"/>
<feColorMatrix type="matrix" values="0 0 0 0 0.842535 0 0 0 0 0.958333 0 0 0 0 0.937279 0 0 0 1 0"/>
<feBlend mode="normal" in2="shape" result="effect1_innerShadow_631_13756"/>
<feColorMatrix in="SourceAlpha" type="matrix" values="0 0 0 0 0 0 0 0 0 0 0 0 0 0 0 0 0 0 127 0" result="hardAlpha"/>
<feOffset dy="-40.1937"/>
<feComposite in2="hardAlpha" operator="arithmetic" k2="-1" k3="1"/>
<feColorMatrix type="matrix" values="0 0 0 0 0.705882 0 0 0 0 0.662745 0 0 0 0 0.980392 0 0 0 1 0"/>
<feBlend mode="normal" in2="effect1_innerShadow_631_13756" result="effect2_innerShadow_631_13756"/>
</filter>
<filter id="filter7_i_631_13756" x="92.6396" y="64.8555" width="101.681" height="113.626" filterUnits="userSpaceOnUse" color-interpolation-filters="sRGB">
<feFlood flood-opacity="0" result="BackgroundImageFix"/>
<feBlend mode="normal" in="SourceGraphic" in2="BackgroundImageFix" result="shape"/>
<feColorMatrix in="SourceAlpha" type="matrix" values="0 0 0 0 0 0 0 0 0 0 0 0 0 0 0 0 0 0 127 0" result="hardAlpha"/>
<feOffset dy="5.26506"/>
<feComposite in2="hardAlpha" operator="arithmetic" k2="-1" k3="1"/>
<feColorMatrix type="matrix" values="0 0 0 0 0.34902 0 0 0 0 0.278431 0 0 0 0 0.639216 0 0 0 1 0"/>
<feBlend mode="normal" in2="shape" result="effect1_innerShadow_631_13756"/>
</filter>
<linearGradient id="paint0_linear_631_13756" x1="251.829" y1="36" x2="251.829" y2="150.817" gradientUnits="userSpaceOnUse">
<stop stop-color="#CCE6D7"/>
<stop offset="1" stop-color="#B4A9FA"/>
</linearGradient>
<linearGradient id="paint1_linear_631_13756" x1="236.006" y1="149.992" x2="236.006" y2="175.444" gradientUnits="userSpaceOnUse">
<stop stop-color="#CCE6D7"/>
<stop offset="1" stop-color="#B4A9FA"/>
</linearGradient>
<linearGradient id="paint2_linear_631_13756" x1="251.829" y1="36" x2="251.829" y2="170.178" gradientUnits="userSpaceOnUse">
<stop stop-color="#CCE6D7"/>
<stop offset="1" stop-color="#B4A9FA"/>
</linearGradient>
<linearGradient id="paint3_linear_631_13756" x1="251.829" y1="36" x2="251.829" y2="170.178" gradientUnits="userSpaceOnUse">
<stop stop-color="#CCE6D7"/>
<stop offset="1" stop-color="#B4A9FA"/>
</linearGradient>
<linearGradient id="paint4_linear_631_13756" x1="251.829" y1="36" x2="251.829" y2="170.178" gradientUnits="userSpaceOnUse">
<stop stop-color="#CCE6D7"/>
<stop offset="1" stop-color="#B4A9FA"/>
</linearGradient>
<linearGradient id="paint5_linear_631_13756" x1="35.0841" y1="36" x2="35.0841" y2="150.817" gradientUnits="userSpaceOnUse">
<stop stop-color="#CCE6D7"/>
<stop offset="1" stop-color="#B4A9FA"/>
</linearGradient>
<linearGradient id="paint6_linear_631_13756" x1="50.9074" y1="149.992" x2="50.9074" y2="175.444" gradientUnits="userSpaceOnUse">
<stop stop-color="#CCE6D7"/>
<stop offset="1" stop-color="#B4A9FA"/>
</linearGradient>
<linearGradient id="paint7_linear_631_13756" x1="35.0841" y1="36" x2="35.0841" y2="170.178" gradientUnits="userSpaceOnUse">
<stop stop-color="#CCE6D7"/>
<stop offset="1" stop-color="#B4A9FA"/>
</linearGradient>
<linearGradient id="paint8_linear_631_13756" x1="35.0841" y1="36" x2="35.0841" y2="170.178" gradientUnits="userSpaceOnUse">
<stop stop-color="#CCE6D7"/>
<stop offset="1" stop-color="#B4A9FA"/>
</linearGradient>
<linearGradient id="paint9_linear_631_13756" x1="35.0841" y1="36" x2="35.0841" y2="170.178" gradientUnits="userSpaceOnUse">
<stop stop-color="#CCE6D7"/>
<stop offset="1" stop-color="#B4A9FA"/>
</linearGradient>
<linearGradient id="paint10_linear_631_13756" x1="174.444" y1="-9" x2="155.312" y2="258.345" gradientUnits="userSpaceOnUse">
<stop stop-color="#D8E3E8"/>
<stop offset="1" stop-color="#B4A9FA"/>
</linearGradient>
</defs>
</svg>
