<svg width="257" height="185" viewBox="0 0 257 185" fill="none" xmlns="http://www.w3.org/2000/svg">
<path d="M136.096 4.65286C131.487 2.02022 125.832 2.01123 121.214 4.62919L60.5542 39.0202C55.8279 41.6997 52.9133 46.7193 52.9292 52.1524L53.1574 130.391C53.1727 135.611 55.8926 140.45 60.344 143.176L120.799 180.207C125.621 183.161 131.693 183.161 136.516 180.207L196.93 143.202C201.408 140.459 204.132 135.579 204.116 130.328L203.888 52.0621C203.872 46.6776 200.98 41.7119 196.305 39.0414L136.096 4.65286Z" fill="#7184B2" stroke="#445377" stroke-width="5.08178"/>
<g filter="url(#filter0_ii_181_12343)">
<path d="M122.339 6.82464C126.085 4.6622 130.699 4.6622 134.445 6.82464L192.73 40.4754C196.475 42.6379 198.782 46.6342 198.782 50.9591V118.261C198.782 122.586 196.475 126.582 192.73 128.744L134.445 162.395C130.699 164.558 126.085 164.558 122.339 162.395L64.0542 128.744C60.3088 126.582 58.0015 122.586 58.0015 118.261V50.9591C58.0015 46.6342 60.3088 42.6379 64.0542 40.4754L122.339 6.82464Z" fill="#4E47A1"/>
<path d="M122.339 6.82464C126.085 4.6622 130.699 4.6622 134.445 6.82464L192.73 40.4754C196.475 42.6379 198.782 46.6342 198.782 50.9591V118.261C198.782 122.586 196.475 126.582 192.73 128.744L134.445 162.395C130.699 164.558 126.085 164.558 122.339 162.395L64.0542 128.744C60.3088 126.582 58.0015 122.586 58.0015 118.261V50.9591C58.0015 46.6342 60.3088 42.6379 64.0542 40.4754L122.339 6.82464Z" fill="url(#paint0_linear_181_12343)"/>
</g>
<g filter="url(#filter1_i_181_12343)">
<path d="M122.6 33.3969C126.345 31.2345 130.96 31.2345 134.705 33.3969L172.911 55.4549C176.656 57.6173 178.963 61.6137 178.963 65.9386V110.055C178.963 114.379 176.656 118.376 172.911 120.538L134.705 142.596C130.96 144.759 126.345 144.759 122.6 142.596L84.394 120.538C80.6486 118.376 78.3413 114.379 78.3413 110.055V65.9386C78.3413 61.6137 80.6486 57.6173 84.394 55.4549L122.6 33.3969Z" fill="#8695BC"/>
</g>
<ellipse cx="117.681" cy="20.8783" rx="9.45919" ry="4.91379" transform="rotate(-29.6591 117.681 20.8783)" fill="white"/>
<mask id="path-5-outside-1_181_12343" maskUnits="userSpaceOnUse" x="87.8325" y="43.2451" width="82" height="84" fill="black">
<rect fill="white" x="87.8325" y="43.2451" width="82" height="84"/>
<path fill-rule="evenodd" clip-rule="evenodd" d="M130.831 47.3872C129.782 45.8644 127.532 45.8644 126.483 47.3872L121.29 54.9238L114.451 64.8495C114.109 65.3452 113.608 65.7093 113.031 65.8814L101.489 69.3257L92.7193 71.9424C91.0536 72.4394 90.3405 74.3602 91.1962 75.8083C91.0918 76.092 91.0346 76.3992 91.0346 76.7211V79.0059C91.0346 80.1412 91.4005 81.2463 92.078 82.1572L104.273 98.5529C104.454 98.7957 104.59 99.0659 104.678 99.3512L104.499 106.657L104.275 115.814C104.268 116.112 104.309 116.397 104.391 116.663L104.275 121.425C104.23 123.273 106.049 124.594 107.792 123.979L116.419 120.938L127.779 116.933C128.347 116.732 128.966 116.732 129.534 116.933L140.894 120.938L149.521 123.979C151.265 124.594 153.084 123.273 153.038 121.425L152.922 116.665C153.004 116.399 153.046 116.113 153.039 115.814L152.815 106.657L152.636 99.3512C152.725 99.0655 152.861 98.7949 153.043 98.5519L165.56 81.775C166.241 80.8629 166.609 79.7553 166.609 78.6173V76.7111C166.609 76.2548 166.494 75.8278 166.292 75.4557C166.854 74.0644 166.128 72.4 164.595 71.9424L155.825 69.3257L144.282 65.8814C143.706 65.7093 143.205 65.3452 142.863 64.8495L136.024 54.9238L130.831 47.3872Z"/>
</mask>
<path fill-rule="evenodd" clip-rule="evenodd" d="M130.831 47.3872C129.782 45.8644 127.532 45.8644 126.483 47.3872L121.29 54.9238L114.451 64.8495C114.109 65.3452 113.608 65.7093 113.031 65.8814L101.489 69.3257L92.7193 71.9424C91.0536 72.4394 90.3405 74.3602 91.1962 75.8083C91.0918 76.092 91.0346 76.3992 91.0346 76.7211V79.0059C91.0346 80.1412 91.4005 81.2463 92.078 82.1572L104.273 98.5529C104.454 98.7957 104.59 99.0659 104.678 99.3512L104.499 106.657L104.275 115.814C104.268 116.112 104.309 116.397 104.391 116.663L104.275 121.425C104.23 123.273 106.049 124.594 107.792 123.979L116.419 120.938L127.779 116.933C128.347 116.732 128.966 116.732 129.534 116.933L140.894 120.938L149.521 123.979C151.265 124.594 153.084 123.273 153.038 121.425L152.922 116.665C153.004 116.399 153.046 116.113 153.039 115.814L152.815 106.657L152.636 99.3512C152.725 99.0655 152.861 98.7949 153.043 98.5519L165.56 81.775C166.241 80.8629 166.609 79.7553 166.609 78.6173V76.7111C166.609 76.2548 166.494 75.8278 166.292 75.4557C166.854 74.0644 166.128 72.4 164.595 71.9424L155.825 69.3257L144.282 65.8814C143.706 65.7093 143.205 65.3452 142.863 64.8495L136.024 54.9238L130.831 47.3872Z" fill="#E0E9FF"/>
<path d="M126.483 47.3872L124.19 45.8075L126.483 47.3872ZM130.831 47.3872L128.538 48.967V48.967L130.831 47.3872ZM121.29 54.9238L123.582 56.5035V56.5035L121.29 54.9238ZM114.451 64.8495L112.158 63.2698L112.158 63.2698L114.451 64.8495ZM113.031 65.8814L112.235 63.2135H112.235L113.031 65.8814ZM101.489 69.3257L102.285 71.9936L101.489 69.3257ZM92.7193 71.9424L91.9232 69.2745H91.9232L92.7193 71.9424ZM91.1962 75.8083L93.809 76.7702L94.2656 75.5298L93.5932 74.3919L91.1962 75.8083ZM92.078 82.1572L89.8441 83.8188H89.8441L92.078 82.1572ZM104.273 98.5529L102.039 100.214L102.039 100.214L104.273 98.5529ZM104.678 99.3512L107.461 99.4192L107.472 98.9653L107.338 98.5314L104.678 99.3512ZM104.499 106.657L101.716 106.588L104.499 106.657ZM104.275 115.814L101.492 115.746H101.492L104.275 115.814ZM104.391 116.663L107.175 116.731L107.186 116.276L107.051 115.841L104.391 116.663ZM104.275 121.425L101.491 121.357L104.275 121.425ZM107.792 123.979L108.718 126.605H108.718L107.792 123.979ZM116.419 120.938L115.493 118.312H115.493L116.419 120.938ZM127.779 116.933L128.704 119.558H128.704L127.779 116.933ZM129.534 116.933L128.609 119.558H128.609L129.534 116.933ZM140.894 120.938L139.969 123.563L140.894 120.938ZM149.521 123.979L150.447 121.354H150.447L149.521 123.979ZM153.038 121.425L155.822 121.357L153.038 121.425ZM152.922 116.665L150.263 115.841L150.128 116.277L150.139 116.733L152.922 116.665ZM153.039 115.814L155.822 115.746V115.746L153.039 115.814ZM152.815 106.657L155.598 106.588V106.588L152.815 106.657ZM152.636 99.3512L149.976 98.5291L149.842 98.9641L149.853 99.4193L152.636 99.3512ZM153.043 98.5519L155.274 100.217L155.274 100.217L153.043 98.5519ZM165.56 81.775L167.792 83.44V83.44L165.56 81.775ZM166.292 75.4557L163.711 74.4125L163.219 75.6286L163.844 76.7818L166.292 75.4557ZM164.595 71.9424L163.799 74.6103L164.595 71.9424ZM155.825 69.3257L155.029 71.9936L155.825 69.3257ZM144.282 65.8814L145.079 63.2135H145.079L144.282 65.8814ZM142.863 64.8495L140.571 66.4292L140.571 66.4293L142.863 64.8495ZM136.024 54.9238L133.731 56.5035L136.024 54.9238ZM128.776 48.967C128.769 48.9758 128.749 48.9973 128.718 49.0131C128.692 49.0262 128.671 49.0293 128.657 49.0293C128.643 49.0293 128.622 49.0262 128.596 49.0131C128.565 48.9973 128.544 48.9758 128.538 48.967L133.124 45.8075C130.968 42.6788 126.346 42.6788 124.19 45.8075L128.776 48.967ZM123.582 56.5035L128.776 48.967L124.19 45.8075L118.997 53.3441L123.582 56.5035ZM116.743 66.4292L123.582 56.5035L118.997 53.3441L112.158 63.2698L116.743 66.4292ZM113.827 68.5493C115.013 68.1957 116.041 67.4477 116.743 66.4292L112.158 63.2698C112.177 63.2427 112.204 63.2229 112.235 63.2135L113.827 68.5493ZM102.285 71.9936L113.827 68.5493L112.235 63.2135L100.693 66.6577L102.285 71.9936ZM93.5154 74.6103L102.285 71.9936L100.693 66.6577L91.9232 69.2745L93.5154 74.6103ZM93.5932 74.3919C93.6053 74.4123 93.6144 74.4408 93.6163 74.4684C93.618 74.4922 93.6141 74.5096 93.6092 74.5223C93.6041 74.5354 93.5938 74.554 93.5731 74.5736C93.549 74.5964 93.5243 74.6077 93.5154 74.6103L91.9232 69.2745C88.4956 70.2973 87.0375 74.2433 88.7993 77.2248L93.5932 74.3919ZM93.8188 76.7211C93.8188 76.7255 93.8183 76.7328 93.8167 76.742C93.815 76.7512 93.8124 76.7608 93.809 76.7702L88.5835 74.8464C88.3672 75.434 88.2504 76.0667 88.2504 76.7211H93.8188ZM93.8188 79.0059V76.7211H88.2504V79.0059H93.8188ZM94.312 80.4956C93.9917 80.065 93.8188 79.5426 93.8188 79.0059H88.2504C88.2504 80.7398 88.8093 82.4276 89.8441 83.8188L94.312 80.4956ZM106.507 96.8913L94.312 80.4956L89.8441 83.8188L102.039 100.214L106.507 96.8913ZM107.338 98.5314C107.158 97.9454 106.878 97.3901 106.507 96.8913L102.039 100.214C102.029 100.201 102.022 100.186 102.017 100.171L107.338 98.5314ZM107.282 106.725L107.461 99.4192L101.894 99.2831L101.716 106.588L107.282 106.725ZM107.058 115.882L107.282 106.725L101.716 106.588L101.492 115.746L107.058 115.882ZM107.051 115.841C107.054 115.851 107.056 115.86 107.057 115.868C107.058 115.876 107.058 115.881 107.058 115.882L101.492 115.746C101.477 116.347 101.561 116.933 101.731 117.485L107.051 115.841ZM107.058 121.493L107.175 116.731L101.608 116.595L101.491 121.357L107.058 121.493ZM106.866 121.354C106.876 121.35 106.905 121.345 106.94 121.35C106.968 121.355 106.987 121.365 106.999 121.373C107.01 121.381 107.025 121.396 107.039 121.422C107.054 121.453 107.058 121.482 107.058 121.493L101.491 121.357C101.399 125.154 105.136 127.868 108.718 126.605L106.866 121.354ZM115.493 118.312L106.866 121.354L108.718 126.605L117.345 123.563L115.493 118.312ZM126.853 114.307L115.493 118.312L117.345 123.563L128.704 119.558L126.853 114.307ZM130.46 114.307C129.293 113.895 128.02 113.895 126.853 114.307L128.704 119.558C128.673 119.569 128.64 119.569 128.609 119.558L130.46 114.307ZM141.82 118.312L130.46 114.307L128.609 119.558L139.969 123.563L141.82 118.312ZM150.447 121.354L141.82 118.312L139.969 123.563L148.595 126.605L150.447 121.354ZM150.255 121.493C150.255 121.482 150.259 121.453 150.275 121.422C150.288 121.396 150.303 121.381 150.314 121.373C150.326 121.365 150.345 121.355 150.373 121.35C150.408 121.345 150.437 121.35 150.447 121.354L148.595 126.605C152.177 127.868 155.915 125.154 155.822 121.357L150.255 121.493ZM150.139 116.733L150.255 121.493L155.822 121.357L155.705 116.597L150.139 116.733ZM150.255 115.882C150.255 115.881 150.255 115.876 150.257 115.868C150.258 115.86 150.26 115.851 150.263 115.841L155.581 117.489C155.753 116.936 155.837 116.349 155.822 115.746L150.255 115.882ZM150.032 106.725L150.255 115.882L155.822 115.746L155.598 106.588L150.032 106.725ZM149.853 99.4193L150.032 106.725L155.598 106.588L155.42 99.2831L149.853 99.4193ZM150.811 96.8869C150.439 97.3862 150.158 97.9422 149.976 98.5291L155.296 100.173C155.292 100.189 155.284 100.204 155.274 100.217L150.811 96.8869ZM163.329 80.11L150.811 96.887L155.274 100.217L167.792 83.44L163.329 80.11ZM163.824 78.6173C163.824 79.1553 163.651 79.6789 163.329 80.11L167.792 83.44C168.831 82.0469 169.393 80.3554 169.393 78.6173H163.824ZM163.824 76.7111V78.6173H169.393V76.7111H163.824ZM163.844 76.7818C163.838 76.7705 163.833 76.7576 163.829 76.7437C163.825 76.7295 163.824 76.7179 163.824 76.7111H169.393C169.393 75.7805 169.157 74.8989 168.74 74.1295L163.844 76.7818ZM163.799 74.6103C163.791 74.6081 163.769 74.5986 163.746 74.5782C163.725 74.5602 163.714 74.5423 163.708 74.5292C163.699 74.51 163.688 74.4685 163.711 74.4125L168.873 76.4989C170.028 73.6406 168.552 70.2179 165.391 69.2745L163.799 74.6103ZM155.029 71.9936L163.799 74.6103L165.391 69.2745L156.621 66.6577L155.029 71.9936ZM143.486 68.5493L155.029 71.9936L156.621 66.6577L145.079 63.2135L143.486 68.5493ZM140.571 66.4293C141.273 67.4477 142.301 68.1957 143.486 68.5493L145.079 63.2135C145.11 63.2229 145.137 63.2427 145.156 63.2698L140.571 66.4293ZM133.731 56.5035L140.571 66.4292L145.156 63.2698L138.317 53.3441L133.731 56.5035ZM128.538 48.967L133.731 56.5035L138.317 53.3441L133.124 45.8075L128.538 48.967Z" fill="#5C71A4" mask="url(#path-5-outside-1_181_12343)"/>
<path d="M126.483 52.9949C127.532 51.4721 129.782 51.4721 130.831 52.9949L136.024 60.5315L142.863 70.4572C143.205 70.9529 143.706 71.3169 144.282 71.4891L152.957 74.0774C154.85 74.6423 156.837 74.8238 158.801 74.6112L163.685 74.0826C165.246 73.9136 166.609 75.1369 166.609 76.7074V78.6136C166.609 79.7517 166.241 80.8592 165.561 81.7713L153.043 98.5482C152.69 99.022 152.505 99.6007 152.52 100.192L152.815 112.264L153.039 121.421C153.084 123.269 151.265 124.59 149.522 123.976L140.895 120.934L129.535 116.929C128.967 116.729 128.347 116.729 127.779 116.929L116.419 120.934L107.792 123.976C106.049 124.59 104.23 123.269 104.275 121.421L104.499 112.264L104.794 100.189C104.809 99.5998 104.625 99.0224 104.273 98.5492L92.0784 82.1536C91.4008 81.2426 91.0349 80.1376 91.0349 79.0023V76.7174C91.0349 75.1433 92.4036 73.9189 93.968 74.0936L98.4879 74.5983C100.468 74.8194 102.473 74.6397 104.382 74.0699L113.031 71.4891C113.608 71.3169 114.109 70.9529 114.45 70.4572L121.29 60.5315L126.483 52.9949Z" fill="#90A0C7"/>
<path d="M126.483 47.3855C127.532 45.8627 129.781 45.8627 130.831 47.3855L136.024 54.9221L142.863 64.8478C143.205 65.3435 143.706 65.7076 144.282 65.8797L155.825 69.3239L164.594 71.9407C166.365 72.4689 167.059 74.6051 165.938 76.0732L160.378 83.3521L153.061 92.9318C152.696 93.4097 152.505 93.9978 152.52 94.5989L152.815 106.655L153.039 115.812C153.084 117.66 151.265 118.981 149.521 118.366L140.895 115.325L129.535 111.319C128.967 111.119 128.347 111.119 127.779 111.319L116.419 115.325L107.792 118.366C106.049 118.981 104.23 117.66 104.275 115.812L104.499 106.655L104.794 94.5989C104.808 93.9978 104.617 93.4097 104.252 92.9318L96.9355 83.3521L91.3759 76.0732C90.2546 74.6051 90.9489 72.4689 92.7191 71.9407L101.489 69.3239L113.031 65.8797C113.608 65.7076 114.109 65.3435 114.45 64.8478L121.29 54.9221L126.483 47.3855Z" fill="#E0E9FF"/>
<mask id="mask0_181_12343" style="mask-type:alpha" maskUnits="userSpaceOnUse" x="90" y="46" width="77" height="73">
<path d="M126.483 47.3855C127.532 45.8627 129.781 45.8627 130.831 47.3855L136.024 54.9221L142.863 64.8478C143.205 65.3435 143.706 65.7076 144.282 65.8797L155.825 69.3239L164.594 71.9407C166.365 72.4689 167.059 74.6051 165.938 76.0732L160.378 83.3521L153.061 92.9318C152.696 93.4097 152.505 93.9978 152.52 94.5989L152.815 106.655L153.039 115.812C153.084 117.66 151.265 118.981 149.521 118.366L140.895 115.325L129.535 111.319C128.967 111.119 128.347 111.119 127.779 111.319L116.419 115.325L107.792 118.366C106.049 118.981 104.23 117.66 104.275 115.812L104.499 106.655L104.794 94.5989C104.808 93.9978 104.617 93.4097 104.252 92.9318L96.9355 83.3521L91.3759 76.0732C90.2546 74.6051 90.9489 72.4689 92.7191 71.9407L101.489 69.3239L113.031 65.8797C113.608 65.7076 114.109 65.3435 114.45 64.8478L121.29 54.9221L126.483 47.3855Z" fill="#FDDB18"/>
</mask>
<g mask="url(#mask0_181_12343)">
<path d="M128.936 86.6358L89.2193 73.9852L128.727 45.7145L128.936 86.6358Z" fill="white"/>
<path d="M128.822 86.6381L102.585 121.62L89.2195 73.1074L128.822 86.6381Z" fill="#C6D2F0"/>
<path d="M128.739 86.7199L169.084 72.3642L155.058 122.362L128.739 86.7199Z" fill="#C6D2F0"/>
<path d="M128.822 86.6367L154.728 121.761H102.42L128.822 86.6367Z" fill="#8695BC"/>
</g>
<g filter="url(#filter2_i_181_12343)">
<path fill-rule="evenodd" clip-rule="evenodd" d="M208.098 46.5335L247.772 10.1879C249.258 8.826 251.614 9.90928 251.614 11.9547V41.3318C251.614 41.3787 251.614 41.4257 251.614 41.4726V49.1462C251.614 57.9332 246.579 65.898 238.761 69.4763L210.573 82.3797C209.047 83.0781 207.327 81.9318 207.327 80.2169V56.1148C207.327 56.0995 207.327 56.0842 207.327 56.069V48.3003C207.327 47.6255 207.608 46.9828 208.098 46.5335ZM208.678 86.9031L235.204 74.4985C236.731 73.7842 238.466 74.9304 238.466 76.6535V89.1015C238.466 89.1405 238.466 89.1795 238.466 89.2184V96.9159C238.466 104.971 232.328 111.619 224.492 112.05L209.756 112.859C208.436 112.931 207.327 111.852 207.327 110.494V96.8726C207.327 96.8572 207.327 96.8419 207.327 96.8266V89.0581C207.327 88.1302 207.855 87.2878 208.678 86.9031Z" fill="#CAD5F0"/>
</g>
<path d="M247.772 10.1879L244.339 6.44076L247.772 10.1879ZM208.098 46.5335L204.665 42.7864L204.665 42.7864L208.098 46.5335ZM251.614 41.4726L246.532 41.4416L246.532 41.4571V41.4726H251.614ZM238.761 69.4763L236.646 64.8556L238.761 69.4763ZM210.573 82.3797L212.688 87.0004H212.688L210.573 82.3797ZM207.327 56.069L212.408 56.1646L212.409 56.1168V56.069H207.327ZM235.204 74.4985L237.356 79.1018H237.356L235.204 74.4985ZM208.678 86.9031L210.83 91.5064L210.83 91.5064L208.678 86.9031ZM238.466 89.2184L233.384 89.1808L233.384 89.1996V89.2184H238.466ZM224.492 112.05L224.214 106.976H224.214L224.492 112.05ZM209.756 112.859L210.035 117.933H210.035L209.756 112.859ZM207.327 96.8266L212.408 96.9221L212.409 96.8744V96.8266H207.327ZM244.339 6.44076L204.665 42.7864L211.531 50.2806L251.205 13.9349L244.339 6.44076ZM256.696 11.9547C256.696 5.76558 249.288 1.9066 244.339 6.44076L251.205 13.9349C249.228 15.7454 246.532 14.053 246.532 11.9547H256.696ZM256.696 41.3318V11.9547H246.532V41.3318H256.696ZM256.695 41.5036C256.696 41.4464 256.696 41.3892 256.696 41.3318H246.532C246.532 41.3683 246.532 41.4049 246.532 41.4416L256.695 41.5036ZM256.696 49.1462V41.4726H246.532V49.1462H256.696ZM240.876 74.097C250.552 69.6679 256.696 59.8644 256.696 49.1462H246.532C246.532 56.002 242.605 62.128 236.646 64.8556L240.876 74.097ZM212.688 87.0004L240.876 74.097L236.646 64.8556L208.457 77.759L212.688 87.0004ZM202.245 80.2169C202.245 85.4193 207.604 89.3277 212.688 87.0004L208.457 77.759C210.49 76.8284 212.408 78.4443 212.408 80.2169H202.245ZM202.245 56.1148V80.2169H212.408V56.1148H202.245ZM202.246 55.9733C202.245 56.0204 202.245 56.0676 202.245 56.1148H212.408C212.408 56.1314 212.408 56.148 212.408 56.1646L202.246 55.9733ZM202.245 48.3003V56.069H212.409V48.3003H202.245ZM204.665 42.7864C203.107 44.2141 202.245 46.2242 202.245 48.3003H212.409C212.409 49.0269 212.108 49.7514 211.531 50.2806L204.665 42.7864ZM233.051 69.8952L206.525 82.2998L210.83 91.5064L237.356 79.1018L233.051 69.8952ZM243.548 76.6535C243.548 71.4267 238.141 67.5147 233.051 69.8952L237.356 79.1018C235.321 80.0537 233.385 78.4341 233.385 76.6535H243.548ZM243.548 89.1015V76.6535H233.385V89.1015H243.548ZM243.548 89.256C243.548 89.2044 243.548 89.1529 243.548 89.1015H233.385C233.385 89.1281 233.385 89.1545 233.384 89.1808L243.548 89.256ZM243.548 96.9159V89.2184H233.384V96.9159H243.548ZM224.771 117.124C235.415 116.539 243.548 107.553 243.548 96.9159H233.384C233.384 102.39 229.24 106.7 224.214 106.976L224.771 117.124ZM210.035 117.933L224.771 117.124L224.214 106.976L209.478 107.785L210.035 117.933ZM202.245 110.494C202.245 114.631 205.668 118.173 210.035 117.933L209.478 107.785C211.204 107.69 212.408 109.073 212.408 110.494H202.245ZM202.245 96.8726V110.494H212.408V96.8726H202.245ZM202.246 96.7311C202.245 96.7782 202.245 96.8254 202.245 96.8726H212.408C212.408 96.8891 212.408 96.9056 212.408 96.9221L202.246 96.7311ZM202.245 89.0581V96.8266H212.409V89.0581H202.245ZM206.525 82.2998C203.865 83.5435 202.245 86.2129 202.245 89.0581H212.409C212.409 90.0475 211.845 91.032 210.83 91.5064L206.525 82.2998Z" fill="#445377"/>
<g filter="url(#filter3_i_181_12343)">
<path d="M247.771 18.0043L208.098 54.3499C207.607 54.7992 207.327 55.442 207.327 56.1168V80.2189C207.327 81.9338 209.047 83.08 210.573 82.3817L238.761 69.4783C246.579 65.8999 251.614 57.9352 251.614 49.1482V19.7711C251.614 17.7257 249.258 16.6424 247.771 18.0043Z" fill="#7184B2"/>
<path d="M235.203 82.3149L208.677 94.7195C207.855 95.1042 207.327 95.9466 207.327 96.8745V110.496C207.327 111.854 208.436 112.933 209.756 112.861L224.492 112.052C232.328 111.621 238.466 104.973 238.466 96.9179V84.4699C238.466 82.7468 236.731 81.6006 235.203 82.3149Z" fill="#7184B2"/>
<path d="M247.771 18.0043L208.098 54.3499C207.607 54.7992 207.327 55.442 207.327 56.1168V80.2189C207.327 81.9338 209.047 83.08 210.573 82.3817L238.761 69.4783C246.579 65.8999 251.614 57.9352 251.614 49.1482V19.7711C251.614 17.7257 249.258 16.6424 247.771 18.0043Z" stroke="black"/>
<path d="M235.203 82.3149L208.677 94.7195C207.855 95.1042 207.327 95.9466 207.327 96.8745V110.496C207.327 111.854 208.436 112.933 209.756 112.861L224.492 112.052C232.328 111.621 238.466 104.973 238.466 96.9179V84.4699C238.466 82.7468 236.731 81.6006 235.203 82.3149Z" stroke="black"/>
</g>
<g filter="url(#filter4_i_181_12343)">
<path d="M247.772 10.1879L208.098 46.5335C207.608 46.9828 207.327 47.6255 207.327 48.3003V72.4025C207.327 74.1174 209.047 75.2636 210.573 74.5653L238.762 61.6619C246.579 58.0835 251.614 50.1188 251.614 41.3318V11.9547C251.614 9.90928 249.258 8.826 247.772 10.1879Z" fill="#CAD5F0"/>
<path d="M235.204 74.4985L208.678 86.9031C207.855 87.2878 207.327 88.1302 207.327 89.0581V102.68C207.327 104.037 208.437 105.117 209.757 105.044L224.493 104.235C232.328 103.805 238.467 97.157 238.467 89.1015V76.6535C238.467 74.9304 236.731 73.7842 235.204 74.4985Z" fill="#CAD5F0"/>
<path d="M247.772 10.1879L208.098 46.5335C207.608 46.9828 207.327 47.6255 207.327 48.3003V72.4025C207.327 74.1174 209.047 75.2636 210.573 74.5653L238.762 61.6619C246.579 58.0835 251.614 50.1188 251.614 41.3318V11.9547C251.614 9.90928 249.258 8.826 247.772 10.1879Z" stroke="black"/>
<path d="M235.204 74.4985L208.678 86.9031C207.855 87.2878 207.327 88.1302 207.327 89.0581V102.68C207.327 104.037 208.437 105.117 209.757 105.044L224.493 104.235C232.328 103.805 238.467 97.157 238.467 89.1015V76.6535C238.467 74.9304 236.731 73.7842 235.204 74.4985Z" stroke="black"/>
</g>
<g filter="url(#filter5_i_181_12343)">
<path fill-rule="evenodd" clip-rule="evenodd" d="M48.9464 46.014L9.27259 9.66832C7.78603 8.30647 5.43021 9.38975 5.43021 11.4352V19.2496V40.8122V48.6267C5.43021 57.4137 10.4654 65.3784 18.2827 68.9568L46.4713 81.8602C47.9969 82.5585 49.7173 81.4123 49.7173 79.6974V71.8829V55.5953V47.7808C49.7173 47.106 49.4369 46.4633 48.9464 46.014ZM48.3668 86.3836L21.8407 73.9789C20.3133 73.2647 18.5779 74.4109 18.5779 76.1339V83.9484V88.582V96.3964C18.5779 104.452 24.7164 111.1 32.5518 111.53L47.2875 112.339C48.6079 112.412 49.7173 111.332 49.7173 109.975V102.16V96.353V88.5386C49.7173 87.6106 49.1894 86.7682 48.3668 86.3836Z" fill="#CAD5F0"/>
</g>
<path d="M9.27259 9.66832L5.83983 13.4154L9.27259 9.66832ZM48.9464 46.014L52.3792 42.2669L52.3792 42.2669L48.9464 46.014ZM18.2827 68.9568L20.3978 64.3361L18.2827 68.9568ZM46.4713 81.8602L44.3562 86.4809H44.3562L46.4713 81.8602ZM21.8407 73.9789L19.688 78.5823H19.688L21.8407 73.9789ZM48.3668 86.3836L46.2142 90.9869L46.2141 90.9869L48.3668 86.3836ZM32.5518 111.53L32.8304 106.456H32.8304L32.5518 111.53ZM47.2875 112.339L47.0088 117.414H47.0088L47.2875 112.339ZM12.7053 5.92123L52.3792 42.2669L45.5137 49.7611L5.83983 13.4154L12.7053 5.92123ZM0.348423 11.4352C0.348423 5.24605 7.75599 1.38707 12.7053 5.92123L5.83983 13.4154C7.81607 15.2259 10.512 13.5335 10.512 11.4352H0.348423ZM0.348423 19.2496V11.4352H10.512V19.2496H0.348423ZM0.348423 40.8122V19.2496H10.512V40.8122H0.348423ZM0.348423 48.6267V40.8122H10.512V48.6267H0.348423ZM16.1676 73.5775C6.49176 69.1484 0.348423 59.3449 0.348423 48.6267H10.512C10.512 55.4825 14.4391 61.6085 20.3978 64.3361L16.1676 73.5775ZM44.3562 86.4809L16.1676 73.5775L20.3978 64.3361L48.5865 77.2395L44.3562 86.4809ZM54.7991 79.6974C54.7991 84.8998 49.4404 88.8082 44.3562 86.4809L48.5865 77.2395C46.5535 76.3089 44.6355 77.9248 44.6355 79.6974H54.7991ZM54.7991 71.8829V79.6974H44.6355V71.8829H54.7991ZM54.7991 55.5953V71.8829H44.6355V55.5953H54.7991ZM54.7991 47.7808V55.5953H44.6355V47.7808H54.7991ZM52.3792 42.2669C53.9376 43.6946 54.7991 45.7047 54.7991 47.7808H44.6355C44.6355 48.5074 44.9361 49.2319 45.5137 49.7611L52.3792 42.2669ZM23.9934 69.3756L50.5195 81.7803L46.2141 90.9869L19.688 78.5823L23.9934 69.3756ZM13.4961 76.1339C13.4961 70.9071 18.903 66.9952 23.9934 69.3756L19.688 78.5823C21.7236 79.5342 23.6597 77.9146 23.6597 76.1339H13.4961ZM13.4961 83.9484V76.1339H23.6597V83.9484H13.4961ZM13.4961 88.582V83.9484H23.6597V88.582H13.4961ZM13.4961 96.3964V88.582H23.6597V96.3964H13.4961ZM32.2731 116.604C21.6287 116.02 13.4961 107.034 13.4961 96.3964H23.6597C23.6597 101.87 27.804 106.18 32.8304 106.456L32.2731 116.604ZM47.0088 117.414L32.2731 116.604L32.8304 106.456L47.5661 107.265L47.0088 117.414ZM54.7991 109.975C54.7991 114.111 51.3762 117.653 47.0088 117.414L47.5661 107.265C45.8395 107.17 44.6355 108.553 44.6355 109.975H54.7991ZM54.7991 102.16V109.975H44.6355V102.16H54.7991ZM54.7991 96.353V102.16H44.6355V96.353H54.7991ZM54.7991 88.5386V96.353H44.6355V88.5386H54.7991ZM50.5195 81.7803C53.1791 83.024 54.7991 85.6934 54.7991 88.5386H44.6355C44.6355 89.5279 45.1997 90.5125 46.2142 90.9869L50.5195 81.7803Z" fill="#445377"/>
<g filter="url(#filter6_i_181_12343)">
<path d="M9.27259 17.4828L48.9464 53.8284C49.4369 54.2777 49.7173 54.9205 49.7173 55.5953V79.6974C49.7173 81.4123 47.9969 82.5585 46.4713 81.8602L18.2827 68.9568C10.4654 65.3784 5.43021 57.4137 5.43021 48.6267V19.2496C5.43021 17.2042 7.78603 16.1209 9.27259 17.4828Z" fill="#7184B2"/>
<path d="M21.8407 81.7934L48.3668 94.198C49.1894 94.5827 49.7173 95.4251 49.7173 96.353V109.975C49.7173 111.332 48.6079 112.412 47.2875 112.339L32.5518 111.53C24.7164 111.1 18.5779 104.452 18.5779 96.3964V83.9484C18.5779 82.2253 20.3133 81.0791 21.8407 81.7934Z" fill="#7184B2"/>
<path d="M9.27259 17.4828L48.9464 53.8284C49.4369 54.2777 49.7173 54.9205 49.7173 55.5953V79.6974C49.7173 81.4123 47.9969 82.5585 46.4713 81.8602L18.2827 68.9568C10.4654 65.3784 5.43021 57.4137 5.43021 48.6267V19.2496C5.43021 17.2042 7.78603 16.1209 9.27259 17.4828Z" stroke="black"/>
<path d="M21.8407 81.7934L48.3668 94.198C49.1894 94.5827 49.7173 95.4251 49.7173 96.353V109.975C49.7173 111.332 48.6079 112.412 47.2875 112.339L32.5518 111.53C24.7164 111.1 18.5779 104.452 18.5779 96.3964V83.9484C18.5779 82.2253 20.3133 81.0791 21.8407 81.7934Z" stroke="black"/>
</g>
<g filter="url(#filter7_i_181_12343)">
<path d="M9.27259 9.66832L48.9464 46.014C49.4369 46.4633 49.7173 47.106 49.7173 47.7808V71.8829C49.7173 73.5978 47.9969 74.7441 46.4713 74.0457L18.2827 61.1423C10.4654 57.564 5.43021 49.5993 5.43021 40.8122V11.4352C5.43021 9.38975 7.78603 8.30647 9.27259 9.66832Z" fill="#CAD5F0"/>
<path d="M21.8407 73.9789L48.3668 86.3836C49.1894 86.7682 49.7173 87.6106 49.7173 88.5386V102.16C49.7173 103.518 48.6079 104.597 47.2875 104.525L32.5518 103.716C24.7164 103.285 18.5779 96.6375 18.5779 88.582V76.1339C18.5779 74.4109 20.3133 73.2647 21.8407 73.9789Z" fill="#CAD5F0"/>
<path d="M9.27259 9.66832L48.9464 46.014C49.4369 46.4633 49.7173 47.106 49.7173 47.7808V71.8829C49.7173 73.5978 47.9969 74.7441 46.4713 74.0457L18.2827 61.1423C10.4654 57.564 5.43021 49.5993 5.43021 40.8122V11.4352C5.43021 9.38975 7.78603 8.30647 9.27259 9.66832Z" stroke="black"/>
<path d="M21.8407 73.9789L48.3668 86.3836C49.1894 86.7682 49.7173 87.6106 49.7173 88.5386V102.16C49.7173 103.518 48.6079 104.597 47.2875 104.525L32.5518 103.716C24.7164 103.285 18.5779 96.6375 18.5779 88.582V76.1339C18.5779 74.4109 20.3133 73.2647 21.8407 73.9789Z" stroke="black"/>
</g>
<defs>
<filter id="filter0_ii_181_12343" x="58.0015" y="5.20312" width="140.781" height="158.813" filterUnits="userSpaceOnUse" color-interpolation-filters="sRGB">
<feFlood flood-opacity="0" result="BackgroundImageFix"/>
<feBlend mode="normal" in="SourceGraphic" in2="BackgroundImageFix" result="shape"/>
<feColorMatrix in="SourceAlpha" type="matrix" values="0 0 0 0 0 0 0 0 0 0 0 0 0 0 0 0 0 0 127 0" result="hardAlpha"/>
<feOffset dy="10.3761"/>
<feComposite in2="hardAlpha" operator="arithmetic" k2="-1" k3="1"/>
<feColorMatrix type="matrix" values="0 0 0 0 0.9 0 0 0 0 0.929032 0 0 0 0 1 0 0 0 1 0"/>
<feBlend mode="normal" in2="shape" result="effect1_innerShadow_181_12343"/>
<feColorMatrix in="SourceAlpha" type="matrix" values="0 0 0 0 0 0 0 0 0 0 0 0 0 0 0 0 0 0 127 0" result="hardAlpha"/>
<feOffset dy="-39.7752"/>
<feComposite in2="hardAlpha" operator="arithmetic" k2="-1" k3="1"/>
<feColorMatrix type="matrix" values="0 0 0 0 0.564706 0 0 0 0 0.627451 0 0 0 0 0.780392 0 0 0 0.5 0"/>
<feBlend mode="normal" in2="effect1_innerShadow_181_12343" result="effect2_innerShadow_181_12343"/>
</filter>
<filter id="filter1_i_181_12343" x="78.3413" y="31.7754" width="100.622" height="112.442" filterUnits="userSpaceOnUse" color-interpolation-filters="sRGB">
<feFlood flood-opacity="0" result="BackgroundImageFix"/>
<feBlend mode="normal" in="SourceGraphic" in2="BackgroundImageFix" result="shape"/>
<feColorMatrix in="SourceAlpha" type="matrix" values="0 0 0 0 0 0 0 0 0 0 0 0 0 0 0 0 0 0 127 0" result="hardAlpha"/>
<feOffset dy="5.21024"/>
<feComposite in2="hardAlpha" operator="arithmetic" k2="-1" k3="1"/>
<feColorMatrix type="matrix" values="0 0 0 0 0.443137 0 0 0 0 0.517647 0 0 0 0 0.698039 0 0 0 1 0"/>
<feBlend mode="normal" in2="shape" result="effect1_innerShadow_181_12343"/>
</filter>
<filter id="filter2_i_181_12343" x="202.245" y="4.46191" width="54.4512" height="113.482" filterUnits="userSpaceOnUse" color-interpolation-filters="sRGB">
<feFlood flood-opacity="0" result="BackgroundImageFix"/>
<feBlend mode="normal" in="SourceGraphic" in2="BackgroundImageFix" result="shape"/>
<feColorMatrix in="SourceAlpha" type="matrix" values="0 0 0 0 0 0 0 0 0 0 0 0 0 0 0 0 0 0 127 0" result="hardAlpha"/>
<feOffset dy="7.29434"/>
<feComposite in2="hardAlpha" operator="arithmetic" k2="-1" k3="1"/>
<feColorMatrix type="matrix" values="0 0 0 0 0.898039 0 0 0 0 0.929412 0 0 0 0 1 0 0 0 1 0"/>
<feBlend mode="normal" in2="shape" result="effect1_innerShadow_181_12343"/>
</filter>
<filter id="filter3_i_181_12343" x="207.327" y="17.3984" width="44.2871" height="95.4658" filterUnits="userSpaceOnUse" color-interpolation-filters="sRGB">
<feFlood flood-opacity="0" result="BackgroundImageFix"/>
<feBlend mode="normal" in="SourceGraphic" in2="BackgroundImageFix" result="shape"/>
<feColorMatrix in="SourceAlpha" type="matrix" values="0 0 0 0 0 0 0 0 0 0 0 0 0 0 0 0 0 0 127 0" result="hardAlpha"/>
<feOffset dy="7.29434"/>
<feComposite in2="hardAlpha" operator="arithmetic" k2="-1" k3="1"/>
<feColorMatrix type="matrix" values="0 0 0 0 0.898039 0 0 0 0 0.929412 0 0 0 0 1 0 0 0 1 0"/>
<feBlend mode="normal" in2="shape" result="effect1_innerShadow_181_12343"/>
</filter>
<filter id="filter4_i_181_12343" x="207.327" y="9.58203" width="44.2871" height="95.4658" filterUnits="userSpaceOnUse" color-interpolation-filters="sRGB">
<feFlood flood-opacity="0" result="BackgroundImageFix"/>
<feBlend mode="normal" in="SourceGraphic" in2="BackgroundImageFix" result="shape"/>
<feColorMatrix in="SourceAlpha" type="matrix" values="0 0 0 0 0 0 0 0 0 0 0 0 0 0 0 0 0 0 127 0" result="hardAlpha"/>
<feOffset dy="7.29434"/>
<feComposite in2="hardAlpha" operator="arithmetic" k2="-1" k3="1"/>
<feColorMatrix type="matrix" values="0 0 0 0 0.898039 0 0 0 0 0.929412 0 0 0 0 1 0 0 0 1 0"/>
<feBlend mode="normal" in2="shape" result="effect1_innerShadow_181_12343"/>
</filter>
<filter id="filter5_i_181_12343" x="0.348389" y="3.94238" width="54.4507" height="113.482" filterUnits="userSpaceOnUse" color-interpolation-filters="sRGB">
<feFlood flood-opacity="0" result="BackgroundImageFix"/>
<feBlend mode="normal" in="SourceGraphic" in2="BackgroundImageFix" result="shape"/>
<feColorMatrix in="SourceAlpha" type="matrix" values="0 0 0 0 0 0 0 0 0 0 0 0 0 0 0 0 0 0 127 0" result="hardAlpha"/>
<feOffset dy="7.29434"/>
<feComposite in2="hardAlpha" operator="arithmetic" k2="-1" k3="1"/>
<feColorMatrix type="matrix" values="0 0 0 0 0.898039 0 0 0 0 0.929412 0 0 0 0 1 0 0 0 1 0"/>
<feBlend mode="normal" in2="shape" result="effect1_innerShadow_181_12343"/>
</filter>
<filter id="filter6_i_181_12343" x="5.43018" y="16.877" width="44.2871" height="95.4658" filterUnits="userSpaceOnUse" color-interpolation-filters="sRGB">
<feFlood flood-opacity="0" result="BackgroundImageFix"/>
<feBlend mode="normal" in="SourceGraphic" in2="BackgroundImageFix" result="shape"/>
<feColorMatrix in="SourceAlpha" type="matrix" values="0 0 0 0 0 0 0 0 0 0 0 0 0 0 0 0 0 0 127 0" result="hardAlpha"/>
<feOffset dy="7.29434"/>
<feComposite in2="hardAlpha" operator="arithmetic" k2="-1" k3="1"/>
<feColorMatrix type="matrix" values="0 0 0 0 0.898039 0 0 0 0 0.929412 0 0 0 0 1 0 0 0 1 0"/>
<feBlend mode="normal" in2="shape" result="effect1_innerShadow_181_12343"/>
</filter>
<filter id="filter7_i_181_12343" x="5.43018" y="9.0625" width="44.2871" height="95.4658" filterUnits="userSpaceOnUse" color-interpolation-filters="sRGB">
<feFlood flood-opacity="0" result="BackgroundImageFix"/>
<feBlend mode="normal" in="SourceGraphic" in2="BackgroundImageFix" result="shape"/>
<feColorMatrix in="SourceAlpha" type="matrix" values="0 0 0 0 0 0 0 0 0 0 0 0 0 0 0 0 0 0 127 0" result="hardAlpha"/>
<feOffset dy="7.29434"/>
<feComposite in2="hardAlpha" operator="arithmetic" k2="-1" k3="1"/>
<feColorMatrix type="matrix" values="0 0 0 0 0.898039 0 0 0 0 0.929412 0 0 0 0 1 0 0 0 1 0"/>
<feBlend mode="normal" in2="shape" result="effect1_innerShadow_181_12343"/>
</filter>
<linearGradient id="paint0_linear_181_12343" x1="111.719" y1="-43.8226" x2="142.489" y2="353.255" gradientUnits="userSpaceOnUse">
<stop stop-color="#E0E9FF"/>
<stop offset="1" stop-color="#90A0C7"/>
</linearGradient>
</defs>
</svg>
