<svg width="284" height="221" viewBox="0 0 284 221" fill="none" xmlns="http://www.w3.org/2000/svg">
<path d="M149.62 39.6529C145.01 37.0202 139.355 37.0112 134.737 39.6292L74.0774 74.0202C69.3511 76.6997 66.4365 81.7193 66.4524 87.1524L66.6806 165.391C66.6958 170.611 69.4158 175.45 73.8672 178.176L134.322 215.207C139.145 218.161 145.217 218.161 150.039 215.207L210.453 178.202C214.931 175.459 217.655 170.579 217.64 165.328L217.411 87.0621C217.396 81.6776 214.504 76.7119 209.828 74.0414L149.62 39.6529Z" fill="#7184B2" stroke="#445377" stroke-width="5.08178"/>
<g filter="url(#filter0_ii_631_13758)">
<path d="M135.862 41.8246C139.608 39.6622 144.222 39.6622 147.968 41.8246L206.253 75.4754C209.998 77.6379 212.305 81.6342 212.305 85.9591V153.261C212.305 157.586 209.998 161.582 206.253 163.744L147.968 197.395C144.222 199.558 139.608 199.558 135.862 197.395L77.5774 163.744C73.832 161.582 71.5247 157.586 71.5247 153.261V85.9591C71.5247 81.6342 73.832 77.6379 77.5774 75.4754L135.862 41.8246Z" fill="#4E47A1"/>
<path d="M135.862 41.8246C139.608 39.6622 144.222 39.6622 147.968 41.8246L206.253 75.4754C209.998 77.6379 212.305 81.6342 212.305 85.9591V153.261C212.305 157.586 209.998 161.582 206.253 163.744L147.968 197.395C144.222 199.558 139.608 199.558 135.862 197.395L77.5774 163.744C73.832 161.582 71.5247 157.586 71.5247 153.261V85.9591C71.5247 81.6342 73.832 77.6379 77.5774 75.4754L135.862 41.8246Z" fill="url(#paint0_linear_631_13758)"/>
</g>
<g filter="url(#filter1_i_631_13758)">
<path d="M136.123 68.3969C139.868 66.2345 144.483 66.2345 148.228 68.3969L186.434 90.4549C190.179 92.6173 192.487 96.6137 192.487 100.939V145.055C192.487 149.379 190.179 153.376 186.434 155.538L148.228 177.596C144.483 179.759 139.868 179.759 136.123 177.596L97.9172 155.538C94.1717 153.376 91.8644 149.379 91.8644 145.055V100.939C91.8644 96.6137 94.1717 92.6173 97.9172 90.4549L136.123 68.3969Z" fill="#8695BC"/>
</g>
<ellipse cx="131.205" cy="55.8783" rx="9.45919" ry="4.91379" transform="rotate(-29.6591 131.205 55.8783)" fill="white"/>
<g filter="url(#filter2_i_631_13758)">
<path fill-rule="evenodd" clip-rule="evenodd" d="M221.621 81.5335L261.295 45.1879C262.782 43.826 265.137 44.9093 265.137 46.9547V76.3318C265.137 76.3787 265.137 76.4257 265.137 76.4726V84.1462C265.137 92.9332 260.102 100.898 252.284 104.476L224.096 117.38C222.57 118.078 220.85 116.932 220.85 115.217V91.1148C220.85 91.0995 220.85 91.0842 220.85 91.069V83.3003C220.85 82.6255 221.131 81.9828 221.621 81.5335ZM222.201 121.903L248.727 109.498C250.254 108.784 251.99 109.93 251.99 111.653V124.101C251.99 124.14 251.989 124.179 251.989 124.218V131.916C251.989 139.971 245.851 146.619 238.015 147.05L223.28 147.859C221.959 147.931 220.85 146.852 220.85 145.494V131.873C220.85 131.857 220.85 131.842 220.85 131.827V124.058C220.85 123.13 221.378 122.288 222.201 121.903Z" fill="#CAD5F0"/>
</g>
<path d="M261.295 45.1879L257.862 41.4408L261.295 45.1879ZM221.621 81.5335L218.188 77.7864L218.188 77.7864L221.621 81.5335ZM265.137 76.4726L260.055 76.4416L260.055 76.4571V76.4726H265.137ZM252.284 104.476L250.169 99.8556L252.284 104.476ZM224.096 117.38L226.211 122H226.211L224.096 117.38ZM220.85 91.069L225.931 91.1646L225.932 91.1168V91.069H220.85ZM248.727 109.498L250.88 114.102H250.88L248.727 109.498ZM222.201 121.903L224.353 126.506L224.353 126.506L222.201 121.903ZM251.989 124.218L246.908 124.181L246.907 124.2V124.218H251.989ZM238.015 147.05L237.737 141.976H237.737L238.015 147.05ZM223.28 147.859L223.558 152.933H223.558L223.28 147.859ZM220.85 131.827L225.931 131.922L225.932 131.874V131.827H220.85ZM257.862 41.4408L218.188 77.7864L225.054 85.2806L264.728 48.9349L257.862 41.4408ZM270.219 46.9547C270.219 40.7656 262.812 36.9066 257.862 41.4408L264.728 48.9349C262.752 50.7454 260.056 49.053 260.056 46.9547H270.219ZM270.219 76.3318V46.9547H260.056V76.3318H270.219ZM270.219 76.5036C270.219 76.4464 270.219 76.3892 270.219 76.3318H260.056C260.056 76.3683 260.055 76.4049 260.055 76.4416L270.219 76.5036ZM270.219 84.1462V76.4726H260.055V84.1462H270.219ZM254.4 109.097C264.075 104.668 270.219 94.8644 270.219 84.1462H260.055C260.055 91.002 256.128 97.128 250.169 99.8556L254.4 109.097ZM226.211 122L254.4 109.097L250.169 99.8556L221.981 112.759L226.211 122ZM215.768 115.217C215.768 120.419 221.127 124.328 226.211 122L221.981 112.759C224.014 111.828 225.932 113.444 225.932 115.217H215.768ZM215.768 91.1148V115.217H225.932V91.1148H215.768ZM215.769 90.9733C215.769 91.0204 215.768 91.0676 215.768 91.1148H225.932C225.932 91.1314 225.931 91.148 225.931 91.1646L215.769 90.9733ZM215.769 83.3003V91.069H225.932V83.3003H215.769ZM218.188 77.7864C216.63 79.2141 215.769 81.2242 215.769 83.3003H225.932C225.932 84.0269 225.631 84.7514 225.054 85.2806L218.188 77.7864ZM246.574 104.895L220.048 117.3L224.353 126.506L250.88 114.102L246.574 104.895ZM257.071 111.653C257.071 106.427 251.665 102.515 246.574 104.895L250.88 114.102C248.844 115.054 246.908 113.434 246.908 111.653H257.071ZM257.071 124.101V111.653H246.908V124.101H257.071ZM257.071 124.256C257.071 124.204 257.071 124.153 257.071 124.101H246.908C246.908 124.128 246.908 124.154 246.908 124.181L257.071 124.256ZM257.071 131.916V124.218H246.907V131.916H257.071ZM238.294 152.124C248.938 151.539 257.071 142.553 257.071 131.916H246.907C246.907 137.39 242.763 141.7 237.737 141.976L238.294 152.124ZM223.558 152.933L238.294 152.124L237.737 141.976L223.001 142.785L223.558 152.933ZM215.768 145.494C215.768 149.631 219.191 153.173 223.558 152.933L223.001 142.785C224.728 142.69 225.932 144.073 225.932 145.494H215.768ZM215.768 131.873V145.494H225.932V131.873H215.768ZM215.769 131.731C215.769 131.778 215.768 131.825 215.768 131.873H225.932C225.932 131.889 225.931 131.906 225.931 131.922L215.769 131.731ZM215.769 124.058V131.827H225.932V124.058H215.769ZM220.048 117.3C217.388 118.544 215.769 121.213 215.769 124.058H225.932C225.932 125.047 225.368 126.032 224.353 126.506L220.048 117.3Z" fill="#445377"/>
<g filter="url(#filter3_i_631_13758)">
<path d="M261.295 53.0043L221.621 89.3499C221.13 89.7992 220.85 90.442 220.85 91.1168V115.219C220.85 116.934 222.57 118.08 224.096 117.382L252.284 104.478C260.102 100.9 265.137 92.9352 265.137 84.1482V54.7711C265.137 52.7257 262.781 51.6424 261.295 53.0043Z" fill="#7184B2"/>
<path d="M248.726 117.315L222.2 129.72C221.378 130.104 220.85 130.947 220.85 131.875V145.496C220.85 146.854 221.959 147.933 223.28 147.861L238.015 147.052C245.851 146.621 251.989 139.973 251.989 131.918V119.47C251.989 117.747 250.254 116.601 248.726 117.315Z" fill="#7184B2"/>
<path d="M261.295 53.0043L221.621 89.3499C221.13 89.7992 220.85 90.442 220.85 91.1168V115.219C220.85 116.934 222.57 118.08 224.096 117.382L252.284 104.478C260.102 100.9 265.137 92.9352 265.137 84.1482V54.7711C265.137 52.7257 262.781 51.6424 261.295 53.0043Z" stroke="black"/>
<path d="M248.726 117.315L222.2 129.72C221.378 130.104 220.85 130.947 220.85 131.875V145.496C220.85 146.854 221.959 147.933 223.28 147.861L238.015 147.052C245.851 146.621 251.989 139.973 251.989 131.918V119.47C251.989 117.747 250.254 116.601 248.726 117.315Z" stroke="black"/>
</g>
<g filter="url(#filter4_i_631_13758)">
<path d="M261.295 45.1879L221.621 81.5335C221.131 81.9828 220.85 82.6255 220.85 83.3003V107.402C220.85 109.117 222.571 110.264 224.096 109.565L252.285 96.6619C260.102 93.0835 265.137 85.1188 265.137 76.3318V46.9547C265.137 44.9093 262.782 43.826 261.295 45.1879Z" fill="#CAD5F0"/>
<path d="M248.727 109.498L222.201 121.903C221.378 122.288 220.85 123.13 220.85 124.058V137.68C220.85 139.037 221.96 140.117 223.28 140.044L238.016 139.235C245.851 138.805 251.99 132.157 251.99 124.101V111.653C251.99 109.93 250.254 108.784 248.727 109.498Z" fill="#CAD5F0"/>
<path d="M261.295 45.1879L221.621 81.5335C221.131 81.9828 220.85 82.6255 220.85 83.3003V107.402C220.85 109.117 222.571 110.264 224.096 109.565L252.285 96.6619C260.102 93.0835 265.137 85.1188 265.137 76.3318V46.9547C265.137 44.9093 262.782 43.826 261.295 45.1879Z" stroke="black"/>
<path d="M248.727 109.498L222.201 121.903C221.378 122.288 220.85 123.13 220.85 124.058V137.68C220.85 139.037 221.96 140.117 223.28 140.044L238.016 139.235C245.851 138.805 251.99 132.157 251.99 124.101V111.653C251.99 109.93 250.254 108.784 248.727 109.498Z" stroke="black"/>
</g>
<g filter="url(#filter5_i_631_13758)">
<path fill-rule="evenodd" clip-rule="evenodd" d="M62.4696 81.014L22.7958 44.6683C21.3092 43.3065 18.9534 44.3898 18.9534 46.4352V54.2496V75.8122V83.6267C18.9534 92.4137 23.9886 100.378 31.8059 103.957L59.9945 116.86C61.5201 117.559 63.2405 116.412 63.2405 114.697V106.883V90.5953V82.7808C63.2405 82.106 62.9601 81.4633 62.4696 81.014ZM61.89 121.384L35.3639 108.979C33.8365 108.265 32.1011 109.411 32.1011 111.134V118.948V123.582V131.396C32.1011 139.452 38.2395 146.1 46.075 146.53L60.8107 147.339C62.1311 147.412 63.2405 146.332 63.2405 144.975V137.16V131.353V123.539C63.2405 122.611 62.7126 121.768 61.89 121.384Z" fill="#CAD5F0"/>
</g>
<path d="M22.7958 44.6683L19.363 48.4154L22.7958 44.6683ZM62.4696 81.014L65.9024 77.2669L65.9024 77.2669L62.4696 81.014ZM31.8059 103.957L33.921 99.3361L31.8059 103.957ZM59.9945 116.86L57.8794 121.481H57.8794L59.9945 116.86ZM35.3639 108.979L33.2112 113.582H33.2112L35.3639 108.979ZM61.89 121.384L59.7373 125.987L59.7373 125.987L61.89 121.384ZM46.075 146.53L46.3536 141.456H46.3536L46.075 146.53ZM60.8107 147.339L60.532 152.414H60.532L60.8107 147.339ZM26.2285 40.9212L65.9024 77.2669L59.0369 84.7611L19.363 48.4154L26.2285 40.9212ZM13.8716 46.4352C13.8716 40.2461 21.2792 36.3871 26.2285 40.9212L19.363 48.4154C21.3393 50.2259 24.0352 48.5335 24.0352 46.4352H13.8716ZM13.8716 54.2496V46.4352H24.0352V54.2496H13.8716ZM13.8716 75.8122V54.2496H24.0352V75.8122H13.8716ZM13.8716 83.6267V75.8122H24.0352V83.6267H13.8716ZM29.6908 108.577C20.015 104.148 13.8716 94.3449 13.8716 83.6267H24.0352C24.0352 90.4825 27.9623 96.6085 33.921 99.3361L29.6908 108.577ZM57.8794 121.481L29.6908 108.577L33.921 99.3361L62.1097 112.24L57.8794 121.481ZM68.3223 114.697C68.3223 119.9 62.9636 123.808 57.8794 121.481L62.1096 112.24C60.0767 111.309 58.1587 112.925 58.1587 114.697H68.3223ZM68.3223 106.883V114.697H58.1587V106.883H68.3223ZM68.3223 90.5953V106.883H58.1587V90.5953H68.3223ZM68.3223 82.7808V90.5953H58.1587V82.7808H68.3223ZM65.9024 77.2669C67.4608 78.6946 68.3223 80.7047 68.3223 82.7808H58.1587C58.1587 83.5074 58.4593 84.2319 59.0369 84.7611L65.9024 77.2669ZM37.5166 104.376L64.0427 116.78L59.7373 125.987L33.2112 113.582L37.5166 104.376ZM27.0193 111.134C27.0193 105.907 32.4262 101.995 37.5166 104.376L33.2112 113.582C35.2468 114.534 37.1829 112.915 37.1829 111.134H27.0193ZM27.0193 118.948V111.134H37.1829V118.948H27.0193ZM27.0193 123.582V118.948H37.1829V123.582H27.0193ZM27.0193 131.396V123.582H37.1829V131.396H27.0193ZM45.7963 151.604C35.1519 151.02 27.0193 142.034 27.0193 131.396H37.1829C37.1829 136.87 41.3272 141.18 46.3536 141.456L45.7963 151.604ZM60.532 152.414L45.7963 151.604L46.3536 141.456L61.0893 142.265L60.532 152.414ZM68.3223 144.975C68.3223 149.111 64.8994 152.653 60.532 152.414L61.0893 142.265C59.3627 142.17 58.1587 143.553 58.1587 144.975H68.3223ZM68.3223 137.16V144.975H58.1587V137.16H68.3223ZM68.3223 131.353V137.16H58.1587V131.353H68.3223ZM68.3223 123.539V131.353H58.1587V123.539H68.3223ZM64.0427 116.78C66.7023 118.024 68.3223 120.693 68.3223 123.539H58.1587C58.1587 124.528 58.7228 125.512 59.7373 125.987L64.0427 116.78Z" fill="#445377"/>
<g filter="url(#filter6_i_631_13758)">
<path d="M22.7958 52.4828L62.4696 88.8284C62.9601 89.2777 63.2405 89.9205 63.2405 90.5953V114.697C63.2405 116.412 61.5201 117.559 59.9945 116.86L31.8059 103.957C23.9886 100.378 18.9534 92.4137 18.9534 83.6267V54.2496C18.9534 52.2042 21.3092 51.1209 22.7958 52.4828Z" fill="#7184B2"/>
<path d="M35.3639 116.793L61.89 129.198C62.7126 129.583 63.2405 130.425 63.2405 131.353V144.975C63.2405 146.332 62.1311 147.412 60.8107 147.339L46.075 146.53C38.2395 146.1 32.1011 139.452 32.1011 131.396V118.948C32.1011 117.225 33.8365 116.079 35.3639 116.793Z" fill="#7184B2"/>
<path d="M22.7958 52.4828L62.4696 88.8284C62.9601 89.2777 63.2405 89.9205 63.2405 90.5953V114.697C63.2405 116.412 61.5201 117.559 59.9945 116.86L31.8059 103.957C23.9886 100.378 18.9534 92.4137 18.9534 83.6267V54.2496C18.9534 52.2042 21.3092 51.1209 22.7958 52.4828Z" stroke="black"/>
<path d="M35.3639 116.793L61.89 129.198C62.7126 129.583 63.2405 130.425 63.2405 131.353V144.975C63.2405 146.332 62.1311 147.412 60.8107 147.339L46.075 146.53C38.2395 146.1 32.1011 139.452 32.1011 131.396V118.948C32.1011 117.225 33.8365 116.079 35.3639 116.793Z" stroke="black"/>
</g>
<g filter="url(#filter7_i_631_13758)">
<path d="M22.7958 44.6683L62.4696 81.014C62.9601 81.4633 63.2405 82.106 63.2405 82.7808V106.883C63.2405 108.598 61.5201 109.744 59.9945 109.046L31.8059 96.1423C23.9886 92.564 18.9534 84.5993 18.9534 75.8122V46.4352C18.9534 44.3898 21.3092 43.3065 22.7958 44.6683Z" fill="#CAD5F0"/>
<path d="M35.3639 108.979L61.89 121.384C62.7126 121.768 63.2405 122.611 63.2405 123.539V137.16C63.2405 138.518 62.1311 139.597 60.8107 139.525L46.075 138.716C38.2395 138.285 32.1011 131.637 32.1011 123.582V111.134C32.1011 109.411 33.8365 108.265 35.3639 108.979Z" fill="#CAD5F0"/>
<path d="M22.7958 44.6683L62.4696 81.014C62.9601 81.4633 63.2405 82.106 63.2405 82.7808V106.883C63.2405 108.598 61.5201 109.744 59.9945 109.046L31.8059 96.1423C23.9886 92.564 18.9534 84.5993 18.9534 75.8122V46.4352C18.9534 44.3898 21.3092 43.3065 22.7958 44.6683Z" stroke="black"/>
<path d="M35.3639 108.979L61.89 121.384C62.7126 121.768 63.2405 122.611 63.2405 123.539V137.16C63.2405 138.518 62.1311 139.597 60.8107 139.525L46.075 138.716C38.2395 138.285 32.1011 131.637 32.1011 123.582V111.134C32.1011 109.411 33.8365 108.265 35.3639 108.979Z" stroke="black"/>
</g>
<defs>
<filter id="filter0_ii_631_13758" x="71.5247" y="40.2031" width="140.781" height="158.813" filterUnits="userSpaceOnUse" color-interpolation-filters="sRGB">
<feFlood flood-opacity="0" result="BackgroundImageFix"/>
<feBlend mode="normal" in="SourceGraphic" in2="BackgroundImageFix" result="shape"/>
<feColorMatrix in="SourceAlpha" type="matrix" values="0 0 0 0 0 0 0 0 0 0 0 0 0 0 0 0 0 0 127 0" result="hardAlpha"/>
<feOffset dy="10.3761"/>
<feComposite in2="hardAlpha" operator="arithmetic" k2="-1" k3="1"/>
<feColorMatrix type="matrix" values="0 0 0 0 0.9 0 0 0 0 0.929032 0 0 0 0 1 0 0 0 1 0"/>
<feBlend mode="normal" in2="shape" result="effect1_innerShadow_631_13758"/>
<feColorMatrix in="SourceAlpha" type="matrix" values="0 0 0 0 0 0 0 0 0 0 0 0 0 0 0 0 0 0 127 0" result="hardAlpha"/>
<feOffset dy="-39.7752"/>
<feComposite in2="hardAlpha" operator="arithmetic" k2="-1" k3="1"/>
<feColorMatrix type="matrix" values="0 0 0 0 0.564706 0 0 0 0 0.627451 0 0 0 0 0.780392 0 0 0 0.5 0"/>
<feBlend mode="normal" in2="effect1_innerShadow_631_13758" result="effect2_innerShadow_631_13758"/>
</filter>
<filter id="filter1_i_631_13758" x="91.8645" y="66.7754" width="100.622" height="112.442" filterUnits="userSpaceOnUse" color-interpolation-filters="sRGB">
<feFlood flood-opacity="0" result="BackgroundImageFix"/>
<feBlend mode="normal" in="SourceGraphic" in2="BackgroundImageFix" result="shape"/>
<feColorMatrix in="SourceAlpha" type="matrix" values="0 0 0 0 0 0 0 0 0 0 0 0 0 0 0 0 0 0 127 0" result="hardAlpha"/>
<feOffset dy="5.21024"/>
<feComposite in2="hardAlpha" operator="arithmetic" k2="-1" k3="1"/>
<feColorMatrix type="matrix" values="0 0 0 0 0.443137 0 0 0 0 0.517647 0 0 0 0 0.698039 0 0 0 1 0"/>
<feBlend mode="normal" in2="shape" result="effect1_innerShadow_631_13758"/>
</filter>
<filter id="filter2_i_631_13758" x="215.768" y="39.4619" width="54.4512" height="113.482" filterUnits="userSpaceOnUse" color-interpolation-filters="sRGB">
<feFlood flood-opacity="0" result="BackgroundImageFix"/>
<feBlend mode="normal" in="SourceGraphic" in2="BackgroundImageFix" result="shape"/>
<feColorMatrix in="SourceAlpha" type="matrix" values="0 0 0 0 0 0 0 0 0 0 0 0 0 0 0 0 0 0 127 0" result="hardAlpha"/>
<feOffset dy="7.29434"/>
<feComposite in2="hardAlpha" operator="arithmetic" k2="-1" k3="1"/>
<feColorMatrix type="matrix" values="0 0 0 0 0.898039 0 0 0 0 0.929412 0 0 0 0 1 0 0 0 1 0"/>
<feBlend mode="normal" in2="shape" result="effect1_innerShadow_631_13758"/>
</filter>
<filter id="filter3_i_631_13758" x="220.85" y="52.3984" width="44.2871" height="95.4658" filterUnits="userSpaceOnUse" color-interpolation-filters="sRGB">
<feFlood flood-opacity="0" result="BackgroundImageFix"/>
<feBlend mode="normal" in="SourceGraphic" in2="BackgroundImageFix" result="shape"/>
<feColorMatrix in="SourceAlpha" type="matrix" values="0 0 0 0 0 0 0 0 0 0 0 0 0 0 0 0 0 0 127 0" result="hardAlpha"/>
<feOffset dy="7.29434"/>
<feComposite in2="hardAlpha" operator="arithmetic" k2="-1" k3="1"/>
<feColorMatrix type="matrix" values="0 0 0 0 0.898039 0 0 0 0 0.929412 0 0 0 0 1 0 0 0 1 0"/>
<feBlend mode="normal" in2="shape" result="effect1_innerShadow_631_13758"/>
</filter>
<filter id="filter4_i_631_13758" x="220.85" y="44.582" width="44.2871" height="95.4658" filterUnits="userSpaceOnUse" color-interpolation-filters="sRGB">
<feFlood flood-opacity="0" result="BackgroundImageFix"/>
<feBlend mode="normal" in="SourceGraphic" in2="BackgroundImageFix" result="shape"/>
<feColorMatrix in="SourceAlpha" type="matrix" values="0 0 0 0 0 0 0 0 0 0 0 0 0 0 0 0 0 0 127 0" result="hardAlpha"/>
<feOffset dy="7.29434"/>
<feComposite in2="hardAlpha" operator="arithmetic" k2="-1" k3="1"/>
<feColorMatrix type="matrix" values="0 0 0 0 0.898039 0 0 0 0 0.929412 0 0 0 0 1 0 0 0 1 0"/>
<feBlend mode="normal" in2="shape" result="effect1_innerShadow_631_13758"/>
</filter>
<filter id="filter5_i_631_13758" x="13.8716" y="38.9424" width="54.4507" height="113.482" filterUnits="userSpaceOnUse" color-interpolation-filters="sRGB">
<feFlood flood-opacity="0" result="BackgroundImageFix"/>
<feBlend mode="normal" in="SourceGraphic" in2="BackgroundImageFix" result="shape"/>
<feColorMatrix in="SourceAlpha" type="matrix" values="0 0 0 0 0 0 0 0 0 0 0 0 0 0 0 0 0 0 127 0" result="hardAlpha"/>
<feOffset dy="7.29434"/>
<feComposite in2="hardAlpha" operator="arithmetic" k2="-1" k3="1"/>
<feColorMatrix type="matrix" values="0 0 0 0 0.898039 0 0 0 0 0.929412 0 0 0 0 1 0 0 0 1 0"/>
<feBlend mode="normal" in2="shape" result="effect1_innerShadow_631_13758"/>
</filter>
<filter id="filter6_i_631_13758" x="18.9534" y="51.877" width="44.2871" height="95.4658" filterUnits="userSpaceOnUse" color-interpolation-filters="sRGB">
<feFlood flood-opacity="0" result="BackgroundImageFix"/>
<feBlend mode="normal" in="SourceGraphic" in2="BackgroundImageFix" result="shape"/>
<feColorMatrix in="SourceAlpha" type="matrix" values="0 0 0 0 0 0 0 0 0 0 0 0 0 0 0 0 0 0 127 0" result="hardAlpha"/>
<feOffset dy="7.29434"/>
<feComposite in2="hardAlpha" operator="arithmetic" k2="-1" k3="1"/>
<feColorMatrix type="matrix" values="0 0 0 0 0.898039 0 0 0 0 0.929412 0 0 0 0 1 0 0 0 1 0"/>
<feBlend mode="normal" in2="shape" result="effect1_innerShadow_631_13758"/>
</filter>
<filter id="filter7_i_631_13758" x="18.9534" y="44.0625" width="44.2871" height="95.4658" filterUnits="userSpaceOnUse" color-interpolation-filters="sRGB">
<feFlood flood-opacity="0" result="BackgroundImageFix"/>
<feBlend mode="normal" in="SourceGraphic" in2="BackgroundImageFix" result="shape"/>
<feColorMatrix in="SourceAlpha" type="matrix" values="0 0 0 0 0 0 0 0 0 0 0 0 0 0 0 0 0 0 127 0" result="hardAlpha"/>
<feOffset dy="7.29434"/>
<feComposite in2="hardAlpha" operator="arithmetic" k2="-1" k3="1"/>
<feColorMatrix type="matrix" values="0 0 0 0 0.898039 0 0 0 0 0.929412 0 0 0 0 1 0 0 0 1 0"/>
<feBlend mode="normal" in2="shape" result="effect1_innerShadow_631_13758"/>
</filter>
<linearGradient id="paint0_linear_631_13758" x1="125.242" y1="-8.82263" x2="156.012" y2="388.255" gradientUnits="userSpaceOnUse">
<stop stop-color="#E0E9FF"/>
<stop offset="1" stop-color="#90A0C7"/>
</linearGradient>
</defs>
</svg>
