<svg xmlns="http://www.w3.org/2000/svg" width="221" height="105" viewBox="0 0 221 105" fill="none">
  <g filter="url(#filter0_d_25_423)">
    <mask id="path-1-outside-1_25_423" maskUnits="userSpaceOnUse" x="0.0441895" y="0.445312" width="221" height="99" fill="black">
      <rect fill="white" x="0.0441895" y="0.445312" width="221" height="99"/>
      <path fill-rule="evenodd" clip-rule="evenodd" d="M24.0442 8.44531C15.2076 8.44531 8.04419 15.6088 8.04419 24.4453V67.6753C8.04419 67.6812 8.04419 67.6871 8.0442 67.693V74.8783C8.0442 83.7149 15.2076 90.8783 24.0442 90.8783H196.971C205.807 90.8783 212.971 83.7149 212.971 74.8783V67.6753V31.6483V24.4453C212.971 15.6088 205.807 8.44531 196.971 8.44531H24.0442Z"/>
    </mask>
    <path fill-rule="evenodd" clip-rule="evenodd" d="M24.0442 8.44531C15.2076 8.44531 8.04419 15.6088 8.04419 24.4453V67.6753C8.04419 67.6812 8.04419 67.6871 8.0442 67.693V74.8783C8.0442 83.7149 15.2076 90.8783 24.0442 90.8783H196.971C205.807 90.8783 212.971 83.7149 212.971 74.8783V67.6753V31.6483V24.4453C212.971 15.6088 205.807 8.44531 196.971 8.44531H24.0442Z" fill="url(#paint0_linear_25_423)"/>
    <path d="M8.0442 67.693H16.0442L16.0442 67.6843L8.0442 67.693ZM16.0442 24.4453C16.0442 20.027 19.6259 16.4453 24.0442 16.4453V0.445312C10.7894 0.445312 0.0441895 11.1905 0.0441895 24.4453H16.0442ZM16.0442 67.6753V24.4453H0.0441895V67.6753H16.0442ZM16.0442 67.6843C16.0442 67.6813 16.0442 67.6783 16.0442 67.6753H0.0441895C0.0441895 67.6841 0.0441942 67.6928 0.0442038 67.7016L16.0442 67.6843ZM16.0442 74.8783V67.693H0.044199V74.8783H16.0442ZM24.0442 82.8783C19.6259 82.8783 16.0442 79.2966 16.0442 74.8783H0.044199C0.044199 88.1331 10.7894 98.8783 24.0442 98.8783V82.8783ZM196.971 82.8783H24.0442V98.8783H196.971V82.8783ZM204.971 74.8783C204.971 79.2966 201.389 82.8783 196.971 82.8783V98.8783C210.226 98.8783 220.971 88.1331 220.971 74.8783H204.971ZM204.971 67.6753V74.8783H220.971V67.6753H204.971ZM204.971 31.6483V67.6753H220.971V31.6483H204.971ZM204.971 24.4453V31.6483H220.971V24.4453H204.971ZM196.971 16.4453C201.389 16.4453 204.971 20.027 204.971 24.4453H220.971C220.971 11.1905 210.226 0.445312 196.971 0.445312V16.4453ZM24.0442 16.4453H196.971V0.445312H24.0442V16.4453Z" fill="white" mask="url(#path-1-outside-1_25_423)"/>
    <mask id="path-3-outside-2_25_423" maskUnits="userSpaceOnUse" x="5.04419" y="5.44531" width="211" height="89" fill="black">
      <rect fill="white" x="5.04419" y="5.44531" width="211" height="89"/>
      <path fill-rule="evenodd" clip-rule="evenodd" d="M24.0442 8.44531C15.2076 8.44531 8.04419 15.6088 8.04419 24.4453V67.6753C8.04419 67.6812 8.04419 67.6871 8.0442 67.693V74.8783C8.0442 83.7149 15.2076 90.8783 24.0442 90.8783H196.971C205.807 90.8783 212.971 83.7149 212.971 74.8783V67.6753V31.6483V24.4453C212.971 15.6088 205.807 8.44531 196.971 8.44531H24.0442Z"/>
    </mask>
    <path fill-rule="evenodd" clip-rule="evenodd" d="M24.0442 8.44531C15.2076 8.44531 8.04419 15.6088 8.04419 24.4453V67.6753C8.04419 67.6812 8.04419 67.6871 8.0442 67.693V74.8783C8.0442 83.7149 15.2076 90.8783 24.0442 90.8783H196.971C205.807 90.8783 212.971 83.7149 212.971 74.8783V67.6753V31.6483V24.4453C212.971 15.6088 205.807 8.44531 196.971 8.44531H24.0442Z" fill="url(#paint1_linear_25_423)"/>
    <path d="M8.0442 67.693H11.0442L11.0442 67.6897L8.0442 67.693ZM11.0442 24.4453C11.0442 17.2656 16.8645 11.4453 24.0442 11.4453V5.44531C13.5508 5.44531 5.04419 13.9519 5.04419 24.4453H11.0442ZM11.0442 67.6753V24.4453H5.04419V67.6753H11.0442ZM11.0442 67.6897C11.0442 67.6849 11.0442 67.6801 11.0442 67.6753H5.04419C5.04419 67.6823 5.04419 67.6892 5.0442 67.6962L11.0442 67.6897ZM11.0442 74.8783V67.693H5.0442V74.8783H11.0442ZM24.0442 87.8783C16.8645 87.8783 11.0442 82.058 11.0442 74.8783H5.0442C5.0442 85.3717 13.5508 93.8783 24.0442 93.8783V87.8783ZM196.971 87.8783H24.0442V93.8783H196.971V87.8783ZM209.971 74.8783C209.971 82.058 204.151 87.8783 196.971 87.8783V93.8783C207.464 93.8783 215.971 85.3717 215.971 74.8783H209.971ZM209.971 67.6753V74.8783H215.971V67.6753H209.971ZM209.971 31.6483V67.6753H215.971V31.6483H209.971ZM209.971 24.4453V31.6483H215.971V24.4453H209.971ZM196.971 11.4453C204.151 11.4453 209.971 17.2656 209.971 24.4453H215.971C215.971 13.9519 207.464 5.44531 196.971 5.44531V11.4453ZM24.0442 11.4453H196.971V5.44531H24.0442V11.4453Z" fill="#327d2d" mask="url(#path-3-outside-2_25_423)"/>
    <path d="M8.04419 30.9106C8.04419 22.0741 15.2076 14.9106 24.0442 14.9106H196.971C205.807 14.9106 212.971 22.0741 212.971 30.9106V74.8782C212.971 83.7147 205.807 90.8782 196.971 90.8782H24.0442C15.2076 90.8782 8.04419 83.7147 8.04419 74.8782V30.9106Z" fill="#66BB6A"/>
    <rect x="10.0442" y="10.4453" width="200.927" height="71.9675" rx="14" fill="url(#paint2_linear_25_423)" stroke="url(#paint3_linear_25_423)" stroke-width="4"/>
  </g>
  <defs>
    <filter id="filter0_d_25_423" x="0.0441895" y="0.445312" width="220.927" height="104.433" filterUnits="userSpaceOnUse" color-interpolation-filters="sRGB">
      <feFlood flood-opacity="0" result="BackgroundImageFix"/>
      <feColorMatrix in="SourceAlpha" type="matrix" values="0 0 0 0 0 0 0 0 0 0 0 0 0 0 0 0 0 0 127 0" result="hardAlpha"/>
      <feOffset dy="6"/>
      <feComposite in2="hardAlpha" operator="out"/>
      <feColorMatrix type="matrix" values="0 0 0 0 0 0 0 0 0 0 0 0 0 0 0 0 0 0 0.4 0"/>
      <feBlend mode="normal" in2="BackgroundImageFix" result="effect1_dropShadow_25_423"/>
      <feBlend mode="normal" in="SourceGraphic" in2="effect1_dropShadow_25_423" result="shape"/>
    </filter>
    <linearGradient id="paint0_linear_25_423" x1="99.9985" y1="142.95" x2="100.301" y2="8.42237" gradientUnits="userSpaceOnUse">
      <stop stop-color="#008000"/>
      <stop offset="0.921875" stop-color="#32CD32"/>
    </linearGradient>
    <linearGradient id="paint1_linear_25_423" x1="99.9985" y1="142.95" x2="100.301" y2="8.42237" gradientUnits="userSpaceOnUse">
      <stop stop-color="#008000"/>
      <stop offset="0.921875" stop-color="#32CD32"/>
    </linearGradient>
    <linearGradient id="paint2_linear_25_423" x1="110.875" y1="128.054" x2="96.8124" y2="-25.8289" gradientUnits="userSpaceOnUse">
      <stop offset="0.136752" stop-color="#adda3d"/>
      <stop offset="1" stop-color="#67d672"/>
    </linearGradient>
    <linearGradient id="paint3_linear_25_423" x1="110.508" y1="8.44531" x2="110.508" y2="84.4129" gradientUnits="userSpaceOnUse">
      <stop stop-color="#F0FFF0"/>
      <stop offset="0.888298" stop-color="#98FB98"/>
    </linearGradient>
  </defs>
</svg>