<svg xmlns="http://www.w3.org/2000/svg" width="61" height="50" viewBox="0 0 61 50" fill="none">
  <mask id="path-1-outside-1_25_437" maskUnits="userSpaceOnUse" x="0.533936" y="0.705322" width="60" height="49" fill="black">
    <rect fill="white" x="0.533936" y="0.705322" width="60" height="49"/>
    <path fill-rule="evenodd" clip-rule="evenodd" d="M15.1071 6.70532H45.7256C50.4605 6.70532 54.2988 10.5437 54.2988 15.2785L53.3726 27.7824L53.1384 34.8699C53.1384 39.6073 49.2948 43.4477 44.5535 43.4477H16.3459C11.6046 43.4477 7.76096 39.6073 7.76096 34.8699L7.47014 27.9173L6.53394 15.2785C6.53394 11.341 9.18841 8.02345 12.8055 7.0178C13.4635 6.81493 14.1653 6.70539 14.9048 6.70539L14.9663 6.70645C15.0132 6.7057 15.0601 6.70532 15.1071 6.70532Z"/>
  </mask>
  <path d="M54.2988 15.2785L60.2824 15.7217L60.2988 15.5004V15.2785H54.2988ZM53.3726 27.7824L47.389 27.3392L47.3799 27.4616L47.3759 27.5842L53.3726 27.7824ZM53.1384 34.8699L47.1416 34.6717L47.1384 34.7708V34.8699H53.1384ZM7.76096 34.8699H13.761V34.7445L13.7557 34.6191L7.76096 34.8699ZM7.47014 27.9173L13.4649 27.6665L13.4609 27.5702L13.4537 27.4741L7.47014 27.9173ZM6.53394 15.2785H0.533936V15.5004L0.550329 15.7217L6.53394 15.2785ZM12.8055 7.0178L14.4127 12.7985L14.4933 12.7761L14.5733 12.7515L12.8055 7.0178ZM14.9048 6.70539L15.0083 0.706286L14.9566 0.705394H14.9048V6.70539ZM14.9663 6.70645L14.8629 12.7056L14.9629 12.7073L15.0629 12.7057L14.9663 6.70645ZM45.7256 0.705322H15.1071V12.7053H45.7256V0.705322ZM60.2988 15.2785C60.2988 7.22996 53.7742 0.705322 45.7256 0.705322V12.7053C47.1468 12.7053 48.2988 13.8574 48.2988 15.2785H60.2988ZM59.3562 28.2256L60.2824 15.7217L48.3152 14.8353L47.389 27.3392L59.3562 28.2256ZM59.1351 35.0681L59.3693 27.9806L47.3759 27.5842L47.1416 34.6717L59.1351 35.0681ZM44.5535 49.4477C52.6038 49.4477 59.1384 42.9257 59.1384 34.8699H47.1384C47.1384 36.2889 45.9857 37.4477 44.5535 37.4477V49.4477ZM16.3459 49.4477H44.5535V37.4477H16.3459V49.4477ZM1.76096 34.8699C1.76096 42.9257 8.29553 49.4477 16.3459 49.4477V37.4477C14.9136 37.4477 13.761 36.2889 13.761 34.8699H1.76096ZM1.47539 28.1681L1.76621 35.1206L13.7557 34.6191L13.4649 27.6665L1.47539 28.1681ZM0.550329 15.7217L1.48654 28.3605L13.4537 27.4741L12.5175 14.8353L0.550329 15.7217ZM11.1983 1.23707C5.05258 2.94575 0.533936 8.5767 0.533936 15.2785H12.5339C12.5339 14.1053 13.3242 13.1012 14.4127 12.7985L11.1983 1.23707ZM14.9048 0.705394C13.5663 0.705394 12.2686 0.904621 11.0376 1.28415L14.5733 12.7515C14.6583 12.7252 14.7643 12.7054 14.9048 12.7054V0.705394ZM15.0698 0.707346L15.0083 0.706286L14.8014 12.7045L14.8629 12.7056L15.0698 0.707346ZM15.1071 0.705322C15.0279 0.705322 14.9488 0.70596 14.8698 0.707232L15.0629 12.7057C15.0776 12.7054 15.0923 12.7053 15.1071 12.7053V0.705322Z" fill="white" mask="url(#path-1-outside-1_25_437)"/>
  <mask id="path-3-outside-2_25_437" maskUnits="userSpaceOnUse" x="3.53394" y="3.70532" width="54" height="43" fill="black">
    <rect fill="white" x="3.53394" y="3.70532" width="54" height="43"/>
    <path fill-rule="evenodd" clip-rule="evenodd" d="M15.1071 6.70532H45.7256C50.4605 6.70532 54.2988 10.5437 54.2988 15.2785L53.3726 27.7824L53.1384 34.8699C53.1384 39.6073 49.2948 43.4477 44.5535 43.4477H16.3459C11.6046 43.4477 7.76096 39.6073 7.76096 34.8699L7.47014 27.9173L6.53394 15.2785C6.53394 11.341 9.18841 8.02345 12.8055 7.0178C13.4635 6.81493 14.1653 6.70539 14.9048 6.70539L14.9663 6.70645C15.0132 6.7057 15.0601 6.70532 15.1071 6.70532Z"/>
  </mask>
  <path d="M54.2988 15.2785L57.2906 15.5001L57.2988 15.3895V15.2785H54.2988ZM53.3726 27.7824L50.3808 27.5608L50.3763 27.622L50.3742 27.6833L53.3726 27.7824ZM53.1384 34.8699L50.14 34.7708L50.1384 34.8203V34.8699H53.1384ZM7.76096 34.8699H10.761V34.8072L10.7583 34.7445L7.76096 34.8699ZM7.47014 27.9173L10.4675 27.7919L10.4655 27.7438L10.4619 27.6957L7.47014 27.9173ZM6.53394 15.2785H3.53394V15.3895L3.54213 15.5001L6.53394 15.2785ZM12.8055 7.0178L13.6091 9.90817L13.6494 9.89696L13.6894 9.88463L12.8055 7.0178ZM14.9048 6.70539L14.9566 3.70584L14.9307 3.70539H14.9048V6.70539ZM14.9663 6.70645L14.9146 9.70601L14.9646 9.70687L15.0146 9.70607L14.9663 6.70645ZM45.7256 3.70532H15.1071V9.70532H45.7256V3.70532ZM57.2988 15.2785C57.2988 8.88681 52.1173 3.70532 45.7256 3.70532V9.70532C48.8036 9.70532 51.2988 12.2005 51.2988 15.2785H57.2988ZM56.3644 28.004L57.2906 15.5001L51.307 15.0569L50.3808 27.5608L56.3644 28.004ZM56.1367 34.969L56.371 27.8815L50.3742 27.6833L50.14 34.7708L56.1367 34.969ZM44.5535 46.4477C50.9493 46.4477 56.1384 41.2665 56.1384 34.8699H50.1384C50.1384 37.9481 47.6403 40.4477 44.5535 40.4477V46.4477ZM16.3459 46.4477H44.5535V40.4477H16.3459V46.4477ZM4.76096 34.8699C4.76096 41.2665 9.95004 46.4477 16.3459 46.4477V40.4477C13.2591 40.4477 10.761 37.9481 10.761 34.8699H4.76096ZM4.47276 28.0427L4.76358 34.9953L10.7583 34.7445L10.4675 27.7919L4.47276 28.0427ZM3.54213 15.5001L4.47834 28.1389L10.4619 27.6957L9.52574 15.0569L3.54213 15.5001ZM12.0019 4.12744C7.1205 5.4846 3.53394 9.95884 3.53394 15.2785H9.53394C9.53394 12.7231 11.2563 10.5623 13.6091 9.90817L12.0019 4.12744ZM14.9048 3.70539C13.8658 3.70539 12.866 3.85977 11.9216 4.15098L13.6894 9.88463C14.0609 9.77008 14.4648 9.70539 14.9048 9.70539V3.70539ZM15.0181 3.7069L14.9566 3.70584L14.8531 9.70495L14.9146 9.70601L15.0181 3.7069ZM15.1071 3.70532C15.044 3.70532 14.981 3.70583 14.9181 3.70684L15.0146 9.70607C15.0454 9.70557 15.0762 9.70532 15.1071 9.70532V3.70532Z" fill="#B8550E" mask="url(#path-3-outside-2_25_437)"/>
  <path fill-rule="evenodd" clip-rule="evenodd" d="M14.905 6.70538C10.1636 6.70538 6.96948 11.2079 6.96948 15.9453L7.76108 34.8699C7.76108 39.6073 11.6047 43.4477 16.346 43.4477H44.5536C49.2949 43.4477 53.1385 39.6073 53.1385 34.8699L53.6574 19.1691C53.7663 15.8734 53.9776 12.2707 52.0267 9.6122C50.8809 8.05074 49.1748 7.24891 46.4294 7.24891L14.905 6.70538ZM27.0257 18.4673C33.9495 21.8947 37.4037 25.063 38.9011 26.5819C39.4132 27.1008 39.4132 27.947 38.9011 28.4659C37.4037 30.1337 33.9495 33.1531 27.0257 36.5805C26.1801 37.0082 25.1929 36.3637 25.1929 35.3895V19.6583C25.1929 18.6842 26.1801 18.0396 27.0257 18.4673Z" fill="url(#paint0_linear_25_437)"/>
  <path fill-rule="evenodd" clip-rule="evenodd" d="M15.1071 6.70532C10.3723 6.70532 6.53394 10.5437 6.53394 15.2785L7.75868 31.8125C7.75868 36.5473 11.597 40.3857 16.3319 40.3857H44.5009C49.2357 40.3857 53.0741 36.5473 53.0741 31.8125L54.2988 15.2785C54.2988 10.5437 50.4605 6.70532 45.7256 6.70532H15.1071Z" fill="url(#paint1_linear_25_437)"/>
  <path fill-rule="evenodd" clip-rule="evenodd" d="M15.1071 6.70532C10.3723 6.70532 6.53394 10.5437 6.53394 15.2785L7.75868 31.8125C7.75868 36.5473 11.597 40.3857 16.3319 40.3857H44.5009C49.2357 40.3857 53.0741 36.5473 53.0741 31.8125L54.2988 15.2785C54.2988 10.5437 50.4605 6.70532 45.7256 6.70532H15.1071Z" fill="url(#paint2_linear_25_437)"/>
  <mask id="path-7-outside-3_25_437" maskUnits="userSpaceOnUse" x="22.3618" y="10.7825" width="21" height="26" fill="black">
    <rect fill="white" x="22.3618" y="10.7825" width="21" height="26"/>
    <path fill-rule="evenodd" clip-rule="evenodd" d="M40.9673 24.1124C41.384 23.3443 41.2073 22.331 40.4372 21.7709C36.2177 18.7022 31.6892 16.0786 26.9285 13.944C25.7237 13.4038 24.3618 14.2849 24.3618 15.6052V17.3443L24.3618 29.8796C24.3618 29.88 24.3618 29.8804 24.3618 29.8807L24.3618 31.6186C24.3618 33.4089 26.2075 34.6041 27.8411 33.8716C31.9964 32.0085 35.9473 29.7194 39.6302 27.0409L40.4372 26.454C41.2073 25.8939 41.384 24.8805 40.9673 24.1124Z"/>
  </mask>
  <path fill-rule="evenodd" clip-rule="evenodd" d="M40.9673 24.1124C41.384 23.3443 41.2073 22.331 40.4372 21.7709C36.2177 18.7022 31.6892 16.0786 26.9285 13.944C25.7237 13.4038 24.3618 14.2849 24.3618 15.6052V17.3443L24.3618 29.8796C24.3618 29.88 24.3618 29.8804 24.3618 29.8807L24.3618 31.6186C24.3618 33.4089 26.2075 34.6041 27.8411 33.8716C31.9964 32.0085 35.9473 29.7194 39.6302 27.0409L40.4372 26.454C41.2073 25.8939 41.384 24.8805 40.9673 24.1124Z" fill="white"/>
  <path d="M40.4372 21.7709L39.2608 23.3883L39.2608 23.3883L40.4372 21.7709ZM40.9673 24.1124L39.2093 23.1587L38.6919 24.1124L39.2093 25.0661L40.9673 24.1124ZM26.9285 13.944L27.7467 12.1191L26.9285 13.944ZM24.3618 15.6052H22.3618H24.3618ZM24.3618 17.3443L26.3618 17.3443V17.3443H24.3618ZM24.3618 29.8796L22.3618 29.8796V29.8796H24.3618ZM24.3618 29.8807H26.3618L26.3618 29.8798L24.3618 29.8807ZM24.3618 31.6186L22.3618 31.6186V31.6186H24.3618ZM27.8411 33.8716L28.6594 35.6966L28.6594 35.6966L27.8411 33.8716ZM39.6302 27.0409L40.8065 28.6584V28.6584L39.6302 27.0409ZM40.4372 26.454L39.2608 24.8365L39.2608 24.8365L40.4372 26.454ZM39.2608 23.3883C39.2487 23.3795 39.2317 23.3631 39.2167 23.3397C39.2026 23.3175 39.1944 23.2954 39.1903 23.276C39.1831 23.2419 39.1859 23.2019 39.2093 23.1587L42.7253 25.0661C43.595 23.4629 43.2369 21.3341 41.6135 20.1534L39.2608 23.3883ZM26.1102 15.769C30.7448 17.8469 35.1533 20.401 39.2608 23.3883L41.6135 20.1534C37.2821 17.0033 32.6336 14.3102 27.7467 12.1191L26.1102 15.769ZM26.3618 15.6052C26.3618 15.6258 26.3549 15.6607 26.3356 15.695C26.3186 15.7251 26.2982 15.7442 26.2799 15.756C26.2617 15.7678 26.2361 15.7785 26.202 15.7817C26.1632 15.7852 26.1288 15.7773 26.1102 15.769L27.7467 12.1191C25.2201 10.9862 22.3618 12.8333 22.3618 15.6052L26.3618 15.6052ZM26.3618 17.3443V15.6052H22.3618V17.3443H26.3618ZM26.3618 29.8796L26.3618 17.3443L22.3618 17.3443L22.3618 29.8796L26.3618 29.8796ZM26.3618 29.8798C26.3618 29.8797 26.3618 29.8797 26.3618 29.8796H22.3618C22.3618 29.8803 22.3618 29.881 22.3618 29.8817L26.3618 29.8798ZM26.3618 31.6186L26.3618 29.8807L22.3618 29.8807L22.3618 31.6186L26.3618 31.6186ZM27.0229 32.0467C26.7125 32.1858 26.3618 31.9588 26.3618 31.6186H22.3618C22.3618 34.859 25.7026 37.0223 28.6594 35.6966L27.0229 32.0467ZM38.4538 25.4234C34.8828 28.0205 31.052 30.2402 27.0229 32.0467L28.6594 35.6966C32.9409 33.7769 37.0117 31.4182 40.8065 28.6584L38.4538 25.4234ZM39.2608 24.8365L38.4538 25.4234L40.8065 28.6584L41.6135 28.0715L39.2608 24.8365ZM39.2093 25.0661C39.1859 25.023 39.1831 24.9829 39.1903 24.9489C39.1944 24.9295 39.2026 24.9074 39.2167 24.8852C39.2317 24.8618 39.2487 24.8453 39.2608 24.8365L41.6135 28.0715C43.2369 26.8908 43.595 24.7619 42.7253 23.1587L39.2093 25.0661Z" fill="#BD6220" mask="url(#path-7-outside-3_25_437)"/>
  <path d="M40.4369 23.5099C41.4363 24.2368 41.4363 25.7271 40.4369 26.454L39.6299 27.0409C35.947 29.7193 31.9962 32.0085 27.8408 33.8716C26.2072 34.6041 24.3615 33.4089 24.3615 31.6186L24.3615 17.3442C24.3615 16.0239 25.7235 15.1429 26.9282 15.683C31.6889 17.8176 36.2174 20.4412 40.4369 23.5099Z" fill="#F46600"/>
  <path d="M41.211 25.1852V22.5763L38.0586 22.685V25.2939L41.211 25.1852Z" fill="#F46600"/>
  <path d="M40.4369 21.5718C41.4363 22.2987 41.4363 23.789 40.4369 24.5159L39.6299 25.1028C35.947 27.7813 31.9962 30.0704 27.8408 31.9336C26.2072 32.666 24.3615 31.4708 24.3615 29.6805L24.3615 15.4062C24.3615 14.0859 25.7235 13.2048 26.9282 13.745C31.6889 15.8795 36.2174 18.5031 40.4369 21.5718Z" fill="#FFC700"/>
  <defs>
    <linearGradient id="paint0_linear_25_437" x1="30.4825" y1="-11.5686" x2="30.4498" y2="43.4477" gradientUnits="userSpaceOnUse">
      <stop stop-color="#89A9CE"/>
    </linearGradient>
    <linearGradient id="paint1_linear_25_437" x1="30.4164" y1="6.70532" x2="30.4164" y2="40.3857" gradientUnits="userSpaceOnUse">
      <stop stop-color="white"/>
      <stop offset="1" stop-color="#DFEEFF"/>
    </linearGradient>
    <linearGradient id="paint2_linear_25_437" x1="30.4164" y1="6.70532" x2="30.4164" y2="40.3857" gradientUnits="userSpaceOnUse">
      <stop stop-color="white"/>
      <stop offset="1" stop-color="#DFEEFF"/>
    </linearGradient>
  </defs>
</svg>