<svg width="57" height="54" viewBox="0 0 57 54" fill="none" xmlns="http://www.w3.org/2000/svg">
<mask id="path-1-outside-1_107_3726" maskUnits="userSpaceOnUse" x="0.224609" y="0.207275" width="57" height="54" fill="black">
<rect fill="white" x="0.224609" y="0.207275" width="57" height="54"/>
<path fill-rule="evenodd" clip-rule="evenodd" d="M33.0573 7.59835C30.8551 4.41025 26.1441 4.41025 23.9419 7.59835L20.6154 12.4141C19.8186 13.5677 18.6517 14.4146 17.3079 14.8146L11.6919 16.4862C10.0346 16.9795 8.82631 18.1464 8.20633 19.5606L7.91257 19.5278C6.47879 19.3681 5.22461 20.4904 5.22461 21.933C5.22461 22.9757 5.56127 23.9904 6.1845 24.8262L12.48 33.2696C13.0982 34.0986 13.494 35.0653 13.6386 36.0784L13.5542 39.5244C13.546 39.8599 13.5671 40.1871 13.615 40.5041L13.5542 42.9869C13.4593 46.8572 17.2766 49.6219 20.9287 48.3374L26.458 46.3927C27.7794 45.928 29.2198 45.928 30.5412 46.3927L36.0705 48.3374C39.7226 49.6219 43.5399 46.8572 43.445 42.9869L43.3842 40.5039C43.4321 40.187 43.4532 39.8598 43.445 39.5244L43.3607 36.0837C43.5057 35.0675 43.9035 34.098 44.5248 33.2674L51.0665 24.5214C51.6587 23.7296 51.9788 22.7674 51.9788 21.7786C51.9788 20.4168 50.7973 19.356 49.4433 19.5022L48.7978 19.5719C48.1793 18.1526 46.969 16.9808 45.3073 16.4862L39.6912 14.8146C38.3475 14.4146 37.1806 13.5677 36.3838 12.4141L33.0573 7.59835Z"/>
</mask>
<path fill-rule="evenodd" clip-rule="evenodd" d="M33.0573 7.59835C30.8551 4.41025 26.1441 4.41025 23.9419 7.59835L20.6154 12.4141C19.8186 13.5677 18.6517 14.4146 17.3079 14.8146L11.6919 16.4862C10.0346 16.9795 8.82631 18.1464 8.20633 19.5606L7.91257 19.5278C6.47879 19.3681 5.22461 20.4904 5.22461 21.933C5.22461 22.9757 5.56127 23.9904 6.1845 24.8262L12.48 33.2696C13.0982 34.0986 13.494 35.0653 13.6386 36.0784L13.5542 39.5244C13.546 39.8599 13.5671 40.1871 13.615 40.5041L13.5542 42.9869C13.4593 46.8572 17.2766 49.6219 20.9287 48.3374L26.458 46.3927C27.7794 45.928 29.2198 45.928 30.5412 46.3927L36.0705 48.3374C39.7226 49.6219 43.5399 46.8572 43.445 42.9869L43.3842 40.5039C43.4321 40.187 43.4532 39.8598 43.445 39.5244L43.3607 36.0837C43.5057 35.0675 43.9035 34.098 44.5248 33.2674L51.0665 24.5214C51.6587 23.7296 51.9788 22.7674 51.9788 21.7786C51.9788 20.4168 50.7973 19.356 49.4433 19.5022L48.7978 19.5719C48.1793 18.1526 46.969 16.9808 45.3073 16.4862L39.6912 14.8146C38.3475 14.4146 37.1806 13.5677 36.3838 12.4141L33.0573 7.59835Z" fill="#E0E9FF"/>
<path d="M23.9419 7.59835L28.0556 10.4399L28.0556 10.4399L23.9419 7.59835ZM33.0573 7.59835L37.1709 4.75683L37.1709 4.75683L33.0573 7.59835ZM20.6154 12.4141L16.5017 9.57259L16.5017 9.5726L20.6154 12.4141ZM17.3079 14.8146L15.8816 10.0227L15.8816 10.0227L17.3079 14.8146ZM11.6919 16.4862L10.2655 11.6943L10.2655 11.6943L11.6919 16.4862ZM8.20633 19.5606L7.6529 24.5295L11.3085 24.9366L12.7853 21.568L8.20633 19.5606ZM7.91257 19.5278L7.35914 24.4968L7.35914 24.4968L7.91257 19.5278ZM6.1845 24.8262L10.1926 21.8377L10.1926 21.8377L6.1845 24.8262ZM12.48 33.2696L8.4719 36.2582L8.47191 36.2582L12.48 33.2696ZM13.6386 36.0784L18.6368 36.2009L18.647 35.7844L18.5881 35.3719L13.6386 36.0784ZM13.5542 39.5244L8.55602 39.4019L8.55602 39.4019L13.5542 39.5244ZM13.615 40.5041L18.6132 40.6266L18.6239 40.1893L18.5585 39.7567L13.615 40.5041ZM13.5542 42.9869L18.5523 43.1094L13.5542 42.9869ZM20.9287 48.3374L22.5875 53.0539L22.5875 53.0539L20.9287 48.3374ZM26.458 46.3927L24.7991 41.6763L24.7991 41.6763L26.458 46.3927ZM30.5412 46.3927L28.8824 51.1092L28.8824 51.1092L30.5412 46.3927ZM36.0705 48.3374L34.4117 53.0539L34.4117 53.0539L36.0705 48.3374ZM43.445 42.9869L48.4432 42.8644L48.4432 42.8644L43.445 42.9869ZM43.3842 40.5039L38.4407 39.7567L38.3753 40.1892L38.386 40.6264L43.3842 40.5039ZM43.445 39.5244L48.4432 39.4019L48.4432 39.4019L43.445 39.5244ZM43.3607 36.0837L38.4112 35.3774L38.3523 35.7898L38.3625 36.2062L43.3607 36.0837ZM44.5248 33.2674L48.5285 36.2619L48.5285 36.2619L44.5248 33.2674ZM51.0665 24.5214L47.0628 21.5269L47.0628 21.5269L51.0665 24.5214ZM49.4433 19.5022L49.98 24.473L49.98 24.473L49.4433 19.5022ZM48.7978 19.5719L44.2144 21.5692L45.682 24.937L49.3345 24.5427L48.7978 19.5719ZM45.3073 16.4862L46.7336 11.6943L46.7336 11.6943L45.3073 16.4862ZM39.6912 14.8146L41.1176 10.0227L41.1176 10.0227L39.6912 14.8146ZM36.3838 12.4141L32.2701 15.2556L32.2701 15.2556L36.3838 12.4141ZM28.0556 10.4399C28.2701 10.1293 28.7291 10.1293 28.9436 10.4399L37.1709 4.75683C32.9811 -1.30878 24.018 -1.30878 19.8282 4.75683L28.0556 10.4399ZM24.7291 15.2556L28.0556 10.4399L19.8282 4.75683L16.5017 9.57259L24.7291 15.2556ZM18.7343 19.6064C21.1699 18.8815 23.2848 17.3465 24.7291 15.2556L16.5017 9.5726C16.3523 9.78889 16.1335 9.94768 15.8816 10.0227L18.7343 19.6064ZM13.1183 21.2781L18.7343 19.6064L15.8816 10.0227L10.2655 11.6943L13.1183 21.2781ZM12.7853 21.568C12.8194 21.4902 12.8649 21.4303 12.912 21.3877C12.9539 21.3499 13.0147 21.3089 13.1183 21.2781L10.2655 11.6943C7.12044 12.6305 4.80392 14.8694 3.62739 17.5531L12.7853 21.568ZM7.35914 24.4968L7.6529 24.5295L8.75977 14.5916L8.46601 14.5589L7.35914 24.4968ZM10.2243 21.933C10.2243 23.4708 8.88742 24.667 7.35914 24.4968L8.46601 14.5589C4.07016 14.0693 0.224956 17.51 0.224956 21.933H10.2243ZM10.1926 21.8377C10.2132 21.8652 10.2243 21.8987 10.2243 21.933H0.224956C0.224956 24.0526 0.909379 26.1155 2.17636 27.8148L10.1926 21.8377ZM16.4882 30.2811L10.1926 21.8377L2.17636 27.8148L8.4719 36.2582L16.4882 30.2811ZM18.5881 35.3719C18.3261 33.5359 17.6086 31.7837 16.4882 30.2811L8.47191 36.2582C8.58775 36.4135 8.66202 36.5948 8.68915 36.7848L18.5881 35.3719ZM18.5523 39.6469L18.6368 36.2009L8.64049 35.9559L8.55602 39.4019L18.5523 39.6469ZM18.5585 39.7567C18.5542 39.728 18.5512 39.6919 18.5523 39.6469L8.55602 39.4019C8.54068 40.0279 8.58007 40.6462 8.67157 41.2514L18.5585 39.7567ZM18.5523 43.1094L18.6132 40.6266L8.6169 40.3816L8.55604 42.8644L18.5523 43.1094ZM19.2699 43.621C18.9057 43.7491 18.5436 43.4679 18.5523 43.1094L8.55604 42.8644C8.37509 50.2465 15.6474 55.4948 22.5875 53.0539L19.2699 43.621ZM24.7991 41.6763L19.2699 43.621L22.5875 53.0539L28.1168 51.1092L24.7991 41.6763ZM32.2001 41.6763C29.805 40.8339 27.1942 40.8339 24.7991 41.6763L28.1168 51.1092C28.3646 51.022 28.6346 51.022 28.8824 51.1092L32.2001 41.6763ZM37.7293 43.621L32.2001 41.6763L28.8824 51.1092L34.4117 53.0539L37.7293 43.621ZM38.4469 43.1094C38.4557 43.4679 38.0935 43.7491 37.7293 43.621L34.4117 53.0539C41.3518 55.4948 48.6241 50.2465 48.4432 42.8644L38.4469 43.1094ZM38.386 40.6264L38.4469 43.1095L48.4432 42.8644L48.3823 40.3814L38.386 40.6264ZM38.4468 39.6469C38.448 39.6919 38.445 39.728 38.4407 39.7567L48.3277 41.2511C48.4191 40.6459 48.4585 40.0278 48.4432 39.4019L38.4468 39.6469ZM38.3625 36.2062L38.4468 39.6469L48.4432 39.4019L48.3588 35.9612L38.3625 36.2062ZM40.5212 30.2728C39.395 31.7784 38.674 33.5357 38.4112 35.3774L48.3102 36.79C48.3374 36.5994 48.412 36.4176 48.5285 36.2619L40.5212 30.2728ZM47.0628 21.5269L40.5212 30.2728L48.5285 36.2619L55.0701 27.516L47.0628 21.5269ZM46.9791 21.7786C46.9791 21.6879 47.0085 21.5995 47.0628 21.5269L55.0701 27.516C56.3089 25.8597 56.9784 23.847 56.9784 21.7786H46.9791ZM49.98 24.473C48.3775 24.646 46.9791 23.3905 46.9791 21.7786H56.9784C56.9784 17.4432 53.217 14.066 48.9066 14.5314L49.98 24.473ZM49.3345 24.5427L49.98 24.473L48.9066 14.5314L48.2611 14.6011L49.3345 24.5427ZM43.8809 21.2781C43.9847 21.309 44.0456 21.3501 44.0875 21.3881C44.1348 21.4308 44.1804 21.491 44.2144 21.5692L53.3812 17.5746C52.2076 14.8815 49.8873 12.6331 46.7336 11.6943L43.8809 21.2781ZM38.2649 19.6064L43.8809 21.2781L46.7336 11.6943L41.1176 10.0227L38.2649 19.6064ZM32.2701 15.2556C33.7144 17.3465 35.8293 18.8815 38.2649 19.6064L41.1176 10.0227C40.8656 9.94768 40.6468 9.78889 40.4974 9.57259L32.2701 15.2556ZM28.9436 10.4399L32.2701 15.2556L40.4974 9.5726L37.1709 4.75683L28.9436 10.4399Z" fill="#445377" mask="url(#path-1-outside-1_107_3726)"/>
<path d="M23.9419 11.0606C26.1441 7.87247 30.8551 7.87248 33.0573 11.0606V11.0606L36.5322 16.0912C37.233 17.1057 38.2592 17.8505 39.4409 18.2023L42.0668 18.9839C44.2057 19.6206 46.45 19.8251 48.6687 19.5855L49.4433 19.5019C50.7973 19.3557 51.9788 20.4165 51.9788 21.7783V21.7783C51.9788 22.7671 51.6587 23.7293 51.0665 24.5211L44.5248 33.267C43.6981 34.3724 43.267 35.7236 43.3008 37.1035L43.445 42.9866V42.9866C43.5399 46.8569 39.7226 49.6216 36.0705 48.3371V48.3371L30.5412 46.3924C29.2198 45.9276 27.7794 45.9276 26.458 46.3924L20.9287 48.3371V48.3371C17.2766 49.6216 13.4593 46.8569 13.5542 42.9866V42.9866L13.6985 37.0983C13.7323 35.7216 13.3032 34.3733 12.48 33.2693L6.1845 24.8259C5.56127 23.9901 5.22461 22.9753 5.22461 21.9327V21.9327C5.22461 20.4901 6.47879 19.3678 7.91257 19.5275L8.42482 19.5846C10.5809 19.8247 12.7633 19.6295 14.8426 19.0106L17.5703 18.1987C18.7443 17.8492 19.7637 17.1094 20.4598 16.1016L23.9419 11.0606V11.0606Z" fill="#7184B3"/>
<path d="M23.9423 7.59817C26.1445 4.41007 30.8555 4.41007 33.0577 7.59817V7.59817L36.3842 12.4139C37.181 13.5675 38.3479 14.4144 39.6916 14.8144L45.3077 16.486V16.486C49.0176 17.5903 50.4777 22.07 48.1245 25.1433V25.1433L44.568 29.7883C43.7144 30.9031 43.2677 32.2763 43.3022 33.6799L43.4454 39.5242V39.5242C43.5403 43.3945 39.723 46.1592 36.0709 44.8747V44.8747L30.5416 42.93C29.2202 42.4652 27.7798 42.4652 26.4584 42.93L20.9291 44.8747V44.8747C17.277 46.1592 13.4597 43.3945 13.5546 39.5242V39.5242L13.6978 33.6799C13.7322 32.2763 13.2856 30.9031 12.432 29.7883L8.8755 25.1433V25.1433C6.5223 22.07 7.98236 17.5903 11.6923 16.486V16.486L17.3083 14.8144C18.6521 14.4144 19.819 13.5675 20.6158 12.4139L23.9423 7.59817V7.59817Z" fill="#E0E9FF"/>
<mask id="mask0_107_3726" style="mask-type:alpha" maskUnits="userSpaceOnUse" x="7" y="5" width="43" height="41">
<path d="M23.9423 7.59817C26.1445 4.41007 30.8555 4.41007 33.0577 7.59817V7.59817L36.3842 12.4139C37.181 13.5675 38.3479 14.4144 39.6916 14.8144L45.3077 16.486V16.486C49.0176 17.5903 50.4777 22.07 48.1245 25.1433V25.1433L44.568 29.7883C43.7144 30.9031 43.2677 32.2763 43.3022 33.6799L43.4454 39.5242V39.5242C43.5403 43.3945 39.723 46.1592 36.0709 44.8747V44.8747L30.5416 42.93C29.2202 42.4652 27.7798 42.4652 26.4584 42.93L20.9291 44.8747V44.8747C17.277 46.1592 13.4597 43.3945 13.5546 39.5242V39.5242L13.6978 33.6799C13.7322 32.2763 13.2856 30.9031 12.432 29.7883L8.8755 25.1433V25.1433C6.5223 22.07 7.98236 17.5903 11.6923 16.486V16.486L17.3083 14.8144C18.6521 14.4144 19.819 13.5675 20.6158 12.4139L23.9423 7.59817V7.59817Z" fill="#FDDB18"/>
</mask>
<g mask="url(#mask0_107_3726)">
<path d="M28.6729 27.1705L4.10199 19.3634L28.5439 1.91653L28.6729 27.1705Z" fill="white"/>
<path d="M28.6011 27.1711L12.3698 48.7596L4.10109 18.8209L28.6011 27.1711Z" fill="#C6D2F0"/>
<path d="M28.5507 27.2217L53.5101 18.3623L44.833 49.2176L28.5507 27.2217Z" fill="#C6D2F0"/>
<path d="M28.6029 27.1707L44.6299 48.8472H12.2695L28.6029 27.1707Z" fill="#90A0C7"/>
</g>
</svg>
