<svg width="550" height="206" viewBox="0 0 550 206" xmlns="http://www.w3.org/2000/svg">
<g filter="url(#filter0_d_122_8520)">
<mask id="path-1-outside-1_122_8520" maskUnits="userSpaceOnUse" x="-5" y="-5" width="560" height="96" fill="black">
<rect fill="white" x="-5" y="-5" width="560" height="96"/>
<path d="M61.88 58.12C61.88 76 53.12 85 35.6 85H12.44C4.76 85 0.92 79.24 0.92 73.24C0.92 67.48 4.88 61.6 12.68 61.6H36.92C40.16 61.6 41.6 59.32 41.6 57.28C41.6 55 40.16 52.72 36.92 52.72H24.92C8.48 52.72 0.0800002 45.04 0.0800002 27.64C0.0800002 9.52 8.96 0.519993 26.6 0.519993H45.32C53.36 0.519993 57.56 6.4 57.56 12.16C57.56 18.04 53.36 24.04 45.2 24.04H25.04C21.8 24.04 20.48 26.2 20.48 28.48C20.48 30.52 21.8 32.8 25.04 32.8H37.04C53.96 32.8 61.88 40.72 61.88 58.12ZM110.727 24.04V73.84C110.727 81.52 105.327 85.48 98.9666 85.48C92.7266 85.48 87.4466 81.52 87.4466 73.84V24.04H79.2866C71.9666 24.04 67.6466 18.64 67.6466 12.28C67.6466 5.92 71.9666 0.519993 79.2866 0.519993H118.647C125.967 0.519993 130.407 5.92 130.407 12.28C130.407 18.64 125.967 24.04 118.647 24.04H110.727ZM160.601 11.68V73.84C160.601 81.52 155.201 85.48 148.961 85.48C142.601 85.48 137.321 81.52 137.321 73.84V11.68C137.321 4.35999 142.601 0.159998 148.961 0.159998C155.201 0.159998 160.601 4.35999 160.601 11.68ZM219.09 24.28H210.57C197.61 24.28 191.13 33.4 191.13 42.76C191.13 52.36 197.61 61.6 210.45 61.6H219.09C227.01 61.6 230.73 67.48 230.73 73.24C230.73 79.48 226.89 85 219.09 85H210.57C182.61 85 168.57 64.36 168.57 43.36C168.57 22.12 183.09 0.519993 212.37 0.519993H219.09C226.77 0.519993 230.97 6.4 230.97 12.4C230.97 18.52 226.77 24.28 219.09 24.28ZM262.205 53.92V73.84C262.205 81.52 256.805 85.48 250.565 85.48C244.205 85.48 238.925 81.52 238.925 73.84V11.68C238.925 4.35999 244.205 0.159998 250.565 0.159998C256.805 0.159998 262.205 4.35999 262.205 11.68V31.6L281.285 4.6C283.565 1.24 285.365 0.159998 290.285 0.159998C297.965 0.159998 302.405 5.08 302.405 11.8C302.405 14.56 301.685 17.2 299.765 19.12L280.205 41.2L299.885 66.4C301.685 68.68 302.645 71.2 302.645 73.72C302.645 80.92 297.725 85.48 290.525 85.48C287.045 85.48 283.805 84.16 281.525 80.92L262.205 53.92ZM350.852 53.92C347.732 53.92 344.852 52.24 342.332 49L333.692 37.72V73.84C333.692 81.4 328.292 85.48 322.172 85.48C315.812 85.48 310.412 81.52 310.412 73.84V12.52C310.412 4.72 316.292 0.159998 322.652 0.159998C326.852 0.159998 331.292 2.19999 334.292 6.03999L350.852 27.28L367.532 6.03999C370.532 2.19999 374.852 0.159998 379.052 0.159998C385.412 0.159998 391.412 4.72 391.412 12.52V73.84C391.412 81.52 386.012 85.48 379.652 85.48C373.412 85.48 368.132 81.52 368.132 73.84V37.72L359.612 49C356.852 52.72 354.092 53.92 350.852 53.92ZM438.55 35.08L432.43 50.32H443.71L438.55 35.08ZM453.43 77.92L450.07 68.68H425.11L421.39 77.92C419.11 83.08 415.15 85.48 411.19 85.48C404.95 85.48 398.59 81.16 398.59 74.44C398.59 72.4 398.83 70.84 399.43 69.76L427.99 7.11999C429.91 2.92 432.43 0.159998 438.79 0.159998C444.91 0.159998 447.55 2.92 449.35 7.24L475.39 69.76C475.99 70.96 476.23 72.52 476.23 74.44C476.23 80.8 469.99 85.48 463.75 85.48C458.59 85.48 455.23 82.96 453.43 77.92ZM526.695 38.56V11.2C526.695 4 531.735 0.159998 537.975 0.159998C543.855 0.159998 549.015 4 549.015 11.2V73.84C549.015 81.16 543.615 85.48 537.975 85.48C534.135 85.48 530.295 83.68 527.535 79.48L505.695 46.96V74.44C505.695 81.64 500.655 85.48 494.415 85.48C488.535 85.48 483.495 81.64 483.495 74.44V11.68C483.495 4.48 488.775 0.159998 494.415 0.159998C498.375 0.159998 502.215 1.84 504.975 6.03999L526.695 38.56Z"/>
</mask>
<path d="M61.88 58.12C61.88 76 53.12 85 35.6 85H12.44C4.76 85 0.92 79.24 0.92 73.24C0.92 67.48 4.88 61.6 12.68 61.6H36.92C40.16 61.6 41.6 59.32 41.6 57.28C41.6 55 40.16 52.72 36.92 52.72H24.92C8.48 52.72 0.0800002 45.04 0.0800002 27.64C0.0800002 9.52 8.96 0.519993 26.6 0.519993H45.32C53.36 0.519993 57.56 6.4 57.56 12.16C57.56 18.04 53.36 24.04 45.2 24.04H25.04C21.8 24.04 20.48 26.2 20.48 28.48C20.48 30.52 21.8 32.8 25.04 32.8H37.04C53.96 32.8 61.88 40.72 61.88 58.12ZM110.727 24.04V73.84C110.727 81.52 105.327 85.48 98.9666 85.48C92.7266 85.48 87.4466 81.52 87.4466 73.84V24.04H79.2866C71.9666 24.04 67.6466 18.64 67.6466 12.28C67.6466 5.92 71.9666 0.519993 79.2866 0.519993H118.647C125.967 0.519993 130.407 5.92 130.407 12.28C130.407 18.64 125.967 24.04 118.647 24.04H110.727ZM160.601 11.68V73.84C160.601 81.52 155.201 85.48 148.961 85.48C142.601 85.48 137.321 81.52 137.321 73.84V11.68C137.321 4.35999 142.601 0.159998 148.961 0.159998C155.201 0.159998 160.601 4.35999 160.601 11.68ZM219.09 24.28H210.57C197.61 24.28 191.13 33.4 191.13 42.76C191.13 52.36 197.61 61.6 210.45 61.6H219.09C227.01 61.6 230.73 67.48 230.73 73.24C230.73 79.48 226.89 85 219.09 85H210.57C182.61 85 168.57 64.36 168.57 43.36C168.57 22.12 183.09 0.519993 212.37 0.519993H219.09C226.77 0.519993 230.97 6.4 230.97 12.4C230.97 18.52 226.77 24.28 219.09 24.28ZM262.205 53.92V73.84C262.205 81.52 256.805 85.48 250.565 85.48C244.205 85.48 238.925 81.52 238.925 73.84V11.68C238.925 4.35999 244.205 0.159998 250.565 0.159998C256.805 0.159998 262.205 4.35999 262.205 11.68V31.6L281.285 4.6C283.565 1.24 285.365 0.159998 290.285 0.159998C297.965 0.159998 302.405 5.08 302.405 11.8C302.405 14.56 301.685 17.2 299.765 19.12L280.205 41.2L299.885 66.4C301.685 68.68 302.645 71.2 302.645 73.72C302.645 80.92 297.725 85.48 290.525 85.48C287.045 85.48 283.805 84.16 281.525 80.92L262.205 53.92ZM350.852 53.92C347.732 53.92 344.852 52.24 342.332 49L333.692 37.72V73.84C333.692 81.4 328.292 85.48 322.172 85.48C315.812 85.48 310.412 81.52 310.412 73.84V12.52C310.412 4.72 316.292 0.159998 322.652 0.159998C326.852 0.159998 331.292 2.19999 334.292 6.03999L350.852 27.28L367.532 6.03999C370.532 2.19999 374.852 0.159998 379.052 0.159998C385.412 0.159998 391.412 4.72 391.412 12.52V73.84C391.412 81.52 386.012 85.48 379.652 85.48C373.412 85.48 368.132 81.52 368.132 73.84V37.72L359.612 49C356.852 52.72 354.092 53.92 350.852 53.92ZM438.55 35.08L432.43 50.32H443.71L438.55 35.08ZM453.43 77.92L450.07 68.68H425.11L421.39 77.92C419.11 83.08 415.15 85.48 411.19 85.48C404.95 85.48 398.59 81.16 398.59 74.44C398.59 72.4 398.83 70.84 399.43 69.76L427.99 7.11999C429.91 2.92 432.43 0.159998 438.79 0.159998C444.91 0.159998 447.55 2.92 449.35 7.24L475.39 69.76C475.99 70.96 476.23 72.52 476.23 74.44C476.23 80.8 469.99 85.48 463.75 85.48C458.59 85.48 455.23 82.96 453.43 77.92ZM526.695 38.56V11.2C526.695 4 531.735 0.159998 537.975 0.159998C543.855 0.159998 549.015 4 549.015 11.2V73.84C549.015 81.16 543.615 85.48 537.975 85.48C534.135 85.48 530.295 83.68 527.535 79.48L505.695 46.96V74.44C505.695 81.64 500.655 85.48 494.415 85.48C488.535 85.48 483.495 81.64 483.495 74.44V11.68C483.495 4.48 488.775 0.159998 494.415 0.159998C498.375 0.159998 502.215 1.84 504.975 6.03999L526.695 38.56Z" fill="black"/>
<path d="M56.88 58.12C56.88 66.3145 54.8726 71.5565 51.7328 74.7716C48.6144 77.9648 43.5545 80 35.6 80V90C45.1655 90 53.2456 87.5352 58.8872 81.7584C64.5074 76.0034 66.88 67.8055 66.88 58.12H56.88ZM35.6 80H12.44V90H35.6V80ZM12.44 80C9.95935 80 8.47833 79.1217 7.55969 78.0738C6.55707 76.9302 5.92 75.2188 5.92 73.24H-4.08C-4.08 77.2612 -2.79707 81.4298 0.0403093 84.6662C2.96167 87.9983 7.24065 90 12.44 90V80ZM5.92 73.24C5.92 71.4604 6.53894 69.7779 7.59654 68.5992C8.57479 67.5089 10.1416 66.6 12.68 66.6V56.6C7.41842 56.6 3.10521 58.6311 0.153464 61.9208C-2.71894 65.1221 -4.08 69.2596 -4.08 73.24H5.92ZM12.68 66.6H36.92V56.6H12.68V66.6ZM36.92 66.6C39.8021 66.6 42.3456 65.5413 44.1413 63.6047C45.8528 61.759 46.6 59.4232 46.6 57.28H36.6C36.6 57.2098 36.6111 57.1452 36.6363 57.0773C36.6632 57.0048 36.7151 56.9062 36.8087 56.8053C36.9089 56.6972 37.0189 56.6281 37.0982 56.5952C37.1741 56.5636 37.137 56.6 36.92 56.6V66.6ZM46.6 57.28C46.6 55.1371 45.9263 52.7391 44.2012 50.811C42.3882 48.7847 39.8061 47.72 36.92 47.72V57.72C37.138 57.72 37.1645 57.7566 37.0733 57.7181C36.9763 57.6772 36.8536 57.5961 36.7488 57.479C36.6514 57.3702 36.6127 57.2793 36.6012 57.2463C36.5912 57.2174 36.6 57.2295 36.6 57.28H46.6ZM36.92 47.72H24.92V57.72H36.92V47.72ZM24.92 47.72C17.3872 47.72 12.6969 45.9548 9.84473 43.1438C7.00596 40.3461 5.08 35.6151 5.08 27.64H-4.92C-4.92 37.0649 -2.64596 44.8739 2.82527 50.2662C8.28312 55.6452 16.0128 57.72 24.92 57.72V47.72ZM5.08 27.64C5.08 19.3258 7.11712 14.0282 10.2959 10.7848C13.4565 7.5599 18.5766 5.51999 26.6 5.51999V-4.48001C16.9834 -4.48001 8.84348 -2.01991 3.15405 3.78523C-2.51712 9.57176 -4.92 17.8342 -4.92 27.64H5.08ZM26.6 5.51999H45.32V-4.48001H26.6V5.51999ZM45.32 5.51999C50.3037 5.51999 52.56 8.85697 52.56 12.16H62.56C62.56 3.94302 56.4163 -4.48001 45.32 -4.48001V5.51999ZM52.56 12.16C52.56 15.6466 50.2444 19.04 45.2 19.04V29.04C56.4756 29.04 62.56 20.4334 62.56 12.16H52.56ZM45.2 19.04H25.04V29.04H45.2V19.04ZM25.04 19.04C22.2324 19.04 19.6434 20.023 17.8117 22.079C16.072 24.0317 15.48 26.4306 15.48 28.48H25.48C25.48 28.3846 25.4947 28.3624 25.4803 28.4055C25.4639 28.4548 25.4102 28.5829 25.2783 28.731C25.1378 28.8887 24.9785 28.9896 24.8614 29.0378C24.7557 29.0812 24.787 29.04 25.04 29.04V19.04ZM15.48 28.48C15.48 30.514 16.1297 32.8431 17.8117 34.731C19.5929 36.7304 22.1472 37.8 25.04 37.8V27.8C24.8224 27.8 24.8061 27.7635 24.9122 27.8085C25.0241 27.8559 25.1611 27.9474 25.2783 28.079C25.3871 28.2011 25.4376 28.3106 25.4586 28.371C25.478 28.4266 25.48 28.4599 25.48 28.48H15.48ZM25.04 37.8H37.04V27.8H25.04V37.8ZM37.04 37.8C44.8128 37.8 49.464 39.6242 52.2438 42.4447C55.0389 45.2808 56.88 50.0733 56.88 58.12H66.88C66.88 48.7667 64.7611 40.8992 59.3662 35.4253C53.956 29.9358 46.1872 27.8 37.04 27.8V37.8ZM110.727 24.04V19.04H105.727V24.04H110.727ZM87.4466 24.04H92.4466V19.04H87.4466V24.04ZM105.727 24.04V73.84H115.727V24.04H105.727ZM105.727 73.84C105.727 76.4291 104.859 77.9391 103.868 78.8403C102.804 79.808 101.138 80.48 98.9666 80.48V90.48C103.156 90.48 107.369 89.172 110.595 86.2397C113.894 83.2409 115.727 78.9309 115.727 73.84H105.727ZM98.9666 80.48C96.8819 80.48 95.2903 79.8245 94.2688 78.876C93.31 77.9857 92.4466 76.4659 92.4466 73.84H82.4466C82.4466 78.8941 84.2231 83.1943 87.4643 86.204C90.6428 89.1555 94.8112 90.48 98.9666 90.48V80.48ZM92.4466 73.84V24.04H82.4466V73.84H92.4466ZM87.4466 19.04H79.2866V29.04H87.4466V19.04ZM79.2866 19.04C76.9323 19.04 75.3767 18.2084 74.3828 17.1398C73.341 16.0197 72.6466 14.3396 72.6466 12.28H62.6466C62.6466 16.5804 64.1121 20.7803 67.0603 23.9502C70.0565 27.1716 74.3208 29.04 79.2866 29.04V19.04ZM72.6466 12.28C72.6466 10.2204 73.341 8.54034 74.3828 7.42019C75.3767 6.35159 76.9323 5.51999 79.2866 5.51999V-4.48001C74.3208 -4.48001 70.0565 -2.6116 67.0603 0.609795C64.1121 3.77966 62.6466 7.97964 62.6466 12.28H72.6466ZM79.2866 5.51999H118.647V-4.48001H79.2866V5.51999ZM118.647 5.51999C122.938 5.51999 125.407 8.40632 125.407 12.28H135.407C135.407 3.43367 128.995 -4.48001 118.647 -4.48001V5.51999ZM125.407 12.28C125.407 16.1537 122.938 19.04 118.647 19.04V29.04C128.995 29.04 135.407 21.1263 135.407 12.28H125.407ZM118.647 19.04H110.727V29.04H118.647V19.04ZM155.601 11.68V73.84H165.601V11.68H155.601ZM155.601 73.84C155.601 76.4302 154.732 77.9477 153.744 78.8521C152.686 79.821 151.05 80.48 148.961 80.48V90.48C153.111 90.48 157.295 89.159 160.497 86.2279C163.769 83.2323 165.601 78.9298 165.601 73.84H155.601ZM148.961 80.48C146.794 80.48 145.172 79.8113 144.145 78.864C143.183 77.977 142.321 76.4649 142.321 73.84H132.321C132.321 78.8951 134.098 83.203 137.366 86.216C140.569 89.1687 144.767 90.48 148.961 90.48V80.48ZM142.321 73.84V11.68H132.321V73.84H142.321ZM142.321 11.68C142.321 9.29559 143.143 7.78195 144.159 6.83804C145.228 5.84449 146.868 5.16 148.961 5.16V-4.84C144.693 -4.84 140.513 -3.42449 137.352 -0.488046C134.138 2.49804 132.321 6.7444 132.321 11.68H142.321ZM148.961 5.16C150.976 5.16 152.63 5.83448 153.73 6.85001C154.773 7.81191 155.601 9.33041 155.601 11.68H165.601C165.601 6.70959 163.728 2.46808 160.511 -0.500013C157.352 -3.41449 153.185 -4.84 148.961 -4.84V5.16ZM219.09 19.28H210.57V29.28H219.09V19.28ZM210.57 19.28C202.84 19.28 196.616 22.0398 192.346 26.5871C188.14 31.0658 186.13 36.9548 186.13 42.76H196.13C196.13 39.2052 197.361 35.8542 199.635 33.4329C201.844 31.0802 205.341 29.28 210.57 29.28V19.28ZM186.13 42.76C186.13 48.6519 188.118 54.6181 192.293 59.1629C196.539 63.7838 202.744 66.6 210.45 66.6V56.6C205.317 56.6 201.861 54.7962 199.657 52.3971C197.383 49.9219 196.13 46.4681 196.13 42.76H186.13ZM210.45 66.6H219.09V56.6H210.45V66.6ZM219.09 66.6C221.701 66.6 223.208 67.5157 224.121 68.5562C225.124 69.7008 225.73 71.3827 225.73 73.24H235.73C235.73 69.3373 234.477 65.1992 231.64 61.9638C228.712 58.6243 224.399 56.6 219.09 56.6V66.6ZM225.73 73.24C225.73 75.3718 225.076 77.047 224.111 78.1238C223.223 79.115 221.724 80 219.09 80V90C224.257 90 228.578 88.125 231.559 84.7962C234.465 81.553 235.73 77.3482 235.73 73.24H225.73ZM219.09 80H210.57V90H219.09V80ZM210.57 80C197.92 80 188.802 75.378 182.802 68.7106C176.725 61.957 173.57 52.7865 173.57 43.36H163.57C163.57 54.9335 167.435 66.583 175.368 75.3994C183.379 84.302 195.261 90 210.57 90V80ZM173.57 43.36C173.57 33.8358 176.832 24.3641 183.198 17.3301C189.485 10.3831 199.059 5.51999 212.37 5.51999V-4.48001C196.402 -4.48001 184.076 1.45693 175.783 10.6199C167.569 19.6959 163.57 31.6442 163.57 43.36H173.57ZM212.37 5.51999H219.09V-4.48001H212.37V5.51999ZM219.09 5.51999C223.553 5.51999 225.97 8.68233 225.97 12.4H235.97C235.97 4.11766 229.988 -4.48001 219.09 -4.48001V5.51999ZM225.97 12.4C225.97 14.3457 225.301 16.0756 224.215 17.2666C223.195 18.3863 221.587 19.28 219.09 19.28V29.28C224.273 29.28 228.606 27.2937 231.605 24.0034C234.54 20.7844 235.97 16.5743 235.97 12.4H225.97ZM262.205 53.92L266.271 51.0104L257.205 38.3402V53.92H262.205ZM262.205 31.6H257.205V47.3393L266.288 34.4856L262.205 31.6ZM281.285 4.6L285.368 7.48555L285.396 7.44679L285.422 7.40751L281.285 4.6ZM299.765 19.12L296.229 15.5845L296.123 15.6913L296.022 15.8045L299.765 19.12ZM280.205 41.2L276.462 37.8845L273.704 40.9986L276.264 44.2775L280.205 41.2ZM299.885 66.4L295.944 69.4775L295.952 69.4879L295.961 69.4982L299.885 66.4ZM281.525 80.92L285.614 78.0425L285.603 78.0264L285.591 78.0104L281.525 80.92ZM257.205 53.92V73.84H267.205V53.92H257.205ZM257.205 73.84C257.205 76.4302 256.337 77.9477 255.349 78.8521C254.29 79.821 252.654 80.48 250.565 80.48V90.48C254.716 90.48 258.9 89.159 262.101 86.2279C265.373 83.2323 267.205 78.9298 267.205 73.84H257.205ZM250.565 80.48C248.398 80.48 246.777 79.8113 245.749 78.864C244.787 77.977 243.925 76.4649 243.925 73.84H233.925C233.925 78.8951 235.703 83.203 238.971 86.216C242.173 89.1687 246.372 90.48 250.565 90.48V80.48ZM243.925 73.84V11.68H233.925V73.84H243.925ZM243.925 11.68C243.925 9.29559 244.747 7.78195 245.763 6.83804C246.833 5.84449 248.473 5.16 250.565 5.16V-4.84C246.297 -4.84 242.117 -3.42449 238.957 -0.488046C235.743 2.49804 233.925 6.7444 233.925 11.68H243.925ZM250.565 5.16C252.58 5.16 254.234 5.83448 255.335 6.85001C256.377 7.81191 257.205 9.33041 257.205 11.68H267.205C267.205 6.70959 265.333 2.46808 262.115 -0.500013C258.956 -3.41449 254.79 -4.84 250.565 -4.84V5.16ZM257.205 11.68V31.6H267.205V11.68H257.205ZM266.288 34.4856L285.368 7.48555L277.202 1.71444L258.122 28.7144L266.288 34.4856ZM285.422 7.40751C286.39 5.98225 286.833 5.69372 287.071 5.57217C287.367 5.42064 288.099 5.16 290.285 5.16V-4.84C287.551 -4.84 284.923 -4.56065 282.519 -3.33218C280.057 -2.07372 278.46 -0.142251 277.148 1.79249L285.422 7.40751ZM290.285 5.16C293.03 5.16 294.709 6.01502 295.689 6.99553C296.682 7.98799 297.405 9.55425 297.405 11.8H307.405C307.405 7.32575 305.908 3.07201 302.761 -0.0755352C299.601 -3.23503 295.22 -4.84 290.285 -4.84V5.16ZM297.405 11.8C297.405 13.7589 296.896 14.9176 296.229 15.5845L303.301 22.6555C306.474 19.4824 307.405 15.361 307.405 11.8H297.405ZM296.022 15.8045L276.462 37.8845L283.948 44.5155L303.508 22.4355L296.022 15.8045ZM276.264 44.2775L295.944 69.4775L303.826 63.3225L284.146 38.1225L276.264 44.2775ZM295.961 69.4982C297.188 71.0529 297.645 72.5093 297.645 73.72H307.645C307.645 69.8907 306.182 66.3071 303.809 63.3018L295.961 69.4982ZM297.645 73.72C297.645 76.1379 296.848 77.7106 295.827 78.689C294.78 79.691 293.065 80.48 290.525 80.48V90.48C295.185 90.48 299.53 88.989 302.743 85.911C305.982 82.8094 307.645 78.5021 307.645 73.72H297.645ZM290.525 80.48C288.433 80.48 286.828 79.7674 285.614 78.0425L277.436 83.7975C280.782 88.5526 285.657 90.48 290.525 90.48V80.48ZM285.591 78.0104L266.271 51.0104L258.139 56.8296L277.459 83.8296L285.591 78.0104ZM342.332 49L338.363 52.0404L338.374 52.0551L338.385 52.0697L342.332 49ZM333.692 37.72L337.662 34.6796L328.692 22.9696V37.72H333.692ZM334.292 6.03999L338.235 2.96566L338.232 2.96177L334.292 6.03999ZM350.852 27.28L346.909 30.3543L350.838 35.3936L354.785 30.3681L350.852 27.28ZM367.532 6.03999L371.465 9.12813L371.472 9.11822L367.532 6.03999ZM368.132 37.72H373.132V22.8045L364.142 34.7064L368.132 37.72ZM359.612 49L355.622 45.9864L355.609 46.0035L355.597 46.0208L359.612 49ZM350.852 48.92C349.757 48.92 348.193 48.3909 346.279 45.9303L338.385 52.0697C341.512 56.0891 345.708 58.92 350.852 58.92V48.92ZM346.302 45.9596L337.662 34.6796L329.723 40.7604L338.363 52.0404L346.302 45.9596ZM328.692 37.72V73.84H338.692V37.72H328.692ZM328.692 73.84C328.692 76.3528 327.834 77.8934 326.824 78.832C325.752 79.8277 324.141 80.48 322.172 80.48V90.48C326.323 90.48 330.472 89.0923 333.63 86.158C336.85 83.1666 338.692 78.8872 338.692 73.84H328.692ZM322.172 80.48C320.001 80.48 318.335 79.808 317.271 78.8403C316.279 77.9391 315.412 76.4291 315.412 73.84H305.412C305.412 78.9309 307.245 83.2409 310.544 86.2397C313.769 89.172 317.983 90.48 322.172 90.48V80.48ZM315.412 73.84V12.52H305.412V73.84H315.412ZM315.412 12.52C315.412 7.79859 318.725 5.16 322.652 5.16V-4.84C313.859 -4.84 305.412 1.6414 305.412 12.52H315.412ZM322.652 5.16C325.284 5.16 328.282 6.46844 330.352 9.11821L338.232 2.96177C334.302 -2.06846 328.42 -4.84 322.652 -4.84V5.16ZM330.349 9.11432L346.909 30.3543L354.795 24.2057L338.235 2.96567L330.349 9.11432ZM354.785 30.3681L371.465 9.12812L363.6 2.95187L346.92 24.1919L354.785 30.3681ZM371.472 9.11822C373.57 6.43295 376.464 5.16 379.052 5.16V-4.84C373.241 -4.84 367.494 -2.03296 363.592 2.96177L371.472 9.11822ZM379.052 5.16C383.043 5.16 386.412 7.85808 386.412 12.52H396.412C396.412 1.58192 387.781 -4.84 379.052 -4.84V5.16ZM386.412 12.52V73.84H396.412V12.52H386.412ZM386.412 73.84C386.412 76.4291 385.545 77.9391 384.554 78.8403C383.489 79.808 381.823 80.48 379.652 80.48V90.48C383.841 90.48 388.055 89.172 391.281 86.2397C394.579 83.2409 396.412 78.9309 396.412 73.84H386.412ZM379.652 80.48C377.568 80.48 375.976 79.8245 374.954 78.876C373.996 77.9857 373.132 76.4659 373.132 73.84H363.132C363.132 78.8941 364.909 83.1943 368.15 86.204C371.328 89.1555 375.497 90.48 379.652 90.48V80.48ZM373.132 73.84V37.72H363.132V73.84H373.132ZM364.142 34.7064L355.622 45.9864L363.602 52.0136L372.122 40.7336L364.142 34.7064ZM355.597 46.0208C354.536 47.4508 353.688 48.1091 353.066 48.4394C352.48 48.7511 351.817 48.92 350.852 48.92V58.92C353.128 58.92 355.465 58.4889 357.758 57.2706C360.016 56.0709 361.929 54.2692 363.628 51.9792L355.597 46.0208ZM438.55 35.08L443.286 33.4765L438.949 20.6683L433.91 33.2167L438.55 35.08ZM432.43 50.32L427.79 48.4567L425.034 55.32H432.43V50.32ZM443.71 50.32V55.32H450.681L448.446 48.7165L443.71 50.32ZM453.43 77.92L458.138 76.2383L458.134 76.2248L458.129 76.2113L453.43 77.92ZM450.07 68.68L454.769 66.9713L453.572 63.68H450.07V68.68ZM425.11 68.68V63.68H421.733L420.471 66.8127L425.11 68.68ZM421.39 77.92L425.963 79.9408L425.997 79.8646L426.028 79.7873L421.39 77.92ZM399.43 69.76L403.8 72.1882L403.897 72.0148L403.979 71.8343L399.43 69.76ZM427.99 7.11999L423.442 5.04119L423.44 5.04573L427.99 7.11999ZM449.35 7.24L453.965 5.31755L453.965 5.31693L449.35 7.24ZM475.39 69.76L470.774 71.6824L470.84 71.8417L470.918 71.9961L475.39 69.76ZM433.91 33.2167L427.79 48.4567L437.07 52.1833L443.19 36.9432L433.91 33.2167ZM432.43 55.32H443.71V45.32H432.43V55.32ZM448.446 48.7165L443.286 33.4765L433.814 36.6835L438.974 51.9235L448.446 48.7165ZM458.129 76.2113L454.769 66.9713L445.371 70.3887L448.731 79.6287L458.129 76.2113ZM450.07 63.68H425.11V73.68H450.07V63.68ZM420.471 66.8127L416.751 76.0527L426.028 79.7873L429.748 70.5473L420.471 66.8127ZM416.816 75.8992C415.219 79.5146 412.894 80.48 411.19 80.48V90.48C417.405 90.48 423.001 86.6454 425.963 79.9408L416.816 75.8992ZM411.19 80.48C406.676 80.48 403.59 77.4665 403.59 74.44H393.59C393.59 84.8535 403.223 90.48 411.19 90.48V80.48ZM403.59 74.44C403.59 73.5969 403.641 73.001 403.711 72.5927C403.783 72.1786 403.852 72.0959 403.8 72.1882L395.059 67.3318C393.815 69.5703 393.59 72.2052 393.59 74.44H403.59ZM403.979 71.8343L432.539 9.19426L423.44 5.04573L394.88 67.6857L403.979 71.8343ZM432.537 9.19879C433.35 7.41953 434.017 6.58199 434.672 6.10395C435.255 5.67826 436.35 5.16 438.79 5.16V-4.84C434.869 -4.84 431.524 -3.97826 428.777 -1.97396C426.102 -0.0219921 424.549 2.62046 423.442 5.04119L432.537 9.19879ZM438.79 5.16C441.076 5.16 442.13 5.66261 442.701 6.08873C443.337 6.56263 444.004 7.40987 444.734 9.16307L453.965 5.31693C452.896 2.75013 451.342 0.0573691 448.678 -1.92873C445.95 -3.96261 442.623 -4.84 438.79 -4.84V5.16ZM444.734 9.16245L470.774 71.6824L480.005 67.8376L453.965 5.31755L444.734 9.16245ZM470.918 71.9961C471.009 72.1791 471.23 72.8294 471.23 74.44H481.23C481.23 72.2106 480.97 69.7409 479.862 67.5239L470.918 71.9961ZM471.23 74.44C471.23 77.256 468.082 80.48 463.75 80.48V90.48C471.897 90.48 481.23 84.344 481.23 74.44H471.23ZM463.75 80.48C462.01 80.48 460.98 80.069 460.296 79.5647C459.586 79.0416 458.798 78.0844 458.138 76.2383L448.721 79.6017C449.862 82.7956 451.654 85.6184 454.364 87.6153C457.099 89.631 460.329 90.48 463.75 90.48V80.48ZM526.695 38.56L522.537 41.337L531.695 55.0486V38.56H526.695ZM527.535 79.48L531.714 76.7341L531.7 76.7132L531.686 76.6924L527.535 79.48ZM505.695 46.96L509.846 44.1724L500.695 30.5467V46.96H505.695ZM504.975 6.03999L500.797 8.78589L500.807 8.8015L500.817 8.81703L504.975 6.03999ZM531.695 38.56V11.2H521.695V38.56H531.695ZM531.695 11.2C531.695 8.84085 532.479 7.48142 533.364 6.67478C534.316 5.80652 535.856 5.16 537.975 5.16V-4.84C533.855 -4.84 529.754 -3.56652 526.627 -0.714781C523.431 2.19858 521.695 6.35914 521.695 11.2H531.695ZM537.975 5.16C539.851 5.16 541.345 5.76898 542.318 6.66237C543.224 7.49428 544.015 8.87508 544.015 11.2H554.015C554.015 6.32492 552.227 2.18572 549.083 -0.702374C546.005 -3.52898 541.98 -4.84 537.975 -4.84V5.16ZM544.015 11.2V73.84H554.015V11.2H544.015ZM544.015 73.84C544.015 78.2599 540.995 80.48 537.975 80.48V90.48C546.236 90.48 554.015 84.06 554.015 73.84H544.015ZM537.975 80.48C535.858 80.48 533.571 79.5604 531.714 76.7341L523.357 82.2259C527.019 87.7996 532.412 90.48 537.975 90.48V80.48ZM531.686 76.6924L509.846 44.1724L501.545 49.7476L523.385 82.2676L531.686 76.6924ZM500.695 46.96V74.44H510.695V46.96H500.695ZM500.695 74.44C500.695 76.7991 499.911 78.1586 499.027 78.9652C498.074 79.8335 496.535 80.48 494.415 80.48V90.48C498.536 90.48 502.636 89.2065 505.764 86.3548C508.959 83.4414 510.695 79.2809 510.695 74.44H500.695ZM494.415 80.48C492.545 80.48 491.095 79.8751 490.16 79.0029C489.284 78.1858 488.495 76.8025 488.495 74.44H478.495C478.495 79.2775 480.227 83.4142 483.341 86.3171C486.395 89.1649 490.405 90.48 494.415 90.48V80.48ZM488.495 74.44V11.68H478.495V74.44H488.495ZM488.495 11.68C488.495 7.34675 491.43 5.16 494.415 5.16V-4.84C486.12 -4.84 478.495 1.61324 478.495 11.68H488.495ZM494.415 5.16C496.778 5.16 499.008 6.06334 500.797 8.78589L509.154 3.2941C505.423 -2.38335 499.973 -4.84 494.415 -4.84V5.16ZM500.817 8.81703L522.537 41.337L530.853 35.783L509.133 3.26295L500.817 8.81703Z" fill="white" mask="url(#path-1-outside-1_122_8520)"/>
</g>
<g filter="url(#filter1_d_122_8520)">
<mask id="path-3-outside-2_122_8520" maskUnits="userSpaceOnUse" x="112" y="108" width="336" height="97" fill="black">
<rect fill="white" x="112" y="108" width="336" height="97"/>
<path d="M183.32 125.68V187.84C183.32 195.52 177.92 199.48 171.56 199.48C165.32 199.48 160.04 195.52 160.04 187.84V167.8H141.08V187.84C141.08 195.52 135.68 199.48 129.32 199.48C123.08 199.48 117.8 195.52 117.8 187.84V125.68C117.8 118.36 123.08 114.16 129.32 114.16C135.68 114.16 141.08 118.36 141.08 125.68V145.84H160.04V125.68C160.04 118.36 165.32 114.16 171.56 114.16C177.92 114.16 183.32 118.36 183.32 125.68ZM191.594 156.76C191.594 132.88 210.794 113.68 234.674 113.68C258.554 113.68 277.874 132.88 277.874 156.76C277.874 180.64 258.554 199.84 234.674 199.84C210.794 199.84 191.594 180.64 191.594 156.76ZM215.234 157.12C215.234 168.04 223.994 176.56 234.794 176.56C245.594 176.56 254.474 168.04 254.474 157.12C254.474 146.2 245.594 137.44 234.794 137.44C223.994 137.44 215.234 146.2 215.234 157.12ZM284.641 156.76C284.641 132.88 303.841 113.68 327.721 113.68C351.601 113.68 370.921 132.88 370.921 156.76C370.921 180.64 351.601 199.84 327.721 199.84C303.841 199.84 284.641 180.64 284.641 156.76ZM308.281 157.12C308.281 168.04 317.041 176.56 327.841 176.56C338.641 176.56 347.521 168.04 347.521 157.12C347.521 146.2 338.641 137.44 327.841 137.44C317.041 137.44 308.281 146.2 308.281 157.12ZM402.408 167.92V187.84C402.408 195.52 397.008 199.48 390.768 199.48C384.408 199.48 379.128 195.52 379.128 187.84V125.68C379.128 118.36 384.408 114.16 390.768 114.16C397.008 114.16 402.408 118.36 402.408 125.68V145.6L421.488 118.6C423.768 115.24 425.568 114.16 430.488 114.16C438.168 114.16 442.608 119.08 442.608 125.8C442.608 128.56 441.888 131.2 439.968 133.12L420.408 155.2L440.088 180.4C441.888 182.68 442.848 185.2 442.848 187.72C442.848 194.92 437.928 199.48 430.728 199.48C427.248 199.48 424.008 198.16 421.728 194.92L402.408 167.92Z"/>
</mask>
<path d="M183.32 125.68V187.84C183.32 195.52 177.92 199.48 171.56 199.48C165.32 199.48 160.04 195.52 160.04 187.84V167.8H141.08V187.84C141.08 195.52 135.68 199.48 129.32 199.48C123.08 199.48 117.8 195.52 117.8 187.84V125.68C117.8 118.36 123.08 114.16 129.32 114.16C135.68 114.16 141.08 118.36 141.08 125.68V145.84H160.04V125.68C160.04 118.36 165.32 114.16 171.56 114.16C177.92 114.16 183.32 118.36 183.32 125.68ZM191.594 156.76C191.594 132.88 210.794 113.68 234.674 113.68C258.554 113.68 277.874 132.88 277.874 156.76C277.874 180.64 258.554 199.84 234.674 199.84C210.794 199.84 191.594 180.64 191.594 156.76ZM215.234 157.12C215.234 168.04 223.994 176.56 234.794 176.56C245.594 176.56 254.474 168.04 254.474 157.12C254.474 146.2 245.594 137.44 234.794 137.44C223.994 137.44 215.234 146.2 215.234 157.12ZM284.641 156.76C284.641 132.88 303.841 113.68 327.721 113.68C351.601 113.68 370.921 132.88 370.921 156.76C370.921 180.64 351.601 199.84 327.721 199.84C303.841 199.84 284.641 180.64 284.641 156.76ZM308.281 157.12C308.281 168.04 317.041 176.56 327.841 176.56C338.641 176.56 347.521 168.04 347.521 157.12C347.521 146.2 338.641 137.44 327.841 137.44C317.041 137.44 308.281 146.2 308.281 157.12ZM402.408 167.92V187.84C402.408 195.52 397.008 199.48 390.768 199.48C384.408 199.48 379.128 195.52 379.128 187.84V125.68C379.128 118.36 384.408 114.16 390.768 114.16C397.008 114.16 402.408 118.36 402.408 125.68V145.6L421.488 118.6C423.768 115.24 425.568 114.16 430.488 114.16C438.168 114.16 442.608 119.08 442.608 125.8C442.608 128.56 441.888 131.2 439.968 133.12L420.408 155.2L440.088 180.4C441.888 182.68 442.848 185.2 442.848 187.72C442.848 194.92 437.928 199.48 430.728 199.48C427.248 199.48 424.008 198.16 421.728 194.92L402.408 167.92Z" fill="white"/>
<path d="M160.04 167.8H165.04V162.8H160.04V167.8ZM141.08 167.8V162.8H136.08V167.8H141.08ZM141.08 145.84H136.08V150.84H141.08V145.84ZM160.04 145.84V150.84H165.04V145.84H160.04ZM178.32 125.68V187.84H188.32V125.68H178.32ZM178.32 187.84C178.32 190.429 177.453 191.939 176.462 192.84C175.397 193.808 173.731 194.48 171.56 194.48V204.48C175.749 204.48 179.963 203.172 183.188 200.24C186.487 197.241 188.32 192.931 188.32 187.84H178.32ZM171.56 194.48C169.475 194.48 167.884 193.825 166.862 192.876C165.903 191.986 165.04 190.466 165.04 187.84H155.04C155.04 192.894 156.817 197.194 160.058 200.204C163.236 203.155 167.405 204.48 171.56 204.48V194.48ZM165.04 187.84V167.8H155.04V187.84H165.04ZM160.04 162.8H141.08V172.8H160.04V162.8ZM136.08 167.8V187.84H146.08V167.8H136.08ZM136.08 187.84C136.08 190.429 135.213 191.939 134.222 192.84C133.157 193.808 131.491 194.48 129.32 194.48V204.48C133.509 204.48 137.723 203.172 140.948 200.24C144.247 197.241 146.08 192.931 146.08 187.84H136.08ZM129.32 194.48C127.235 194.48 125.644 193.825 124.622 192.876C123.663 191.986 122.8 190.466 122.8 187.84H112.8C112.8 192.894 114.577 197.194 117.818 200.204C120.996 203.155 125.165 204.48 129.32 204.48V194.48ZM122.8 187.84V125.68H112.8V187.84H122.8ZM122.8 125.68C122.8 123.294 123.624 121.773 124.636 120.826C125.7 119.83 127.31 119.16 129.32 119.16V109.16C125.09 109.16 120.94 110.59 117.804 113.524C114.616 116.507 112.8 120.746 112.8 125.68H122.8ZM129.32 119.16C131.417 119.16 133.101 119.848 134.208 120.862C135.254 121.82 136.08 123.332 136.08 125.68H146.08C146.08 120.708 144.206 116.46 140.962 113.488C137.779 110.572 133.583 109.16 129.32 109.16V119.16ZM136.08 125.68V145.84H146.08V125.68H136.08ZM141.08 150.84H160.04V140.84H141.08V150.84ZM165.04 145.84V125.68H155.04V145.84H165.04ZM165.04 125.68C165.04 123.294 165.864 121.773 166.876 120.826C167.94 119.83 169.55 119.16 171.56 119.16V109.16C167.33 109.16 163.18 110.59 160.044 113.524C156.856 116.507 155.04 120.746 155.04 125.68H165.04ZM171.56 119.16C173.657 119.16 175.341 119.848 176.448 120.862C177.494 121.82 178.32 123.332 178.32 125.68H188.32C188.32 120.708 186.446 116.46 183.202 113.488C180.019 110.572 175.823 109.16 171.56 109.16V119.16ZM196.594 156.76C196.594 135.641 213.556 118.68 234.674 118.68V108.68C208.033 108.68 186.594 130.119 186.594 156.76H196.594ZM234.674 118.68C255.811 118.68 272.874 135.66 272.874 156.76H282.874C282.874 130.1 261.298 108.68 234.674 108.68V118.68ZM272.874 156.76C272.874 177.86 255.811 194.84 234.674 194.84V204.84C261.298 204.84 282.874 183.42 282.874 156.76H272.874ZM234.674 194.84C213.556 194.84 196.594 177.879 196.594 156.76H186.594C186.594 183.401 208.033 204.84 234.674 204.84V194.84ZM210.234 157.12C210.234 170.862 221.293 181.56 234.794 181.56V171.56C226.695 171.56 220.234 165.218 220.234 157.12H210.234ZM234.794 181.56C248.255 181.56 259.474 170.901 259.474 157.12H249.474C249.474 165.179 242.934 171.56 234.794 171.56V181.56ZM259.474 157.12C259.474 143.419 248.336 132.44 234.794 132.44V142.44C242.853 142.44 249.474 148.981 249.474 157.12H259.474ZM234.794 132.44C221.213 132.44 210.234 143.459 210.234 157.12H220.234C220.234 148.941 226.776 142.44 234.794 142.44V132.44ZM289.641 156.76C289.641 135.641 306.603 118.68 327.721 118.68V108.68C301.08 108.68 279.641 130.119 279.641 156.76H289.641ZM327.721 118.68C348.858 118.68 365.921 135.66 365.921 156.76H375.921C375.921 130.1 354.345 108.68 327.721 108.68V118.68ZM365.921 156.76C365.921 177.86 348.858 194.84 327.721 194.84V204.84C354.345 204.84 375.921 183.42 375.921 156.76H365.921ZM327.721 194.84C306.603 194.84 289.641 177.879 289.641 156.76H279.641C279.641 183.401 301.08 204.84 327.721 204.84V194.84ZM303.281 157.12C303.281 170.862 314.34 181.56 327.841 181.56V171.56C319.742 171.56 313.281 165.218 313.281 157.12H303.281ZM327.841 181.56C341.302 181.56 352.521 170.901 352.521 157.12H342.521C342.521 165.179 335.98 171.56 327.841 171.56V181.56ZM352.521 157.12C352.521 143.419 341.383 132.44 327.841 132.44V142.44C335.9 142.44 342.521 148.981 342.521 157.12H352.521ZM327.841 132.44C314.26 132.44 303.281 143.459 303.281 157.12H313.281C313.281 148.941 319.823 142.44 327.841 142.44V132.44ZM402.408 167.92L406.474 165.01L397.408 152.34V167.92H402.408ZM402.408 145.6H397.408V161.339L406.491 148.486L402.408 145.6ZM421.488 118.6L425.571 121.486L425.599 121.447L425.626 121.408L421.488 118.6ZM439.968 133.12L436.433 129.584L436.326 129.691L436.225 129.804L439.968 133.12ZM420.408 155.2L416.665 151.884L413.907 154.999L416.467 158.277L420.408 155.2ZM440.088 180.4L436.147 183.477L436.156 183.488L436.164 183.498L440.088 180.4ZM421.728 194.92L425.817 192.043L425.806 192.026L425.794 192.01L421.728 194.92ZM397.408 167.92V187.84H407.408V167.92H397.408ZM397.408 187.84C397.408 190.43 396.54 191.948 395.552 192.852C394.494 193.821 392.857 194.48 390.768 194.48V204.48C394.919 204.48 399.103 203.159 402.304 200.228C405.577 197.232 407.408 192.93 407.408 187.84H397.408ZM390.768 194.48C388.601 194.48 386.98 193.811 385.952 192.864C384.99 191.977 384.128 190.465 384.128 187.84H374.128C374.128 192.895 375.906 197.203 379.174 200.216C382.376 203.169 386.575 204.48 390.768 204.48V194.48ZM384.128 187.84V125.68H374.128V187.84H384.128ZM384.128 125.68C384.128 123.296 384.95 121.782 385.966 120.838C387.036 119.844 388.676 119.16 390.768 119.16V109.16C386.501 109.16 382.32 110.576 379.16 113.512C375.946 116.498 374.128 120.744 374.128 125.68H384.128ZM390.768 119.16C392.783 119.16 394.437 119.834 395.538 120.85C396.58 121.812 397.408 123.33 397.408 125.68H407.408C407.408 120.71 405.536 116.468 402.318 113.5C399.159 110.586 394.993 109.16 390.768 109.16V119.16ZM397.408 125.68V145.6H407.408V125.68H397.408ZM406.491 148.486L425.571 121.486L417.405 115.714L398.325 142.714L406.491 148.486ZM425.626 121.408C426.593 119.982 427.036 119.694 427.274 119.572C427.57 119.421 428.302 119.16 430.488 119.16V109.16C427.754 109.16 425.126 109.439 422.723 110.668C420.26 111.926 418.664 113.858 417.351 115.792L425.626 121.408ZM430.488 119.16C433.233 119.16 434.912 120.015 435.893 120.996C436.885 121.988 437.608 123.554 437.608 125.8H447.608C447.608 121.326 446.111 117.072 442.964 113.924C439.804 110.765 435.423 109.16 430.488 109.16V119.16ZM437.608 125.8C437.608 127.759 437.099 128.918 436.433 129.584L443.504 136.656C446.677 133.482 447.608 129.361 447.608 125.8H437.608ZM436.225 129.804L416.665 151.884L424.151 158.516L443.711 136.435L436.225 129.804ZM416.467 158.277L436.147 183.477L444.029 177.323L424.349 152.123L416.467 158.277ZM436.164 183.498C437.391 185.053 437.848 186.509 437.848 187.72H447.848C447.848 183.891 446.385 180.307 444.013 177.302L436.164 183.498ZM437.848 187.72C437.848 190.138 437.051 191.711 436.03 192.689C434.984 193.691 433.268 194.48 430.728 194.48V204.48C435.388 204.48 439.733 202.989 442.947 199.911C446.185 196.809 447.848 192.502 447.848 187.72H437.848ZM430.728 194.48C428.636 194.48 427.031 193.767 425.817 192.043L417.639 197.797C420.985 202.553 425.86 204.48 430.728 204.48V194.48ZM425.794 192.01L406.474 165.01L398.342 170.83L417.662 197.83L425.794 192.01Z" fill="black" mask="url(#path-3-outside-2_122_8520)"/>
</g>
<path d="M347 156.5C347 166.717 338.717 175 328.5 175C318.283 175 310 166.717 310 156.5C310 146.283 318.283 138 328.5 138C338.717 138 347 146.283 347 156.5Z" fill="#FF1F00" stroke="black" stroke-width="4"/>
<defs>
<filter id="filter0_d_122_8520" x="0.0800781" y="0.160156" width="548.935" height="91.3198" filterUnits="userSpaceOnUse" color-interpolation-filters="sRGB">
<feFlood flood-opacity="0" result="BackgroundImageFix"/>
<feColorMatrix in="SourceAlpha" type="matrix" values="0 0 0 0 0 0 0 0 0 0 0 0 0 0 0 0 0 0 127 0" result="hardAlpha"/>
<feOffset dy="6"/>
<feComposite in2="hardAlpha" operator="out"/>
<feColorMatrix type="matrix" values="0 0 0 0 0 0 0 0 0 0 0 0 0 0 0 0 0 0 0.35 0"/>
<feBlend mode="normal" in2="BackgroundImageFix" result="effect1_dropShadow_122_8520"/>
<feBlend mode="normal" in="SourceGraphic" in2="effect1_dropShadow_122_8520" result="shape"/>
</filter>
<filter id="filter1_d_122_8520" x="117.8" y="113.68" width="325.048" height="92.1597" filterUnits="userSpaceOnUse" color-interpolation-filters="sRGB">
<feFlood flood-opacity="0" result="BackgroundImageFix"/>
<feColorMatrix in="SourceAlpha" type="matrix" values="0 0 0 0 0 0 0 0 0 0 0 0 0 0 0 0 0 0 127 0" result="hardAlpha"/>
<feOffset dy="6"/>
<feComposite in2="hardAlpha" operator="out"/>
<feColorMatrix type="matrix" values="0 0 0 0 0 0 0 0 0 0 0 0 0 0 0 0 0 0 0.35 0"/>
<feBlend mode="normal" in2="BackgroundImageFix" result="effect1_dropShadow_122_8520"/>
<feBlend mode="normal" in="SourceGraphic" in2="effect1_dropShadow_122_8520" result="shape"/>
</filter>
</defs>
</svg>
