<svg width="128" height="147" viewBox="0 0 128 147" fill="none" xmlns="http://www.w3.org/2000/svg">
<g filter="url(#filter0_d_185_15143)">
<mask id="path-1-outside-1_185_15143" maskUnits="userSpaceOnUse" x="2.745" y="0.0888672" width="122" height="141" fill="black">
<rect fill="white" x="2.745" y="0.0888672" width="122" height="141"/>
<path fill-rule="evenodd" clip-rule="evenodd" d="M54.1817 8.66681C60.0887 5.22955 67.3866 5.22955 73.2935 8.66681L109.286 29.6108C115.133 33.0132 118.73 39.2679 118.73 46.0328V52.0329V88.1796V94.1797C118.73 100.945 115.133 107.199 109.286 110.602L73.2935 131.546C67.3866 134.983 60.0887 134.983 54.1817 131.546L18.1891 110.602C12.342 107.199 8.745 100.945 8.745 94.1797V88.1796V52.0329V46.0328C8.745 39.2679 12.342 33.0132 18.1891 29.6108L54.1817 8.66681Z"/>
</mask>
<path fill-rule="evenodd" clip-rule="evenodd" d="M54.1817 8.66681C60.0887 5.22955 67.3866 5.22955 73.2935 8.66681L109.286 29.6108C115.133 33.0132 118.73 39.2679 118.73 46.0328V52.0329V88.1796V94.1797C118.73 100.945 115.133 107.199 109.286 110.602L73.2935 131.546C67.3866 134.983 60.0887 134.983 54.1817 131.546L18.1891 110.602C12.342 107.199 8.745 100.945 8.745 94.1797V88.1796V52.0329V46.0328C8.745 39.2679 12.342 33.0132 18.1891 29.6108L54.1817 8.66681Z" fill="#773919"/>
<path d="M73.2935 8.66681L70.2759 13.8527V13.8527L73.2935 8.66681ZM54.1817 8.66681L51.164 3.48089V3.48089L54.1817 8.66681ZM109.286 29.6108L106.268 34.7967L109.286 29.6108ZM109.286 110.602L112.304 115.788L109.286 110.602ZM73.2935 131.546L76.3112 136.732H76.3112L73.2935 131.546ZM54.1817 131.546L51.164 136.732H51.164L54.1817 131.546ZM18.1891 110.602L21.2067 105.416H21.2067L18.1891 110.602ZM18.1891 29.6108L15.1714 24.4249L18.1891 29.6108ZM76.3112 3.48089C68.5389 -1.04181 58.9364 -1.04181 51.164 3.48089L57.1993 13.8527C61.241 11.5009 66.2343 11.5009 70.2759 13.8527L76.3112 3.48089ZM112.304 24.4249L76.3112 3.48089L70.2759 13.8527L106.268 34.7967L112.304 24.4249ZM124.73 46.0328C124.73 37.1316 119.997 28.9017 112.304 24.4249L106.268 34.7967C110.269 37.1246 112.73 41.4042 112.73 46.0328H124.73ZM124.73 52.0329V46.0328H112.73V52.0329H124.73ZM124.73 88.1796V52.0329H112.73V88.1796H124.73ZM124.73 94.1797V88.1796H112.73V94.1797H124.73ZM112.304 115.788C119.997 111.311 124.73 103.081 124.73 94.1797H112.73C112.73 98.8083 110.269 103.088 106.268 105.416L112.304 115.788ZM76.3112 136.732L112.304 115.788L106.268 105.416L70.2759 126.36L76.3112 136.732ZM51.164 136.732C58.9364 141.254 68.5389 141.254 76.3112 136.732L70.2759 126.36C66.2343 128.712 61.241 128.712 57.1993 126.36L51.164 136.732ZM15.1714 115.788L51.164 136.732L57.1993 126.36L21.2067 105.416L15.1714 115.788ZM2.745 94.1797C2.745 103.081 7.47787 111.311 15.1714 115.788L21.2067 105.416C17.2061 103.088 14.745 98.8083 14.745 94.1797H2.745ZM2.745 88.1796V94.1797H14.745V88.1796H2.745ZM2.745 52.0329V88.1796H14.745V52.0329H2.745ZM2.745 46.0328V52.0329H14.745V46.0328H2.745ZM15.1714 24.4249C7.47787 28.9017 2.745 37.1316 2.745 46.0328H14.745C14.745 41.4042 17.2061 37.1246 21.2067 34.7967L15.1714 24.4249ZM51.164 3.48089L15.1714 24.4249L21.2067 34.7967L57.1993 13.8527L51.164 3.48089Z" fill="#5A2002" mask="url(#path-1-outside-1_185_15143)"/>
<path d="M54.1815 14.667C60.0885 11.2298 67.3864 11.2298 73.2934 14.667L109.286 35.611C115.133 39.0134 118.73 45.2681 118.73 52.033V94.1798C118.73 100.945 115.133 107.2 109.286 110.602L73.2934 131.546C67.3864 134.983 60.0885 134.983 54.1815 131.546L18.1889 110.602C12.3418 107.2 8.74481 100.945 8.74481 94.1798V52.033C8.74481 45.2681 12.3418 39.0134 18.1889 35.611L54.1815 14.667Z" fill="#EE7626"/>
<path d="M55.4389 10.8278C60.5686 7.84282 66.9062 7.84282 72.036 10.8278L108.029 31.7718C113.106 34.7265 116.23 40.1582 116.23 46.033V88.1798C116.23 94.0547 113.106 99.4864 108.029 102.441L72.036 123.385C66.9062 126.37 60.5686 126.37 55.4389 123.385L19.4462 102.441C14.3685 99.4864 11.2448 94.0547 11.2448 88.1798V46.033C11.2448 40.1582 14.3685 34.7265 19.4462 31.7718L55.4389 10.8278Z" fill="url(#paint0_linear_185_15143)" stroke="url(#paint1_linear_185_15143)" stroke-width="5"/>
<path d="M54.1815 22.0528C60.0885 18.6155 67.3864 18.6155 73.2934 22.0528L98.9749 36.9967C104.822 40.3991 108.419 46.6538 108.419 53.4188V83.5656C108.419 90.3305 104.822 96.5853 98.9749 99.9877L73.2934 114.932C67.3864 118.369 60.0885 118.369 54.1815 114.932L28.5 99.9877C22.6529 96.5853 19.0559 90.3305 19.0559 83.5656V53.4188C19.0559 46.6538 22.6529 40.3991 28.5 36.9967L54.1815 22.0528Z" fill="url(#paint2_linear_185_15143)"/>
<path d="M54.1815 22.0528C60.0885 18.6155 67.3864 18.6155 73.2934 22.0528L98.9749 36.9967C104.822 40.3991 108.419 46.6538 108.419 53.4188V83.5656C108.419 90.3305 104.822 96.5853 98.9749 99.9877L73.2934 114.932C67.3864 118.369 60.0885 118.369 54.1815 114.932L28.5 99.9877C22.6529 96.5853 19.0559 90.3305 19.0559 83.5656V53.4188C19.0559 46.6538 22.6529 40.3991 28.5 36.9967L54.1815 22.0528Z" stroke="url(#paint3_linear_185_15143)"/>
<g filter="url(#filter1_d_185_15143)">
<mask id="path-6-outside-2_185_15143" maskUnits="userSpaceOnUse" x="2.75452" y="0.0830078" width="123" height="141" fill="black">
<rect fill="white" x="2.75452" y="0.0830078" width="123" height="141"/>
<path fill-rule="evenodd" clip-rule="evenodd" d="M54.2625 8.65619C60.1654 5.22528 67.4552 5.22528 73.358 8.65618L109.414 29.6128C115.265 33.014 118.866 39.2713 118.866 46.0397V52.0397V88.1739V94.1739C118.866 100.942 115.265 107.2 109.414 110.601L73.358 131.557C67.4552 134.988 60.1654 134.988 54.2625 131.557L18.2068 110.601C12.3551 107.2 8.75452 100.942 8.75452 94.1739V88.1739V52.0397V46.0397C8.75452 39.2713 12.3551 33.014 18.2068 29.6128L54.2625 8.65619Z"/>
</mask>
<path fill-rule="evenodd" clip-rule="evenodd" d="M54.2625 8.65619C60.1654 5.22528 67.4552 5.22528 73.358 8.65618L109.414 29.6128C115.265 33.014 118.866 39.2713 118.866 46.0397V52.0397V88.1739V94.1739C118.866 100.942 115.265 107.2 109.414 110.601L73.358 131.557C67.4552 134.988 60.1654 134.988 54.2625 131.557L18.2068 110.601C12.3551 107.2 8.75452 100.942 8.75452 94.1739V88.1739V52.0397V46.0397C8.75452 39.2713 12.3551 33.014 18.2068 29.6128L54.2625 8.65619Z" fill="#737373"/>
<path d="M73.358 8.65618L70.3429 13.8436V13.8436L73.358 8.65618ZM54.2625 8.65619L57.2776 13.8436L54.2625 8.65619ZM109.414 29.6128L112.429 24.4254H112.429L109.414 29.6128ZM109.414 110.601L106.399 105.413L109.414 110.601ZM73.358 131.557L70.3429 126.37V126.37L73.358 131.557ZM54.2625 131.557L57.2776 126.37L57.2776 126.37L54.2625 131.557ZM18.2068 110.601L15.1917 115.788L18.2068 110.601ZM18.2068 29.6128L21.2218 34.8003H21.2218L18.2068 29.6128ZM76.3731 3.46877C68.6062 -1.04558 59.0143 -1.04558 51.2474 3.46877L57.2776 13.8436C61.3164 11.4961 66.3041 11.4961 70.3429 13.8436L76.3731 3.46877ZM112.429 24.4254L76.3731 3.46877L70.3429 13.8436L106.399 34.8002L112.429 24.4254ZM124.866 46.0397C124.866 37.1339 120.128 28.9006 112.429 24.4254L106.399 34.8002C110.402 37.1274 112.866 41.4087 112.866 46.0397H124.866ZM124.866 52.0397V46.0397H112.866V52.0397H124.866ZM124.866 88.1739V52.0397H112.866V88.1739H124.866ZM124.866 94.1739V88.1739H112.866V94.1739H124.866ZM112.429 115.788C120.128 111.313 124.866 103.08 124.866 94.1739H112.866C112.866 98.8049 110.402 103.086 106.399 105.413L112.429 115.788ZM76.3731 136.745L112.429 115.788L106.399 105.413L70.3429 126.37L76.3731 136.745ZM51.2474 136.745C59.0143 141.259 68.6062 141.259 76.3731 136.745L70.3429 126.37C66.3041 128.717 61.3164 128.717 57.2776 126.37L51.2474 136.745ZM15.1917 115.788L51.2474 136.745L57.2776 126.37L21.2218 105.413L15.1917 115.788ZM2.75452 94.1739C2.75452 103.08 7.49209 111.313 15.1917 115.788L21.2218 105.413C17.2181 103.086 14.7545 98.8049 14.7545 94.1739H2.75452ZM2.75452 88.1739V94.1739H14.7545V88.1739H2.75452ZM2.75452 52.0397V88.1739H14.7545V52.0397H2.75452ZM2.75452 46.0397V52.0397H14.7545V46.0397H2.75452ZM15.1917 24.4254C7.49209 28.9006 2.75452 37.1339 2.75452 46.0397H14.7545C14.7545 41.4087 17.2181 37.1274 21.2218 34.8003L15.1917 24.4254ZM51.2474 3.46877L15.1917 24.4254L21.2218 34.8003L57.2776 13.8436L51.2474 3.46877Z" fill="#3D2319" mask="url(#path-6-outside-2_185_15143)"/>
<path d="M54.2626 14.6559C60.1654 11.225 67.4552 11.225 73.3581 14.6559L109.414 35.6125C115.266 39.0137 118.866 45.271 118.866 52.0393V94.1735C118.866 100.942 115.266 107.199 109.414 110.6L73.3581 131.557C67.4552 134.988 60.1654 134.988 54.2626 131.557L18.2068 110.6C12.3551 107.199 8.75458 100.942 8.75458 94.1735V52.0393C8.75458 45.271 12.3551 39.0137 18.2068 35.6125L54.2626 14.6559Z" fill="#733921"/>
<path d="M55.5189 10.8173C60.645 7.83783 66.9756 7.83783 72.1018 10.8173L108.158 31.7739C113.239 34.7276 116.366 40.1616 116.366 46.0393V88.1735C116.366 94.0513 113.239 99.4853 108.158 102.439L72.1018 123.396C66.9756 126.375 60.645 126.375 55.5189 123.396L19.4631 102.439C14.3814 99.4853 11.2546 94.0513 11.2546 88.1735V46.0393C11.2546 40.1616 14.3814 34.7276 19.4631 31.7739L55.5189 10.8173Z" fill="url(#paint4_linear_185_15143)" stroke="url(#paint5_linear_185_15143)" stroke-width="5"/>
<path d="M54.2626 22.0416C60.1654 18.6107 67.4552 18.6107 73.3581 22.0416L99.0909 36.9983C104.943 40.3994 108.543 46.6568 108.543 53.4251V83.5593C108.543 90.3276 104.943 96.5849 99.0909 99.9861L73.3581 114.943C67.4552 118.374 60.1654 118.374 54.2626 114.943L28.5298 99.9861C22.6781 96.5849 19.0775 90.3276 19.0775 83.5593V53.4251C19.0775 46.6567 22.6781 40.3994 28.5298 36.9983L54.2626 22.0416Z" fill="url(#paint6_linear_185_15143)"/>
<path d="M54.2626 22.0416C60.1654 18.6107 67.4552 18.6107 73.3581 22.0416L99.0909 36.9983C104.943 40.3994 108.543 46.6568 108.543 53.4251V83.5593C108.543 90.3276 104.943 96.5849 99.0909 99.9861L73.3581 114.943C67.4552 118.374 60.1654 118.374 54.2626 114.943L28.5298 99.9861C22.6781 96.5849 19.0775 90.3276 19.0775 83.5593V53.4251C19.0775 46.6567 22.6781 40.3994 28.5298 36.9983L54.2626 22.0416Z" stroke="url(#paint7_linear_185_15143)"/>
<mask id="path-11-outside-3_185_15143" maskUnits="userSpaceOnUse" x="36.5422" y="34.2168" width="55" height="66" fill="black">
<rect fill="white" x="36.5422" y="34.2168" width="55" height="66"/>
<path d="M41.8521 87.4748C41.8521 82.3398 44.3011 79.8118 49.2781 79.8118H68.1591C70.3711 79.8118 71.3191 78.1528 71.3191 76.6518C71.3191 75.0718 70.3711 73.4918 68.1591 73.4918H51.1741C47.6191 73.4918 45.8021 71.5958 45.8021 67.8038C45.8021 64.0908 47.5401 62.2738 51.0161 62.2738H68.1591C70.2921 62.2738 71.3191 60.3778 71.3191 58.4028C71.3191 56.7438 70.3711 55.0848 68.1591 55.0848H48.8831C44.2221 55.0848 41.8521 52.4778 41.8521 47.3428C41.8521 42.2078 44.1431 39.6008 48.8041 39.6008H73.2151C81.0361 39.6008 85.0651 46.7108 85.0651 53.9788C85.0651 60.2988 82.4581 65.5918 76.7701 66.8558C82.3791 67.4878 86.0131 73.5708 86.0131 80.8388C86.0131 88.6598 81.9841 95.2168 72.1881 95.2168H49.1201C44.3011 95.2168 41.8521 92.6098 41.8521 87.4748Z"/>
</mask>
<path d="M41.8521 87.4748C41.8521 82.3398 44.3011 79.8118 49.2781 79.8118H68.1591C70.3711 79.8118 71.3191 78.1528 71.3191 76.6518C71.3191 75.0718 70.3711 73.4918 68.1591 73.4918H51.1741C47.6191 73.4918 45.8021 71.5958 45.8021 67.8038C45.8021 64.0908 47.5401 62.2738 51.0161 62.2738H68.1591C70.2921 62.2738 71.3191 60.3778 71.3191 58.4028C71.3191 56.7438 70.3711 55.0848 68.1591 55.0848H48.8831C44.2221 55.0848 41.8521 52.4778 41.8521 47.3428C41.8521 42.2078 44.1431 39.6008 48.8041 39.6008H73.2151C81.0361 39.6008 85.0651 46.7108 85.0651 53.9788C85.0651 60.2988 82.4581 65.5918 76.7701 66.8558C82.3791 67.4878 86.0131 73.5708 86.0131 80.8388C86.0131 88.6598 81.9841 95.2168 72.1881 95.2168H49.1201C44.3011 95.2168 41.8521 92.6098 41.8521 87.4748Z" fill="white"/>
<path d="M76.7701 66.8558L75.6855 61.9749L76.2103 71.8244L76.7701 66.8558ZM46.8521 87.4748C46.8521 86.5722 46.9616 85.9877 47.074 85.637C47.1789 85.3097 47.2767 85.2103 47.2895 85.1971C47.2989 85.1874 47.3697 85.1089 47.6332 85.019C47.9238 84.9198 48.4417 84.8118 49.2781 84.8118V74.8118C45.9985 74.8118 42.6144 75.6516 40.108 78.2382C37.6307 80.7948 36.8521 84.1948 36.8521 87.4748H46.8521ZM49.2781 84.8118H68.1591V74.8118H49.2781V84.8118ZM68.1591 84.8118C70.6429 84.8118 72.8555 83.8193 74.3737 82.0383C75.7834 80.3847 76.3191 78.3833 76.3191 76.6518H66.3191C66.3191 76.4212 66.3809 75.9999 66.7635 75.551C66.9698 75.3091 67.2388 75.1017 67.5436 74.9653C67.8463 74.8299 68.0771 74.8118 68.1591 74.8118V84.8118ZM76.3191 76.6518C76.3191 74.9218 75.8051 72.887 74.3471 71.2046C72.7877 69.4054 70.5617 68.4918 68.1591 68.4918V78.4918C68.1107 78.4918 67.8991 78.4813 67.6028 78.3532C67.3 78.2224 67.016 78.0145 66.7902 77.754C66.3592 77.2566 66.3191 76.8018 66.3191 76.6518H76.3191ZM68.1591 68.4918H51.1741V78.4918H68.1591V68.4918ZM51.1741 68.4918C50.7166 68.4918 50.5215 68.4293 50.5018 68.4223C50.4961 68.4203 50.5316 68.4324 50.5915 68.4705C50.653 68.5094 50.7205 68.5633 50.7838 68.63C50.9214 68.7752 50.9359 68.8697 50.9068 68.7783C50.8714 68.6666 50.8021 68.3674 50.8021 67.8038H40.8021C40.8021 70.4191 41.4252 73.2931 43.5262 75.5096C45.6738 77.7752 48.5411 78.4918 51.1741 78.4918V68.4918ZM50.8021 67.8038C50.8021 67.2494 50.8689 66.9651 50.8987 66.87C50.9218 66.7964 50.8962 66.9152 50.7374 67.083C50.6638 67.1608 50.5847 67.224 50.5112 67.2704C50.4395 67.3158 50.3926 67.333 50.3883 67.3345C50.3859 67.3353 50.43 67.3197 50.5346 67.304C50.6399 67.2882 50.7974 67.2738 51.0161 67.2738V57.2738C48.4488 57.2738 45.6056 57.9569 43.4738 60.2099C41.3919 62.41 40.8021 65.2564 40.8021 67.8038H50.8021ZM51.0161 67.2738H68.1591V57.2738H51.0161V67.2738ZM68.1591 67.2738C70.9242 67.2738 73.1798 65.9521 74.5851 64.0165C75.8713 62.2449 76.3191 60.1734 76.3191 58.4028H66.3191C66.3191 58.6072 66.2535 58.4711 66.4929 58.1414C66.6321 57.9496 66.8698 57.7086 67.2234 57.5224C67.5866 57.3312 67.9286 57.2738 68.1591 57.2738V67.2738ZM76.3191 58.4028C76.3191 56.6921 75.8384 54.6516 74.4247 52.9388C72.8946 51.0851 70.6491 50.0848 68.1591 50.0848V60.0848C68.0779 60.0848 67.837 60.0669 67.5202 59.9232C67.1991 59.7775 66.9206 59.5567 66.7125 59.3045C66.3258 58.836 66.3191 58.4545 66.3191 58.4028H76.3191ZM68.1591 50.0848H48.8831V60.0848H68.1591V50.0848ZM48.8831 50.0848C48.1721 50.0848 47.7592 49.9841 47.5528 49.9078C47.3736 49.8415 47.3314 49.7892 47.3207 49.7775C47.2968 49.7511 46.8521 49.2331 46.8521 47.3428H36.8521C36.8521 50.5875 37.5924 53.9405 39.9188 56.5014C42.3256 59.151 45.6298 60.0848 48.8831 60.0848V50.0848ZM46.8521 47.3428C46.8521 45.4144 47.2947 44.8933 47.3094 44.8768C47.3104 44.8758 47.3373 44.8334 47.4991 44.773C47.6902 44.7017 48.0924 44.6008 48.8041 44.6008V34.6008C45.5487 34.6008 42.2433 35.537 39.8511 38.2155C37.5551 40.7862 36.8521 44.1362 36.8521 47.3428H46.8521ZM48.8041 44.6008H73.2151V34.6008H48.8041V44.6008ZM73.2151 44.6008C75.4031 44.6008 76.9257 45.5119 78.0518 47.0358C79.2801 48.698 80.0651 51.1915 80.0651 53.9788H90.0651C90.0651 49.498 88.8356 44.8026 86.0942 41.0928C83.2506 37.2447 78.8481 34.6008 73.2151 34.6008V44.6008ZM80.0651 53.9788C80.0651 59.2089 78.0531 61.4487 75.6855 61.9749L77.8548 71.7367C86.8631 69.7349 90.0651 61.3887 90.0651 53.9788H80.0651ZM76.2103 71.8244C77.213 71.9373 78.3076 72.5331 79.2869 74.0592C80.293 75.6269 81.0131 77.9883 81.0131 80.8388H91.0131C91.0131 76.4213 89.9163 72.1072 87.703 68.6584C85.4632 65.168 81.9362 62.4062 77.33 61.8872L76.2103 71.8244ZM81.0131 80.8388C81.0131 83.9623 80.2037 86.2693 78.9697 87.7162C77.8477 89.0319 75.8876 90.2168 72.1881 90.2168V100.217C78.2846 100.217 83.2371 98.1232 86.5785 94.2052C89.808 90.4183 91.0131 85.5363 91.0131 80.8388H81.0131ZM72.1881 90.2168H49.1201V100.217H72.1881V90.2168ZM49.1201 90.2168C48.3535 90.2168 47.888 90.1117 47.636 90.0215C47.41 89.9407 47.3437 89.8698 47.3241 89.8489C47.2983 89.8215 46.8521 89.3282 46.8521 87.4748H36.8521C36.8521 90.7564 37.6304 94.1341 40.0339 96.6939C42.4916 99.3114 45.8356 100.217 49.1201 100.217V90.2168Z" fill="#3D2319" mask="url(#path-11-outside-3_185_15143)"/>
</g>
</g>
<defs>
<filter id="filter0_d_185_15143" x="0.237427" y="0.0830078" width="127.146" height="144.048" filterUnits="userSpaceOnUse" color-interpolation-filters="sRGB">
<feFlood flood-opacity="0" result="BackgroundImageFix"/>
<feColorMatrix in="SourceAlpha" type="matrix" values="0 0 0 0 0 0 0 0 0 0 0 0 0 0 0 0 0 0 127 0" result="hardAlpha"/>
<feOffset dy="4"/>
<feComposite in2="hardAlpha" operator="out"/>
<feColorMatrix type="matrix" values="0 0 0 0 0 0 0 0 0 0 0 0 0 0 0 0 0 0 0.25 0"/>
<feBlend mode="normal" in2="BackgroundImageFix" result="effect1_dropShadow_185_15143"/>
<feBlend mode="normal" in="SourceGraphic" in2="effect1_dropShadow_185_15143" result="shape"/>
</filter>
<filter id="filter1_d_185_15143" x="0.237427" y="0.0830078" width="127.146" height="146.048" filterUnits="userSpaceOnUse" color-interpolation-filters="sRGB">
<feFlood flood-opacity="0" result="BackgroundImageFix"/>
<feColorMatrix in="SourceAlpha" type="matrix" values="0 0 0 0 0 0 0 0 0 0 0 0 0 0 0 0 0 0 127 0" result="hardAlpha"/>
<feOffset dy="6"/>
<feComposite in2="hardAlpha" operator="out"/>
<feColorMatrix type="matrix" values="0 0 0 0 0 0 0 0 0 0 0 0 0 0 0 0 0 0 0.25 0"/>
<feBlend mode="normal" in2="BackgroundImageFix" result="effect1_dropShadow_185_15143"/>
<feBlend mode="normal" in="SourceGraphic" in2="effect1_dropShadow_185_15143" result="shape"/>
</filter>
<linearGradient id="paint0_linear_185_15143" x1="63.7374" y1="3.10645" x2="63.7374" y2="131.106" gradientUnits="userSpaceOnUse">
<stop stop-color="#FED324"/>
<stop offset="1" stop-color="#FAB826"/>
</linearGradient>
<linearGradient id="paint1_linear_185_15143" x1="63.7374" y1="131.106" x2="63.7374" y2="3.10645" gradientUnits="userSpaceOnUse">
<stop stop-color="#FFF7A2"/>
<stop offset="1" stop-color="#FAF29A" stop-opacity="0"/>
</linearGradient>
<linearGradient id="paint2_linear_185_15143" x1="63.7374" y1="16.4922" x2="67.7688" y2="120.49" gradientUnits="userSpaceOnUse">
<stop stop-color="#EE7626" stop-opacity="0"/>
<stop offset="1" stop-color="#EF8F00"/>
</linearGradient>
<linearGradient id="paint3_linear_185_15143" x1="63.7374" y1="16.4922" x2="63.7374" y2="120.492" gradientUnits="userSpaceOnUse">
<stop stop-color="#FFF7A2"/>
<stop offset="1" stop-color="#FAF29A" stop-opacity="0"/>
</linearGradient>
<linearGradient id="paint4_linear_185_15143" x1="63.8103" y1="3.10645" x2="63.8103" y2="131.106" gradientUnits="userSpaceOnUse">
<stop stop-color="#FDA07B"/>
<stop offset="1" stop-color="#D76F46"/>
</linearGradient>
<linearGradient id="paint5_linear_185_15143" x1="63.8103" y1="3.10645" x2="63.8103" y2="131.106" gradientUnits="userSpaceOnUse">
<stop stop-color="#FAB993"/>
<stop offset="1" stop-color="white" stop-opacity="0"/>
</linearGradient>
<linearGradient id="paint6_linear_185_15143" x1="63.8103" y1="16.4922" x2="67.8371" y2="120.49" gradientUnits="userSpaceOnUse">
<stop stop-color="#DF845F" stop-opacity="0.23"/>
<stop offset="1" stop-color="#8F3916"/>
</linearGradient>
<linearGradient id="paint7_linear_185_15143" x1="63.8103" y1="16.4922" x2="63.8103" y2="120.492" gradientUnits="userSpaceOnUse">
<stop stop-color="#FAB993"/>
<stop offset="1" stop-color="white" stop-opacity="0"/>
</linearGradient>
</defs>
</svg>
