<svg width="128" height="145" viewBox="0 0 128 145" fill="none" xmlns="http://www.w3.org/2000/svg">
<g filter="url(#filter0_d_361_5465)">
<mask id="path-1-outside-1_361_5465" maskUnits="userSpaceOnUse" x="2.50757" y="0.941406" width="122" height="140" fill="black">
<rect fill="white" x="2.50757" y="0.941406" width="122" height="140"/>
<path fill-rule="evenodd" clip-rule="evenodd" d="M53.9977 9.48837C59.8776 6.09242 67.1228 6.09242 73.0027 9.48837L108.995 30.276C114.873 33.6704 118.493 39.9421 118.493 46.7291V52.6843V88.316V94.2713C118.493 101.058 114.873 107.33 108.995 110.724L73.0027 131.512C67.1228 134.908 59.8776 134.908 53.9977 131.512L18.0051 110.724C12.1278 107.33 8.50757 101.058 8.50757 94.2713V88.316V52.6843V46.7291C8.50757 39.9421 12.1279 33.6704 18.0051 30.276L53.9977 9.48837Z"/>
</mask>
<path fill-rule="evenodd" clip-rule="evenodd" d="M53.9977 9.48837C59.8776 6.09242 67.1228 6.09242 73.0027 9.48837L108.995 30.276C114.873 33.6704 118.493 39.9421 118.493 46.7291V52.6843V88.316V94.2713C118.493 101.058 114.873 107.33 108.995 110.724L73.0027 131.512C67.1228 134.908 59.8776 134.908 53.9977 131.512L18.0051 110.724C12.1278 107.33 8.50757 101.058 8.50757 94.2713V88.316V52.6843V46.7291C8.50757 39.9421 12.1279 33.6704 18.0051 30.276L53.9977 9.48837Z" fill="#773919"/>
<path d="M73.0027 9.48837L70.0019 14.6841L70.0019 14.6841L73.0027 9.48837ZM53.9977 9.48837L56.9985 14.6841L56.9985 14.6841L53.9977 9.48837ZM108.995 30.276L105.995 35.4717L105.995 35.4717L108.995 30.276ZM108.995 110.724L105.995 105.529L105.995 105.529L108.995 110.724ZM73.0027 131.512L70.0019 126.316L73.0027 131.512ZM53.9977 131.512L50.9969 136.708L50.9969 136.708L53.9977 131.512ZM18.0051 110.724L21.0058 105.529L21.0058 105.529L18.0051 110.724ZM18.0051 30.276L21.0059 35.4717L18.0051 30.276ZM76.0035 4.29268C68.2668 -0.175683 58.7336 -0.175686 50.9969 4.29268L56.9985 14.6841C61.0216 12.3605 65.9788 12.3605 70.0019 14.6841L76.0035 4.29268ZM111.996 25.0804L76.0035 4.29268L70.0019 14.6841L105.995 35.4717L111.996 25.0804ZM124.493 46.7291C124.493 37.7988 119.729 29.5467 111.996 25.0804L105.995 35.4717C110.016 37.7942 112.493 42.0853 112.493 46.7291H124.493ZM124.493 52.6843V46.7291H112.493V52.6843H124.493ZM124.493 88.316V52.6843H112.493V88.316H124.493ZM124.493 94.2713V88.316H112.493V94.2713H124.493ZM111.996 115.92C119.729 111.454 124.493 103.202 124.493 94.2713H112.493C112.493 98.915 110.016 103.206 105.995 105.529L111.996 115.92ZM76.0035 136.708L111.996 115.92L105.995 105.529L70.0019 126.316L76.0035 136.708ZM50.9969 136.708C58.7336 141.176 68.2668 141.176 76.0035 136.708L70.0019 126.316C65.9788 128.64 61.0216 128.64 56.9985 126.316L50.9969 136.708ZM15.0043 115.92L50.9969 136.708L56.9985 126.316L21.0058 105.529L15.0043 115.92ZM2.50757 94.2713C2.50757 103.202 7.27109 111.454 15.0043 115.92L21.0058 105.529C16.9846 103.206 14.5076 98.915 14.5076 94.2713H2.50757ZM2.50757 88.316V94.2713H14.5076V88.316H2.50757ZM2.50757 52.6843V88.316H14.5076V52.6843H2.50757ZM2.50757 46.7291V52.6843H14.5076V46.7291H2.50757ZM15.0043 25.0804C7.2711 29.5467 2.50757 37.7988 2.50757 46.7291H14.5076C14.5076 42.0853 16.9846 37.7942 21.0059 35.4717L15.0043 25.0804ZM50.9969 4.29268L15.0043 25.0804L21.0059 35.4717L56.9985 14.6841L50.9969 4.29268Z" fill="#5A2002" mask="url(#path-1-outside-1_361_5465)"/>
<path d="M53.9975 15.4433C59.8774 12.0473 67.1226 12.0473 73.0025 15.4433L108.995 36.231C114.872 39.6254 118.493 45.897 118.493 52.684V94.2709C118.493 101.058 114.872 107.33 108.995 110.724L73.0025 131.512C67.1226 134.908 59.8774 134.908 53.9975 131.512L18.0049 110.724C12.1277 107.33 8.50739 101.058 8.50739 94.2709V52.684C8.50739 45.897 12.1277 39.6254 18.0049 36.231L53.9975 15.4433Z" fill="#EE7626"/>
<path d="M71.7522 11.6531L107.745 32.4408C112.849 35.3885 115.993 40.8349 115.993 46.7289V88.3158C115.993 94.2098 112.849 99.6562 107.745 102.604L71.7522 123.392C66.646 126.341 60.354 126.341 55.2478 123.392L19.2552 102.604C14.1513 99.6562 11.0074 94.2098 11.0074 88.3159V46.7289C11.0074 40.8349 14.1513 35.3885 19.2552 32.4408L55.2478 11.6531C60.354 8.70396 66.646 8.70396 71.7522 11.6531Z" fill="url(#paint0_linear_361_5465)" stroke="url(#paint1_linear_361_5465)" stroke-width="5"/>
<path d="M53.9975 22.7734C59.8774 19.3774 67.1226 19.3774 73.0025 22.7734L98.684 37.6058C104.561 41.0002 108.182 47.2718 108.182 54.0588V83.7353C108.182 90.5224 104.561 96.794 98.684 100.188L73.0025 115.021C67.1226 118.417 59.8774 118.417 53.9975 115.021L28.316 100.188C22.4388 96.794 18.8185 90.5224 18.8185 83.7354V54.0589C18.8185 47.2718 22.4388 41.0002 28.316 37.6058L53.9975 22.7734Z" fill="url(#paint2_linear_361_5465)"/>
<path d="M53.9975 22.7734C59.8774 19.3774 67.1226 19.3774 73.0025 22.7734L98.684 37.6058C104.561 41.0002 108.182 47.2718 108.182 54.0588V83.7353C108.182 90.5224 104.561 96.794 98.684 100.188L73.0025 115.021C67.1226 118.417 59.8774 118.417 53.9975 115.021L28.316 100.188C22.4388 96.794 18.8185 90.5224 18.8185 83.7354V54.0589C18.8185 47.2718 22.4388 41.0002 28.316 37.6058L53.9975 22.7734Z" stroke="url(#paint3_linear_361_5465)"/>
<g filter="url(#filter1_d_361_5465)">
<mask id="path-6-outside-2_361_5465" maskUnits="userSpaceOnUse" x="2.51709" y="0.93457" width="123" height="140" fill="black">
<rect fill="white" x="2.51709" y="0.93457" width="123" height="140"/>
<path fill-rule="evenodd" clip-rule="evenodd" d="M54.0785 9.47682C59.9542 6.08715 67.1914 6.08716 73.0672 9.47682L109.123 30.2771C115.005 33.6702 118.629 39.9444 118.629 46.7348V52.6901V88.3092V94.2644C118.629 101.055 115.005 107.329 109.123 110.722L73.0672 131.522C67.1914 134.912 59.9542 134.912 54.0785 131.522L18.0227 110.722C12.1409 107.329 8.51709 101.055 8.51709 94.2644V88.3092V52.6901V46.7348C8.51709 39.9445 12.1409 33.6702 18.0228 30.2771L54.0785 9.47682Z"/>
</mask>
<path fill-rule="evenodd" clip-rule="evenodd" d="M54.0785 9.47682C59.9542 6.08715 67.1914 6.08716 73.0672 9.47682L109.123 30.2771C115.005 33.6702 118.629 39.9444 118.629 46.7348V52.6901V88.3092V94.2644C118.629 101.055 115.005 107.329 109.123 110.722L73.0672 131.522C67.1914 134.912 59.9542 134.912 54.0785 131.522L18.0227 110.722C12.1409 107.329 8.51709 101.055 8.51709 94.2644V88.3092V52.6901V46.7348C8.51709 39.9445 12.1409 33.6702 18.0228 30.2771L54.0785 9.47682Z" fill="#737373"/>
<path d="M73.0672 9.47682L76.0654 4.27964L76.0654 4.27964L73.0672 9.47682ZM54.0785 9.47682L57.0767 14.674L57.0767 14.674L54.0785 9.47682ZM109.123 30.2771L106.125 35.4743L106.125 35.4743L109.123 30.2771ZM109.123 110.722L106.125 105.525L106.125 105.525L109.123 110.722ZM73.0672 131.522L76.0654 136.72L76.0654 136.72L73.0672 131.522ZM54.0785 131.522L51.0803 136.72L51.0803 136.72L54.0785 131.522ZM18.0227 110.722L21.021 105.525L21.021 105.525L18.0227 110.722ZM18.0228 30.2771L15.0245 25.0799L15.0245 25.0799L18.0228 30.2771ZM76.0654 4.27964C68.3341 -0.180448 58.8115 -0.180454 51.0803 4.27963L57.0767 14.674C61.097 12.3548 66.0487 12.3548 70.069 14.674L76.0654 4.27964ZM112.121 25.0799L76.0654 4.27964L70.069 14.674L106.125 35.4743L112.121 25.0799ZM124.629 46.7348C124.629 37.8001 119.86 29.5446 112.121 25.0799L106.125 35.4743C110.149 37.7959 112.629 42.0888 112.629 46.7348H124.629ZM124.629 52.6901V46.7348H112.629V52.6901H124.629ZM124.629 88.3092V52.6901H112.629V88.3092H124.629ZM124.629 94.2644V88.3092H112.629V94.2644H124.629ZM112.121 115.919C119.86 111.455 124.629 103.199 124.629 94.2644H112.629C112.629 98.9105 110.149 103.203 106.125 105.525L112.121 115.919ZM76.0654 136.72L112.121 115.919L106.125 105.525L70.069 126.325L76.0654 136.72ZM51.0803 136.72C58.8115 141.18 68.3341 141.18 76.0654 136.72L70.069 126.325C66.0487 128.645 61.097 128.645 57.0767 126.325L51.0803 136.72ZM15.0245 115.919L51.0803 136.72L57.0767 126.325L21.021 105.525L15.0245 115.919ZM2.51709 94.2644C2.51709 103.199 7.28531 111.455 15.0245 115.919L21.021 105.525C16.9966 103.203 14.5171 98.9105 14.5171 94.2644H2.51709ZM2.51709 88.3092V94.2644H14.5171V88.3092H2.51709ZM2.51709 52.6901V88.3092H14.5171V52.6901H2.51709ZM2.51709 46.7348V52.6901H14.5171V46.7348H2.51709ZM15.0245 25.0799C7.28531 29.5446 2.51709 37.8001 2.51709 46.7348H14.5171C14.5171 42.0888 16.9966 37.7959 21.021 35.4743L15.0245 25.0799ZM51.0803 4.27963L15.0245 25.0799L21.021 35.4743L57.0767 14.674L51.0803 4.27963Z" fill="#2B2531" mask="url(#path-6-outside-2_361_5465)"/>
<path d="M54.0786 15.4323C59.9543 12.0426 67.1915 12.0426 73.0672 15.4323L109.123 36.2325C115.005 39.6257 118.629 45.8999 118.629 52.6903V94.2646C118.629 101.055 115.005 107.329 109.123 110.722L73.0672 131.523C67.1915 134.912 59.9543 134.912 54.0786 131.523L18.0228 110.722C12.141 107.329 8.51715 101.055 8.51715 94.2646V52.6903C8.51715 45.8999 12.141 39.6257 18.0228 36.2325L54.0786 15.4323Z" fill="#3D3342"/>
<path d="M54.0786 9.4772C59.9543 6.08753 67.1915 6.08754 73.0672 9.4772L109.123 30.2775C115.005 33.6706 118.629 39.9448 118.629 46.7352V88.3096C118.629 95.0999 115.005 101.374 109.123 104.767L73.0672 125.568C67.1915 128.957 59.9543 128.957 54.0786 125.568L18.0228 104.767C12.141 101.374 8.51715 95.0999 8.51715 88.3096V46.7352C8.51715 39.9448 12.141 33.6706 18.0228 30.2775L54.0786 9.4772Z" fill="url(#paint4_linear_361_5465)"/>
<path d="M54.0786 22.7624C59.9543 19.3727 67.1915 19.3727 73.0672 22.7624L98.8 37.6074C104.682 41.0006 108.306 47.2748 108.306 54.0651V83.7291C108.306 90.5194 104.682 96.7936 98.8 100.187L73.0672 115.032C67.1915 118.422 59.9543 118.422 54.0786 115.032L28.3458 100.187C22.464 96.7936 18.8401 90.5194 18.8401 83.7291V54.0651C18.8401 47.2748 22.464 41.0006 28.3458 37.6074L54.0786 22.7624Z" fill="url(#paint5_linear_361_5465)"/>
<path d="M54.0786 22.7624C59.9543 19.3727 67.1915 19.3727 73.0672 22.7624L98.8 37.6074C104.682 41.0006 108.306 47.2748 108.306 54.0651V83.7291C108.306 90.5194 104.682 96.7936 98.8 100.187L73.0672 115.032C67.1915 118.422 59.9543 118.422 54.0786 115.032L28.3458 100.187C22.464 96.7936 18.8401 90.5194 18.8401 83.7291V54.0651C18.8401 47.2748 22.464 41.0006 28.3458 37.6074L54.0786 22.7624Z" stroke="url(#paint6_linear_361_5465)"/>
<mask id="path-11-outside-3_361_5465" maskUnits="userSpaceOnUse" x="36.2417" y="33.8262" width="55" height="66" fill="black">
<rect fill="white" x="36.2417" y="33.8262" width="55" height="66"/>
<path d="M85.9467 77.0512C85.9467 88.9012 80.1797 94.8262 68.6457 94.8262H49.6857C44.1557 94.8262 41.3907 92.2192 41.3907 87.0842C41.3907 81.9492 44.3927 79.4212 49.7647 79.4212H68.2507C71.0947 79.4212 72.5167 78.3942 72.5167 76.2612C72.5167 74.1282 71.0947 73.0222 68.2507 73.0222H44.9457C43.0497 73.0222 41.8647 71.7582 41.8647 69.4672V41.5012C42.2597 40.0002 43.2867 39.2102 44.7877 39.2102H77.8097C82.6287 39.2102 85.0777 41.8172 85.0777 46.9522C85.0777 52.0872 82.6287 54.6942 77.6517 54.6942H56.5587V60.3032H69.5937C80.4167 60.3032 85.9467 65.5962 85.9467 77.0512Z"/>
</mask>
<path d="M85.9467 77.0512C85.9467 88.9012 80.1797 94.8262 68.6457 94.8262H49.6857C44.1557 94.8262 41.3907 92.2192 41.3907 87.0842C41.3907 81.9492 44.3927 79.4212 49.7647 79.4212H68.2507C71.0947 79.4212 72.5167 78.3942 72.5167 76.2612C72.5167 74.1282 71.0947 73.0222 68.2507 73.0222H44.9457C43.0497 73.0222 41.8647 71.7582 41.8647 69.4672V41.5012C42.2597 40.0002 43.2867 39.2102 44.7877 39.2102H77.8097C82.6287 39.2102 85.0777 41.8172 85.0777 46.9522C85.0777 52.0872 82.6287 54.6942 77.6517 54.6942H56.5587V60.3032H69.5937C80.4167 60.3032 85.9467 65.5962 85.9467 77.0512Z" fill="white"/>
<path d="M41.8647 41.5012L37.0293 40.2287L36.8647 40.8543V41.5012H41.8647ZM56.5587 54.6942V49.6942H51.5587V54.6942H56.5587ZM56.5587 60.3032H51.5587V65.3032H56.5587V60.3032ZM80.9467 77.0512C80.9467 82.2388 79.6834 85.205 78.0385 86.895C76.4179 88.5599 73.6072 89.8262 68.6457 89.8262V99.8262C75.2182 99.8262 81.058 98.1299 85.2044 93.8699C89.3265 89.6349 90.9467 83.7135 90.9467 77.0512H80.9467ZM68.6457 89.8262H49.6857V99.8262H68.6457V89.8262ZM49.6857 89.8262C47.621 89.8262 46.9918 89.3338 46.8807 89.2299C46.8313 89.1836 46.3907 88.7826 46.3907 87.0842H36.3907C36.3907 90.5207 37.3326 93.9907 40.0482 96.5317C42.7021 99.015 46.2204 99.8262 49.6857 99.8262V89.8262ZM46.3907 87.0842C46.3907 85.5025 46.8223 85.1203 46.8994 85.0512C47.0738 84.8951 47.7789 84.4212 49.7647 84.4212V74.4212C46.3785 74.4212 42.8966 75.2113 40.2269 77.6029C37.4601 80.0815 36.3907 83.5309 36.3907 87.0842H46.3907ZM49.7647 84.4212H68.2507V74.4212H49.7647V84.4212ZM68.2507 84.4212C70.1202 84.4212 72.4527 84.1117 74.4143 82.6677C76.6718 81.0059 77.5167 78.5545 77.5167 76.2612H67.5167C67.5167 76.2449 67.5194 75.9842 67.6881 75.6083C67.8706 75.2014 68.1617 74.8532 68.4861 74.6144C68.7795 74.3984 68.9816 74.3578 68.9362 74.3688C68.8864 74.3809 68.6778 74.4212 68.2507 74.4212V84.4212ZM77.5167 76.2612C77.5167 73.9815 76.6853 71.549 74.4854 69.8684C72.5316 68.3759 70.1867 68.0222 68.2507 68.0222V78.0222C68.6531 78.0222 68.8412 78.0629 68.8728 78.071C68.8982 78.0775 68.6971 78.0306 68.415 77.8151C68.1075 77.5802 67.8403 77.2477 67.6741 76.8703C67.5198 76.52 67.5167 76.2788 67.5167 76.2612H77.5167ZM68.2507 68.0222H44.9457V78.0222H68.2507V68.0222ZM44.9457 68.0222C45.0263 68.0222 45.2516 68.0361 45.5552 68.1602C45.8722 68.2897 46.1849 68.5037 46.438 68.7896C46.9478 69.3655 46.8647 69.7974 46.8647 69.4672H36.8647C36.8647 71.4279 37.3741 73.6374 38.9504 75.418C40.5969 77.278 42.834 78.0222 44.9457 78.0222V68.0222ZM46.8647 69.4672V41.5012H36.8647V69.4672H46.8647ZM46.7001 42.7736C46.6783 42.8562 46.5235 43.3165 45.9866 43.7353C45.444 44.1586 44.9333 44.2102 44.7877 44.2102V34.2102C43.1411 34.2102 41.3664 34.6568 39.8363 35.8503C38.3118 37.0393 37.4461 38.6451 37.0293 40.2287L46.7001 42.7736ZM44.7877 44.2102H77.8097V34.2102H44.7877V44.2102ZM77.8097 44.2102C78.5763 44.2102 79.0418 44.3153 79.2938 44.4054C79.5198 44.4863 79.5861 44.5571 79.6057 44.578C79.6315 44.6054 80.0777 45.0988 80.0777 46.9522H90.0777C90.0777 43.6706 89.2994 40.2929 86.8959 37.7331C84.4382 35.1156 81.0942 34.2102 77.8097 34.2102V44.2102ZM80.0777 46.9522C80.0777 48.8064 79.6316 49.2783 79.6137 49.2971C79.5945 49.3171 79.5188 49.3969 79.263 49.4862C78.9805 49.5849 78.4736 49.6942 77.6517 49.6942V59.6942C80.9717 59.6942 84.3558 58.8128 86.8485 56.2005C89.2993 53.6321 90.0777 50.2329 90.0777 46.9522H80.0777ZM77.6517 49.6942H56.5587V59.6942H77.6517V49.6942ZM51.5587 54.6942V60.3032H61.5587V54.6942H51.5587ZM56.5587 65.3032H69.5937V55.3032H56.5587V65.3032ZM69.5937 65.3032C74.2621 65.3032 76.8305 66.4438 78.2806 67.9043C79.738 69.3723 80.9467 72.0499 80.9467 77.0512H90.9467C90.9467 70.5975 89.3904 64.9011 85.377 60.8588C81.3564 56.8091 75.7483 55.3032 69.5937 55.3032V65.3032Z" fill="#2B2531" mask="url(#path-11-outside-3_361_5465)"/>
</g>
</g>
<defs>
<filter id="filter0_d_361_5465" x="0" y="0.93457" width="127.146" height="143.13" filterUnits="userSpaceOnUse" color-interpolation-filters="sRGB">
<feFlood flood-opacity="0" result="BackgroundImageFix"/>
<feColorMatrix in="SourceAlpha" type="matrix" values="0 0 0 0 0 0 0 0 0 0 0 0 0 0 0 0 0 0 127 0" result="hardAlpha"/>
<feOffset dy="4"/>
<feComposite in2="hardAlpha" operator="out"/>
<feColorMatrix type="matrix" values="0 0 0 0 0 0 0 0 0 0 0 0 0 0 0 0 0 0 0.25 0"/>
<feBlend mode="normal" in2="BackgroundImageFix" result="effect1_dropShadow_361_5465"/>
<feBlend mode="normal" in="SourceGraphic" in2="effect1_dropShadow_361_5465" result="shape"/>
</filter>
<filter id="filter1_d_361_5465" x="0" y="0.93457" width="127.146" height="143.13" filterUnits="userSpaceOnUse" color-interpolation-filters="sRGB">
<feFlood flood-opacity="0" result="BackgroundImageFix"/>
<feColorMatrix in="SourceAlpha" type="matrix" values="0 0 0 0 0 0 0 0 0 0 0 0 0 0 0 0 0 0 127 0" result="hardAlpha"/>
<feOffset dy="4"/>
<feComposite in2="hardAlpha" operator="out"/>
<feColorMatrix type="matrix" values="0 0 0 0 0 0 0 0 0 0 0 0 0 0 0 0 0 0 0.25 0"/>
<feBlend mode="normal" in2="BackgroundImageFix" result="effect1_dropShadow_361_5465"/>
<feBlend mode="normal" in="SourceGraphic" in2="effect1_dropShadow_361_5465" result="shape"/>
</filter>
<linearGradient id="paint0_linear_361_5465" x1="63.5" y1="4" x2="63.5" y2="131.045" gradientUnits="userSpaceOnUse">
<stop stop-color="#FED324"/>
<stop offset="1" stop-color="#FAB826"/>
</linearGradient>
<linearGradient id="paint1_linear_361_5465" x1="63.5" y1="131.045" x2="63.5" y2="4" gradientUnits="userSpaceOnUse">
<stop stop-color="#FFF7A2"/>
<stop offset="1" stop-color="#FAF29A" stop-opacity="0"/>
</linearGradient>
<linearGradient id="paint2_linear_361_5465" x1="63.5" y1="17.2852" x2="67.4715" y2="120.509" gradientUnits="userSpaceOnUse">
<stop stop-color="#EE7626" stop-opacity="0"/>
<stop offset="1" stop-color="#EF8F00"/>
</linearGradient>
<linearGradient id="paint3_linear_361_5465" x1="63.5" y1="17.2852" x2="63.5" y2="120.509" gradientUnits="userSpaceOnUse">
<stop stop-color="#FFF7A2"/>
<stop offset="1" stop-color="#FAF29A" stop-opacity="0"/>
</linearGradient>
<linearGradient id="paint4_linear_361_5465" x1="63.5729" y1="4" x2="63.5729" y2="131.045" gradientUnits="userSpaceOnUse">
<stop stop-color="#866C8B"/>
<stop offset="1" stop-color="#4D3D55"/>
</linearGradient>
<linearGradient id="paint5_linear_361_5465" x1="63.5729" y1="17.2852" x2="67.5399" y2="120.509" gradientUnits="userSpaceOnUse">
<stop stop-color="#9B7BA2" stop-opacity="0.44"/>
<stop offset="0.942708" stop-color="#5E5169"/>
</linearGradient>
<linearGradient id="paint6_linear_361_5465" x1="63.5729" y1="17.2852" x2="63.5729" y2="120.509" gradientUnits="userSpaceOnUse">
<stop stop-color="#FFA0FB"/>
<stop offset="1" stop-color="#C87EEB" stop-opacity="0"/>
</linearGradient>
</defs>
</svg>
