<svg width="128" height="144" viewBox="0 0 128 144" fill="none" xmlns="http://www.w3.org/2000/svg">
<g filter="url(#filter0_d_185_15173)">
<mask id="path-1-outside-1_185_15173" maskUnits="userSpaceOnUse" x="2.745" y="0.0478516" width="122" height="140" fill="black">
<rect fill="white" x="2.745" y="0.0478516" width="122" height="140"/>
<path fill-rule="evenodd" clip-rule="evenodd" d="M54.2351 8.59482C60.115 5.19886 67.3602 5.19886 73.2401 8.59482L109.233 29.3825C115.11 32.7769 118.73 39.0485 118.73 45.8355V51.7908V87.4225V93.3777C118.73 100.165 115.11 106.436 109.233 109.831L73.2401 130.618C67.3602 134.014 60.115 134.014 54.2351 130.618L18.2425 109.831C12.3653 106.436 8.745 100.165 8.745 93.3777V87.4225V51.7908V45.8355C8.745 39.0485 12.3653 32.7769 18.2425 29.3825L54.2351 8.59482Z"/>
</mask>
<path fill-rule="evenodd" clip-rule="evenodd" d="M54.2351 8.59482C60.115 5.19886 67.3602 5.19886 73.2401 8.59482L109.233 29.3825C115.11 32.7769 118.73 39.0485 118.73 45.8355V51.7908V87.4225V93.3777C118.73 100.165 115.11 106.436 109.233 109.831L73.2401 130.618C67.3602 134.014 60.115 134.014 54.2351 130.618L18.2425 109.831C12.3653 106.436 8.745 100.165 8.745 93.3777V87.4225V51.7908V45.8355C8.745 39.0485 12.3653 32.7769 18.2425 29.3825L54.2351 8.59482Z" fill="#773919"/>
<path d="M73.2401 8.59482L76.2409 3.39913V3.39912L73.2401 8.59482ZM54.2351 8.59482L51.2343 3.39912V3.39912L54.2351 8.59482ZM109.233 29.3825L106.232 34.5782L109.233 29.3825ZM109.233 109.831L106.232 104.635L109.233 109.831ZM73.2401 130.618L70.2393 125.423H70.2393L73.2401 130.618ZM54.2351 130.618L57.2359 125.423L54.2351 130.618ZM18.2425 109.831L21.2433 104.635H21.2433L18.2425 109.831ZM18.2425 29.3825L21.2433 34.5782H21.2433L18.2425 29.3825ZM76.2409 3.39912C68.5042 -1.06924 58.971 -1.06924 51.2343 3.39912L57.2359 13.7905C61.259 11.467 66.2162 11.467 70.2393 13.7905L76.2409 3.39912ZM112.234 24.1868L76.2409 3.39913L70.2393 13.7905L106.232 34.5782L112.234 24.1868ZM124.73 45.8355C124.73 36.9052 119.967 28.6531 112.234 24.1868L106.232 34.5782C110.253 36.9007 112.73 41.1918 112.73 45.8355H124.73ZM124.73 51.7908V45.8355H112.73V51.7908H124.73ZM124.73 87.4225V51.7908H112.73V87.4225H124.73ZM124.73 93.3777V87.4225H112.73V93.3777H124.73ZM112.234 115.026C119.967 110.56 124.73 102.308 124.73 93.3777H112.73C112.73 98.0215 110.253 102.313 106.232 104.635L112.234 115.026ZM76.2409 135.814L112.234 115.026L106.232 104.635L70.2393 125.423L76.2409 135.814ZM51.2343 135.814C58.971 140.282 68.5042 140.282 76.2409 135.814L70.2393 125.423C66.2162 127.746 61.259 127.746 57.2359 125.423L51.2343 135.814ZM15.2417 115.026L51.2343 135.814L57.2359 125.423L21.2433 104.635L15.2417 115.026ZM2.745 93.3777C2.745 102.308 7.50852 110.56 15.2417 115.026L21.2433 104.635C17.222 102.313 14.745 98.0215 14.745 93.3777H2.745ZM2.745 87.4225V93.3777H14.745V87.4225H2.745ZM2.745 51.7908V87.4225H14.745V51.7908H2.745ZM2.745 45.8355V51.7908H14.745V45.8355H2.745ZM15.2417 24.1868C7.50853 28.6531 2.745 36.9053 2.745 45.8355H14.745C14.745 41.1918 17.222 36.9007 21.2433 34.5782L15.2417 24.1868ZM51.2343 3.39912L15.2417 24.1868L21.2433 34.5782L57.2359 13.7905L51.2343 3.39912Z" fill="#5A2002" mask="url(#path-1-outside-1_185_15173)"/>
<path d="M54.2349 14.5497C60.1148 11.1538 67.36 11.1538 73.2399 14.5497L109.233 35.3374C115.11 38.7318 118.73 45.0034 118.73 51.7904V93.3774C118.73 100.164 115.11 106.436 109.233 109.83L73.2399 130.618C67.36 134.014 60.1148 134.014 54.2349 130.618L18.2423 109.83C12.3651 106.436 8.74481 100.164 8.74481 93.3774V51.7904C8.74481 45.0034 12.3651 38.7318 18.2423 35.3374L54.2349 14.5497Z" fill="#EE7626"/>
<path d="M55.4853 10.7595C60.5915 7.81041 66.8834 7.81041 71.9896 10.7595L107.982 31.5472C113.086 34.495 116.23 39.9414 116.23 45.8354V87.4223C116.23 93.3163 113.086 98.7627 107.982 101.71L71.9896 122.498C66.8834 125.447 60.5915 125.447 55.4852 122.498L19.4926 101.71C14.3887 98.7627 11.2448 93.3163 11.2448 87.4223V45.8354C11.2448 39.9414 14.3887 34.495 19.4926 31.5472L55.4853 10.7595Z" fill="url(#paint0_linear_185_15173)" stroke="url(#paint1_linear_185_15173)" stroke-width="5"/>
<path d="M54.2349 21.8798C60.1148 18.4839 67.36 18.4839 73.2399 21.8798L98.9214 36.7123C104.799 40.1067 108.419 46.3783 108.419 53.1653V82.8418C108.419 89.6288 104.799 95.9004 98.9214 99.2948L73.2399 114.127C67.3601 117.523 60.1148 117.523 54.2349 114.127L28.5534 99.2948C22.6762 95.9004 19.0559 89.6288 19.0559 82.8418V53.1653C19.0559 46.3783 22.6762 40.1067 28.5534 36.7123L54.2349 21.8798Z" fill="url(#paint2_linear_185_15173)"/>
<path d="M54.2349 21.8798C60.1148 18.4839 67.36 18.4839 73.2399 21.8798L98.9214 36.7123C104.799 40.1067 108.419 46.3783 108.419 53.1653V82.8418C108.419 89.6288 104.799 95.9004 98.9214 99.2948L73.2399 114.127C67.3601 117.523 60.1148 117.523 54.2349 114.127L28.5534 99.2948C22.6762 95.9004 19.0559 89.6288 19.0559 82.8418V53.1653C19.0559 46.3783 22.6762 40.1067 28.5534 36.7123L54.2349 21.8798Z" stroke="url(#paint3_linear_185_15173)"/>
<g filter="url(#filter1_d_185_15173)">
<mask id="path-6-outside-2_185_15173" maskUnits="userSpaceOnUse" x="2.75452" y="0.0410156" width="123" height="140" fill="black">
<rect fill="white" x="2.75452" y="0.0410156" width="123" height="140"/>
<path fill-rule="evenodd" clip-rule="evenodd" d="M54.3159 8.58326C60.1917 5.1936 67.4289 5.1936 73.3046 8.58327L109.36 29.3835C115.242 32.7767 118.866 39.0509 118.866 45.8413V51.7965V87.4156V93.3709C118.866 100.161 115.242 106.435 109.36 109.829L73.3046 130.629C67.4289 134.019 60.1917 134.019 54.3159 130.629L18.2602 109.829C12.3784 106.435 8.75452 100.161 8.75452 93.3709V87.4156V51.7965V45.8413C8.75452 39.0509 12.3784 32.7767 18.2602 29.3835L54.3159 8.58326Z"/>
</mask>
<path fill-rule="evenodd" clip-rule="evenodd" d="M54.3159 8.58326C60.1917 5.1936 67.4289 5.1936 73.3046 8.58327L109.36 29.3835C115.242 32.7767 118.866 39.0509 118.866 45.8413V51.7965V87.4156V93.3709C118.866 100.161 115.242 106.435 109.36 109.829L73.3046 130.629C67.4289 134.019 60.1917 134.019 54.3159 130.629L18.2602 109.829C12.3784 106.435 8.75452 100.161 8.75452 93.3709V87.4156V51.7965V45.8413C8.75452 39.0509 12.3784 32.7767 18.2602 29.3835L54.3159 8.58326Z" fill="#737373"/>
<path d="M73.3046 8.58327L76.3028 3.38608L76.3028 3.38608L73.3046 8.58327ZM54.3159 8.58326L57.3141 13.7804V13.7804L54.3159 8.58326ZM109.36 29.3835L106.362 34.5807L109.36 29.3835ZM109.36 109.829L112.359 115.026L109.36 109.829ZM73.3046 130.629L76.3028 135.826L73.3046 130.629ZM54.3159 130.629L51.3177 135.826L54.3159 130.629ZM18.2602 109.829L21.2584 104.631H21.2584L18.2602 109.829ZM18.2602 29.3835L15.262 24.1863H15.262L18.2602 29.3835ZM76.3028 3.38608C68.5716 -1.074 59.049 -1.07401 51.3177 3.38608L57.3141 13.7804C61.3344 11.4612 66.2861 11.4612 70.3064 13.7805L76.3028 3.38608ZM112.359 24.1863L76.3028 3.38608L70.3064 13.7805L106.362 34.5807L112.359 24.1863ZM124.866 45.8413C124.866 36.9066 120.098 28.651 112.359 24.1863L106.362 34.5807C110.387 36.9023 112.866 41.1952 112.866 45.8413H124.866ZM124.866 51.7965V45.8413H112.866V51.7965H124.866ZM124.866 87.4156V51.7965H112.866V87.4156H124.866ZM124.866 93.3709V87.4156H112.866V93.3709H124.866ZM112.359 115.026C120.098 110.561 124.866 102.306 124.866 93.3709H112.866C112.866 98.0169 110.387 102.31 106.362 104.631L112.359 115.026ZM76.3028 135.826L112.359 115.026L106.362 104.631L70.3064 125.432L76.3028 135.826ZM51.3177 135.826C59.049 140.286 68.5716 140.286 76.3028 135.826L70.3064 125.432C66.2861 127.751 61.3344 127.751 57.3141 125.432L51.3177 135.826ZM15.262 115.026L51.3177 135.826L57.3141 125.432L21.2584 104.631L15.262 115.026ZM2.75452 93.3709C2.75452 102.306 7.52274 110.561 15.262 115.026L21.2584 104.631C17.234 102.31 14.7545 98.0169 14.7545 93.3709H2.75452ZM2.75452 87.4156V93.3709H14.7545V87.4156H2.75452ZM2.75452 51.7965V87.4156H14.7545V51.7965H2.75452ZM2.75452 45.8413V51.7965H14.7545V45.8413H2.75452ZM15.262 24.1863C7.52274 28.651 2.75452 36.9066 2.75452 45.8413H14.7545C14.7545 41.1952 17.234 36.9023 21.2584 34.5807L15.262 24.1863ZM51.3177 3.38608L15.262 24.1863L21.2584 34.5807L57.3141 13.7804L51.3177 3.38608Z" fill="#2B2531" mask="url(#path-6-outside-2_185_15173)"/>
<path d="M54.316 14.5387C60.1917 11.1491 67.4289 11.1491 73.3047 14.5387L109.36 35.339C115.242 38.7321 118.866 45.0063 118.866 51.7967V93.3711C118.866 100.161 115.242 106.436 109.36 109.829L73.3047 130.629C67.4289 134.019 60.1917 134.019 54.316 130.629L18.2602 109.829C12.3784 106.436 8.75458 100.161 8.75458 93.3711V51.7967C8.75458 45.0064 12.3784 38.7321 18.2602 35.339L54.316 14.5387Z" fill="#3D3342"/>
<path d="M54.316 8.58364C60.1917 5.19398 67.4289 5.19398 73.3047 8.58365L109.36 29.3839C115.242 32.7771 118.866 39.0513 118.866 45.8417V87.416C118.866 94.2064 115.242 100.481 109.36 103.874L73.3047 124.674C67.4289 128.064 60.1917 128.064 54.316 124.674L18.2602 103.874C12.3784 100.481 8.75458 94.2064 8.75458 87.416V45.8417C8.75458 39.0513 12.3784 32.7771 18.2602 29.3839L54.316 8.58364Z" fill="url(#paint4_linear_185_15173)"/>
<path d="M54.316 21.8688C60.1917 18.4791 67.4289 18.4791 73.3047 21.8688L99.0375 36.7138C104.919 40.107 108.543 46.3812 108.543 53.1716V82.8355C108.543 89.6259 104.919 95.9001 99.0375 99.2933L73.3047 114.138C67.4289 117.528 60.1917 117.528 54.316 114.138L28.5832 99.2933C22.7014 95.9001 19.0775 89.6259 19.0775 82.8355V53.1716C19.0775 46.3812 22.7014 40.107 28.5832 36.7138L54.316 21.8688Z" fill="url(#paint5_linear_185_15173)"/>
<path d="M54.316 21.8688C60.1917 18.4791 67.4289 18.4791 73.3047 21.8688L99.0375 36.7138C104.919 40.107 108.543 46.3812 108.543 53.1716V82.8355C108.543 89.6259 104.919 95.9001 99.0375 99.2933L73.3047 114.138C67.4289 117.528 60.1917 117.528 54.316 114.138L28.5832 99.2933C22.7014 95.9001 19.0775 89.6259 19.0775 82.8355V53.1716C19.0775 46.3812 22.7014 40.107 28.5832 36.7138L54.316 21.8688Z" stroke="url(#paint6_linear_185_15173)"/>
<mask id="path-11-outside-3_185_15173" maskUnits="userSpaceOnUse" x="35.4791" y="32.9326" width="54" height="66" fill="black">
<rect fill="white" x="35.4791" y="32.9326" width="54" height="66"/>
<path d="M84.4588 46.0586V86.1906C84.4588 91.2466 80.9828 93.8536 76.7958 93.8536C72.6878 93.8536 69.1328 91.2466 69.1328 86.1906V73.8666H49.0668C43.9318 73.8666 41.3248 71.2596 41.3248 66.1246V46.0586C41.3248 41.0026 44.9588 38.4746 49.0668 38.4746C53.1748 38.4746 56.7298 41.0026 56.7298 46.0586V59.8836H69.1328V46.0586C69.1328 41.0026 72.6878 38.4746 76.7958 38.4746C80.9828 38.4746 84.4588 41.0026 84.4588 46.0586Z"/>
</mask>
<path d="M84.4588 46.0586V86.1906C84.4588 91.2466 80.9828 93.8536 76.7958 93.8536C72.6878 93.8536 69.1328 91.2466 69.1328 86.1906V73.8666H49.0668C43.9318 73.8666 41.3248 71.2596 41.3248 66.1246V46.0586C41.3248 41.0026 44.9588 38.4746 49.0668 38.4746C53.1748 38.4746 56.7298 41.0026 56.7298 46.0586V59.8836H69.1328V46.0586C69.1328 41.0026 72.6878 38.4746 76.7958 38.4746C80.9828 38.4746 84.4588 41.0026 84.4588 46.0586Z" fill="white"/>
<path d="M69.1328 73.8666H74.1328V68.8666H69.1328V73.8666ZM56.7298 59.8836H51.7298V64.8836H56.7298V59.8836ZM69.1328 59.8836V64.8836H74.1328V59.8836H69.1328ZM79.4588 46.0586V86.1906H89.4588V46.0586H79.4588ZM79.4588 86.1906C79.4588 87.5036 79.0476 88.0214 78.8082 88.2421C78.5033 88.5232 77.876 88.8536 76.7958 88.8536V98.8536C79.9025 98.8536 83.1067 97.8806 85.5866 95.5941C88.1319 93.2474 89.4588 89.9337 89.4588 86.1906H79.4588ZM76.7958 88.8536C75.7725 88.8536 75.1306 88.5328 74.8 88.2302C74.5399 87.9921 74.1328 87.4688 74.1328 86.1906H64.1328C64.1328 89.9684 65.5031 93.2767 68.0475 95.606C70.5214 97.8709 73.711 98.8536 76.7958 98.8536V88.8536ZM74.1328 86.1906V73.8666H64.1328V86.1906H74.1328ZM69.1328 68.8666H49.0668V78.8666H69.1328V68.8666ZM49.0668 68.8666C47.2893 68.8666 46.8406 68.4207 46.8057 68.3857C46.7707 68.3508 46.3248 67.9021 46.3248 66.1246H36.3248C36.3248 69.4822 37.1823 72.9045 39.7346 75.4568C42.2869 78.0091 45.7092 78.8666 49.0668 78.8666V68.8666ZM46.3248 66.1246V46.0586H36.3248V66.1246H46.3248ZM46.3248 46.0586C46.3248 44.8213 46.7212 44.3351 46.9771 44.1077C47.3208 43.8021 48.0001 43.4746 49.0668 43.4746V33.4746C46.0254 33.4746 42.8337 34.4111 40.3334 36.6336C37.7453 38.9341 36.3248 42.24 36.3248 46.0586H46.3248ZM49.0668 43.4746C50.1292 43.4746 50.7743 43.799 51.0911 44.0845C51.3273 44.2974 51.7298 44.7853 51.7298 46.0586H61.7298C61.7298 42.2759 60.3547 38.9718 57.7865 36.6567C55.2987 34.4143 52.1123 33.4746 49.0668 33.4746V43.4746ZM51.7298 46.0586V59.8836H61.7298V46.0586H51.7298ZM56.7298 64.8836H69.1328V54.8836H56.7298V64.8836ZM74.1328 59.8836V46.0586H64.1328V59.8836H74.1328ZM74.1328 46.0586C74.1328 44.7853 74.5352 44.2974 74.7715 44.0845C75.0882 43.799 75.7333 43.4746 76.7958 43.4746V33.4746C73.7502 33.4746 70.5638 34.4143 68.0761 36.6567C65.5078 38.9718 64.1328 42.2759 64.1328 46.0586H74.1328ZM76.7958 43.4746C77.9152 43.4746 78.5455 43.8084 78.8366 44.0727C79.052 44.2682 79.4588 44.7502 79.4588 46.0586H89.4588C89.4588 42.311 88.1276 39.0011 85.5581 36.6685C83.0646 34.4049 79.8634 33.4746 76.7958 33.4746V43.4746Z" fill="#2B2531" mask="url(#path-11-outside-3_185_15173)"/>
</g>
</g>
<defs>
<filter id="filter0_d_185_15173" x="0.237427" y="0.0410156" width="127.146" height="143.13" filterUnits="userSpaceOnUse" color-interpolation-filters="sRGB">
<feFlood flood-opacity="0" result="BackgroundImageFix"/>
<feColorMatrix in="SourceAlpha" type="matrix" values="0 0 0 0 0 0 0 0 0 0 0 0 0 0 0 0 0 0 127 0" result="hardAlpha"/>
<feOffset dy="4"/>
<feComposite in2="hardAlpha" operator="out"/>
<feColorMatrix type="matrix" values="0 0 0 0 0 0 0 0 0 0 0 0 0 0 0 0 0 0 0.25 0"/>
<feBlend mode="normal" in2="BackgroundImageFix" result="effect1_dropShadow_185_15173"/>
<feBlend mode="normal" in="SourceGraphic" in2="effect1_dropShadow_185_15173" result="shape"/>
</filter>
<filter id="filter1_d_185_15173" x="0.237427" y="0.0410156" width="127.146" height="143.13" filterUnits="userSpaceOnUse" color-interpolation-filters="sRGB">
<feFlood flood-opacity="0" result="BackgroundImageFix"/>
<feColorMatrix in="SourceAlpha" type="matrix" values="0 0 0 0 0 0 0 0 0 0 0 0 0 0 0 0 0 0 127 0" result="hardAlpha"/>
<feOffset dy="4"/>
<feComposite in2="hardAlpha" operator="out"/>
<feColorMatrix type="matrix" values="0 0 0 0 0 0 0 0 0 0 0 0 0 0 0 0 0 0 0.25 0"/>
<feBlend mode="normal" in2="BackgroundImageFix" result="effect1_dropShadow_185_15173"/>
<feBlend mode="normal" in="SourceGraphic" in2="effect1_dropShadow_185_15173" result="shape"/>
</filter>
<linearGradient id="paint0_linear_185_15173" x1="63.7374" y1="3.10645" x2="63.7374" y2="130.151" gradientUnits="userSpaceOnUse">
<stop stop-color="#FED324"/>
<stop offset="1" stop-color="#FAB826"/>
</linearGradient>
<linearGradient id="paint1_linear_185_15173" x1="63.7374" y1="130.151" x2="63.7374" y2="3.10645" gradientUnits="userSpaceOnUse">
<stop stop-color="#FFF7A2"/>
<stop offset="1" stop-color="#FAF29A" stop-opacity="0"/>
</linearGradient>
<linearGradient id="paint2_linear_185_15173" x1="63.7374" y1="16.3916" x2="67.709" y2="119.615" gradientUnits="userSpaceOnUse">
<stop stop-color="#EE7626" stop-opacity="0"/>
<stop offset="1" stop-color="#EF8F00"/>
</linearGradient>
<linearGradient id="paint3_linear_185_15173" x1="63.7374" y1="16.3916" x2="63.7374" y2="119.615" gradientUnits="userSpaceOnUse">
<stop stop-color="#FFF7A2"/>
<stop offset="1" stop-color="#FAF29A" stop-opacity="0"/>
</linearGradient>
<linearGradient id="paint4_linear_185_15173" x1="63.8103" y1="3.10645" x2="63.8103" y2="130.151" gradientUnits="userSpaceOnUse">
<stop stop-color="#866C8B"/>
<stop offset="1" stop-color="#4D3D55"/>
</linearGradient>
<linearGradient id="paint5_linear_185_15173" x1="63.8103" y1="16.3916" x2="67.7773" y2="119.616" gradientUnits="userSpaceOnUse">
<stop stop-color="#9B7BA2" stop-opacity="0.44"/>
<stop offset="0.942708" stop-color="#5E5169"/>
</linearGradient>
<linearGradient id="paint6_linear_185_15173" x1="63.8103" y1="16.3916" x2="63.8103" y2="119.615" gradientUnits="userSpaceOnUse">
<stop stop-color="#FFA0FB"/>
<stop offset="1" stop-color="#C87EEB" stop-opacity="0"/>
</linearGradient>
</defs>
</svg>
