<svg width="128" height="144" viewBox="0 0 128 144" fill="none" xmlns="http://www.w3.org/2000/svg">
<g filter="url(#filter0_d_185_15113)">
<mask id="path-1-outside-1_185_15113" maskUnits="userSpaceOnUse" x="2.745" y="0.0478516" width="122" height="140" fill="black">
<rect fill="white" x="2.745" y="0.0478516" width="122" height="140"/>
<path fill-rule="evenodd" clip-rule="evenodd" d="M54.2351 8.59482C60.115 5.19886 67.3602 5.19886 73.2401 8.59482L109.233 29.3825C115.11 32.7769 118.73 39.0485 118.73 45.8355V51.7908V87.4225V93.3777C118.73 100.165 115.11 106.436 109.233 109.831L73.2401 130.618C67.3602 134.014 60.115 134.014 54.2351 130.618L18.2425 109.831C12.3653 106.436 8.745 100.165 8.745 93.3777V87.4225V51.7908V45.8355C8.745 39.0485 12.3653 32.7769 18.2425 29.3825L54.2351 8.59482Z"/>
</mask>
<path fill-rule="evenodd" clip-rule="evenodd" d="M54.2351 8.59482C60.115 5.19886 67.3602 5.19886 73.2401 8.59482L109.233 29.3825C115.11 32.7769 118.73 39.0485 118.73 45.8355V51.7908V87.4225V93.3777C118.73 100.165 115.11 106.436 109.233 109.831L73.2401 130.618C67.3602 134.014 60.115 134.014 54.2351 130.618L18.2425 109.831C12.3653 106.436 8.745 100.165 8.745 93.3777V87.4225V51.7908V45.8355C8.745 39.0485 12.3653 32.7769 18.2425 29.3825L54.2351 8.59482Z" fill="#773919"/>
<path d="M73.2401 8.59482L76.2409 3.39913V3.39912L73.2401 8.59482ZM54.2351 8.59482L51.2343 3.39912V3.39912L54.2351 8.59482ZM109.233 29.3825L106.232 34.5782L109.233 29.3825ZM109.233 109.831L106.232 104.635L109.233 109.831ZM73.2401 130.618L70.2393 125.423H70.2393L73.2401 130.618ZM54.2351 130.618L57.2359 125.423L54.2351 130.618ZM18.2425 109.831L21.2433 104.635H21.2433L18.2425 109.831ZM18.2425 29.3825L21.2433 34.5782H21.2433L18.2425 29.3825ZM76.2409 3.39912C68.5042 -1.06924 58.971 -1.06924 51.2343 3.39912L57.2359 13.7905C61.259 11.467 66.2162 11.467 70.2393 13.7905L76.2409 3.39912ZM112.234 24.1868L76.2409 3.39913L70.2393 13.7905L106.232 34.5782L112.234 24.1868ZM124.73 45.8355C124.73 36.9052 119.967 28.6531 112.234 24.1868L106.232 34.5782C110.253 36.9007 112.73 41.1918 112.73 45.8355H124.73ZM124.73 51.7908V45.8355H112.73V51.7908H124.73ZM124.73 87.4225V51.7908H112.73V87.4225H124.73ZM124.73 93.3777V87.4225H112.73V93.3777H124.73ZM112.234 115.026C119.967 110.56 124.73 102.308 124.73 93.3777H112.73C112.73 98.0215 110.253 102.313 106.232 104.635L112.234 115.026ZM76.2409 135.814L112.234 115.026L106.232 104.635L70.2393 125.423L76.2409 135.814ZM51.2343 135.814C58.971 140.282 68.5042 140.282 76.2409 135.814L70.2393 125.423C66.2162 127.746 61.259 127.746 57.2359 125.423L51.2343 135.814ZM15.2417 115.026L51.2343 135.814L57.2359 125.423L21.2433 104.635L15.2417 115.026ZM2.745 93.3777C2.745 102.308 7.50852 110.56 15.2417 115.026L21.2433 104.635C17.222 102.313 14.745 98.0215 14.745 93.3777H2.745ZM2.745 87.4225V93.3777H14.745V87.4225H2.745ZM2.745 51.7908V87.4225H14.745V51.7908H2.745ZM2.745 45.8355V51.7908H14.745V45.8355H2.745ZM15.2417 24.1868C7.50853 28.6531 2.745 36.9053 2.745 45.8355H14.745C14.745 41.1918 17.222 36.9007 21.2433 34.5782L15.2417 24.1868ZM51.2343 3.39912L15.2417 24.1868L21.2433 34.5782L57.2359 13.7905L51.2343 3.39912Z" fill="#5A2002" mask="url(#path-1-outside-1_185_15113)"/>
<path d="M54.2349 14.5497C60.1148 11.1538 67.36 11.1538 73.2399 14.5497L109.233 35.3374C115.11 38.7318 118.73 45.0034 118.73 51.7904V93.3774C118.73 100.164 115.11 106.436 109.233 109.83L73.2399 130.618C67.36 134.014 60.1148 134.014 54.2349 130.618L18.2423 109.83C12.3651 106.436 8.74481 100.164 8.74481 93.3774V51.7904C8.74481 45.0034 12.3651 38.7318 18.2423 35.3374L54.2349 14.5497Z" fill="#EE7626"/>
<path d="M55.4853 10.7595C60.5915 7.81041 66.8834 7.81041 71.9896 10.7595L107.982 31.5472C113.086 34.495 116.23 39.9414 116.23 45.8354V87.4223C116.23 93.3163 113.086 98.7627 107.982 101.71L71.9896 122.498C66.8834 125.447 60.5915 125.447 55.4852 122.498L19.4926 101.71C14.3887 98.7627 11.2448 93.3163 11.2448 87.4223V45.8354C11.2448 39.9414 14.3887 34.495 19.4926 31.5472L55.4853 10.7595Z" fill="url(#paint0_linear_185_15113)" stroke="url(#paint1_linear_185_15113)" stroke-width="5"/>
<path d="M54.2349 21.8798C60.1148 18.4839 67.36 18.4839 73.2399 21.8798L98.9214 36.7123C104.799 40.1067 108.419 46.3783 108.419 53.1653V82.8418C108.419 89.6288 104.799 95.9004 98.9214 99.2948L73.2399 114.127C67.3601 117.523 60.1148 117.523 54.2349 114.127L28.5534 99.2948C22.6762 95.9004 19.0559 89.6288 19.0559 82.8418V53.1653C19.0559 46.3783 22.6762 40.1067 28.5534 36.7123L54.2349 21.8798Z" fill="url(#paint2_linear_185_15113)"/>
<path d="M54.2349 21.8798C60.1148 18.4839 67.36 18.4839 73.2399 21.8798L98.9214 36.7123C104.799 40.1067 108.419 46.3783 108.419 53.1653V82.8418C108.419 89.6288 104.799 95.9004 98.9214 99.2948L73.2399 114.127C67.3601 117.523 60.1148 117.523 54.2349 114.127L28.5534 99.2948C22.6762 95.9004 19.0559 89.6288 19.0559 82.8418V53.1653C19.0559 46.3783 22.6762 40.1067 28.5534 36.7123L54.2349 21.8798Z" stroke="url(#paint3_linear_185_15113)"/>
<g filter="url(#filter1_d_185_15113)">
<mask id="path-6-outside-2_185_15113" maskUnits="userSpaceOnUse" x="2.75452" y="0.0410156" width="123" height="140" fill="black">
<rect fill="white" x="2.75452" y="0.0410156" width="123" height="140"/>
<path fill-rule="evenodd" clip-rule="evenodd" d="M54.3159 8.58326C60.1917 5.1936 67.4289 5.1936 73.3046 8.58327L109.36 29.3835C115.242 32.7767 118.866 39.0509 118.866 45.8413V51.7965V87.4156V93.3709C118.866 100.161 115.242 106.435 109.36 109.829L73.3046 130.629C67.4289 134.019 60.1917 134.019 54.3159 130.629L18.2602 109.829C12.3784 106.435 8.75452 100.161 8.75452 93.3709V87.4156V51.7965V45.8413C8.75452 39.0509 12.3784 32.7767 18.2602 29.3835L54.3159 8.58326Z"/>
</mask>
<path fill-rule="evenodd" clip-rule="evenodd" d="M54.3159 8.58326C60.1917 5.1936 67.4289 5.1936 73.3046 8.58327L109.36 29.3835C115.242 32.7767 118.866 39.0509 118.866 45.8413V51.7965V87.4156V93.3709C118.866 100.161 115.242 106.435 109.36 109.829L73.3046 130.629C67.4289 134.019 60.1917 134.019 54.3159 130.629L18.2602 109.829C12.3784 106.435 8.75452 100.161 8.75452 93.3709V87.4156V51.7965V45.8413C8.75452 39.0509 12.3784 32.7767 18.2602 29.3835L54.3159 8.58326Z" fill="#737373"/>
<path d="M73.3046 8.58327L76.3028 3.38608L76.3028 3.38608L73.3046 8.58327ZM54.3159 8.58326L57.3141 13.7804V13.7804L54.3159 8.58326ZM109.36 29.3835L106.362 34.5807L109.36 29.3835ZM109.36 109.829L112.359 115.026L109.36 109.829ZM73.3046 130.629L76.3028 135.826L73.3046 130.629ZM54.3159 130.629L51.3177 135.826L54.3159 130.629ZM18.2602 109.829L21.2584 104.631H21.2584L18.2602 109.829ZM18.2602 29.3835L15.262 24.1863H15.262L18.2602 29.3835ZM76.3028 3.38608C68.5716 -1.074 59.049 -1.07401 51.3177 3.38608L57.3141 13.7804C61.3344 11.4612 66.2861 11.4612 70.3064 13.7805L76.3028 3.38608ZM112.359 24.1863L76.3028 3.38608L70.3064 13.7805L106.362 34.5807L112.359 24.1863ZM124.866 45.8413C124.866 36.9066 120.098 28.651 112.359 24.1863L106.362 34.5807C110.387 36.9023 112.866 41.1952 112.866 45.8413H124.866ZM124.866 51.7965V45.8413H112.866V51.7965H124.866ZM124.866 87.4156V51.7965H112.866V87.4156H124.866ZM124.866 93.3709V87.4156H112.866V93.3709H124.866ZM112.359 115.026C120.098 110.561 124.866 102.306 124.866 93.3709H112.866C112.866 98.0169 110.387 102.31 106.362 104.631L112.359 115.026ZM76.3028 135.826L112.359 115.026L106.362 104.631L70.3064 125.432L76.3028 135.826ZM51.3177 135.826C59.049 140.286 68.5716 140.286 76.3028 135.826L70.3064 125.432C66.2861 127.751 61.3344 127.751 57.3141 125.432L51.3177 135.826ZM15.262 115.026L51.3177 135.826L57.3141 125.432L21.2584 104.631L15.262 115.026ZM2.75452 93.3709C2.75452 102.306 7.52274 110.561 15.262 115.026L21.2584 104.631C17.234 102.31 14.7545 98.0169 14.7545 93.3709H2.75452ZM2.75452 87.4156V93.3709H14.7545V87.4156H2.75452ZM2.75452 51.7965V87.4156H14.7545V51.7965H2.75452ZM2.75452 45.8413V51.7965H14.7545V45.8413H2.75452ZM15.262 24.1863C7.52274 28.651 2.75452 36.9066 2.75452 45.8413H14.7545C14.7545 41.1952 17.234 36.9023 21.2584 34.5807L15.262 24.1863ZM51.3177 3.38608L15.262 24.1863L21.2584 34.5807L57.3141 13.7804L51.3177 3.38608Z" fill="#29417C" mask="url(#path-6-outside-2_185_15113)"/>
<path d="M54.316 14.5387C60.1917 11.1491 67.4289 11.1491 73.3047 14.5387L109.36 35.339C115.242 38.7321 118.866 45.0063 118.866 51.7967V93.3711C118.866 100.161 115.242 106.436 109.36 109.829L73.3047 130.629C67.4289 134.019 60.1917 134.019 54.316 130.629L18.2602 109.829C12.3784 106.436 8.75458 100.161 8.75458 93.3711V51.7967C8.75458 45.0064 12.3784 38.7321 18.2602 35.339L54.316 14.5387Z" fill="#7E99C9"/>
<path d="M55.5653 10.7491C60.6679 7.80548 66.9528 7.80548 72.0554 10.7491L108.111 31.5494C113.219 34.4961 116.366 39.9447 116.366 45.8417V87.416C116.366 93.3129 113.219 98.7616 108.111 101.708L72.0554 122.509C66.9528 125.452 60.6679 125.452 55.5653 122.509L19.5095 101.708C14.4016 98.7616 11.2546 93.3129 11.2546 87.416V45.8417C11.2546 39.9447 14.4016 34.4961 19.5095 31.5494L55.5653 10.7491Z" fill="url(#paint4_linear_185_15113)" stroke="url(#paint5_linear_185_15113)" stroke-width="5"/>
<path d="M54.3162 19.6286C60.192 16.2389 67.4291 16.2389 73.3049 19.6286L99.0377 34.4736C104.919 37.8668 108.543 44.141 108.543 50.9314V80.5953C108.543 87.3856 104.919 93.6599 99.0377 97.053L73.3049 111.898C67.4292 115.288 60.192 115.288 54.3162 111.898L28.5834 97.053C22.7016 93.6599 19.0778 87.3856 19.0778 80.5953V50.9314C19.0778 44.141 22.7016 37.8668 28.5834 34.4736L54.3162 19.6286Z" fill="url(#paint6_linear_185_15113)"/>
<path d="M54.3162 19.6286C60.192 16.2389 67.4291 16.2389 73.3049 19.6286L99.0377 34.4736C104.919 37.8668 108.543 44.141 108.543 50.9314V80.5953C108.543 87.3856 104.919 93.6599 99.0377 97.053L73.3049 111.898C67.4292 115.288 60.192 115.288 54.3162 111.898L28.5834 97.053C22.7016 93.6599 19.0778 87.3856 19.0778 80.5953V50.9314C19.0778 44.141 22.7016 37.8668 28.5834 34.4736L54.3162 19.6286Z" stroke="url(#paint7_linear_185_15113)"/>
<mask id="path-11-outside-3_185_15113" maskUnits="userSpaceOnUse" x="35.5422" y="32.3223" width="57" height="66" fill="black">
<rect fill="white" x="35.5422" y="32.3223" width="57" height="66"/>
<path d="M78.6809 93.3223H43.4469C42.1039 93.3223 41.4719 92.5323 41.4719 91.0313V75.6263C41.4719 64.1713 45.9749 59.2733 57.0349 59.2733H69.4379C72.0449 59.2733 73.3879 58.2463 73.3879 56.2713C73.3879 54.2173 72.0449 53.1903 69.4379 53.1903H50.3989C45.5799 53.1903 43.0519 50.5833 42.9729 45.4483V45.1323C42.9729 40.1553 45.4219 37.7063 50.3199 37.7063H69.3589C80.9719 37.7063 86.8179 43.6313 86.8179 55.5603C86.8179 66.9363 83.1839 72.2293 71.4919 72.2293H58.4569C56.0079 72.2293 54.8229 73.1773 54.8229 75.1523L54.9809 77.9173H78.7599C84.5269 77.9173 86.8179 80.4453 86.8179 85.5803C86.8179 90.7153 84.1319 93.3223 78.6809 93.3223Z"/>
</mask>
<path d="M78.6809 93.3223H43.4469C42.1039 93.3223 41.4719 92.5323 41.4719 91.0313V75.6263C41.4719 64.1713 45.9749 59.2733 57.0349 59.2733H69.4379C72.0449 59.2733 73.3879 58.2463 73.3879 56.2713C73.3879 54.2173 72.0449 53.1903 69.4379 53.1903H50.3989C45.5799 53.1903 43.0519 50.5833 42.9729 45.4483V45.1323C42.9729 40.1553 45.4219 37.7063 50.3199 37.7063H69.3589C80.9719 37.7063 86.8179 43.6313 86.8179 55.5603C86.8179 66.9363 83.1839 72.2293 71.4919 72.2293H58.4569C56.0079 72.2293 54.8229 73.1773 54.8229 75.1523L54.9809 77.9173H78.7599C84.5269 77.9173 86.8179 80.4453 86.8179 85.5803C86.8179 90.7153 84.1319 93.3223 78.6809 93.3223Z" fill="white"/>
<path d="M42.9729 45.4483H37.9729V45.4867L37.9735 45.5252L42.9729 45.4483ZM54.8229 75.1523H49.8229V75.295L49.8311 75.4375L54.8229 75.1523ZM54.9809 77.9173L49.9891 78.2025L50.2585 82.9173H54.9809V77.9173ZM78.6809 88.3223H43.4469V98.3223H78.6809V88.3223ZM43.4469 88.3223C43.7788 88.3223 44.8832 88.4587 45.7727 89.5099C46.5258 90.4 46.4719 91.2013 46.4719 91.0313H36.4719C36.4719 92.3622 36.734 94.3091 38.1389 95.9694C39.6801 97.7908 41.772 98.3223 43.4469 98.3223V88.3223ZM46.4719 91.0313V75.6263H36.4719V91.0313H46.4719ZM46.4719 75.6263C46.4719 70.3824 47.5337 67.8658 48.7413 66.5869C49.8849 65.3758 52.1173 64.2733 57.0349 64.2733V54.2733C50.8925 54.2733 45.3434 55.6197 41.4705 59.7214C37.6616 63.7552 36.4719 69.4152 36.4719 75.6263H46.4719ZM57.0349 64.2733H69.4379V54.2733H57.0349V64.2733ZM69.4379 64.2733C71.2695 64.2733 73.5241 63.9338 75.419 62.4914C77.5552 60.8653 78.3879 58.5029 78.3879 56.2713H68.3879C68.3879 56.2013 68.4003 55.9197 68.5701 55.5386C68.7509 55.1329 69.0364 54.7823 69.3621 54.5344C69.6634 54.305 69.891 54.2443 69.9052 54.2406C69.9138 54.2384 69.7762 54.2733 69.4379 54.2733V64.2733ZM78.3879 56.2713C78.3879 54.0652 77.6006 51.6749 75.4562 50.0106C73.546 48.5281 71.2654 48.1903 69.4379 48.1903V58.1903C69.7771 58.1903 69.9096 58.2253 69.8938 58.2212C69.8708 58.2152 69.6327 58.1493 69.3249 57.9104C68.9925 57.6525 68.717 57.2984 68.5485 56.9089C68.392 56.5473 68.3879 56.2968 68.3879 56.2713H78.3879ZM69.4379 48.1903H50.3989V58.1903H69.4379V48.1903ZM50.3989 48.1903C48.8693 48.1903 48.526 47.7933 48.512 47.7788C48.4527 47.7171 48.0004 47.2 47.9723 45.3714L37.9735 45.5252C38.0244 48.8315 38.8756 52.1854 41.3048 54.711C43.7793 57.2837 47.1095 58.1903 50.3989 58.1903V48.1903ZM47.9729 45.4483V45.1323H37.9729V45.4483H47.9729ZM47.9729 45.1323C47.9729 44.2825 48.0793 43.7458 48.1812 43.4364C48.275 43.1513 48.3577 43.0758 48.3594 43.0742C48.3601 43.0734 48.4272 42.997 48.6925 42.9082C48.983 42.811 49.4968 42.7063 50.3199 42.7063V32.7063C47.1002 32.7063 43.7565 33.5149 41.26 36.0316C38.7709 38.5407 37.9729 41.8931 37.9729 45.1323H47.9729ZM50.3199 42.7063H69.3589V32.7063H50.3199V42.7063ZM69.3589 42.7063C74.3688 42.7063 77.2236 43.9774 78.8723 45.6597C80.5393 47.3605 81.8179 50.3416 81.8179 55.5603H91.8179C91.8179 48.85 90.1735 42.904 86.0142 38.6601C81.8367 34.3976 75.962 32.7063 69.3589 32.7063V42.7063ZM81.8179 55.5603C81.8179 60.9577 80.9015 63.565 79.7547 64.8934C78.7679 66.0365 76.7141 67.2293 71.4919 67.2293V77.2293C77.9617 77.2293 83.571 75.7756 87.3241 71.4282C90.9173 67.2661 91.8179 61.5388 91.8179 55.5603H81.8179ZM71.4919 67.2293H58.4569V77.2293H71.4919V67.2293ZM58.4569 67.2293C56.734 67.2293 54.4763 67.5371 52.5903 69.052C50.4817 70.7458 49.8229 73.1217 49.8229 75.1523H59.8229C59.8229 75.1534 59.823 75.2106 59.8054 75.312C59.7876 75.415 59.7511 75.5665 59.6768 75.7488C59.5142 76.1479 59.232 76.5437 58.8528 76.8482C58.4988 77.1326 58.2027 77.2241 58.1271 77.244C58.0624 77.261 58.1491 77.2293 58.4569 77.2293V67.2293ZM49.8311 75.4375L49.9891 78.2025L59.9728 77.632L59.8148 74.867L49.8311 75.4375ZM54.9809 82.9173H78.7599V72.9173H54.9809V82.9173ZM78.7599 82.9173C79.859 82.9173 80.558 83.0404 80.9746 83.1693C81.1746 83.2311 81.2939 83.2895 81.3571 83.3257C81.4173 83.3602 81.4391 83.3817 81.4433 83.3858C81.4472 83.3896 81.4607 83.4028 81.4839 83.4421C81.5088 83.4842 81.5545 83.573 81.6048 83.7313C81.7108 84.0648 81.8179 84.6454 81.8179 85.5803H91.8179C91.8179 82.382 91.1158 78.876 88.4598 76.2605C85.8244 73.6654 82.2469 72.9173 78.7599 72.9173V82.9173ZM81.8179 85.5803C81.8179 87.3181 81.3749 87.7279 81.338 87.7631C81.2594 87.8383 80.6898 88.3223 78.6809 88.3223V98.3223C82.123 98.3223 85.622 97.5027 88.2491 94.9907C90.9179 92.4387 91.8179 88.9774 91.8179 85.5803H81.8179Z" fill="#3456A7" mask="url(#path-11-outside-3_185_15113)"/>
</g>
</g>
<defs>
<filter id="filter0_d_185_15113" x="0.237427" y="0.0410156" width="127.146" height="143.13" filterUnits="userSpaceOnUse" color-interpolation-filters="sRGB">
<feFlood flood-opacity="0" result="BackgroundImageFix"/>
<feColorMatrix in="SourceAlpha" type="matrix" values="0 0 0 0 0 0 0 0 0 0 0 0 0 0 0 0 0 0 127 0" result="hardAlpha"/>
<feOffset dy="4"/>
<feComposite in2="hardAlpha" operator="out"/>
<feColorMatrix type="matrix" values="0 0 0 0 0 0 0 0 0 0 0 0 0 0 0 0 0 0 0.25 0"/>
<feBlend mode="normal" in2="BackgroundImageFix" result="effect1_dropShadow_185_15113"/>
<feBlend mode="normal" in="SourceGraphic" in2="effect1_dropShadow_185_15113" result="shape"/>
</filter>
<filter id="filter1_d_185_15113" x="0.237427" y="0.0410156" width="127.146" height="143.13" filterUnits="userSpaceOnUse" color-interpolation-filters="sRGB">
<feFlood flood-opacity="0" result="BackgroundImageFix"/>
<feColorMatrix in="SourceAlpha" type="matrix" values="0 0 0 0 0 0 0 0 0 0 0 0 0 0 0 0 0 0 127 0" result="hardAlpha"/>
<feOffset dy="4"/>
<feComposite in2="hardAlpha" operator="out"/>
<feColorMatrix type="matrix" values="0 0 0 0 0 0 0 0 0 0 0 0 0 0 0 0 0 0 0.25 0"/>
<feBlend mode="normal" in2="BackgroundImageFix" result="effect1_dropShadow_185_15113"/>
<feBlend mode="normal" in="SourceGraphic" in2="effect1_dropShadow_185_15113" result="shape"/>
</filter>
<linearGradient id="paint0_linear_185_15113" x1="63.7374" y1="3.10645" x2="63.7374" y2="130.151" gradientUnits="userSpaceOnUse">
<stop stop-color="#FED324"/>
<stop offset="1" stop-color="#FAB826"/>
</linearGradient>
<linearGradient id="paint1_linear_185_15113" x1="63.7374" y1="130.151" x2="63.7374" y2="3.10645" gradientUnits="userSpaceOnUse">
<stop stop-color="#FFF7A2"/>
<stop offset="1" stop-color="#FAF29A" stop-opacity="0"/>
</linearGradient>
<linearGradient id="paint2_linear_185_15113" x1="63.7374" y1="16.3916" x2="67.709" y2="119.615" gradientUnits="userSpaceOnUse">
<stop stop-color="#EE7626" stop-opacity="0"/>
<stop offset="1" stop-color="#EF8F00"/>
</linearGradient>
<linearGradient id="paint3_linear_185_15113" x1="63.7374" y1="16.3916" x2="63.7374" y2="119.615" gradientUnits="userSpaceOnUse">
<stop stop-color="#FFF7A2"/>
<stop offset="1" stop-color="#FAF29A" stop-opacity="0"/>
</linearGradient>
<linearGradient id="paint4_linear_185_15113" x1="63.8103" y1="3.10645" x2="63.8103" y2="130.151" gradientUnits="userSpaceOnUse">
<stop stop-color="#EDF3FD"/>
<stop offset="1" stop-color="#ACC0E4"/>
</linearGradient>
<linearGradient id="paint5_linear_185_15113" x1="63.8103" y1="3.10645" x2="63.8103" y2="130.151" gradientUnits="userSpaceOnUse">
<stop stop-color="#DFEAFF"/>
<stop offset="1" stop-color="#B9C9E8" stop-opacity="0.8"/>
</linearGradient>
<linearGradient id="paint6_linear_185_15113" x1="63.8105" y1="17.0015" x2="67.7775" y2="120.226" gradientUnits="userSpaceOnUse">
<stop stop-color="#D7E5FF"/>
<stop offset="1" stop-color="#7092CB"/>
</linearGradient>
<linearGradient id="paint7_linear_185_15113" x1="63.8105" y1="17.0015" x2="63.8105" y2="120.225" gradientUnits="userSpaceOnUse">
<stop stop-color="#D9E6FE"/>
<stop offset="1" stop-color="white" stop-opacity="0.8"/>
</linearGradient>
</defs>
</svg>
