<svg width="128" height="144" viewBox="0 0 128 144" fill="none" xmlns="http://www.w3.org/2000/svg">
<g filter="url(#filter0_d_185_15111)">
<mask id="path-1-outside-1_185_15111" maskUnits="userSpaceOnUse" x="2.745" y="0.0478516" width="122" height="140" fill="black">
<rect fill="white" x="2.745" y="0.0478516" width="122" height="140"/>
<path fill-rule="evenodd" clip-rule="evenodd" d="M54.2351 8.59482C60.115 5.19886 67.3602 5.19886 73.2401 8.59482L109.233 29.3825C115.11 32.7769 118.73 39.0485 118.73 45.8355V51.7908V87.4225V93.3777C118.73 100.165 115.11 106.436 109.233 109.831L73.2401 130.618C67.3602 134.014 60.115 134.014 54.2351 130.618L18.2425 109.831C12.3653 106.436 8.745 100.165 8.745 93.3777V87.4225V51.7908V45.8355C8.745 39.0485 12.3653 32.7769 18.2425 29.3825L54.2351 8.59482Z"/>
</mask>
<path fill-rule="evenodd" clip-rule="evenodd" d="M54.2351 8.59482C60.115 5.19886 67.3602 5.19886 73.2401 8.59482L109.233 29.3825C115.11 32.7769 118.73 39.0485 118.73 45.8355V51.7908V87.4225V93.3777C118.73 100.165 115.11 106.436 109.233 109.831L73.2401 130.618C67.3602 134.014 60.115 134.014 54.2351 130.618L18.2425 109.831C12.3653 106.436 8.745 100.165 8.745 93.3777V87.4225V51.7908V45.8355C8.745 39.0485 12.3653 32.7769 18.2425 29.3825L54.2351 8.59482Z" fill="#773919"/>
<path d="M73.2401 8.59482L76.2409 3.39913V3.39912L73.2401 8.59482ZM54.2351 8.59482L51.2343 3.39912V3.39912L54.2351 8.59482ZM109.233 29.3825L106.232 34.5782L109.233 29.3825ZM109.233 109.831L106.232 104.635L109.233 109.831ZM73.2401 130.618L70.2393 125.423H70.2393L73.2401 130.618ZM54.2351 130.618L57.2359 125.423L54.2351 130.618ZM18.2425 109.831L21.2433 104.635H21.2433L18.2425 109.831ZM18.2425 29.3825L21.2433 34.5782H21.2433L18.2425 29.3825ZM76.2409 3.39912C68.5042 -1.06924 58.971 -1.06924 51.2343 3.39912L57.2359 13.7905C61.259 11.467 66.2162 11.467 70.2393 13.7905L76.2409 3.39912ZM112.234 24.1868L76.2409 3.39913L70.2393 13.7905L106.232 34.5782L112.234 24.1868ZM124.73 45.8355C124.73 36.9052 119.967 28.6531 112.234 24.1868L106.232 34.5782C110.253 36.9007 112.73 41.1918 112.73 45.8355H124.73ZM124.73 51.7908V45.8355H112.73V51.7908H124.73ZM124.73 87.4225V51.7908H112.73V87.4225H124.73ZM124.73 93.3777V87.4225H112.73V93.3777H124.73ZM112.234 115.026C119.967 110.56 124.73 102.308 124.73 93.3777H112.73C112.73 98.0215 110.253 102.313 106.232 104.635L112.234 115.026ZM76.2409 135.814L112.234 115.026L106.232 104.635L70.2393 125.423L76.2409 135.814ZM51.2343 135.814C58.971 140.282 68.5042 140.282 76.2409 135.814L70.2393 125.423C66.2162 127.746 61.259 127.746 57.2359 125.423L51.2343 135.814ZM15.2417 115.026L51.2343 135.814L57.2359 125.423L21.2433 104.635L15.2417 115.026ZM2.745 93.3777C2.745 102.308 7.50852 110.56 15.2417 115.026L21.2433 104.635C17.222 102.313 14.745 98.0215 14.745 93.3777H2.745ZM2.745 87.4225V93.3777H14.745V87.4225H2.745ZM2.745 51.7908V87.4225H14.745V51.7908H2.745ZM2.745 45.8355V51.7908H14.745V45.8355H2.745ZM15.2417 24.1868C7.50853 28.6531 2.745 36.9053 2.745 45.8355H14.745C14.745 41.1918 17.222 36.9007 21.2433 34.5782L15.2417 24.1868ZM51.2343 3.39912L15.2417 24.1868L21.2433 34.5782L57.2359 13.7905L51.2343 3.39912Z" fill="#5A2002" mask="url(#path-1-outside-1_185_15111)"/>
<path d="M54.2349 14.5497C60.1148 11.1538 67.36 11.1538 73.2399 14.5497L109.233 35.3374C115.11 38.7318 118.73 45.0034 118.73 51.7904V93.3774C118.73 100.164 115.11 106.436 109.233 109.83L73.2399 130.618C67.36 134.014 60.1148 134.014 54.2349 130.618L18.2423 109.83C12.3651 106.436 8.74481 100.164 8.74481 93.3774V51.7904C8.74481 45.0034 12.3651 38.7318 18.2423 35.3374L54.2349 14.5497Z" fill="#EE7626"/>
<path d="M71.9896 10.7595L107.982 31.5472C113.086 34.495 116.23 39.9414 116.23 45.8354V87.4223C116.23 93.3163 113.086 98.7627 107.982 101.71L71.9896 122.498C66.8834 125.447 60.5915 125.447 55.4852 122.498L19.4926 101.71C14.3887 98.7627 11.2448 93.3163 11.2448 87.4223V45.8354C11.2448 39.9414 14.3887 34.495 19.4926 31.5472L55.4852 10.7595C60.5915 7.81041 66.8834 7.81041 71.9896 10.7595Z" fill="url(#paint0_linear_185_15111)" stroke="url(#paint1_linear_185_15111)" stroke-width="5"/>
<path d="M54.2349 21.8798C60.1148 18.4839 67.36 18.4839 73.2399 21.8798L98.9214 36.7123C104.799 40.1067 108.419 46.3783 108.419 53.1653V82.8418C108.419 89.6288 104.799 95.9004 98.9214 99.2948L73.2399 114.127C67.3601 117.523 60.1148 117.523 54.2349 114.127L28.5534 99.2948C22.6762 95.9004 19.0559 89.6288 19.0559 82.8418V53.1653C19.0559 46.3783 22.6762 40.1067 28.5534 36.7123L54.2349 21.8798Z" fill="url(#paint2_linear_185_15111)"/>
<path d="M54.2349 21.8798C60.1148 18.4839 67.36 18.4839 73.2399 21.8798L98.9214 36.7123C104.799 40.1067 108.419 46.3783 108.419 53.1653V82.8418C108.419 89.6288 104.799 95.9004 98.9214 99.2948L73.2399 114.127C67.3601 117.523 60.1148 117.523 54.2349 114.127L28.5534 99.2948C22.6762 95.9004 19.0559 89.6288 19.0559 82.8418V53.1653C19.0559 46.3783 22.6762 40.1067 28.5534 36.7123L54.2349 21.8798Z" stroke="url(#paint3_linear_185_15111)"/>
<mask id="path-6-outside-2_185_15111" maskUnits="userSpaceOnUse" x="39.9739" y="31.9326" width="37" height="68" fill="black">
<rect fill="white" x="39.9739" y="31.9326" width="37" height="68"/>
<path d="M71.8588 46.3746V86.5856C71.8588 91.6416 68.3828 94.2486 64.1958 94.2486C60.1668 94.2486 56.6118 91.5626 56.6118 86.5856V64.1496C55.3478 64.7816 54.0838 65.0976 52.7408 65.0976C48.5538 65.0976 45.6308 61.5426 45.6308 57.5136C45.6308 55.3016 46.4208 53.1686 48.2378 51.3516L58.7448 41.0026C60.8778 38.8696 63.0108 37.8426 65.3018 37.8426C69.3308 37.8426 71.8588 41.0026 71.8588 46.3746Z"/>
</mask>
<path d="M71.8588 46.3746V86.5856C71.8588 91.6416 68.3828 94.2486 64.1958 94.2486C60.1668 94.2486 56.6118 91.5626 56.6118 86.5856V64.1496C55.3478 64.7816 54.0838 65.0976 52.7408 65.0976C48.5538 65.0976 45.6308 61.5426 45.6308 57.5136C45.6308 55.3016 46.4208 53.1686 48.2378 51.3516L58.7448 41.0026C60.8778 38.8696 63.0108 37.8426 65.3018 37.8426C69.3308 37.8426 71.8588 41.0026 71.8588 46.3746Z" fill="white"/>
<path d="M56.6118 64.1496H61.6118V56.0595L54.3757 59.6775L56.6118 64.1496ZM48.2378 51.3516L44.7291 47.7894L44.7156 47.8027L44.7022 47.8161L48.2378 51.3516ZM58.7448 41.0026L62.2534 44.5648L62.2669 44.5515L62.2803 44.5381L58.7448 41.0026ZM66.8588 46.3746V86.5856H76.8588V46.3746H66.8588ZM66.8588 86.5856C66.8588 87.8986 66.4476 88.4164 66.2082 88.6371C65.9033 88.9182 65.276 89.2486 64.1958 89.2486V99.2486C67.3025 99.2486 70.5067 98.2756 72.9866 95.9891C75.532 93.6424 76.8588 90.3287 76.8588 86.5856H66.8588ZM64.1958 89.2486C63.2724 89.2486 62.6452 88.9448 62.2962 88.6204C62.0086 88.3532 61.6118 87.8069 61.6118 86.5856H51.6118C51.6118 90.3413 52.9925 93.6265 55.4897 95.9465C57.9253 98.2095 61.0901 99.2486 64.1958 99.2486V89.2486ZM61.6118 86.5856V64.1496H51.6118V86.5856H61.6118ZM54.3757 59.6775C53.7464 59.9921 53.2436 60.0976 52.7408 60.0976V70.0976C54.924 70.0976 56.9491 69.5711 58.8478 68.6218L54.3757 59.6775ZM52.7408 60.0976C52.1483 60.0976 51.6947 59.8742 51.3308 59.4702C50.9317 59.0271 50.6308 58.3345 50.6308 57.5136H40.6308C40.6308 63.7994 45.3134 70.0976 52.7408 70.0976V60.0976ZM50.6308 57.5136C50.6308 56.5986 50.9144 55.7461 51.7733 54.8871L44.7022 47.8161C41.9272 50.5911 40.6308 54.0046 40.6308 57.5136H50.6308ZM51.7464 54.9138L62.2534 44.5648L55.2361 37.4404L44.7291 47.7894L51.7464 54.9138ZM62.2803 44.5381C63.7823 43.0362 64.7153 42.8426 65.3018 42.8426V32.8426C61.3063 32.8426 57.9733 34.703 55.2092 37.4671L62.2803 44.5381ZM65.3018 42.8426C65.6465 42.8426 65.8189 42.9074 65.8877 42.94C65.9507 42.9698 66.0342 43.022 66.143 43.162C66.3875 43.4767 66.8588 44.4019 66.8588 46.3746H76.8588C76.8588 42.9753 76.0661 39.6346 74.0394 37.0263C71.8972 34.2694 68.7608 32.8426 65.3018 32.8426V42.8426Z" fill="#6E2702" mask="url(#path-6-outside-2_185_15111)"/>
</g>
<defs>
<filter id="filter0_d_185_15111" x="0.237427" y="0.0478516" width="127" height="143.117" filterUnits="userSpaceOnUse" color-interpolation-filters="sRGB">
<feFlood flood-opacity="0" result="BackgroundImageFix"/>
<feColorMatrix in="SourceAlpha" type="matrix" values="0 0 0 0 0 0 0 0 0 0 0 0 0 0 0 0 0 0 127 0" result="hardAlpha"/>
<feOffset dy="4"/>
<feComposite in2="hardAlpha" operator="out"/>
<feColorMatrix type="matrix" values="0 0 0 0 0 0 0 0 0 0 0 0 0 0 0 0 0 0 0.25 0"/>
<feBlend mode="normal" in2="BackgroundImageFix" result="effect1_dropShadow_185_15111"/>
<feBlend mode="normal" in="SourceGraphic" in2="effect1_dropShadow_185_15111" result="shape"/>
</filter>
<linearGradient id="paint0_linear_185_15111" x1="63.7374" y1="3.10645" x2="63.7374" y2="130.151" gradientUnits="userSpaceOnUse">
<stop stop-color="#FED324"/>
<stop offset="1" stop-color="#FAB826"/>
</linearGradient>
<linearGradient id="paint1_linear_185_15111" x1="63.7374" y1="130.151" x2="63.7374" y2="3.10645" gradientUnits="userSpaceOnUse">
<stop stop-color="#FFF7A2"/>
<stop offset="1" stop-color="#FAF29A" stop-opacity="0"/>
</linearGradient>
<linearGradient id="paint2_linear_185_15111" x1="63.7374" y1="16.3916" x2="67.709" y2="119.615" gradientUnits="userSpaceOnUse">
<stop stop-color="#EE7626" stop-opacity="0"/>
<stop offset="1" stop-color="#EF8F00"/>
</linearGradient>
<linearGradient id="paint3_linear_185_15111" x1="63.7374" y1="16.3916" x2="63.7374" y2="119.615" gradientUnits="userSpaceOnUse">
<stop stop-color="#FFF7A2"/>
<stop offset="1" stop-color="#FAF29A" stop-opacity="0"/>
</linearGradient>
</defs>
</svg>
