<svg width="155" height="111" viewBox="0 0 155 111" fill="none" xmlns="http://www.w3.org/2000/svg">
  <path
    d="M113.461 24.8552L84.0707 8.06855C79.6656 5.55256 74.2607 5.54396 69.8477 8.04593L40.2345 24.8351C35.7175 27.3959 32.9321 32.1931 32.9473 37.3854L33.061 76.3752C33.0756 81.364 35.675 85.9888 39.9292 88.5947L69.4514 106.678C74.0605 109.501 79.8636 109.501 84.4727 106.678L113.954 88.6196C118.234 85.9981 120.837 81.3349 120.822 76.3162L120.709 37.2991C120.694 32.1531 117.93 27.4075 113.461 24.8552Z"
    fill="#A64B00" stroke="#592F0D" stroke-width="3.88618" />
  <g filter="url(#filter0_ii_122_3823)">
    <path
      d="M70.7903 9.72142C74.5152 7.57088 79.1044 7.57088 82.8292 9.72142L111.263 26.1376C114.988 28.2881 117.282 32.2625 117.282 36.5636V69.3958C117.282 73.6969 114.988 77.6713 111.263 79.8218L82.8292 96.238C79.1044 98.3885 74.5152 98.3885 70.7903 96.238L42.3567 79.8218C38.6319 77.6713 36.3373 73.6969 36.3373 69.3958V36.5635C36.3373 32.2625 38.6319 28.2881 42.3567 26.1376L70.7903 9.72142Z"
      fill="#4E47A1" />
    <path
      d="M70.7903 9.72142C74.5152 7.57088 79.1044 7.57088 82.8292 9.72142L111.263 26.1376C114.988 28.2881 117.282 32.2625 117.282 36.5636V69.3958C117.282 73.6969 114.988 77.6713 111.263 79.8218L82.8292 96.238C79.1044 98.3885 74.5152 98.3885 70.7903 96.238L42.3567 79.8218C38.6319 77.6713 36.3373 73.6969 36.3373 69.3958V36.5635C36.3373 32.2625 38.6319 28.2881 42.3567 26.1376L70.7903 9.72142Z"
      fill="url(#paint0_linear_122_3823)" />
  </g>
  <g filter="url(#filter1_i_122_3823)">
    <path
      d="M70.9397 24.9997C74.6646 22.8492 79.2538 22.8492 82.9786 24.9997L99.8672 34.7504C103.592 36.9009 105.887 40.8753 105.887 45.1763V64.6776C105.887 68.9787 103.592 72.953 99.8672 75.1036L82.9786 84.8542C79.2538 87.0047 74.6646 87.0047 70.9397 84.8542L54.0512 75.1036C50.3263 72.953 48.0317 68.9787 48.0317 64.6776V45.1764C48.0317 40.8753 50.3263 36.9009 54.0512 34.7504L70.9397 24.9997Z"
      fill="#EA6C05" />
  </g>
  <ellipse cx="70.6516" cy="16.3351" rx="5.43877" ry="2.82529"
    transform="rotate(-29.6591 70.6516 16.3351)" fill="#FFF7D9" />
  <g filter="url(#filter2_i_122_3823)">
    <path fill-rule="evenodd" clip-rule="evenodd"
      d="M122.954 29.8156L148.717 6.82559C149.682 5.96416 151.212 6.64938 151.212 7.94319V12.8752C151.212 12.8791 151.212 12.883 151.212 12.887V31.4691C151.212 37.0272 147.943 42.0652 142.866 44.3287L124.561 52.4906C123.57 52.9323 122.453 52.2073 122.453 51.1226V46.1904C122.453 46.1865 122.453 46.1826 122.453 46.1788V30.9332C122.453 30.5064 122.635 30.0998 122.954 29.8156ZM123.33 55.351L140.556 47.5046C141.547 47.0528 142.674 47.7778 142.674 48.8677V53.7997C142.674 53.8036 142.674 53.8075 142.674 53.8115V61.6853C142.674 66.7808 138.688 70.9859 133.6 71.258L124.031 71.7699C123.174 71.8157 122.453 71.1328 122.453 70.2741V65.3418C122.453 65.338 122.453 65.3342 122.453 65.3304V56.7141C122.453 56.1272 122.796 55.5943 123.33 55.351Z"
      fill="#FFC511" />
  </g>
  <path
    d="M148.717 6.82559L146.302 4.11932L146.302 4.11932L148.717 6.82559ZM122.954 29.8156L125.369 32.5219L122.954 29.8156ZM151.212 12.8752H147.585V12.8885L147.585 12.9018L151.212 12.8752ZM142.866 44.3287L141.389 41.016L141.389 41.016L142.866 44.3287ZM124.561 52.4906L126.038 55.8033L126.038 55.8033L124.561 52.4906ZM122.453 46.1904H126.08V46.177L126.08 46.1637L122.453 46.1904ZM140.556 47.5046L142.059 50.8054L142.059 50.8054L140.556 47.5046ZM123.33 55.351L121.827 52.0502L121.827 52.0502L123.33 55.351ZM142.674 53.7997H139.047V53.8129L139.047 53.8262L142.674 53.7997ZM133.6 71.258L133.406 67.6361L133.406 67.6361L133.6 71.258ZM124.031 71.7699L123.837 68.1479L123.837 68.1479L124.031 71.7699ZM122.453 65.3418H126.08V65.3283L126.08 65.3148L122.453 65.3418ZM146.302 4.11932L120.539 27.1094L125.369 32.5219L151.132 9.53186L146.302 4.11932ZM154.839 7.94319C154.839 3.51642 149.605 1.17195 146.302 4.11932L151.132 9.53186C149.76 10.7564 147.585 9.78234 147.585 7.94319H154.839ZM154.839 12.8752V7.94319H147.585V12.8752H154.839ZM154.839 12.887C154.839 12.8748 154.839 12.862 154.839 12.8487L147.585 12.9018C147.585 12.8963 147.585 12.8913 147.585 12.887H154.839ZM154.839 31.4691V12.887H147.585V31.4691H154.839ZM144.343 47.6414C150.727 44.7949 154.839 38.4591 154.839 31.4691H147.585C147.585 35.5954 145.158 39.3356 141.389 41.016L144.343 47.6414ZM126.038 55.8033L144.343 47.6414L141.389 41.016L123.084 49.1779L126.038 55.8033ZM118.826 51.1226C118.826 54.8339 122.648 57.3147 126.038 55.8033L123.084 49.1779C124.492 48.5499 126.08 49.5806 126.08 51.1226H118.826ZM118.826 46.1904V51.1226H126.08V46.1904H118.826ZM118.826 46.1788C118.826 46.1915 118.826 46.2042 118.826 46.217L126.08 46.1637C126.08 46.1688 126.08 46.1738 126.08 46.1788H118.826ZM118.826 30.9332V46.1788H126.08V30.9332H118.826ZM120.539 27.1094C119.449 28.0817 118.826 29.4728 118.826 30.9332H126.08C126.08 31.54 125.821 32.1179 125.369 32.5219L120.539 27.1094ZM139.052 44.2038L121.827 52.0502L124.834 58.6518L142.059 50.8054L139.052 44.2038ZM146.301 48.8677C146.301 45.1386 142.446 42.6579 139.052 44.2038L142.059 50.8054C140.649 51.4476 139.047 50.417 139.047 48.8677H146.301ZM146.301 53.7997V48.8677H139.047V53.7997H146.301ZM146.302 53.8115C146.302 53.7982 146.301 53.7854 146.301 53.7732L139.047 53.8262C139.047 53.8218 139.047 53.8169 139.047 53.8115H146.302ZM146.302 61.6853V53.8115H139.047V61.6853H146.302ZM133.794 74.8799C140.807 74.5048 146.302 68.7087 146.302 61.6853H139.047C139.047 64.8529 136.569 67.4669 133.406 67.6361L133.794 74.8799ZM124.225 75.3918L133.794 74.8799L133.406 67.6361L123.837 68.1479L124.225 75.3918ZM118.826 70.2741C118.826 73.2121 121.291 75.5487 124.225 75.3918L123.837 68.1479C125.056 68.0827 126.08 69.0535 126.08 70.2741H118.826ZM118.826 65.3418V70.2741H126.08V65.3418H118.826ZM118.826 65.3304C118.826 65.3432 118.826 65.356 118.826 65.3688L126.08 65.3148C126.08 65.32 126.08 65.3252 126.08 65.3304H118.826ZM118.826 56.7141V65.3304H126.08V56.7141H118.826ZM121.827 52.0502C119.999 52.8827 118.826 54.7059 118.826 56.7141H126.08C126.08 57.5485 125.593 58.3059 124.834 58.6518L121.827 52.0502Z"
    fill="#592F0D" />
  <g filter="url(#filter3_i_122_3823)">
    <path fill-rule="evenodd" clip-rule="evenodd"
      d="M134.017 71.309L123.96 72.1741C123.108 72.2474 122.453 72.9605 122.453 73.8157V76.7871C122.453 76.7951 122.453 76.803 122.453 76.811V84.1364C122.453 85.0464 123.191 85.7841 124.101 85.7841H127.665C130.891 85.7841 134.018 83.5745 134.885 80.4666L135.859 72.7526C135.838 72.7549 135.817 72.7572 135.796 72.7595C135.698 71.9122 134.94 71.2296 134.017 71.309Z"
      fill="#FFC511" />
  </g>
  <path
    d="M123.96 72.1741L123.649 68.5604L123.649 68.5604L123.96 72.1741ZM134.017 71.309L134.328 74.9228L134.328 74.9228L134.017 71.309ZM122.453 76.7871L126.08 76.8388L126.08 76.813V76.7871H122.453ZM134.885 80.4666L138.379 81.4415L138.451 81.185L138.484 80.9208L134.885 80.4666ZM135.859 72.7526L139.458 73.2068L140.031 68.6605L135.475 69.1459L135.859 72.7526ZM135.796 72.7595L132.193 73.1776L132.61 76.7725L136.206 76.3634L135.796 72.7595ZM124.271 75.7879L134.328 74.9228L133.706 67.6953L123.649 68.5604L124.271 75.7879ZM126.08 73.8157C126.08 74.8432 125.294 75.6998 124.271 75.7879L123.649 68.5604C120.921 68.795 118.826 71.0778 118.826 73.8157H126.08ZM126.08 76.7871V73.8157H118.826V76.7871H126.08ZM118.827 76.7355C118.826 76.7606 118.826 76.7858 118.826 76.811H126.08C126.08 76.8203 126.08 76.8295 126.08 76.8388L118.827 76.7355ZM118.826 76.811V84.1364H126.08V76.811H118.826ZM118.826 84.1364C118.826 87.0496 121.188 89.4112 124.101 89.4112V82.157C125.194 82.157 126.08 83.0432 126.08 84.1364H118.826ZM124.101 89.4112H127.665V82.157H124.101V89.4112ZM127.665 89.4112C132.394 89.4112 137.041 86.2351 138.379 81.4415L131.392 79.4917C130.995 80.9139 129.389 82.157 127.665 82.157V89.4112ZM138.484 80.9208L139.458 73.2068L132.261 72.2984L131.287 80.0125L138.484 80.9208ZM135.475 69.1459C135.445 69.1491 135.416 69.1523 135.386 69.1557L136.206 76.3634C136.218 76.362 136.231 76.3606 136.243 76.3593L135.475 69.1459ZM134.328 74.9228C133.201 75.0197 132.31 74.1819 132.193 73.1776L139.399 72.3415C139.086 69.6424 136.678 67.4396 133.706 67.6953L134.328 74.9228ZM127.665 82.1582H124.101V89.4124H127.665V82.1582ZM131.287 80.0131L131.287 80.0136L138.484 80.922L138.484 80.9215L131.287 80.0131Z"
    fill="#592F0D" />
  <path
    d="M148.717 11.7694L122.954 34.7595C122.635 35.0437 122.453 35.4502 122.453 35.8771V51.1226C122.453 52.2073 123.57 52.9324 124.561 52.4907L142.866 44.3288C147.942 42.0653 151.212 37.0273 151.212 31.4692V12.887C151.212 11.5932 149.682 10.908 148.717 11.7694Z"
    fill="#A64B00" />
  <path
    d="M140.556 50.3514L123.33 58.1978C122.796 58.4411 122.453 58.974 122.453 59.5609V68.1772C122.453 69.0359 123.174 70.4677 124.031 70.4219L133.6 69.91C138.688 69.6378 142.674 64.6838 142.674 59.5884V51.7145C142.674 50.6246 141.547 49.8996 140.556 50.3514Z"
    fill="#A64B00" />
  <path
    d="M132.189 73.8765L123.96 75.1698C123.107 75.2431 122.453 75.9562 122.453 76.8114V84.1369C122.453 85.0469 123.191 85.7845 124.101 85.7845H127.665C130.891 85.7845 134.018 83.5749 134.885 80.4671L135.859 72.7531C133.75 72.9777 133.335 73.7779 132.189 73.8765Z"
    fill="#A64B00" />
  <path
    d="M148.717 11.7694L122.954 34.7595C122.635 35.0437 122.453 35.4502 122.453 35.8771V51.1226C122.453 52.2073 123.57 52.9324 124.561 52.4907L142.866 44.3288C147.942 42.0653 151.212 37.0273 151.212 31.4692V12.887C151.212 11.5932 149.682 10.908 148.717 11.7694Z"
    stroke="black" />
  <path
    d="M140.556 50.3514L123.33 58.1978C122.796 58.4411 122.453 58.974 122.453 59.5609V68.1772C122.453 69.0359 123.174 70.4677 124.031 70.4219L133.6 69.91C138.688 69.6378 142.674 64.6838 142.674 59.5884V51.7145C142.674 50.6246 141.547 49.8996 140.556 50.3514Z"
    stroke="black" />
  <path
    d="M132.189 73.8765L123.96 75.1698C123.107 75.2431 122.453 75.9562 122.453 76.8114V84.1369C122.453 85.0469 123.191 85.7845 124.101 85.7845H127.665C130.891 85.7845 134.018 83.5749 134.885 80.4671L135.859 72.7531C133.75 72.9777 133.335 73.7779 132.189 73.8765Z"
    stroke="black" />
  <g filter="url(#filter4_i_122_3823)">
    <path
      d="M148.717 6.82559L122.954 29.8156C122.635 30.0998 122.453 30.5064 122.453 30.9332V46.1788C122.453 47.2635 123.57 47.9885 124.561 47.5468L142.866 39.3849C147.943 37.1215 151.212 32.0835 151.212 26.5253V7.94319C151.212 6.64938 149.682 5.96416 148.717 6.82559Z"
      fill="#FFC511" />
    <path
      d="M140.556 47.5046L123.33 55.351C122.796 55.5943 122.453 56.1271 122.453 56.7141V65.3304C122.453 66.189 123.174 66.872 124.031 66.8261L133.6 66.3142C138.688 66.0421 142.674 61.837 142.674 56.7415V48.8677C142.674 47.7778 141.547 47.0528 140.556 47.5046Z"
      fill="#FFC511" />
    <path
      d="M134.017 71.3081L123.96 72.1732C123.107 72.2465 122.453 72.9596 122.453 73.8148V81.1403C122.453 82.0502 123.191 82.7879 124.101 82.7879H127.665C130.891 82.7879 133.723 80.6384 134.59 77.5306L135.745 73.3926C136.054 72.2851 135.162 71.2096 134.017 71.3081Z"
      fill="#FFC511" />
    <path
      d="M148.717 6.82559L122.954 29.8156C122.635 30.0998 122.453 30.5064 122.453 30.9332V46.1788C122.453 47.2635 123.57 47.9885 124.561 47.5468L142.866 39.3849C147.943 37.1215 151.212 32.0835 151.212 26.5253V7.94319C151.212 6.64938 149.682 5.96416 148.717 6.82559Z"
      stroke="black" />
    <path
      d="M140.556 47.5046L123.33 55.351C122.796 55.5943 122.453 56.1271 122.453 56.7141V65.3304C122.453 66.189 123.174 66.872 124.031 66.8261L133.6 66.3142C138.688 66.0421 142.674 61.837 142.674 56.7415V48.8677C142.674 47.7778 141.547 47.0528 140.556 47.5046Z"
      stroke="black" />
    <path
      d="M134.017 71.3081L123.96 72.1732C123.107 72.2465 122.453 72.9596 122.453 73.8148V81.1403C122.453 82.0502 123.191 82.7879 124.101 82.7879H127.665C130.891 82.7879 133.723 80.6384 134.59 77.5306L135.745 73.3926C136.054 72.2851 135.162 71.2096 134.017 71.3081Z"
      stroke="black" />
  </g>
  <g filter="url(#filter5_i_122_3823)">
    <path fill-rule="evenodd" clip-rule="evenodd"
      d="M32.2592 27.3733L6.49579 4.38321C5.53045 3.52178 4.00063 4.207 4.00063 5.5008V10.4183C4.0005 10.4266 4.00043 10.4349 4.00043 10.4433V29.0254C4.00043 34.5836 7.27021 39.6216 12.3466 41.885L30.6517 50.0469C31.6424 50.4887 32.7596 49.7636 32.7596 48.6789V43.7609C32.7597 43.7528 32.7598 43.7446 32.7598 43.7364V28.4909C32.7598 28.064 32.5777 27.6574 32.2592 27.3733ZM31.8828 52.9086L14.6573 45.0622C13.6654 44.6104 12.5385 45.3354 12.5385 46.4253V51.3431C12.5384 51.3513 12.5383 51.3596 12.5383 51.3678V59.2417C12.5383 64.3371 16.5245 68.5422 21.6126 68.8144L31.1817 69.3262C32.0392 69.3721 32.7596 68.6892 32.7596 67.8305V62.9122C32.7597 62.9041 32.7598 62.8961 32.7598 62.888V54.2717C32.7598 53.6848 32.417 53.1519 31.8828 52.9086Z"
      fill="#FFC511" />
  </g>
  <path
    d="M6.49579 4.38321L8.91074 1.67693L8.91074 1.67693L6.49579 4.38321ZM32.2592 27.3733L29.8442 30.0795L32.2592 27.3733ZM4.00063 10.4183H7.62773V10.4462L7.6273 10.4741L4.00063 10.4183ZM12.3466 41.885L13.8237 38.5723L13.8237 38.5723L12.3466 41.885ZM30.6517 50.0469L29.1747 53.3597L29.1746 53.3597L30.6517 50.0469ZM32.7596 43.7609H29.1325V43.7327L29.1329 43.7044L32.7596 43.7609ZM14.6573 45.0622L13.1537 48.363L13.1537 48.363L14.6573 45.0622ZM31.8828 52.9086L33.3864 49.6078L33.3864 49.6078L31.8828 52.9086ZM12.5385 51.3431H16.1656V51.3714L16.1652 51.3997L12.5385 51.3431ZM21.6126 68.8144L21.8064 65.1924L21.8064 65.1924L21.6126 68.8144ZM31.1817 69.3262L31.3754 65.7043L31.3754 65.7043L31.1817 69.3262ZM32.7596 62.9122H29.1325V62.8835L29.1329 62.8549L32.7596 62.9122ZM8.91074 1.67693L34.6741 24.667L29.8442 30.0795L4.08084 7.08948L8.91074 1.67693ZM0.373522 5.5008C0.373522 1.07404 5.60782 -1.27043 8.91074 1.67693L4.08084 7.08948C5.45308 8.31399 7.62773 7.33996 7.62773 5.5008H0.373522ZM0.373522 10.4183V5.5008H7.62773V10.4183H0.373522ZM0.373331 10.4433C0.373331 10.4167 0.373531 10.3898 0.373951 10.3625L7.6273 10.4741C7.62746 10.4634 7.62754 10.4532 7.62754 10.4433H0.373331ZM0.373331 29.0254V10.4433H7.62754V29.0254H0.373331ZM10.8695 45.1978C4.48542 42.3512 0.373331 36.0154 0.373331 29.0254H7.62754C7.62754 33.1518 10.055 36.8919 13.8237 38.5723L10.8695 45.1978ZM29.1746 53.3597L10.8695 45.1978L13.8237 38.5723L32.1288 46.7342L29.1746 53.3597ZM36.3867 48.6789C36.3867 52.3903 32.5643 54.871 29.1747 53.3597L32.1288 46.7342C30.7205 46.1063 29.1325 47.1369 29.1325 48.6789H36.3867ZM36.3867 43.7609V48.6789H29.1325V43.7609H36.3867ZM36.3869 43.7364C36.3869 43.7634 36.3867 43.7904 36.3862 43.8175L29.1329 43.7044C29.1327 43.7151 29.1327 43.7258 29.1327 43.7364H36.3869ZM36.3869 28.4909V43.7364H29.1327V28.4909H36.3869ZM34.6741 24.667C35.7638 25.6393 36.3869 27.0304 36.3869 28.4909H29.1327C29.1327 29.0976 29.3915 29.6755 29.8442 30.0795L34.6741 24.667ZM16.1608 41.7614L33.3864 49.6078L30.3793 56.2094L13.1537 48.363L16.1608 41.7614ZM8.91139 46.4253C8.91139 42.6962 12.7672 40.2156 16.1608 41.7614L13.1537 48.363C14.5636 49.0052 16.1656 47.9746 16.1656 46.4253H8.91139ZM8.91139 51.3431V46.4253H16.1656V51.3431H8.91139ZM8.9112 51.3678C8.9112 51.3405 8.91141 51.3135 8.91183 51.2866L16.1652 51.3997C16.1653 51.3892 16.1654 51.3786 16.1654 51.3678H8.9112ZM8.9112 59.2417V51.3678H16.1654V59.2417H8.9112ZM21.4189 72.4363C14.4056 72.0611 8.9112 66.265 8.9112 59.2417H16.1654C16.1654 62.4092 18.6434 65.0232 21.8064 65.1924L21.4189 72.4363ZM30.988 72.9481L21.4189 72.4363L21.8064 65.1924L31.3754 65.7043L30.988 72.9481ZM36.3867 67.8305C36.3867 70.7685 33.9218 73.1051 30.9879 72.9481L31.3754 65.7043C30.1565 65.6391 29.1325 66.6099 29.1325 67.8305H36.3867ZM36.3867 62.9122V67.8305H29.1325V62.9122H36.3867ZM36.3869 62.888C36.3869 62.9152 36.3867 62.9423 36.3862 62.9695L29.1329 62.8549C29.1327 62.8659 29.1327 62.877 29.1327 62.888H36.3869ZM36.3869 54.2717V62.888H29.1327V54.2717H36.3869ZM33.3864 49.6078C35.2139 50.4403 36.3869 52.2635 36.3869 54.2717H29.1327C29.1327 55.1061 29.62 55.8635 30.3793 56.2094L33.3864 49.6078Z"
    fill="#592F0D" />
  <g filter="url(#filter6_i_122_3823)">
    <path fill-rule="evenodd" clip-rule="evenodd"
      d="M21.1963 68.8666L31.2533 69.7318C32.1054 69.8051 32.7598 70.5181 32.7598 71.3734V78.6988C32.7598 78.7073 32.7597 78.7157 32.7596 78.7241V81.6941C32.7596 82.604 32.0219 83.3417 31.1119 83.3417H27.5478C24.3212 83.3417 21.1945 81.1321 20.3272 78.0243L19.3536 70.3102C19.3749 70.3125 19.396 70.3148 19.417 70.3172C19.5153 69.4698 20.2734 68.7873 21.1963 68.8666Z"
      fill="#FFC511" />
  </g>
  <path
    d="M31.2533 69.7318L31.5642 66.118L31.5642 66.118L31.2533 69.7318ZM21.1963 68.8666L20.8854 72.4804L20.8854 72.4804L21.1963 68.8666ZM32.7596 78.7241H29.1325V78.6968L29.1329 78.6694L32.7596 78.7241ZM20.3272 78.0243L16.8336 78.9992L16.762 78.7427L16.7287 78.4785L20.3272 78.0243ZM19.3536 70.3102L15.7551 70.7644L15.1813 66.2181L19.7378 66.7035L19.3536 70.3102ZM19.417 70.3172L23.0199 70.7352L22.6029 74.3303L19.0069 73.921L19.417 70.3172ZM19.3536 70.3113L15.7551 70.7655L15.1793 66.2034L19.7501 66.706L19.3536 70.3113ZM30.9425 73.3455L20.8854 72.4804L21.5071 65.2529L31.5642 66.118L30.9425 73.3455ZM29.1327 71.3734C29.1327 72.4008 29.9188 73.2575 30.9425 73.3455L31.5642 66.118C34.292 66.3527 36.3869 68.6354 36.3869 71.3734H29.1327ZM29.1327 78.6988V71.3734H36.3869V78.6988H29.1327ZM29.1329 78.6694C29.1327 78.6792 29.1327 78.689 29.1327 78.6988H36.3869C36.3869 78.7255 36.3867 78.7522 36.3863 78.7788L29.1329 78.6694ZM36.3867 78.7241V81.6941H29.1325V78.7241H36.3867ZM36.3867 81.6941C36.3867 84.6072 34.0251 86.9688 31.1119 86.9688V79.7146C30.0187 79.7146 29.1325 80.6008 29.1325 81.6941H36.3867ZM31.1119 86.9688H27.5478V79.7146H31.1119V86.9688ZM27.5478 86.9688C22.8192 86.9688 18.1712 83.7927 16.8336 78.9992L23.8209 77.0494C24.2177 78.4715 25.8233 79.7146 27.5478 79.7146V86.9688ZM16.7287 78.4785L15.7551 70.7644L22.9522 69.856L23.9258 77.5701L16.7287 78.4785ZM19.7378 66.7035C19.7677 66.7067 19.7975 66.71 19.8271 66.7134L19.0069 73.921C18.9946 73.9197 18.9821 73.9183 18.9694 73.9169L19.7378 66.7035ZM20.8854 72.4804C22.0119 72.5773 22.9034 71.7395 23.0199 70.7352L15.814 69.8992C16.1272 67.2001 18.5349 64.9972 21.5071 65.2529L20.8854 72.4804ZM27.5478 79.7157H31.1119V86.9699H27.5478V79.7157ZM18.9573 73.9167L18.9572 73.9167L19.7501 66.706L19.7502 66.706L18.9573 73.9167ZM22.9522 69.8572L23.9258 77.5712L16.7287 78.4796L15.7551 70.7655L22.9522 69.8572Z"
    fill="#592F0D" />
  <path
    d="M6.49579 9.32559L32.2592 32.3156C32.5777 32.5998 32.7598 33.0064 32.7598 33.4332V48.6788C32.7598 49.7635 31.6426 50.4886 30.6519 50.0468L12.3468 41.8849C7.2704 39.6215 4.00063 34.5835 4.00063 29.0253V10.4432C4.00063 9.14938 5.53045 8.46416 6.49579 9.32559Z"
    fill="#A64B00" />
  <path
    d="M14.6573 47.9075L31.8828 55.754C32.417 55.9973 32.7598 56.5301 32.7598 57.1171V65.7333C32.7598 66.592 32.0393 68.0239 31.1819 67.978L21.6128 67.4662C16.5247 67.194 12.5385 62.24 12.5385 57.1445V49.2707C12.5385 48.1808 13.6654 47.4557 14.6573 47.9075Z"
    fill="#A64B00" />
  <path
    d="M23.0236 71.4326L31.2533 72.726C32.1054 72.7993 32.7598 73.5124 32.7598 74.3676V81.693C32.7598 82.603 32.0221 83.3407 31.1121 83.3407H27.548C24.3214 83.3407 21.1947 81.1311 20.3274 78.0232L19.3538 70.3092C21.463 70.5339 21.878 71.3341 23.0236 71.4326Z"
    fill="#A64B00" />
  <path
    d="M6.49579 9.32559L32.2592 32.3156C32.5777 32.5998 32.7598 33.0064 32.7598 33.4332V48.6788C32.7598 49.7635 31.6426 50.4886 30.6519 50.0468L12.3468 41.8849C7.2704 39.6215 4.00063 34.5835 4.00063 29.0253V10.4432C4.00063 9.14938 5.53045 8.46416 6.49579 9.32559Z"
    stroke="black" />
  <path
    d="M14.6573 47.9075L31.8828 55.754C32.417 55.9973 32.7598 56.5301 32.7598 57.1171V65.7333C32.7598 66.592 32.0393 68.0239 31.1819 67.978L21.6128 67.4662C16.5247 67.194 12.5385 62.24 12.5385 57.1445V49.2707C12.5385 48.1808 13.6654 47.4557 14.6573 47.9075Z"
    stroke="black" />
  <path
    d="M23.0236 71.4326L31.2533 72.726C32.1054 72.7993 32.7598 73.5124 32.7598 74.3676V81.693C32.7598 82.603 32.0221 83.3407 31.1121 83.3407H27.548C24.3214 83.3407 21.1947 81.1311 20.3274 78.0232L19.3538 70.3092C21.463 70.5339 21.878 71.3341 23.0236 71.4326Z"
    stroke="black" />
  <g filter="url(#filter7_i_122_3823)">
    <path
      d="M6.49578 4.38321L32.2592 27.3732C32.5777 27.6574 32.7598 28.064 32.7598 28.4908V43.7364C32.7598 44.8211 31.6426 45.5462 30.6519 45.1044L12.3468 36.9425C7.27039 34.6791 4.00061 29.6411 4.00061 24.0829V5.5008C4.00061 4.207 5.53044 3.52178 6.49578 4.38321Z"
      fill="#FFC511" />
    <path
      d="M14.6573 45.0622L31.8828 52.9086C32.417 53.1519 32.7598 53.6848 32.7598 54.2717V62.888C32.7598 63.7467 32.0393 64.4296 31.1819 64.3837L21.6128 63.8719C16.5247 63.5997 12.5385 59.3946 12.5385 54.2992V46.4253C12.5385 45.3354 13.6654 44.6104 14.6573 45.0622Z"
      fill="#FFC511" />
    <path
      d="M21.1963 68.8657L31.2533 69.7308C32.1054 69.8041 32.7598 70.5172 32.7598 71.3724V78.6979C32.7598 79.6079 32.0221 80.3455 31.1121 80.3455H27.548C24.3214 80.3455 21.49 78.1961 20.6228 75.0882L19.468 70.9502C19.159 69.8427 20.0507 68.7672 21.1963 68.8657Z"
      fill="#FFC511" />
    <path
      d="M6.49578 4.38321L32.2592 27.3732C32.5777 27.6574 32.7598 28.064 32.7598 28.4908V43.7364C32.7598 44.8211 31.6426 45.5462 30.6519 45.1044L12.3468 36.9425C7.27039 34.6791 4.00061 29.6411 4.00061 24.0829V5.5008C4.00061 4.207 5.53044 3.52178 6.49578 4.38321Z"
      stroke="black" />
    <path
      d="M14.6573 45.0622L31.8828 52.9086C32.417 53.1519 32.7598 53.6848 32.7598 54.2717V62.888C32.7598 63.7467 32.0393 64.4296 31.1819 64.3837L21.6128 63.8719C16.5247 63.5997 12.5385 59.3946 12.5385 54.2992V46.4253C12.5385 45.3354 13.6654 44.6104 14.6573 45.0622Z"
      stroke="black" />
    <path
      d="M21.1963 68.8657L31.2533 69.7308C32.1054 69.8041 32.7598 70.5172 32.7598 71.3724V78.6979C32.7598 79.6079 32.0221 80.3455 31.1121 80.3455H27.548C24.3214 80.3455 21.49 78.1961 20.6228 75.0882L19.468 70.9502C19.159 69.8427 20.0507 68.7672 21.1963 68.8657Z"
      stroke="black" />
  </g>
  <defs>
    <filter id="filter0_ii_122_3823" x="36.3379" y="8.1084" width="80.9453" height="89.7427"
      filterUnits="userSpaceOnUse" color-interpolation-filters="sRGB">
      <feFlood flood-opacity="0" result="BackgroundImageFix" />
      <feBlend mode="normal" in="SourceGraphic" in2="BackgroundImageFix" result="shape" />
      <feColorMatrix in="SourceAlpha" type="matrix"
        values="0 0 0 0 0 0 0 0 0 0 0 0 0 0 0 0 0 0 127 0" result="hardAlpha" />
      <feOffset dy="10.3191" />
      <feComposite in2="hardAlpha" operator="arithmetic" k2="-1" k3="1" />
      <feColorMatrix type="matrix" values="0 0 0 0 1 0 0 0 0 0.901186 0 0 0 0 0.545833 0 0 0 1 0" />
      <feBlend mode="normal" in2="shape" result="effect1_innerShadow_122_3823" />
      <feColorMatrix in="SourceAlpha" type="matrix"
        values="0 0 0 0 0 0 0 0 0 0 0 0 0 0 0 0 0 0 127 0" result="hardAlpha" />
      <feOffset dy="-39.5564" />
      <feComposite in2="hardAlpha" operator="arithmetic" k2="-1" k3="1" />
      <feColorMatrix type="matrix"
        values="0 0 0 0 0.917647 0 0 0 0 0.423529 0 0 0 0 0.0196078 0 0 0 0.3 0" />
      <feBlend mode="normal" in2="effect1_innerShadow_122_3823"
        result="effect2_innerShadow_122_3823" />
    </filter>
    <filter id="filter1_i_122_3823" x="48.0312" y="23.3867" width="57.8555" height="63.0806"
      filterUnits="userSpaceOnUse" color-interpolation-filters="sRGB">
      <feFlood flood-opacity="0" result="BackgroundImageFix" />
      <feBlend mode="normal" in="SourceGraphic" in2="BackgroundImageFix" result="shape" />
      <feColorMatrix in="SourceAlpha" type="matrix"
        values="0 0 0 0 0 0 0 0 0 0 0 0 0 0 0 0 0 0 127 0" result="hardAlpha" />
      <feOffset dy="5.18158" />
      <feComposite in2="hardAlpha" operator="arithmetic" k2="-1" k3="1" />
      <feColorMatrix type="matrix"
        values="0 0 0 0 0.6875 0 0 0 0 0.350296 0 0 0 0 0.0716146 0 0 0 1 0" />
      <feBlend mode="normal" in2="shape" result="effect1_innerShadow_122_3823" />
    </filter>
    <filter id="filter2_i_122_3823" x="118.826" y="2.80811" width="36.0137" height="72.5913"
      filterUnits="userSpaceOnUse" color-interpolation-filters="sRGB">
      <feFlood flood-opacity="0" result="BackgroundImageFix" />
      <feBlend mode="normal" in="SourceGraphic" in2="BackgroundImageFix" result="shape" />
      <feColorMatrix in="SourceAlpha" type="matrix"
        values="0 0 0 0 0 0 0 0 0 0 0 0 0 0 0 0 0 0 127 0" result="hardAlpha" />
      <feOffset dy="7.25421" />
      <feComposite in2="hardAlpha" operator="arithmetic" k2="-1" k3="1" />
      <feColorMatrix type="matrix" values="0 0 0 0 0.898039 0 0 0 0 0.929412 0 0 0 0 1 0 0 0 1 0" />
      <feBlend mode="normal" in2="shape" result="effect1_innerShadow_122_3823" />
    </filter>
    <filter id="filter3_i_122_3823" x="118.826" y="67.6748" width="21.2051" height="21.7378"
      filterUnits="userSpaceOnUse" color-interpolation-filters="sRGB">
      <feFlood flood-opacity="0" result="BackgroundImageFix" />
      <feBlend mode="normal" in="SourceGraphic" in2="BackgroundImageFix" result="shape" />
      <feColorMatrix in="SourceAlpha" type="matrix"
        values="0 0 0 0 0 0 0 0 0 0 0 0 0 0 0 0 0 0 127 0" result="hardAlpha" />
      <feOffset dy="7.25421" />
      <feComposite in2="hardAlpha" operator="arithmetic" k2="-1" k3="1" />
      <feColorMatrix type="matrix" values="0 0 0 0 0.898039 0 0 0 0 0.929412 0 0 0 0 1 0 0 0 1 0" />
      <feBlend mode="normal" in2="shape" result="effect1_innerShadow_122_3823" />
    </filter>
    <filter id="filter4_i_122_3823" x="122.453" y="6.44238" width="28.7598" height="76.3457"
      filterUnits="userSpaceOnUse" color-interpolation-filters="sRGB">
      <feFlood flood-opacity="0" result="BackgroundImageFix" />
      <feBlend mode="normal" in="SourceGraphic" in2="BackgroundImageFix" result="shape" />
      <feColorMatrix in="SourceAlpha" type="matrix"
        values="0 0 0 0 0 0 0 0 0 0 0 0 0 0 0 0 0 0 127 0" result="hardAlpha" />
      <feOffset dy="5.95881" />
      <feComposite in2="hardAlpha" operator="arithmetic" k2="-1" k3="1" />
      <feColorMatrix type="matrix" values="0 0 0 0 1 0 0 0 0 0.901961 0 0 0 0 0.545098 0 0 0 1 0" />
      <feBlend mode="normal" in2="shape" result="effect1_innerShadow_122_3823" />
    </filter>
    <filter id="filter5_i_122_3823" x="0.373047" y="0.365723" width="36.0137" height="72.5898"
      filterUnits="userSpaceOnUse" color-interpolation-filters="sRGB">
      <feFlood flood-opacity="0" result="BackgroundImageFix" />
      <feBlend mode="normal" in="SourceGraphic" in2="BackgroundImageFix" result="shape" />
      <feColorMatrix in="SourceAlpha" type="matrix"
        values="0 0 0 0 0 0 0 0 0 0 0 0 0 0 0 0 0 0 127 0" result="hardAlpha" />
      <feOffset dy="7.25421" />
      <feComposite in2="hardAlpha" operator="arithmetic" k2="-1" k3="1" />
      <feColorMatrix type="matrix" values="0 0 0 0 0.898039 0 0 0 0 0.929412 0 0 0 0 1 0 0 0 1 0" />
      <feBlend mode="normal" in2="shape" result="effect1_innerShadow_122_3823" />
    </filter>
    <filter id="filter6_i_122_3823" x="15.1797" y="65.2324" width="21.207" height="21.7373"
      filterUnits="userSpaceOnUse" color-interpolation-filters="sRGB">
      <feFlood flood-opacity="0" result="BackgroundImageFix" />
      <feBlend mode="normal" in="SourceGraphic" in2="BackgroundImageFix" result="shape" />
      <feColorMatrix in="SourceAlpha" type="matrix"
        values="0 0 0 0 0 0 0 0 0 0 0 0 0 0 0 0 0 0 127 0" result="hardAlpha" />
      <feOffset dy="7.25421" />
      <feComposite in2="hardAlpha" operator="arithmetic" k2="-1" k3="1" />
      <feColorMatrix type="matrix" values="0 0 0 0 0.898039 0 0 0 0 0.929412 0 0 0 0 1 0 0 0 1 0" />
      <feBlend mode="normal" in2="shape" result="effect1_innerShadow_122_3823" />
    </filter>
    <filter id="filter7_i_122_3823" x="4" y="4" width="28.7598" height="76.3457"
      filterUnits="userSpaceOnUse" color-interpolation-filters="sRGB">
      <feFlood flood-opacity="0" result="BackgroundImageFix" />
      <feBlend mode="normal" in="SourceGraphic" in2="BackgroundImageFix" result="shape" />
      <feColorMatrix in="SourceAlpha" type="matrix"
        values="0 0 0 0 0 0 0 0 0 0 0 0 0 0 0 0 0 0 127 0" result="hardAlpha" />
      <feOffset dy="5.95881" />
      <feComposite in2="hardAlpha" operator="arithmetic" k2="-1" k3="1" />
      <feColorMatrix type="matrix" values="0 0 0 0 1 0 0 0 0 0.901961 0 0 0 0 0.545098 0 0 0 1 0" />
      <feBlend mode="normal" in2="shape" result="effect1_innerShadow_122_3823" />
    </filter>
    <linearGradient id="paint0_linear_122_3823" x1="-6.92639" y1="-60.5048" x2="79.8214"
      y2="119.744" gradientUnits="userSpaceOnUse">
      <stop stop-color="#FFF00C" />
      <stop offset="1" stop-color="#FFA913" />
    </linearGradient>
  </defs>
</svg>
  