<svg width="141" height="113" viewBox="0 0 141 113" fill="none" xmlns="http://www.w3.org/2000/svg">
  <g filter="url(#filter0_d_122_3790)">
    <path
      d="M103.65 20.0357L78.0325 5.34837C73.4123 2.6995 67.7361 2.69045 63.1075 5.32458L37.295 20.0145C32.5807 22.6974 29.6755 27.7102 29.6913 33.1344L29.7913 67.5406C29.8064 72.7518 32.517 77.584 36.9562 80.3135L62.6917 96.1373C67.525 99.1092 73.6192 99.1092 78.4526 96.1373L104.147 80.3385C108.613 77.5927 111.328 72.7204 111.312 67.4782L111.212 33.0444C111.197 27.6686 108.314 22.7096 103.65 20.0357Z"
      fill="#7184B2" stroke="#445377" stroke-width="5.08178" />
    <g filter="url(#filter1_ii_122_3790)">
      <path
        d="M64.3623 7.5178C68.1165 5.34208 72.748 5.34209 76.5022 7.51781L101.281 21.8782C105.017 24.0433 107.317 28.0342 107.317 32.352V61.1524C107.317 65.4702 105.017 69.4611 101.281 71.6261L76.5022 85.9866C72.748 88.1623 68.1165 88.1623 64.3623 85.9866L39.5834 71.6261C35.8476 69.4611 33.5478 65.4702 33.5478 61.1524V32.352C33.5478 28.0342 35.8476 24.0433 39.5834 21.8782L64.3623 7.5178Z"
        fill="#4E47A1" />
      <path
        d="M64.3623 7.5178C68.1165 5.34208 72.748 5.34209 76.5022 7.51781L101.281 21.8782C105.017 24.0433 107.317 28.0342 107.317 32.352V61.1524C107.317 65.4702 105.017 69.4611 101.281 71.6261L76.5022 85.9866C72.748 88.1623 68.1165 88.1623 64.3623 85.9866L39.5834 71.6261C35.8476 69.4611 33.5478 65.4702 33.5478 61.1524V32.352C33.5478 28.0342 35.8476 24.0433 39.5834 21.8782L64.3623 7.5178Z"
        fill="url(#paint0_linear_122_3790)" />
    </g>
    <g filter="url(#filter2_i_122_3790)">
      <path
        d="M64.4982 21.4946C68.2524 19.3189 72.884 19.3189 76.6382 21.4946L90.8956 29.7574C94.6313 31.9224 96.9311 35.9133 96.9311 40.2311V56.8362C96.9311 61.154 94.6313 65.1449 90.8956 67.3099L76.6382 75.5727C72.884 77.7484 68.2524 77.7484 64.4982 75.5727L50.2408 67.3099C46.5051 65.1449 44.2053 61.154 44.2053 56.8362V40.2311C44.2053 35.9133 46.5051 31.9224 50.2408 29.7574L64.4982 21.4946Z"
        fill="#8695BC" />
    </g>
    <ellipse cx="4.96121" cy="2.5822" rx="4.96121" ry="2.5822"
      transform="matrix(0.868176 -0.496256 0.493423 0.869789 59.2383 13.4463)" fill="white" />
    <g filter="url(#filter3_i_122_3790)">
      <path fill-rule="evenodd" clip-rule="evenodd"
        d="M112.197 26.7244L132.986 7.60698C133.765 6.89067 135 7.46046 135 8.53632V23.9883C135 24.0218 135 24.0553 134.999 24.0888V28.0986C134.999 32.7205 132.361 36.9098 128.265 38.792L113.494 45.579C112.694 45.9464 111.793 45.3434 111.793 44.4414V31.764C111.793 31.7529 111.793 31.7418 111.793 31.7307V27.6537C111.793 27.2988 111.94 26.9607 112.197 26.7244ZM112.501 47.9583L126.401 41.4336C127.201 41.0579 128.11 41.6608 128.11 42.5671V49.1146C128.11 49.1426 128.11 49.1706 128.11 49.1986V53.2249C128.11 57.462 124.893 60.9588 120.788 61.1851L113.066 61.6107C112.374 61.6488 111.793 61.081 111.793 60.3669V53.2021C111.793 53.1909 111.793 53.1798 111.793 53.1687V49.0918C111.793 48.6037 112.07 48.1606 112.501 47.9583Z"
        fill="#CAD5F0" />
    </g>
    <path
      d="M132.986 7.60698L129.547 3.86638L129.547 3.86638L132.986 7.60698ZM112.197 26.7244L115.637 30.465L115.637 30.465L112.197 26.7244ZM134.999 24.0888L129.918 24.0468L129.918 24.0678V24.0888H134.999ZM128.265 38.792L126.143 34.1744L126.143 34.1744L128.265 38.792ZM113.494 45.579L115.616 50.1967L115.616 50.1967L113.494 45.579ZM111.793 31.7307L116.873 31.8624L116.875 31.7965V31.7307H111.793ZM126.401 41.4336L124.241 36.8334L124.241 36.8334L126.401 41.4336ZM112.501 47.9583L110.342 43.3581L110.342 43.3581L112.501 47.9583ZM128.11 49.1986L123.028 49.1476L123.028 49.1731V49.1986H128.11ZM120.788 61.1851L120.508 56.111L120.508 56.111L120.788 61.1851ZM113.066 61.6107L112.786 56.5366L112.786 56.5366L113.066 61.6107ZM111.793 53.1687L116.873 53.3002L116.875 53.2344V53.1687H111.793ZM129.547 3.86638L108.758 22.9837L115.637 30.465L136.426 11.3476L129.547 3.86638ZM140.082 8.53632C140.082 3.35329 133.815 -0.0592598 129.547 3.86638L136.426 11.3476C133.715 13.8406 129.918 11.5676 129.918 8.53632H140.082ZM140.082 23.9883V8.53632H129.918V23.9883H140.082ZM140.081 24.1308C140.081 24.0834 140.082 24.0359 140.082 23.9883H129.918C129.918 24.0077 129.918 24.0272 129.918 24.0468L140.081 24.1308ZM140.081 28.0986V24.0888H129.918V28.0986H140.081ZM130.386 43.4096C136.345 40.6719 140.081 34.641 140.081 28.0986H129.918C129.918 30.8 128.377 33.1478 126.143 34.1744L130.386 43.4096ZM115.616 50.1967L130.386 43.4096L126.143 34.1744L111.372 40.9614L115.616 50.1967ZM106.711 44.4414C106.711 48.8025 111.229 52.2122 115.616 50.1967L111.372 40.9614C114.16 39.6805 116.875 41.8843 116.875 44.4414H106.711ZM106.711 31.764V44.4414H116.875V31.764H106.711ZM106.713 31.599C106.712 31.6539 106.711 31.7089 106.711 31.764H116.875C116.875 31.7968 116.874 31.8296 116.873 31.8624L106.713 31.599ZM106.712 27.6537V31.7307H116.875V27.6537H106.712ZM108.758 22.9837C107.434 24.2005 106.712 25.904 106.712 27.6537H116.875C116.875 28.6935 116.446 29.7209 115.637 30.465L108.758 22.9837ZM124.241 36.8334L110.342 43.3581L114.66 52.5584L128.56 46.0338L124.241 36.8334ZM133.192 42.5671C133.192 38.1856 128.633 34.7718 124.241 36.8334L128.56 46.0338C125.769 47.344 123.029 45.1359 123.029 42.5671H133.192ZM133.192 49.1146V42.5671H123.029V49.1146H133.192ZM133.191 49.2495C133.192 49.2047 133.192 49.1597 133.192 49.1146H123.029C123.029 49.1256 123.029 49.1366 123.028 49.1476L133.191 49.2495ZM133.192 53.2249V49.1986H123.028V53.2249H133.192ZM121.067 66.2592C127.998 65.8771 133.192 60.0266 133.192 53.2249H123.028C123.028 54.8974 121.789 56.0404 120.508 56.111L121.067 66.2592ZM113.346 66.6848L121.067 66.2592L120.508 56.111L112.786 56.5366L113.346 66.6848ZM106.711 60.3669C106.711 63.8402 109.587 66.892 113.346 66.6848L112.786 56.5366C115.161 56.4057 116.875 58.3217 116.875 60.3669H106.711ZM106.711 53.2021V60.3669H116.875V53.2021H106.711ZM106.713 53.0373C106.712 53.0921 106.711 53.1471 106.711 53.2021H116.875C116.875 53.2348 116.874 53.2675 116.873 53.3002L106.713 53.0373ZM106.712 49.0918V53.1687H116.875V49.0918H106.712ZM110.342 43.3581C108.07 44.4243 106.712 46.697 106.712 49.0918H116.875C116.875 50.5104 116.07 51.8969 114.66 52.5584L110.342 43.3581Z"
      fill="#445377" />
    <g filter="url(#filter4_i_122_3790)">
      <path
        d="M132.986 11.7183L112.197 30.8357C111.94 31.072 111.793 31.4101 111.793 31.765V44.4424C111.793 45.3445 112.694 45.9474 113.494 45.58L128.265 38.793C132.361 36.9108 134.999 32.7215 134.999 28.0996V12.6477C134.999 11.5718 133.765 11.002 132.986 11.7183Z"
        fill="#7184B2" />
      <path
        d="M126.4 45.5449L112.501 52.0696C112.07 52.2719 111.793 52.715 111.793 53.2031V60.368C111.793 61.082 112.374 61.6499 113.066 61.6117L120.788 61.1861C124.893 60.9598 128.11 57.463 128.11 53.2259V46.6784C128.11 45.7721 127.201 45.1692 126.4 45.5449Z"
        fill="#7184B2" />
      <path
        d="M132.986 11.7183L112.197 30.8357C111.94 31.072 111.793 31.4101 111.793 31.765V44.4424C111.793 45.3445 112.694 45.9474 113.494 45.58L128.265 38.793C132.361 36.9108 134.999 32.7215 134.999 28.0996V12.6477C134.999 11.5718 133.765 11.002 132.986 11.7183Z"
        stroke="black" />
      <path
        d="M126.4 45.5449L112.501 52.0696C112.07 52.2719 111.793 52.715 111.793 53.2031V60.368C111.793 61.082 112.374 61.6499 113.066 61.6117L120.788 61.1861C124.893 60.9598 128.11 57.463 128.11 53.2259V46.6784C128.11 45.7721 127.201 45.1692 126.4 45.5449Z"
        stroke="black" />
    </g>
    <g filter="url(#filter5_i_122_3790)">
      <path
        d="M132.986 7.60698L112.197 26.7244C111.94 26.9607 111.793 27.2988 111.793 27.6537V40.3311C111.793 41.2331 112.694 41.836 113.494 41.4687L128.265 34.6817C132.361 32.7995 134.999 28.6102 134.999 23.9883V8.53632C134.999 7.46046 133.765 6.89067 132.986 7.60698Z"
        fill="#CAD5F0" />
      <path
        d="M126.4 41.4336L112.501 47.9583C112.07 48.1606 111.793 48.6037 111.793 49.0918V56.2566C111.793 56.9707 112.374 57.5385 113.066 57.5004L120.788 57.0748C124.893 56.8484 128.11 53.3517 128.11 49.1146V42.5671C128.11 41.6608 127.201 41.0579 126.4 41.4336Z"
        fill="#CAD5F0" />
      <path
        d="M132.986 7.60698L112.197 26.7244C111.94 26.9607 111.793 27.2988 111.793 27.6537V40.3311C111.793 41.2331 112.694 41.836 113.494 41.4687L128.265 34.6817C132.361 32.7995 134.999 28.6102 134.999 23.9883V8.53632C134.999 7.46046 133.765 6.89067 132.986 7.60698Z"
        stroke="black" />
      <path
        d="M126.4 41.4336L112.501 47.9583C112.07 48.1606 111.793 48.6037 111.793 49.0918V56.2566C111.793 56.9707 112.374 57.5385 113.066 57.5004L120.788 57.0748C124.893 56.8484 128.11 53.3517 128.11 49.1146V42.5671C128.11 41.6608 127.201 41.0579 126.4 41.4336Z"
        stroke="black" />
    </g>
    <g filter="url(#filter6_i_122_3790)">
      <path fill-rule="evenodd" clip-rule="evenodd"
        d="M28.8031 26.4512L8.01409 7.33379C7.23514 6.61747 6.00069 7.18727 6.00069 8.26313V12.3619C6.00066 12.3658 6.00065 12.3696 6.00065 12.3735V27.8255C6.00065 32.4473 8.63909 36.6367 12.7353 38.5189L27.5061 45.3059C28.3055 45.6732 29.207 45.0703 29.207 44.1683V40.0694C29.207 40.0656 29.207 40.0618 29.207 40.0579V27.3805C29.207 27.0256 29.0601 26.6875 28.8031 26.4512ZM28.4994 47.6851L14.5998 41.1604C13.7994 40.7847 12.8901 41.3876 12.8901 42.2939V46.3929C12.89 46.3967 12.89 46.4005 12.89 46.4042V52.9518C12.89 57.1889 16.1065 60.6856 20.2123 60.9119L27.9338 61.3376C28.6257 61.3757 29.207 60.8078 29.207 60.0938V55.9947C29.207 55.991 29.207 55.9872 29.207 55.9834V48.8186C29.207 48.3305 28.9304 47.8874 28.4994 47.6851Z"
        fill="#CAD5F0" />
    </g>
    <path
      d="M8.01409 7.33379L4.57427 11.0744L4.57427 11.0744L8.01409 7.33379ZM28.8031 26.4512L25.3633 30.1918L25.3633 30.1918L28.8031 26.4512ZM6.00069 12.3619H11.0825V12.3833L11.0823 12.4047L6.00069 12.3619ZM12.7353 38.5189L14.8571 33.9012L14.8571 33.9012L12.7353 38.5189ZM27.5061 45.3059L25.3844 49.9235L25.3843 49.9235L27.5061 45.3059ZM29.207 40.0694H24.1252V40.0478L24.1254 40.0263L29.207 40.0694ZM14.5998 41.1604L16.7591 36.5602L16.7592 36.5602L14.5998 41.1604ZM28.4994 47.6851L30.6588 43.0849L30.6588 43.0849L28.4994 47.6851ZM12.8901 46.3929H17.9719V46.4147L17.9717 46.4365L12.8901 46.3929ZM20.2123 60.9119L19.9326 65.986L19.9326 65.986L20.2123 60.9119ZM27.9338 61.3376L28.2135 56.2635L28.2135 56.2635L27.9338 61.3376ZM29.207 55.9947H24.1252V55.9729L24.1254 55.951L29.207 55.9947ZM11.4539 3.59318L32.2429 22.7106L25.3633 30.1918L4.57427 11.0744L11.4539 3.59318ZM0.91891 8.26313C0.91891 3.08011 7.18502 -0.33246 11.4539 3.59319L4.57427 11.0744C7.28527 13.5674 11.0825 11.2944 11.0825 8.26313H0.91891ZM0.91891 12.3619V8.26313H11.0825V12.3619H0.91891ZM0.918862 12.3735C0.918862 12.3563 0.91893 12.3381 0.91909 12.3191L11.0823 12.4047C11.0824 12.3934 11.0824 12.383 11.0824 12.3735H0.918862ZM0.918862 27.8255V12.3735H11.0824V27.8255H0.918862ZM10.6136 43.1365C4.65527 40.3987 0.918862 34.3678 0.918862 27.8255H11.0824C11.0824 30.5268 12.6229 32.8746 14.8571 33.9012L10.6136 43.1365ZM25.3843 49.9235L10.6136 43.1365L14.8571 33.9012L29.6279 40.6882L25.3843 49.9235ZM34.2888 44.1683C34.2888 48.5294 29.7709 51.9391 25.3844 49.9235L29.6279 40.6882C26.8401 39.4073 24.1252 41.6112 24.1252 44.1683H34.2888ZM34.2888 40.0694V44.1683H24.1252V40.0694H34.2888ZM34.2888 40.0579C34.2888 40.0761 34.2887 40.0943 34.2886 40.1125L24.1254 40.0263C24.1253 40.0368 24.1252 40.0474 24.1252 40.0579H34.2888ZM34.2888 27.3805V40.0579H24.1252V27.3805H34.2888ZM32.2429 22.7106C33.566 23.9273 34.2888 25.6308 34.2888 27.3805H24.1252C24.1252 28.4203 24.5542 29.4477 25.3633 30.1918L32.2429 22.7106ZM16.7592 36.5602L30.6588 43.0849L26.34 52.2853L12.4404 45.7606L16.7592 36.5602ZM7.80829 42.2939C7.80829 37.9124 12.3672 34.4986 16.7591 36.5602L12.4404 45.7606C15.2316 47.0708 17.9719 44.8627 17.9719 42.2939H7.80829ZM7.80829 46.3929V42.2939H17.9719V46.3929H7.80829ZM7.80824 46.4042C7.80824 46.3868 7.80831 46.3685 7.80848 46.3493L17.9717 46.4365C17.9718 46.4248 17.9718 46.4141 17.9718 46.4042H7.80824ZM7.80824 52.9518V46.4042H17.9718V52.9518H7.80824ZM19.9326 65.986C13.0019 65.604 7.80824 59.7535 7.80824 52.9518H17.9718C17.9718 54.6243 19.2112 55.7672 20.492 55.8378L19.9326 65.986ZM27.6541 66.4116L19.9326 65.986L20.492 55.8378L28.2135 56.2635L27.6541 66.4116ZM34.2888 60.0938C34.2888 63.5671 31.4127 66.6188 27.654 66.4116L28.2135 56.2635C25.8386 56.1326 24.1252 58.0486 24.1252 60.0938H34.2888ZM34.2888 55.9947V60.0938H24.1252V55.9947H34.2888ZM34.2888 55.9834C34.2888 56.0018 34.2887 56.0201 34.2886 56.0384L24.1254 55.951C24.1253 55.9618 24.1252 55.9726 24.1252 55.9834H34.2888ZM34.2888 48.8186V55.9834H24.1252V48.8186H34.2888ZM30.6588 43.0849C32.9301 44.1511 34.2888 46.4238 34.2888 48.8186H24.1252C24.1252 50.2372 24.9307 51.6237 26.34 52.2852L30.6588 43.0849Z"
      fill="#445377" />
    <g filter="url(#filter7_i_122_3790)">
      <path
        d="M8.01409 11.4441L28.8031 30.5615C29.0601 30.7978 29.207 31.1359 29.207 31.4909V44.1683C29.207 45.0703 28.3056 45.6732 27.5062 45.3059L12.7354 38.5188C8.63914 36.6367 6.00069 32.4473 6.00069 27.8255V12.3735C6.00069 11.2976 7.23514 10.7278 8.01409 11.4441Z"
        fill="#7184B2" />
      <path
        d="M14.5998 45.2707L28.4994 51.7954C28.9304 51.9978 29.207 52.4409 29.207 52.9289V60.0938C29.207 60.8078 28.6257 61.3757 27.9338 61.3376L20.2123 60.9119C16.1066 60.6856 12.8901 57.1889 12.8901 52.9518V46.4042C12.8901 45.4979 13.7994 44.8951 14.5998 45.2707Z"
        fill="#7184B2" />
      <path
        d="M8.01409 11.4441L28.8031 30.5615C29.0601 30.7978 29.207 31.1359 29.207 31.4909V44.1683C29.207 45.0703 28.3056 45.6732 27.5062 45.3059L12.7354 38.5188C8.63914 36.6367 6.00069 32.4473 6.00069 27.8255V12.3735C6.00069 11.2976 7.23514 10.7278 8.01409 11.4441Z"
        stroke="black" />
      <path
        d="M14.5998 45.2707L28.4994 51.7954C28.9304 51.9978 29.207 52.4409 29.207 52.9289V60.0938C29.207 60.8078 28.6257 61.3757 27.9338 61.3376L20.2123 60.9119C16.1066 60.6856 12.8901 57.1889 12.8901 52.9518V46.4042C12.8901 45.4979 13.7994 44.8951 14.5998 45.2707Z"
        stroke="black" />
    </g>
    <g filter="url(#filter8_i_122_3790)">
      <path
        d="M8.01409 7.33379L28.8031 26.4512C29.0601 26.6875 29.207 27.0256 29.207 27.3805V40.0579C29.207 40.9599 28.3056 41.5629 27.5062 41.1955L12.7354 34.4085C8.63914 32.5263 6.00069 28.337 6.00069 23.7151V8.26313C6.00069 7.18727 7.23514 6.61747 8.01409 7.33379Z"
        fill="#CAD5F0" />
      <path
        d="M14.5998 41.1604L28.4994 47.6851C28.9304 47.8874 29.207 48.3305 29.207 48.8186V55.9834C29.207 56.6975 28.6257 57.2653 27.9338 57.2272L20.2123 56.8016C16.1066 56.5753 12.8901 53.0785 12.8901 48.8414V42.2939C12.8901 41.3876 13.7994 40.7847 14.5998 41.1604Z"
        fill="#CAD5F0" />
      <path
        d="M8.01409 7.33379L28.8031 26.4512C29.0601 26.6875 29.207 27.0256 29.207 27.3805V40.0579C29.207 40.9599 28.3056 41.5629 27.5062 41.1955L12.7354 34.4085C8.63914 32.5263 6.00069 28.337 6.00069 23.7151V8.26313C6.00069 7.18727 7.23514 6.61747 8.01409 7.33379Z"
        stroke="black" />
      <path
        d="M14.5998 41.1604L28.4994 47.6851C28.9304 47.8874 29.207 48.3305 29.207 48.8186V55.9834C29.207 56.6975 28.6257 57.2653 27.9338 57.2272L20.2123 56.8016C16.1066 56.5753 12.8901 53.0785 12.8901 48.8414V42.2939C12.8901 41.3876 13.7994 40.7847 14.5998 41.1604Z"
        stroke="black" />
    </g>
  </g>
  <defs>
    <filter id="filter0_d_122_3790" x="0.917969" y="0.814453" width="139.164" height="111.386"
      filterUnits="userSpaceOnUse" color-interpolation-filters="sRGB">
      <feFlood flood-opacity="0" result="BackgroundImageFix" />
      <feColorMatrix in="SourceAlpha" type="matrix"
        values="0 0 0 0 0 0 0 0 0 0 0 0 0 0 0 0 0 0 127 0" result="hardAlpha" />
      <feOffset dy="11.2929" />
      <feComposite in2="hardAlpha" operator="out" />
      <feColorMatrix type="matrix" values="0 0 0 0 0 0 0 0 0 0 0 0 0 0 0 0 0 0 0.25 0" />
      <feBlend mode="normal" in2="BackgroundImageFix" result="effect1_dropShadow_122_3790" />
      <feBlend mode="normal" in="SourceGraphic" in2="effect1_dropShadow_122_3790" result="shape" />
    </filter>
    <filter id="filter1_ii_122_3790" x="33.5469" y="5.88599" width="73.7695" height="81.7324"
      filterUnits="userSpaceOnUse" color-interpolation-filters="sRGB">
      <feFlood flood-opacity="0" result="BackgroundImageFix" />
      <feBlend mode="normal" in="SourceGraphic" in2="BackgroundImageFix" result="shape" />
      <feColorMatrix in="SourceAlpha" type="matrix"
        values="0 0 0 0 0 0 0 0 0 0 0 0 0 0 0 0 0 0 127 0" result="hardAlpha" />
      <feOffset dy="10.3761" />
      <feComposite in2="hardAlpha" operator="arithmetic" k2="-1" k3="1" />
      <feColorMatrix type="matrix" values="0 0 0 0 0.9 0 0 0 0 0.929032 0 0 0 0 1 0 0 0 1 0" />
      <feBlend mode="normal" in2="shape" result="effect1_innerShadow_122_3790" />
      <feColorMatrix in="SourceAlpha" type="matrix"
        values="0 0 0 0 0 0 0 0 0 0 0 0 0 0 0 0 0 0 127 0" result="hardAlpha" />
      <feOffset dy="-39.7752" />
      <feComposite in2="hardAlpha" operator="arithmetic" k2="-1" k3="1" />
      <feColorMatrix type="matrix"
        values="0 0 0 0 0.564706 0 0 0 0 0.627451 0 0 0 0 0.780392 0 0 0 0.5 0" />
      <feBlend mode="normal" in2="effect1_innerShadow_122_3790"
        result="effect2_innerShadow_122_3790" />
    </filter>
    <filter id="filter2_i_122_3790" x="44.2051" y="19.8628" width="52.7266" height="57.3418"
      filterUnits="userSpaceOnUse" color-interpolation-filters="sRGB">
      <feFlood flood-opacity="0" result="BackgroundImageFix" />
      <feBlend mode="normal" in="SourceGraphic" in2="BackgroundImageFix" result="shape" />
      <feColorMatrix in="SourceAlpha" type="matrix"
        values="0 0 0 0 0 0 0 0 0 0 0 0 0 0 0 0 0 0 127 0" result="hardAlpha" />
      <feOffset dy="5.21024" />
      <feComposite in2="hardAlpha" operator="arithmetic" k2="-1" k3="1" />
      <feColorMatrix type="matrix"
        values="0 0 0 0 0.443137 0 0 0 0 0.517647 0 0 0 0 0.698039 0 0 0 1 0" />
      <feBlend mode="normal" in2="shape" result="effect1_innerShadow_122_3790" />
    </filter>
    <filter id="filter3_i_122_3790" x="106.711" y="2.16431" width="33.3711" height="64.5305"
      filterUnits="userSpaceOnUse" color-interpolation-filters="sRGB">
      <feFlood flood-opacity="0" result="BackgroundImageFix" />
      <feBlend mode="normal" in="SourceGraphic" in2="BackgroundImageFix" result="shape" />
      <feColorMatrix in="SourceAlpha" type="matrix"
        values="0 0 0 0 0 0 0 0 0 0 0 0 0 0 0 0 0 0 127 0" result="hardAlpha" />
      <feOffset dy="7.29434" />
      <feComposite in2="hardAlpha" operator="arithmetic" k2="-1" k3="1" />
      <feColorMatrix type="matrix" values="0 0 0 0 0.898039 0 0 0 0 0.929412 0 0 0 0 1 0 0 0 1 0" />
      <feBlend mode="normal" in2="shape" result="effect1_innerShadow_122_3790" />
    </filter>
    <filter id="filter4_i_122_3790" x="111.793" y="11.3997" width="23.207" height="50.2139"
      filterUnits="userSpaceOnUse" color-interpolation-filters="sRGB">
      <feFlood flood-opacity="0" result="BackgroundImageFix" />
      <feBlend mode="normal" in="SourceGraphic" in2="BackgroundImageFix" result="shape" />
      <feColorMatrix in="SourceAlpha" type="matrix"
        values="0 0 0 0 0 0 0 0 0 0 0 0 0 0 0 0 0 0 127 0" result="hardAlpha" />
      <feOffset dy="7.29434" />
      <feComposite in2="hardAlpha" operator="arithmetic" k2="-1" k3="1" />
      <feColorMatrix type="matrix" values="0 0 0 0 0.898039 0 0 0 0 0.929412 0 0 0 0 1 0 0 0 1 0" />
      <feBlend mode="normal" in2="shape" result="effect1_innerShadow_122_3790" />
    </filter>
    <filter id="filter5_i_122_3790" x="111.793" y="7.28833" width="23.207" height="50.2139"
      filterUnits="userSpaceOnUse" color-interpolation-filters="sRGB">
      <feFlood flood-opacity="0" result="BackgroundImageFix" />
      <feBlend mode="normal" in="SourceGraphic" in2="BackgroundImageFix" result="shape" />
      <feColorMatrix in="SourceAlpha" type="matrix"
        values="0 0 0 0 0 0 0 0 0 0 0 0 0 0 0 0 0 0 127 0" result="hardAlpha" />
      <feOffset dy="7.29434" />
      <feComposite in2="hardAlpha" operator="arithmetic" k2="-1" k3="1" />
      <feColorMatrix type="matrix" values="0 0 0 0 0.898039 0 0 0 0 0.929412 0 0 0 0 1 0 0 0 1 0" />
      <feBlend mode="normal" in2="shape" result="effect1_innerShadow_122_3790" />
    </filter>
    <filter id="filter6_i_122_3790" x="0.917969" y="1.89111" width="33.3711" height="64.5305"
      filterUnits="userSpaceOnUse" color-interpolation-filters="sRGB">
      <feFlood flood-opacity="0" result="BackgroundImageFix" />
      <feBlend mode="normal" in="SourceGraphic" in2="BackgroundImageFix" result="shape" />
      <feColorMatrix in="SourceAlpha" type="matrix"
        values="0 0 0 0 0 0 0 0 0 0 0 0 0 0 0 0 0 0 127 0" result="hardAlpha" />
      <feOffset dy="7.29434" />
      <feComposite in2="hardAlpha" operator="arithmetic" k2="-1" k3="1" />
      <feColorMatrix type="matrix" values="0 0 0 0 0.898039 0 0 0 0 0.929412 0 0 0 0 1 0 0 0 1 0" />
      <feBlend mode="normal" in2="shape" result="effect1_innerShadow_122_3790" />
    </filter>
    <filter id="filter7_i_122_3790" x="6" y="11.1255" width="23.207" height="50.2139"
      filterUnits="userSpaceOnUse" color-interpolation-filters="sRGB">
      <feFlood flood-opacity="0" result="BackgroundImageFix" />
      <feBlend mode="normal" in="SourceGraphic" in2="BackgroundImageFix" result="shape" />
      <feColorMatrix in="SourceAlpha" type="matrix"
        values="0 0 0 0 0 0 0 0 0 0 0 0 0 0 0 0 0 0 127 0" result="hardAlpha" />
      <feOffset dy="7.29434" />
      <feComposite in2="hardAlpha" operator="arithmetic" k2="-1" k3="1" />
      <feColorMatrix type="matrix" values="0 0 0 0 0.898039 0 0 0 0 0.929412 0 0 0 0 1 0 0 0 1 0" />
      <feBlend mode="normal" in2="shape" result="effect1_innerShadow_122_3790" />
    </filter>
    <filter id="filter8_i_122_3790" x="6" y="7.01514" width="23.207" height="50.2139"
      filterUnits="userSpaceOnUse" color-interpolation-filters="sRGB">
      <feFlood flood-opacity="0" result="BackgroundImageFix" />
      <feBlend mode="normal" in="SourceGraphic" in2="BackgroundImageFix" result="shape" />
      <feColorMatrix in="SourceAlpha" type="matrix"
        values="0 0 0 0 0 0 0 0 0 0 0 0 0 0 0 0 0 0 127 0" result="hardAlpha" />
      <feOffset dy="7.29434" />
      <feComposite in2="hardAlpha" operator="arithmetic" k2="-1" k3="1" />
      <feColorMatrix type="matrix" values="0 0 0 0 0.898039 0 0 0 0 0.929412 0 0 0 0 1 0 0 0 1 0" />
      <feBlend mode="normal" in2="shape" result="effect1_innerShadow_122_3790" />
    </filter>
    <linearGradient id="paint0_linear_122_3790" x1="61.6957" y1="-20.8018" x2="77.9411" y2="188.047"
      gradientUnits="userSpaceOnUse">
      <stop stop-color="#E0E9FF" />
      <stop offset="1" stop-color="#90A0C7" />
    </linearGradient>
  </defs>
</svg>
  